<?xml version="1.0" encoding="UTF-8" standalone="no"?>
<svg
   xmlns:dc="http://purl.org/dc/elements/1.1/"
   xmlns:cc="http://creativecommons.org/ns#"
   xmlns:rdf="http://www.w3.org/1999/02/22-rdf-syntax-ns#"
   xmlns:svg="http://www.w3.org/2000/svg"
   xmlns="http://www.w3.org/2000/svg"
   xmlns:sodipodi="http://sodipodi.sourceforge.net/DTD/sodipodi-0.dtd"
   xmlns:inkscape="http://www.inkscape.org/namespaces/inkscape"
   width="150mm"
   height="150mm"
   viewBox="0 0 150 150"
   version="1.1"
   id="svg8"
   inkscape:version="1.0.2 (e86c870879, 2021-01-15, custom)"
   sodipodi:docname="201016 learnmode.svg">
  <defs
     id="defs2" />
  <sodipodi:namedview
     id="base"
     pagecolor="#ffffff"
     bordercolor="#666666"
     borderopacity="1.0"
     inkscape:pageopacity="0.0"
     inkscape:pageshadow="2"
     inkscape:zoom="0.7"
     inkscape:cx="498.272"
     inkscape:cy="339.56097"
     inkscape:document-units="mm"
     inkscape:current-layer="layer1"
     inkscape:document-rotation="0"
     showgrid="false"
     inkscape:window-width="1368"
     inkscape:window-height="850"
     inkscape:window-x="-6"
     inkscape:window-y="-6"
     inkscape:window-maximized="1" />
  <metadata
     id="metadata5">
    <rdf:RDF>
      <cc:Work
         rdf:about="">
        <dc:format>image/svg+xml</dc:format>
        <dc:type
           rdf:resource="http://purl.org/dc/dcmitype/StillImage" />
        <dc:title></dc:title>
      </cc:Work>
    </rdf:RDF>
  </metadata>
  <g
     inkscape:label="Ebene 1"
     inkscape:groupmode="layer"
     id="layer1">
    <path
       style="fill:#000000;stroke-width:0.347486"
       d="m 34.013659,137.73093 -9.295266,0.0926 v -9.38782 -9.3878 h 9.387812 9.387815 l -0.09255,9.29526 -0.09254,9.29527 z m 0.260615,-0.96126 h 8.513419 v -8.33969 -8.33967 h -8.513419 -8.513421 v 8.33967 8.33969 z m -0.486211,-1.39759 c -0.688172,-0.005 -1.876697,-0.29722 -2.641168,-0.65114 -0.764471,-0.35395 -1.798684,-1.09326 -2.298255,-1.64294 -0.499568,-0.54967 -1.085951,-1.53094 -1.303076,-2.1806 -0.217119,-0.64964 -0.382866,-1.74422 -0.368328,-2.43239 0.01453,-0.68818 0.210001,-1.73108 0.434358,-2.31758 0.224359,-0.58647 0.744922,-1.48784 1.156808,-2.003 0.411885,-0.51517 1.428284,-1.23377 2.258663,-1.5969 0.830377,-0.36312 1.900698,-0.6996 2.378492,-0.74774 0.477794,-0.0482 1.572377,0.10879 2.432406,0.34878 0.860029,0.23996 1.934228,0.77415 2.387111,1.18707 0.452882,0.41292 1.195635,1.33405 1.650562,2.04693 0.615668,0.9648 0.827139,1.78833 0.827139,3.22116 0,1.43284 -0.211471,2.25637 -0.827139,3.22115 -0.454927,0.71289 -1.19768,1.62633 -1.650562,2.02989 -0.452883,0.40353 -1.354954,0.91173 -2.004604,1.12933 -0.649654,0.21758 -1.744238,0.39218 -2.432407,0.38798 z m -1.013688,-0.69818 c 0.378616,0.007 0.623812,-0.31684 0.694974,-0.91795 0.06048,-0.51083 0.305413,-0.99297 0.54431,-1.07141 0.284411,-0.0934 0.434358,0.22724 0.434358,0.92878 0,0.8108 0.156368,1.07142 0.642836,1.07142 0.353561,0 1.286134,-0.466 2.072388,-1.03556 0.786255,-0.56956 1.676895,-1.41305 1.979198,-1.87441 0.302302,-0.46138 0.639719,-1.39396 0.749816,-2.0724 0.110099,-0.67846 0.09524,-1.79292 -0.03301,-2.47659 -0.128258,-0.68368 -0.717804,-1.79499 -1.310101,-2.46958 -0.592294,-0.67459 -1.515031,-1.45309 -2.050522,-1.73 -0.535504,-0.27692 -1.215953,-0.50348 -1.512119,-0.50348 -0.369895,0 -0.538486,0.33543 -0.538486,1.07142 0,0.70153 -0.149946,1.02218 -0.434358,0.92878 -0.238896,-0.0785 -0.483836,-0.56058 -0.544309,-1.07141 -0.0662,-0.55921 -0.323913,-0.92879 -0.647664,-0.92879 -0.295738,0 -1.148387,0.34322 -1.894775,0.76271 -0.763747,0.42924 -1.733953,1.40582 -2.2191,2.23366 -0.602708,1.02845 -0.858775,1.97503 -0.851193,3.14651 0.0074,1.13901 0.274247,2.10415 0.833395,3.01396 0.452403,0.73611 1.424831,1.70855 2.160946,2.16094 0.736118,0.45241 1.601655,0.82744 1.923416,0.8334 z m -2.428676,-4.15899 c -0.413259,0 -1.001154,-0.3887 -1.317019,-0.87078 -0.480968,-0.73403 -0.502886,-1.03411 -0.1396,-1.91116 0.329473,-0.79542 0.653821,-1.04042 1.377398,-1.04042 0.520545,0 1.205237,0.28596 1.521532,0.63546 0.316301,0.34952 0.575087,0.95076 0.575087,1.33609 0,0.38534 -0.285956,0.95942 -0.635462,1.27572 -0.349505,0.3163 -0.971374,0.57509 -1.381936,0.57509 z m 0.248012,-1.11799 c 0.304251,-0.0579 0.603243,-0.45624 0.664428,-0.88517 0.06982,-0.48942 -0.11066,-0.865 -0.484607,-1.0085 -0.376857,-0.14461 -0.766786,0.005 -1.060944,0.40742 -0.351594,0.48082 -0.368328,0.75263 -0.06858,1.11381 0.218086,0.26278 0.645449,0.43038 0.949702,0.37244 z m 6.718338,1.05108 c -0.401926,0.0601 -1.033143,-0.23482 -1.441957,-0.67362 -0.399906,-0.42927 -0.727102,-1.03948 -0.727102,-1.35605 0,-0.31658 0.285957,-0.8344 0.635462,-1.15069 0.349506,-0.31631 1.04956,-0.57509 1.55568,-0.57509 0.603608,0 1.120536,0.30574 1.502453,0.88861 0.551596,0.84184 0.545611,0.93786 -0.113725,1.82431 -0.382777,0.51463 -1.017646,0.98376 -1.410813,1.04253 z m 0.520285,-1.0446 c 0.240919,-0.19995 0.438034,-0.6404 0.438034,-0.97879 0,-0.33838 -0.254374,-0.71285 -0.565273,-0.83216 -0.3109,-0.1193 -0.780006,-0.0387 -1.04246,0.17912 -0.262453,0.21781 -0.477186,0.60366 -0.477186,0.85744 0,0.25379 0.271993,0.61363 0.604425,0.79966 0.399526,0.22361 0.752924,0.21503 1.04246,-0.0253 z m 54.993421,8.19125 c -0.86003,0.11297 -1.837335,0.0439 -2.171791,-0.15334 -0.334456,-0.19728 -0.608102,-0.58548 -0.608102,-0.86266 0,-0.27717 -0.18243,-0.50396 -0.405401,-0.50396 -0.222969,0 -0.314461,-0.0909 -0.203315,-0.20208 0.111148,-0.11117 -0.01518,-0.72208 -0.280725,-1.35762 -0.452395,-1.08273 -0.417699,-1.27753 0.550802,-3.09247 0.8918,-1.67118 1.033612,-2.30765 1.033612,-4.63883 0,-1.48602 0.151547,-3.23028 0.336763,-3.87611 0.185221,-0.64583 0.241966,-1.07941 0.126097,-0.96356 -0.115872,0.11582 -0.636892,-0.0928 -1.157833,-0.46377 -0.520942,-0.37092 -1.046789,-0.57481 -1.168555,-0.45304 -0.121766,0.12176 -0.239428,-1.4e-4 -0.261474,-0.27088 -0.02203,-0.27075 -0.06113,-0.72683 -0.08687,-1.0135 -0.02575,-0.28668 0.254743,-0.69803 0.623285,-0.91411 0.539311,-0.31621 0.95271,-0.23509 2.118485,0.41577 l 1.448418,0.80863 1.29518,-0.88008 c 0.936142,-0.63614 1.230046,-1.04038 1.060223,-1.45823 -0.12923,-0.31797 -0.391774,-1.0114 -0.58343,-1.54098 -0.251809,-0.69577 -0.230152,-1.10542 0.0781,-1.47682 0.234605,-0.28268 0.778012,-0.51397 1.207564,-0.51397 0.627058,0 0.865798,0.30283 1.21113,1.53624 0.236565,0.84493 0.325846,1.70495 0.198398,1.91117 -0.150417,0.24338 0.236065,0.37495 1.10141,0.37495 0.733224,0 1.665582,0.23285 2.071904,0.51745 0.6851,0.47986 0.7256,0.46706 0.5574,-0.17616 -0.0997,-0.38148 0.004,-1.14072 0.23018,-1.68719 0.22635,-0.54648 0.77726,-1.18931 1.22422,-1.42853 0.44697,-0.23921 0.98394,-0.32907 1.19329,-0.19969 0.20934,0.12938 0.38062,0.6247 0.38062,1.1007 0,0.476 -0.23126,1.31268 -0.51392,1.85927 -0.28266,0.5466 -0.71267,1.06302 -0.95559,1.14762 -0.29755,0.10369 -0.12986,0.46946 0.51392,1.12123 0.52557,0.53209 0.95559,1.1714 0.95559,1.42067 0,0.36169 0.19301,0.35256 0.95559,-0.0452 0.52558,-0.27415 1.52894,-0.49943 2.2297,-0.50062 0.71139,-0.001 1.33867,0.1897 1.42026,0.43223 0.0804,0.23888 0.0755,0.70679 -0.0107,1.03978 -0.0915,0.35256 -0.75723,0.77733 -1.59401,1.01699 -0.79035,0.22634 -1.53893,0.38901 -1.66352,0.36151 -0.1246,-0.0276 -0.28209,0.64852 -0.34999,1.5023 -0.0697,0.87627 0.0289,1.57025 0.22653,1.59347 0.1925,0.0227 0.47889,0.0187 0.63643,-0.008 0.15755,-0.0275 0.20154,0.0876 0.0978,0.25553 -0.1038,0.1679 0.19734,0.48116 0.66914,0.69612 0.62648,0.28545 0.85782,0.66399 0.85782,1.4036 0,0.59788 -0.22252,1.09811 -0.54324,1.22118 -0.29879,0.11464 -0.99253,-0.0238 -1.54166,-0.30785 -0.54913,-0.28394 -1.08944,-0.66358 -1.20071,-0.84361 -0.11127,-0.18003 -0.60031,0.0415 -1.0868,0.49242 -0.48647,0.45084 -1.88718,1.33959 -3.112687,1.97498 -1.814982,0.94102 -2.39578,1.4632 -3.132001,2.81587 -0.497103,0.91335 -1.243536,1.87389 -1.658737,2.13456 -0.415205,0.26066 -1.458575,0.56634 -2.318605,0.67928 z m 0.158797,-1.03393 c 0.990494,-0.12083 1.903456,-0.44516 2.099865,-0.74597 0.191117,-0.29271 0.816593,-1.24162 1.389946,-2.10872 0.739216,-1.11793 1.64848,-1.89331 3.125752,-2.6655 1.299715,-0.67937 2.522145,-1.66432 3.250035,-2.61863 1.08378,-1.42096 1.15712,-1.68055 1.0316,-3.65193 -0.0975,-1.53027 -0.35349,-2.39984 -0.91794,-3.1174 -0.43053,-0.54735 -1.31573,-1.35732 -1.96711,-1.79995 -0.89494,-0.60811 -1.667076,-0.80476 -3.159811,-0.80476 -1.396441,0 -2.319411,0.21256 -3.148889,0.7252 -0.645382,0.39886 -1.562958,1.38991 -2.039063,2.20232 -0.744855,1.271 -0.865642,1.90332 -0.865642,4.53166 0,2.76932 -0.09908,3.22773 -1.061102,4.90916 -0.849028,1.48395 -0.987925,1.99134 -0.694973,2.53874 0.201372,0.37626 0.366129,0.97587 0.366129,1.33244 0,0.35658 0.188733,0.83705 0.419413,1.06773 0.2791,0.2791 1.005636,0.34788 2.17179,0.20561 z m 1.035687,-0.96777 c -0.179173,0.0456 -1.068521,-0.38787 -1.976329,-0.96325 -0.907809,-0.57539 -1.650561,-1.18932 -1.650561,-1.36428 0,-0.17496 0.281436,-0.3181 0.625417,-0.3181 0.34398,0 1.283333,0.42659 2.087449,0.94799 0.804119,0.52141 1.412029,1.09801 1.350913,1.28136 -0.06112,0.18334 -0.257717,0.37068 -0.436889,0.41628 z m 1.04246,-1.74649 c -0.179175,0.0407 -0.919876,-0.27789 -1.646009,-0.70781 -0.726132,-0.4299 -1.462373,-0.92377 -1.636091,-1.0975 -0.17372,-0.17372 -0.198203,-0.50621 -0.0544,-0.73887 0.190099,-0.30758 0.752346,-0.11714 2.060418,0.69787 0.989441,0.6165 1.754629,1.2675 1.700421,1.44668 -0.05421,0.17916 -0.245157,0.35899 -0.42433,0.39963 z m -1.015578,-8.19636 c -0.276067,0 -0.652674,-0.28165 -0.8369,-0.62587 -0.238452,-0.44555 -0.149722,-1.03964 0.307953,-2.06189 0.385884,-0.8619 1.063695,-1.65359 1.695425,-1.98027 0.578877,-0.29934 1.751144,-0.54427 2.605033,-0.54427 0.853889,0 1.799871,0.0949 2.102177,0.21092 0.302311,0.11606 0.549651,0.58511 0.549651,1.04245 0,0.76435 -0.1381,0.83155 -1.709017,0.83155 -0.939955,0 -1.963014,0.0975 -2.273462,0.2166 -0.310448,0.11915 -0.873706,0.82279 -1.251685,1.56369 -0.377978,0.74089 -0.913108,1.34709 -1.189175,1.34709 z m 1.037296,-2.7799 c 0.286677,-0.23792 0.52123,-0.58894 0.52123,-0.78007 0,-0.19383 -0.230474,-0.1562 -0.52123,0.0851 -0.286677,0.23793 -0.521229,0.58895 -0.521229,0.78007 0,0.19384 0.230473,0.1562 0.521229,-0.0851 z m 2.953636,-1.47055 c 0.668914,0 0.942557,-0.0716 0.608103,-0.15893 -0.334457,-0.0875 -0.881749,-0.0875 -1.216205,0 -0.334455,0.0875 -0.06081,0.15893 0.608102,0.15893 z m 8.426547,8.40636 c 0.14334,0.007 0.25571,-0.10327 0.24971,-0.24669 -0.006,-0.14334 -0.41061,-0.55187 -0.89909,-0.90786 -0.60536,-0.44113 -1.00135,-0.53404 -1.24361,-0.29179 -0.24227,0.24227 -0.039,0.52691 0.63848,0.89394 0.54664,0.29617 1.11118,0.54476 1.25451,0.5524 z m -0.0254,-7.06974 c 0.6072,-0.12143 1.18055,-0.29735 1.27413,-0.39092 0.0935,-0.0935 0.0909,-0.24939 -0.006,-0.34628 -0.0968,-0.0968 -0.67025,-0.0773 -1.27412,0.0435 -0.60388,0.12076 -1.09795,0.37595 -1.09795,0.56707 0,0.20507 0.45244,0.25699 1.10398,0.12668 z m -14.916595,-1.62702 c 0.143337,0.0129 0.259623,-0.0937 0.258417,-0.23709 -10e-4,-0.14334 -0.470315,-0.527 -1.042459,-0.85256 -0.782085,-0.44502 -1.040264,-0.47977 -1.040264,-0.13997 0,0.24858 0.351831,0.62164 0.781846,0.82904 0.430014,0.20739 0.89912,0.38765 1.04246,0.40058 z m 10.502545,-2.75636 c 0.0907,0 0.40282,-0.46024 0.69369,-1.02275 0.29089,-0.5625 0.39596,-1.1049 0.23349,-1.2053 -0.16247,-0.10047 -0.47464,0.21081 -0.6937,0.6916 -0.21906,0.48079 -0.3983,1.02318 -0.3983,1.2053 0,0.18212 0.0741,0.33115 0.16482,0.33115 z m -5.756009,-0.84931 c 0.186319,-0.11512 0.155125,-0.62603 -0.07553,-1.23711 -0.216105,-0.57254 -0.515007,-1.04097 -0.664223,-1.04097 -0.149219,0 -0.271304,0.1462 -0.271304,0.32486 0,0.17868 0.156077,0.73538 0.346837,1.23711 0.190759,0.50174 0.489657,0.82398 0.66422,0.71611 z m -45.974324,10.57891 c -0.100758,0 -0.347466,-0.66456 -0.548243,-1.4768 -0.200775,-0.81226 -0.51954,-2.04226 -0.708365,-2.73335 -0.188828,-0.69108 -0.34332,-1.35564 -0.34332,-1.47682 0,-0.12115 0.234553,-0.22029 0.521229,-0.22029 0.286677,0 0.52123,-0.15972 0.52123,-0.35494 0,-0.19521 0.38873,-0.53206 0.863845,-0.74852 0.475111,-0.21647 1.10952,-0.76854 1.409791,-1.22682 l 0.54595,-0.83322 -1.328608,0.87923 c -0.730734,0.48357 -1.795154,0.97198 -2.36538,1.08535 -0.904989,0.17991 -1.121519,0.0594 -1.703463,-0.94805 -0.366677,-0.63478 -1.119478,-1.59514 -1.672889,-2.13411 -0.807715,-0.78663 -0.92486,-1.07795 -0.593841,-1.47681 0.226801,-0.27327 0.588681,-0.49754 0.804174,-0.49838 0.215498,-6.9e-4 1.594265,-0.61006 3.063928,-1.35387 1.469666,-0.7438 3.774879,-2.09225 5.122696,-2.99653 1.347816,-0.90429 3.693642,-2.89224 5.212948,-4.41769 2.592096,-2.60256 2.776615,-2.88749 2.993387,-4.62248 0.127055,-1.01693 0.17491,-2.01727 0.106341,-2.22297 -0.07795,-0.23386 -0.619978,-0.10854 -1.44653,0.33447 -0.727029,0.38966 -2.670069,1.02867 -4.317875,1.42003 -1.908795,0.45333 -3.698595,0.65702 -4.932113,0.56127 -1.064859,-0.0827 -3.656163,-0.55177 -5.758455,-1.04249 -2.102295,-0.49073 -5.933334,-1.37529 -8.513421,-1.965687 -2.580046,-0.590404 -6.020164,-1.368648 -7.644662,-1.72944 -1.6245,-0.360789 -3.34941,-0.867508 -3.833131,-1.126034 -0.48369,-0.25853 -1.362854,-0.860977 -1.953667,-1.338772 -0.590812,-0.477793 -1.511616,-1.572376 -2.046232,-2.432405 -0.534615,-0.860028 -1.313623,-2.11098 -1.731126,-2.779893 C 19.60151,89.537559 18.089744,87.192025 16.659534,84.994172 15.229324,82.79632 13.510466,80.138048 12.839848,79.086901 12.169232,78.035756 10.29199,75.14293 8.6681963,72.658401 7.0444051,70.173873 5.6141868,67.962323 5.4899341,67.743847 5.3656835,67.525373 5.0166413,66.274421 4.7142889,64.963955 4.4119362,63.653491 3.7806985,60.704866 3.3115402,58.411455 2.842382,56.118043 2.2491732,53.147033 1.9932995,51.809212 1.737427,50.471388 1.4308182,46.874903 1.3119481,43.817022 c -0.119315,-3.069321 -0.067347,-6.471634 0.1160037,-7.59543 0.2060512,-1.262898 0.7633591,-2.71389 1.4681187,-3.822349 0.6247928,-0.98269 1.2533562,-1.943078 1.3968059,-2.134195 0.1434498,-0.191118 0.6216441,-0.816592 1.0626522,-1.389946 0.4410091,-0.573353 1.4894814,-2.09795 2.32994,-3.387993 0.8404585,-1.290045 1.6191974,-2.345535 1.7305339,-2.345535 0.1113397,0 0.5052311,-0.56227 0.8753225,-1.24949 0.370092,-0.68722 1.373463,-1.731494 2.229712,-2.320609 0.856249,-0.589115 2.582709,-1.365204 3.836578,-1.724642 1.253868,-0.359439 3.687081,-1.019782 5.40714,-1.467431 1.720059,-0.447648 4.691068,-1.227957 6.602244,-1.734019 1.911176,-0.506063 4.921278,-1.303348 6.689116,-1.771746 1.767838,-0.468397 4.699324,-1.244383 6.514414,-1.724416 1.815087,-0.48003 4.747005,-1.2498936 6.515371,-1.7108082 1.768367,-0.4609132 4.075239,-1.0867725 5.126386,-1.3907975 1.051147,-0.3040262 3.083944,-0.6410513 4.517325,-0.748946 1.959212,-0.1474743 3.425603,-0.013204 5.907271,0.5409076 1.815617,0.4053926 5.412103,1.1211704 7.992191,1.5906173 2.580087,0.4694457 5.794324,1.0024018 7.142748,1.1843458 1.348423,0.181944 2.878923,0.493244 3.401111,0.691779 0.52219,0.198537 1.498828,0.734298 2.170308,1.19058 0.671483,0.456284 2.044851,1.591585 3.051932,2.522891 1.007086,0.931306 2.9146,2.647828 4.238923,3.814494 1.324323,1.166663 3.983849,3.512199 5.910061,5.212297 1.926215,1.700098 4.403584,3.872932 5.505264,4.828521 1.10168,0.955588 2.34553,2.050169 2.76412,2.432406 0.41859,0.382235 1.32743,1.16408 2.01964,1.737432 0.69223,0.573353 1.66432,1.808502 2.16023,2.744774 0.59678,1.126737 0.90026,2.242897 0.89752,3.301123 -0.002,0.879342 -0.24517,2.458835 -0.53977,3.509982 -0.29461,1.051147 -0.90242,3.865786 -1.35072,6.254758 -0.44827,2.388969 -1.21557,6.532746 -1.70509,9.208392 -0.4895,2.675646 -1.27086,6.272131 -1.73632,7.992189 -0.46548,1.720058 -1.2675,4.456514 -1.78228,6.081014 -0.51477,1.6245 -1.10783,3.689473 -1.31788,4.588833 l -0.38192,1.635196 1.88978,2.186029 c 1.03937,1.202315 2.35006,2.577458 2.91265,3.055871 0.56258,0.478411 1.34443,1.142629 1.73744,1.476032 0.393,0.333407 1.26185,0.96464 1.93075,1.402741 0.66891,0.4381 1.98988,1.227075 2.93547,1.753281 0.94561,0.526206 2.66567,1.355378 3.82235,1.842609 1.34485,0.56648 3.04575,0.951759 4.71765,1.068622 l 2.61455,0.182754 0.91647,2.566042 0.91645,2.566045 -1.0986,-1.39e-4 c -0.60424,-7.6e-5 -3.99144,-0.53802 -7.52711,-1.195431 -3.81678,-0.709678 -7.48732,-1.61512 -9.03466,-2.228652 -1.43339,-0.568353 -3.15344,-1.310431 -3.82235,-1.64907 -0.66892,-0.338637 -2.03628,-1.138174 -3.03859,-1.776747 -1.00231,-0.638577 -2.677683,-1.857694 -3.723046,-2.709154 -1.165695,-0.949473 -2.107022,-1.46892 -2.434327,-1.343322 -0.293519,0.112628 -0.53367,0.274356 -0.53367,0.359381 0,0.08502 0.310695,0.732867 0.690428,1.439641 0.379736,0.706777 1.021148,1.988707 1.425358,2.848735 0.404207,0.86003 1.042953,2.658273 1.419429,3.996095 0.376471,1.337824 0.831475,3.132004 1.011099,3.987068 0.226329,1.077417 0.778699,2.034568 1.799369,3.118028 0.81002,0.85986 1.55184,1.64576 1.64849,1.74646 0.0966,0.1007 0.57439,0.73038 1.06163,1.3993 0.48726,0.66891 1.28716,1.91986 1.77756,2.7799 0.4904,0.86002 1.24402,2.69014 1.67472,4.06693 0.43068,1.37679 0.68085,2.76964 0.55591,3.09521 -0.20958,0.54615 -0.27577,0.54068 -0.85557,-0.0708 -0.34562,-0.36454 -1.58544,-1.13191 -2.75517,-1.70526 -1.73944,-0.85261 -2.20191,-1.26395 -2.53942,-2.25867 -0.22696,-0.6689 -0.68302,-1.56415 -1.01347,-1.98943 -0.5973,-0.76873 -0.60211,-0.76344 -0.82337,0.90448 l -0.22256,1.67773 h -2.434415 c -2.067712,0 -2.410521,-0.0838 -2.275808,-0.557 0.08723,-0.30635 0.263829,-2.06014 0.392434,-3.8973 0.158544,-2.26494 0.105865,-3.57941 -0.163635,-4.08297 -0.218603,-0.40847 -0.551437,-0.74267 -0.739629,-0.74267 -0.188187,0 -0.92544,-0.36808 -1.638332,-0.81795 -0.71289,-0.44986 -1.670389,-0.936611 -2.127771,-1.081656 -0.457381,-0.145044 -1.551962,-0.714345 -2.432405,-1.265118 -0.880442,-0.550769 -1.991725,-1.267986 -2.469519,-1.59381 -0.477793,-0.325824 -1.829864,-1.579882 -3.004598,-2.786793 -2.024866,-2.080326 -2.187417,-2.174943 -3.127378,-1.820322 -0.545325,0.205732 -2.587931,1.08528 -4.53913,1.954549 -3.468551,1.545255 -3.560903,1.616424 -4.14304,3.192727 -0.327474,0.88673 -0.981869,2.315901 -1.454207,3.175933 -0.472338,0.86002 -1.218646,2.11098 -1.658459,2.77989 -0.439815,0.66891 -1.338098,2.85808 -1.996185,4.86481 -0.658088,2.00675 -1.551062,4.43045 -1.984385,5.38604 -0.433326,0.95559 -1.114385,2.20654 -1.513467,2.77989 -0.399078,0.57335 -1.569221,2.02956 -2.600314,3.236 -1.031094,1.20645 -2.361099,2.68049 -2.955569,3.27565 -0.594469,0.59515 -2.019066,1.81431 -3.165772,2.70925 -1.146705,0.89493 -2.426471,1.8055 -2.84392,2.02352 -0.41745,0.21801 -0.841439,0.39638 -0.942193,0.39638 z m 1.287187,-26.09709 c 0.727859,0.0196 2.44012,-0.13766 3.805016,-0.34943 1.3649,-0.21177 2.802173,-0.58526 3.193944,-0.82999 0.391767,-0.24472 1.337781,-0.6414 2.102251,-0.881515 0.76447,-0.240113 1.504829,-0.60937 1.645241,-0.820572 0.140412,-0.211202 0.257689,-1.75521 0.260615,-3.43113 l 0.0054,-3.047127 -0.902693,0.226562 -0.902694,0.226561 0.237799,-2.739219 c 0.130792,-1.50657 0.370665,-3.286509 0.533055,-3.955422 0.162391,-0.668911 0.471856,-3.871705 0.687697,-7.117318 0.215845,-3.245615 0.443993,-5.952671 0.507,-6.015677 0.063,-0.06301 1.342788,-0.584407 2.843962,-1.158673 1.50117,-0.574267 3.511247,-1.335984 4.466836,-1.69271 0.955587,-0.356727 2.988384,-1.139058 4.517324,-1.738514 1.528941,-0.599456 3.483552,-1.326918 4.343581,-1.61658 0.86003,-0.289666 2.032797,-0.743868 2.606149,-1.00934 0.573353,-0.26547 2.058858,-0.864821 3.301122,-1.331892 1.242266,-0.467067 3.275061,-1.242125 4.517326,-1.722352 1.242265,-0.480226 3.744168,-1.438406 5.559785,-2.129289 1.815617,-0.690883 4.033773,-1.561681 4.92923,-1.935108 0.89546,-0.373423 1.73765,-0.678954 1.87154,-0.678954 0.13388,0 0.11994,1.837335 -0.031,4.082967 -0.15093,2.245631 -0.24164,5.597389 -0.20158,7.448353 0.0667,3.080134 0.0123,3.397792 -0.64152,3.747705 -0.39291,0.210277 -0.71437,0.619137 -0.71437,0.908579 0,0.289446 0.23857,0.987602 0.53015,1.551464 0.29159,0.563864 0.66567,1.025204 0.83129,1.025204 0.16562,0 0.57751,-1.133675 0.9153,-2.519278 0.3378,-1.385602 0.73674,-2.753831 0.88654,-3.040506 0.14979,-0.286677 0.68913,-2.006735 1.19853,-3.822353 0.5094,-1.815616 1.22521,-4.86481 1.5907,-6.775986 0.36548,-1.911175 0.97112,-5.273107 1.34586,-7.47096 0.37474,-2.197851 0.83434,-4.543386 1.02133,-5.212297 0.18698,-0.668911 0.67392,-2.930736 1.08206,-5.026277 0.40814,-2.095539 0.65999,-4.315807 0.5597,-4.93393 -0.10036,-0.61812 -0.43832,-1.663196 -0.75113,-2.322391 -0.3128,-0.659194 -1.5358,-2.014518 -2.71774,-3.011832 -1.18201,-0.997314 -3.16546,-2.716564 -4.40772,-3.820555 -1.24222,-1.103991 -3.900495,-3.454086 -5.90723,-5.222435 -2.006734,-1.768346 -4.730893,-4.169722 -6.053687,-5.336386 -1.322791,-1.166665 -3.121034,-2.802204 -3.996096,-3.634531 -0.875098,-0.832326 -2.52927,-1.97804 -3.675976,-2.546028 -1.608007,-0.796482 -2.840028,-1.10266 -5.38604,-1.338519 -1.815618,-0.168196 -4.082967,-0.46845 -5.038555,-0.667232 C 71.194718,10.101706 68.536446,9.5358739 66.243035,9.0430831 63.949624,8.5502912 61.369536,8.02138 60.509506,7.8677243 59.649477,7.7140674 58.163973,7.7097852 57.208384,7.8581816 56.252797,8.0066031 53.907264,8.548942 51.996087,9.0633768 50.08491,9.5778129 47.113901,10.368478 45.393842,10.820413 c -1.720058,0.451934 -4.691067,1.231057 -6.602243,1.731386 -1.911177,0.500328 -4.882186,1.282644 -6.602244,1.73848 -1.720059,0.455836 -4.065593,1.071922 -5.212299,1.369078 -1.146706,0.297155 -3.101317,0.848747 -4.343581,1.22576 -1.242265,0.377014 -3.040508,0.850233 -3.996096,1.051598 -0.955588,0.201365 -2.441093,0.620506 -3.301122,0.931426 -0.860029,0.310919 -2.051791,0.923151 -2.648358,1.360516 -0.596568,0.437365 -1.653271,1.623518 -2.348231,2.635895 -0.6949582,1.012378 -1.533346,2.231609 -1.8630842,2.709403 -0.3297391,0.477794 -1.6001741,2.264289 -2.823192,3.969989 -1.2230167,1.705699 -2.600705,3.953822 -3.06153,4.995828 -0.7980481,1.804527 -0.8322444,2.177289 -0.7196356,7.844552 0.083057,4.180248 0.3442321,7.183491 0.8780674,10.097072 0.4179113,2.280887 0.9149487,4.626421 1.1045279,5.212297 0.1895793,0.585872 0.5958199,2.550728 0.9027567,4.366345 0.3069358,1.815617 0.8323113,3.927286 1.1674992,4.692594 0.3351879,0.765307 1.6735464,3.032657 2.9741299,5.038555 1.3005837,2.005896 2.9154437,4.507111 3.5885797,5.558258 0.673136,1.051146 2.344805,3.631232 3.714821,5.733527 1.370017,2.102293 3.197667,4.916933 4.061447,6.254757 0.863779,1.337823 1.82374,2.923737 2.133247,3.524253 0.309507,0.600516 1.205284,1.600753 1.990617,2.222746 0.96085,0.761008 2.299719,1.348241 4.093427,1.795386 1.466052,0.365466 4.385608,1.054615 6.4879,1.531443 2.102295,0.476828 5.464227,1.238014 7.470961,1.691523 2.006735,0.45351 4.586823,1.05455 5.733528,1.33563 1.146706,0.28109 2.680442,0.52708 3.408304,0.54667 z M 42.150632,88.469038 c -0.350385,0 -0.718394,-0.08134 -0.817807,-0.180745 -0.09941,-0.09941 -1.393893,-0.41286 -2.876632,-0.696555 -1.48274,-0.283695 -3.547507,-0.763379 -4.588372,-1.065966 -1.733332,-0.503894 -1.883488,-0.627958 -1.785479,-1.475236 0.08812,-0.761876 0.26027,-0.906166 0.975725,-0.817883 0.477793,0.05896 2.510589,0.492409 4.517324,0.963218 2.006734,0.470812 4.000438,0.933752 4.430454,1.028755 0.597317,0.131965 0.781844,0.417206 0.781844,1.208572 0,0.772792 -0.161779,1.03584 -0.637057,1.03584 z m -0.289574,-0.734934 c 0.159266,0.022 0.227258,-0.146977 0.1511,-0.375453 -0.07616,-0.228476 -0.597389,-0.545998 -1.158286,-0.705599 -0.5609,-0.159605 -2.557242,-0.611378 -4.436313,-1.003948 -1.879072,-0.392565 -3.507915,-0.622337 -3.619653,-0.510603 -0.111734,0.111733 -0.133104,0.273209 -0.04749,0.358829 0.08563,0.08563 1.558095,0.483885 3.272166,0.885041 1.714071,0.401152 3.663787,0.86041 4.332698,1.020571 0.668911,0.16016 1.34651,0.309182 1.505775,0.331162 z M 55.818439,60.313617 c 0,-0.0021 -1.21186,-1.473638 -2.693022,-3.270223 -1.481161,-1.796582 -2.693019,-3.40925 -2.693019,-3.583705 0,-0.174453 0.664568,-0.491607 1.476817,-0.704786 0.81225,-0.213179 6.011517,-1.898965 11.553927,-3.74619 5.54241,-1.847224 10.389848,-3.495864 10.772082,-3.66364 0.382235,-0.16778 3.323255,-1.16661 6.535598,-2.219626 3.212343,-1.053016 6.009048,-1.914575 6.21491,-1.914575 0.205858,0 0.712133,0.351831 1.125051,0.781846 0.412918,0.430013 1.720892,1.665662 2.90661,2.745886 1.185718,1.080221 2.155848,2.116694 2.155848,2.303266 0,0.186573 -0.586384,0.505544 -1.303074,0.708828 -0.716692,0.203279 -2.632211,0.856429 -4.25671,1.451436 -1.6245,0.595012 -3.813666,1.377006 -4.864813,1.737766 -1.051145,0.360761 -3.083942,1.073765 -4.517324,1.584452 -1.433382,0.510688 -3.622546,1.287503 -4.864812,1.726258 -1.242264,0.438754 -4.760565,1.685717 -7.818446,2.771028 -3.057882,1.085311 -6.497999,2.270831 -7.644704,2.634489 -1.146706,0.363655 -2.084919,0.659526 -2.084919,0.65749 z m 0.696831,-0.685959 c 0.209209,0 0.528927,-0.14174 0.710489,-0.314979 0.181562,-0.17324 1.34651,-0.639341 2.588776,-1.035781 1.242263,-0.396441 3.498104,-1.153823 5.012979,-1.683069 1.514878,-0.529247 2.812372,-1.14099 2.883325,-1.359425 0.07095,-0.218442 -0.69177,-1.287091 -1.694939,-2.374779 -1.003166,-1.087692 -2.006856,-2.227774 -2.230423,-2.533522 -0.369187,-0.504893 -0.657714,-0.482081 -3.144304,0.248608 -1.505797,0.442477 -3.128738,0.997549 -3.606532,1.233489 -0.477793,0.23594 -1.676918,0.618877 -2.664717,0.850967 -0.987804,0.232093 -2.054855,0.61126 -2.371227,0.8426 -0.511074,0.373703 -0.312516,0.738735 1.780489,3.273252 1.295638,1.568951 2.526877,2.852639 2.736084,2.852639 z m 1.361167,-1.141553 c -0.625367,0.352459 -0.846059,0.265354 -1.65056,-0.651471 -0.510767,-0.582082 -0.928668,-1.204124 -0.928668,-1.382311 0,-0.191084 0.268315,-0.180384 0.654092,0.02609 0.359748,0.192532 0.741112,0.576828 0.847467,0.85399 0.106354,0.277158 0.554769,0.558588 0.99647,0.625392 0.797168,0.120564 0.797766,0.124463 0.0812,0.528322 z m 6.000274,-2.333313 c -0.263781,0 -0.738389,-0.285957 -1.054685,-0.635461 -0.316299,-0.349506 -0.575086,-0.818613 -0.575086,-1.04246 0,-0.223847 0.146191,-0.406997 0.324865,-0.406997 0.178678,0 0.749247,0.161349 1.267936,0.358553 0.833985,0.317082 0.891168,0.296014 0.494335,-0.182138 -0.246806,-0.297382 -0.334967,-0.654196 -0.195917,-0.792915 0.139054,-0.138716 0.630442,0.186516 1.091977,0.722748 0.461535,0.53623 0.839155,1.133151 0.839155,1.326491 0,0.203904 -0.328325,0.250871 -0.781844,0.11184 -0.430015,-0.131828 -1.002905,-0.416011 -1.273093,-0.631519 -0.415557,-0.331453 -0.427058,-0.271359 -0.07465,0.390016 0.338028,0.634382 0.326148,0.781845 -0.063,0.781845 z m -10.115969,-1.06505 c -0.35886,0.297829 -0.511323,0.206474 -0.675006,-0.404442 -0.11629,-0.434045 -0.21358,-0.923174 -0.21619,-1.086961 -0.0027,-0.163785 0.241431,-0.20333 0.542306,-0.08786 0.300877,0.115455 0.781152,-0.02418 1.06728,-0.310309 0.286126,-0.286128 0.684575,-0.520232 0.885444,-0.520232 0.230238,0 0.210006,0.187014 -0.05474,0.50601 -0.230971,0.278301 -0.328146,0.654546 -0.215943,0.836094 0.112199,0.181544 0.555677,0.264874 0.985504,0.185174 0.56995,-0.105685 0.49931,-0.01193 -0.260963,0.346501 -0.573352,0.270278 -1.166586,0.414892 -1.318294,0.321363 -0.151713,-0.09353 -0.484441,0.0031 -0.739402,0.214673 z m 3.80848,-1.501088 c -0.301771,0.412278 -0.431939,0.37902 -0.795195,-0.203162 -0.238897,-0.382874 -0.434358,-0.776441 -0.434358,-0.874591 0,-0.09815 0.386092,-0.178461 0.857979,-0.178461 0.471889,0 2.055539,-0.390922 3.519222,-0.868715 1.463682,-0.477794 2.719463,-0.868716 2.790626,-0.868716 0.07117,0 0.12939,0.298039 0.12939,0.662308 0,0.477015 -0.449609,0.815506 -1.607076,1.209897 -0.883896,0.301171 -1.743925,0.463011 -1.911177,0.359641 -0.167255,-0.103369 -0.304098,-0.0042 -0.304098,0.220561 0,0.256861 -0.349767,0.341641 -0.942238,0.228381 -0.590175,-0.112819 -1.077066,0.0041 -1.303075,0.312857 z m 12.776808,1.00778 c 0.801235,-0.25883 2.785926,-0.956839 4.410425,-1.551132 1.624499,-0.594292 3.704822,-1.319103 4.622939,-1.610697 l 1.669302,-0.530167 -2.604221,-2.62967 c -2.488285,-2.512602 -2.658737,-2.619444 -3.828901,-2.399918 -0.673579,0.126363 -1.323675,0.389917 -1.444659,0.585676 -0.120984,0.195757 0.04521,0.648954 0.369338,1.007103 0.324121,0.358152 0.494014,0.805373 0.377539,0.993829 -0.116468,0.188457 -0.718171,0.445698 -1.337114,0.571647 -0.618939,0.12595 -1.672637,0.410792 -2.341547,0.632982 -0.668913,0.222193 -1.323935,0.55497 -1.455605,0.739507 -0.141351,0.198106 -0.532727,0.07007 -0.955588,-0.312617 -0.393903,-0.356475 -0.716187,-0.798259 -0.716187,-0.981735 0,-0.183478 0.392924,-0.07614 0.873164,0.238524 0.842728,0.552178 0.884454,0.542416 1.19713,-0.27998 0.240846,-0.633476 0.507167,-0.804189 1.038011,-0.665367 0.433104,0.11326 0.714047,0.01942 0.714047,-0.238466 0,-0.233856 0.223121,-0.339571 0.495825,-0.234926 0.272701,0.104648 0.685907,-0.03877 0.918233,-0.318707 0.232327,-0.279934 0.32932,-0.602058 0.215546,-0.715833 -0.113773,-0.113773 -2.087832,0.398202 -4.386791,1.13773 -2.298961,0.739525 -4.143677,1.44758 -4.099365,1.573463 0.04432,0.125882 1.145068,1.405734 2.446128,2.844117 l 2.365563,2.615237 z m -0.193772,-0.532839 c -0.238897,-0.0034 -0.786188,-0.407661 -1.216203,-0.898236 -0.430014,-0.490578 -0.781844,-1.035041 -0.781844,-1.209924 0,-0.174882 0.164135,-0.317967 0.364743,-0.317967 0.200607,0 0.865175,0.255945 1.476816,0.568766 l 1.112076,0.568769 -0.661958,-0.742513 c -0.525382,-0.589315 -0.555802,-0.742509 -0.147442,-0.742509 0.282983,0 0.881187,0.390308 1.329344,0.867347 0.448153,0.477041 0.717949,0.964228 0.599539,1.082638 -0.118413,0.118412 -0.727904,0.03659 -1.354429,-0.181817 -0.900006,-0.313745 -1.049621,-0.307592 -0.712708,0.02933 0.234533,0.234525 0.426425,0.551513 0.426425,0.704407 0,0.152894 -0.195462,0.275163 -0.434359,0.27171 z m 7.102966,-2.445353 c -0.323177,-0.01062 -0.942234,-0.468715 -1.375686,-1.018091 -0.449053,-0.569152 -0.642482,-1.088856 -0.449623,-1.208051 0.186155,-0.115049 0.597875,0.186722 0.914928,0.670604 0.317055,0.483886 0.880441,0.87979 1.251977,0.87979 0.371533,0 0.578875,0.15637 0.460757,0.347487 -0.118116,0.191118 -0.479178,0.338835 -0.802353,0.328261 z m 4.27953,-1.063796 c 0.0015,0.02231 1.408591,-0.43876 3.127377,-1.024598 1.718787,-0.585838 4.055732,-1.373163 5.193211,-1.749612 1.13748,-0.37645 2.142029,-0.758337 2.232335,-0.848642 0.09029,-0.09031 -0.762178,-1.036924 -1.894401,-2.1036 -1.132226,-1.066675 -2.377575,-2.15654 -2.767448,-2.421922 -0.55167,-0.375515 -1.014001,-0.402268 -2.08492,-0.120654 -0.756832,0.19902 -1.845166,0.572344 -2.418519,0.82961 -0.573352,0.257265 -1.69389,0.640675 -2.490078,0.85202 -0.796194,0.211348 -2.013516,0.620711 -2.705165,0.909702 l -1.257541,0.525434 2.531418,2.555851 c 1.392281,1.405717 2.532458,2.574103 2.533731,2.596411 z m 0.849031,-0.66546 c -0.296232,0.006 -0.726247,-0.176593 -0.955589,-0.405934 -0.229341,-0.229342 -0.416983,-0.624173 -0.416983,-0.877404 0,-0.253231 0.454557,-0.551332 1.010125,-0.662444 0.555569,-0.111113 1.524459,-0.732679 2.153087,-1.38126 0.628626,-0.648579 1.374093,-1.179232 1.656592,-1.179232 0.380467,0 0.313638,0.21289 -0.257772,0.821127 -0.424274,0.451618 -0.745752,0.959817 -0.714394,1.129331 0.03135,0.169511 0.03849,0.498904 0.01587,0.73198 -0.02432,0.250514 -0.516073,0.405923 -1.202756,0.380108 -0.638881,-0.02402 -1.351899,0.07394 -1.584482,0.217684 -0.311118,0.192281 -0.256671,0.387367 0.206018,0.738172 0.519187,0.39364 0.534939,0.478747 0.09028,0.487872 z m 4.712501,-2.421357 c -0.225204,0 -0.513708,-0.104242 -0.641117,-0.231657 -0.127412,-0.12741 -0.231659,-0.403144 -0.231659,-0.612741 0,-0.209593 0.794455,-0.569798 1.765454,-0.800452 1.508964,-0.358443 1.887589,-0.339342 2.60615,0.131474 0.462383,0.302967 0.840694,0.689233 0.840694,0.858368 0,0.169136 -0.217825,0.307522 -0.484051,0.307522 -0.26623,0 -0.57406,-0.234552 -0.684069,-0.521229 -0.110004,-0.286676 -0.493424,-0.521231 -0.852038,-0.521231 -0.358612,0 -0.935044,0.312739 -1.280964,0.694974 -0.345919,0.382235 -0.813198,0.694972 -1.0384,0.694972 z m -7.361503,-1.042458 c -0.08499,0 -0.05789,-0.156369 0.06023,-0.347488 0.118115,-0.191116 -0.107213,-0.347486 -0.500721,-0.347486 -0.404325,0 -0.715482,-0.226678 -0.715482,-0.521229 0,-0.286677 0.234553,-0.52123 0.52123,-0.52123 0.286675,0 0.52123,0.16187 0.52123,0.359711 0,0.243883 0.223784,0.239946 0.694972,-0.01223 0.382236,-0.204566 0.694974,-0.275498 0.694974,-0.157626 0,0.117865 0.551707,-0.126667 1.226016,-0.54341 0.986896,-0.609936 1.325757,-0.674937 1.737432,-0.333282 0.389186,0.322996 0.511417,0.325622 0.511417,0.01097 0,-0.267096 0.276758,-0.329835 0.781844,-0.177236 0.637847,0.19271 0.701847,0.152223 0.347486,-0.219827 -0.238895,-0.25082 -0.434357,-0.577261 -0.434357,-0.725426 0,-0.148166 0.35183,-0.135625 0.781845,0.02786 0.430014,0.163493 0.899121,0.31599 1.04246,0.338886 0.143337,0.0229 0.377891,0.0426 0.521228,0.04377 0.14334,10e-4 -0.176004,0.229883 -0.709649,0.508237 -0.533646,0.278354 -1.510953,0.607533 -2.171792,0.731504 -0.660839,0.123976 -1.203918,0.403468 -1.206845,0.621094 -0.0027,0.217628 -0.1569,0.161134 -0.342166,-0.125543 -0.283863,-0.439244 -0.337681,-0.419733 -0.342167,0.12405 -0.0034,0.403744 -0.184237,0.576619 -0.483316,0.461854 -0.262898,-0.100883 -0.906243,0.03875 -1.429663,0.310309 -0.523423,0.271572 -1.021211,0.493751 -1.106203,0.493751 z M 27.376958,52.87964 c -0.230704,0.08853 -0.610521,-0.0301 -0.844038,-0.263613 -0.233522,-0.233522 -0.42458,-0.545309 -0.42458,-0.692865 0,-0.147553 0.899122,-0.516871 1.998048,-0.820707 1.098927,-0.303832 2.310785,-0.68787 2.693021,-0.853416 0.382234,-0.165549 2.336845,-0.794581 4.343581,-1.397852 2.006734,-0.60327 4.1959,-1.250892 4.864812,-1.43916 0.668911,-0.188264 1.52894,-0.482034 1.911175,-0.652813 0.382236,-0.170779 1.588483,-0.534497 2.680554,-0.808263 1.595004,-0.399842 2.057227,-0.411421 2.349818,-0.05887 0.257959,0.310823 0.236248,0.544664 -0.07439,0.801409 -0.241253,0.199387 -1.45504,0.625036 -2.697305,0.945885 -1.242264,0.320848 -2.415031,0.70292 -2.606149,0.849048 -0.191118,0.146133 -1.439081,0.53389 -2.773248,0.861688 -1.334172,0.327797 -2.585124,0.722559 -2.779893,0.877243 -0.194773,0.154687 -1.565989,0.563383 -3.04715,0.908218 -1.481162,0.344832 -2.693022,0.737346 -2.693022,0.872246 0,0.134906 -0.558396,0.350035 -1.240877,0.478069 -0.682485,0.128035 -1.429639,0.305226 -1.660343,0.393754 z m 0.381944,-0.440304 c 0.334456,-0.119224 0.764469,-0.328395 0.955587,-0.464819 0.191118,-0.13642 1.207516,-0.443483 2.258662,-0.682363 1.051147,-0.238879 2.380283,-0.631695 2.953635,-0.87293 0.573354,-0.241237 2.918888,-1.013934 5.2123,-1.717116 2.293411,-0.703177 4.843906,-1.520162 5.667768,-1.815523 0.823861,-0.29536 1.417527,-0.61742 1.319257,-0.715694 -0.09828,-0.09826 -0.615972,-0.06891 -1.150443,0.06522 -0.534474,0.134145 -1.032474,0.217753 -1.106666,0.185798 -0.07419,-0.03197 -0.230557,0.08595 -0.347487,0.262009 -0.116921,0.176064 -1.304186,0.591159 -2.638353,0.92243 -1.334171,0.331277 -2.585123,0.727394 -2.779892,0.880264 -0.194774,0.152869 -1.21416,0.475775 -2.265307,0.717567 -1.051147,0.241791 -2.302099,0.631423 -2.779892,0.865849 -0.477794,0.234428 -2.002391,0.699397 -3.387994,1.033262 -1.595884,0.384539 -2.519277,0.780364 -2.519277,1.079925 0,0.301302 0.220654,0.394233 0.608102,0.256115 z m -3.678435,-2.888787 c -0.181598,0 -0.425092,-0.247341 -0.5411,-0.549651 -0.116003,-0.302306 -0.210919,-0.599448 -0.210919,-0.660314 0,-0.06087 0.820937,-0.30123 1.824304,-0.534142 1.003367,-0.23291 2.293411,-0.631387 2.866763,-0.8855 0.573354,-0.254111 2.058859,-0.718599 3.301123,-1.032192 1.242264,-0.313593 2.415032,-0.691199 2.606148,-0.839121 0.191119,-0.147922 1.520255,-0.548685 2.953636,-0.890584 1.433382,-0.341898 2.684334,-0.731479 2.779893,-0.865735 0.09556,-0.134257 0.997998,-0.439565 2.005421,-0.678467 1.447942,-0.343365 1.939333,-0.345022 2.345535,-0.0079 0.28262,0.234552 0.513855,0.535094 0.513855,0.667865 0,0.132771 -1.171613,0.517613 -2.603584,0.855199 -1.431968,0.337587 -2.685647,0.746582 -2.78595,0.908876 -0.1003,0.16229 -1.078764,0.477495 -2.174358,0.700448 -1.095593,0.222955 -2.461094,0.616356 -3.034448,0.874221 -0.573352,0.257867 -2.058856,0.725423 -3.30112,1.039016 -1.242266,0.313592 -2.415032,0.68999 -2.606151,0.836439 -0.191116,0.146448 -1.081296,0.445206 -1.978178,0.663906 -0.89688,0.21872 -1.779272,0.397658 -1.96087,0.397658 z m 0.313284,-0.347486 c 0.203682,0 0.695298,-0.173917 1.09248,-0.386481 0.39718,-0.212566 1.989683,-0.746291 3.538894,-1.186055 1.549209,-0.439766 4.145878,-1.215884 5.770379,-1.724708 1.624499,-0.508825 4.11406,-1.26721 5.532361,-1.685307 1.418297,-0.418095 2.648246,-0.968747 2.733224,-1.223677 0.117005,-0.351003 -0.0027,-0.380696 -0.493806,-0.122335 -0.356566,0.187638 -1.899257,0.675005 -3.428197,1.083039 -1.528942,0.408028 -3.092631,0.88942 -3.474866,1.069754 -0.382235,0.180334 -1.555003,0.559627 -2.606149,0.84287 -1.051147,0.283244 -2.614836,0.749547 -3.474865,1.036229 -0.86003,0.286679 -2.462811,0.768709 -3.561738,1.071176 -1.098926,0.302462 -1.998047,0.701937 -1.998047,0.887713 0,0.18578 0.166649,0.337782 0.37033,0.337782 z M 22.306946,45.59141 c -1.121149,0.179277 -1.443564,0.108513 -1.621794,-0.355941 -0.122349,-0.318836 -0.164042,-0.62663 -0.09265,-0.683981 0.07139,-0.05735 1.458936,-0.514282 3.083434,-1.015396 1.624501,-0.501113 3.731183,-1.100246 4.681516,-1.3314 0.950338,-0.23116 2.123105,-0.626554 2.606151,-0.878655 0.483047,-0.252105 1.147083,-0.459332 1.475632,-0.46051 0.328552,-10e-4 1.814056,-0.400405 3.301123,-0.887172 1.487067,-0.486766 3.368325,-0.977124 4.180574,-1.089689 1.301231,-0.180328 1.476818,-0.124334 1.476818,0.470952 0,0.543485 -0.458716,0.792342 -2.345534,1.272478 -1.290043,0.328274 -2.501903,0.64736 -2.69302,0.709078 -0.191118,0.06171 -0.58204,0.207042 -0.868717,0.322939 -0.286675,0.115896 -1.381258,0.446708 -2.432405,0.735132 -1.051147,0.288428 -3.318497,0.914516 -5.038555,1.391308 -1.720059,0.47679 -3.394195,1.026688 -3.720304,1.221993 -0.326108,0.195305 -1.222627,0.45579 -1.992266,0.578864 z M 21.85163,45.203403 c 0.334457,-0.138415 1.780869,-0.5596 3.21425,-0.935969 1.433382,-0.37637 2.762519,-0.808838 2.953635,-0.96104 0.191119,-0.152204 1.516046,-0.539393 2.944286,-0.860429 1.428239,-0.321032 2.757375,-0.708897 2.953635,-0.861923 0.196261,-0.153026 1.529605,-0.553348 2.962986,-0.889607 1.433382,-0.336256 2.835118,-0.826726 3.11497,-1.089929 0.330239,-0.310595 0.365243,-0.478552 0.09973,-0.478552 -0.224999,0 -1.157627,0.291332 -2.07251,0.647402 -0.914884,0.356074 -2.288901,0.760989 -3.053372,0.899813 -0.76447,0.138824 -1.609439,0.433875 -1.877709,0.655672 -0.268274,0.221794 -0.581012,0.371165 -0.694974,0.331937 -0.113963,-0.03923 -1.067238,0.159812 -2.118386,0.442311 -1.051146,0.282501 -3.005758,0.838395 -4.343582,1.235321 -1.337822,0.396928 -2.940604,0.874582 -3.561735,1.061457 -0.621133,0.186872 -1.129332,0.50074 -1.129332,0.697483 0,0.204895 0.259789,0.250203 0.608101,0.106055 z m 31.96359,-0.892585 c -0.236054,-0.01508 -0.624648,-0.106306 -0.863545,-0.2027 -0.238898,-0.09639 -0.434358,-0.367228 -0.434358,-0.601846 0,-0.23462 0.820937,-0.625925 1.824304,-0.869565 1.003367,-0.243639 2.60615,-0.731675 3.561737,-1.084522 0.955588,-0.352845 3.379306,-1.137677 5.386042,-1.74407 2.006734,-0.606388 4.597673,-1.426432 5.757645,-1.82232 1.15997,-0.395884 2.371829,-0.618947 2.693021,-0.495693 0.321189,0.12325 0.583982,0.446152 0.583982,0.717556 0,0.295277 -0.523348,0.591265 -1.303073,0.736977 -0.716692,0.133928 -1.498536,0.40503 -1.737434,0.602447 -0.238895,0.197419 -0.434358,0.242463 -0.434358,0.100103 0,-0.142361 -0.195461,-0.09772 -0.434357,0.09922 -0.238897,0.196929 -1.372572,0.614735 -2.519278,0.92846 -1.146705,0.313727 -2.241287,0.616831 -2.432406,0.673565 -0.191117,0.05673 -0.787678,0.283545 -1.325696,0.504028 -0.538013,0.220484 -1.122071,0.400881 -1.297903,0.400881 -0.175832,0 -1.731669,0.469107 -3.457414,1.04246 -1.725747,0.573352 -3.330858,1.030114 -3.566909,1.015026 z m 0.676984,-0.540836 c 0.512835,-0.128715 1.333772,-0.443469 1.824304,-0.699452 0.490534,-0.255986 1.100164,-0.466392 1.35474,-0.46757 0.254571,-0.001 1.583708,-0.374684 2.953635,-0.830015 1.369924,-0.455328 4.132647,-1.331074 6.139382,-1.946101 2.006735,-0.615026 3.86645,-1.184376 4.132702,-1.265226 0.266251,-0.08085 0.403404,-0.227684 0.304787,-0.326304 -0.09863,-0.09862 -1.332857,0.144986 -2.742755,0.541343 -1.4099,0.396354 -2.719821,0.769432 -2.910937,0.829064 -0.191118,0.05964 -0.738409,0.266838 -1.216202,0.460461 -0.477796,0.193623 -1.712324,0.551424 -2.7434,0.795113 -1.03108,0.243685 -2.282031,0.655623 -2.779892,0.91541 -0.497866,0.259793 -1.072289,0.473308 -1.2765,0.474487 -0.204206,10e-4 -1.181513,0.24275 -2.171789,0.536832 -0.990275,0.294081 -1.800504,0.687981 -1.800504,0.875335 0,0.196049 0.395801,0.241306 0.932429,0.106628 z m -35.818366,-1.51665 c -0.434141,0 -0.893592,-0.104242 -1.021003,-0.231659 -0.127413,-0.127408 -0.231658,-0.426403 -0.231658,-0.664429 0,-0.238615 0.662556,-0.543947 1.476818,-0.680579 0.81225,-0.136291 1.86774,-0.408725 2.345533,-0.605405 0.477794,-0.196681 2.197853,-0.729641 3.822352,-1.184359 1.6245,-0.454718 4.204587,-1.139909 5.733529,-1.522652 1.52894,-0.382742 3.092629,-0.839221 3.474865,-1.014399 0.382234,-0.175179 1.303675,-0.475807 2.04764,-0.668061 0.897957,-0.232048 1.569622,-0.233444 1.998048,-0.0042 0.35496,0.189967 0.64538,0.48384 0.64538,0.653049 0,0.169208 -0.508199,0.416695 -1.129332,0.54997 -0.621132,0.133278 -2.302098,0.602214 -3.73548,1.042081 -1.433381,0.43987 -4.091653,1.22015 -5.907271,1.733958 -1.815617,0.513807 -4.522636,1.308244 -6.015599,1.765418 -1.492962,0.457185 -3.069683,0.831236 -3.503822,0.831236 z m 0.241531,-0.347486 c 0.248452,0 0.600282,-0.140979 0.781845,-0.313286 0.181561,-0.17231 1.581063,-0.583372 3.110004,-0.913473 1.52894,-0.330102 2.936261,-0.715055 3.127379,-0.855446 0.191117,-0.140392 1.520253,-0.532537 2.953636,-0.87143 1.433382,-0.338893 2.762517,-0.732714 2.953636,-0.875159 0.191116,-0.142442 1.423443,-0.501193 2.738499,-0.797228 1.315059,-0.296031 2.558192,-0.705419 2.762517,-0.909743 0.263684,-0.263684 0.155584,-0.371506 -0.372456,-0.371506 -0.409179,0 -0.832196,0.142761 -0.940035,0.317252 -0.107845,0.174487 -0.85982,0.426227 -1.67107,0.559422 -0.811249,0.133195 -2.335026,0.52433 -3.386173,0.869193 -1.051146,0.344859 -3.631233,1.099121 -5.733527,1.676135 -2.102294,0.577013 -4.486919,1.221908 -5.299169,1.4331 -0.812251,0.211189 -1.476818,0.534324 -1.476818,0.718075 0,0.183751 0.203279,0.334094 0.451732,0.334094 z m 32.683878,-1.195788 c -0.952877,0.152369 -1.512314,0.09023 -1.683655,-0.187003 -0.141136,-0.228358 -0.121681,-0.545822 0.04322,-0.705478 0.164911,-0.159655 1.316233,-0.550932 2.558497,-0.869506 1.242265,-0.318571 2.415032,-0.701132 2.60615,-0.850135 0.191117,-0.149006 1.207515,-0.466363 2.258663,-0.705241 1.051146,-0.23888 2.380281,-0.642235 2.953635,-0.896349 0.573353,-0.254109 2.058858,-0.718598 3.301122,-1.032191 1.242263,-0.313593 2.415032,-0.694503 2.606149,-0.846467 0.191118,-0.151962 0.830771,-0.379487 1.421449,-0.505613 0.76691,-0.163754 1.203297,-0.07348 1.526334,0.31576 0.248804,0.299792 0.390999,0.594626 0.315984,0.655194 -0.07501,0.06056 -0.918233,0.375848 -1.873821,0.700633 -0.955588,0.324785 -2.832015,0.90062 -4.169838,1.279629 -1.337824,0.379011 -2.745145,0.821838 -3.127379,0.984061 -0.382235,0.162225 -2.183233,0.77635 -4.002218,1.36473 -1.818988,0.588381 -3.949421,1.172467 -4.734298,1.297976 z M 50.887469,40.5159 c 0.335342,0 1.17528,-0.236312 1.866532,-0.525136 0.69125,-0.28882 2.210827,-0.77191 3.376831,-1.073524 1.166009,-0.301615 2.276382,-0.66795 2.467499,-0.814078 0.191118,-0.146131 1.439081,-0.533889 2.773248,-0.861686 1.334171,-0.327799 2.585122,-0.721073 2.779893,-0.873942 0.194773,-0.152871 1.175066,-0.470389 2.178434,-0.705596 1.295632,-0.303722 1.822761,-0.593835 1.818985,-1.001096 -0.0034,-0.361739 -0.09956,-0.43171 -0.260615,-0.189535 -0.140412,0.211148 -1.115325,0.583641 -2.166471,0.827764 -1.051147,0.244119 -2.183313,0.584257 -2.515928,0.755856 -0.33261,0.1716 -1.8963,0.703494 -3.474865,1.181986 -1.578561,0.478496 -4.042881,1.20182 -5.476263,1.607389 -1.433381,0.405572 -2.914588,0.947596 -3.29157,1.2045 -0.611256,0.416559 -0.619446,0.467098 -0.07571,0.467098 z m -34.42188,-1.577046 c -0.717613,0.153977 -1.148334,0.105577 -1.181454,-0.132775 -0.02866,-0.206307 -0.06777,-0.559814 -0.08687,-0.785577 -0.01911,-0.225765 0.98165,-0.684632 2.223914,-1.019709 1.242264,-0.335075 3.509614,-0.93689 5.038555,-1.337365 1.528941,-0.400476 3.09263,-0.876374 3.474864,-1.057552 0.382237,-0.181179 1.867741,-0.585722 3.301123,-0.898984 1.433382,-0.313263 2.794393,-0.720788 3.024468,-0.905612 0.230077,-0.184825 1.162807,-0.361979 2.072733,-0.393679 1.324775,-0.04615 1.679228,0.06354 1.778949,0.550467 0.08579,0.418884 -0.09296,0.608102 -0.574457,0.608102 -0.384448,0 -1.920509,0.378327 -3.413471,0.840729 -1.492961,0.4624 -4.199983,1.261116 -6.0156,1.774923 -1.815618,0.513807 -4.47389,1.289811 -5.907272,1.724451 -1.433381,0.434643 -3.114347,0.899303 -3.735479,1.032581 z m -0.151655,-0.507873 c 0.423052,0 1.04071,-0.154663 1.372573,-0.343692 0.331863,-0.189034 1.776153,-0.643311 3.209535,-1.009515 1.433382,-0.366198 3.8571,-0.995399 5.386042,-1.398223 1.52894,-0.402819 3.022247,-0.868536 3.318454,-1.034924 0.296212,-0.166385 1.468979,-0.501851 2.606149,-0.745476 1.137175,-0.243626 2.213531,-0.571976 2.391906,-0.729664 0.178379,-0.157689 0.232698,-0.378332 0.12071,-0.490318 -0.111983,-0.111984 -0.492483,-0.03763 -0.845549,0.165225 -0.353067,0.202861 -1.658338,0.608695 -2.900603,0.901853 -1.242264,0.29316 -2.415031,0.583505 -2.606148,0.645214 -0.191118,0.06171 -0.58204,0.208032 -0.868717,0.325162 -0.286676,0.117126 -1.693997,0.516847 -3.127378,0.888254 -1.433382,0.371411 -3.857101,1.0145 -5.386042,1.42909 -1.528941,0.41459 -2.928443,0.89852 -3.110005,1.075405 -0.204994,0.199715 -0.03857,0.321609 0.439073,0.321609 z m 32.090178,0 c -0.14582,0 -0.452769,-0.187643 -0.68211,-0.416984 -0.229341,-0.229341 -0.416983,-0.542079 -0.416983,-0.694973 0,-0.152894 0.195461,-0.278952 0.434358,-0.28013 0.238897,-10e-4 0.836717,-0.212109 1.328486,-0.468738 0.491774,-0.256629 2.055463,-0.748591 3.474866,-1.093252 1.419405,-0.344662 2.658921,-0.73353 2.75448,-0.864155 0.09556,-0.130626 1.265338,-0.508545 2.599505,-0.839819 1.334171,-0.331274 2.585122,-0.726508 2.779893,-0.878299 0.194772,-0.151788 1.499393,-0.551579 2.899162,-0.888422 1.886391,-0.453946 2.646281,-0.511195 2.936262,-0.221214 0.25126,0.251261 0.271304,0.511152 0.05603,0.726431 -0.184358,0.184361 -1.662044,0.738243 -3.283747,1.23085 -1.621699,0.492606 -3.808574,1.130588 -4.85972,1.417738 -1.051148,0.287149 -2.145731,0.61888 -2.432408,0.737185 -0.286675,0.118305 -0.599413,0.241705 -0.694971,0.274227 -0.09556,0.03253 -0.613936,0.241485 -1.151954,0.464366 -0.538013,0.222884 -1.196795,0.405243 -1.463952,0.405243 -0.26716,0 -1.279168,0.312737 -2.248906,0.694973 -0.969738,0.382235 -1.882467,0.694973 -2.028287,0.694973 z m 0.551468,-0.829586 c 0.334455,-0.09979 1.389946,-0.367457 2.345533,-0.5948 0.955589,-0.227342 1.896791,-0.536334 2.091563,-0.68665 0.19477,-0.150316 1.445722,-0.544342 2.779893,-0.875617 1.334167,-0.331273 2.503946,-0.703537 2.599506,-0.82725 0.09556,-0.123712 1.268325,-0.509878 2.606149,-0.858146 1.337822,-0.348267 2.580956,-0.768665 2.762517,-0.934218 0.181563,-0.165551 0.611577,-0.301003 0.955588,-0.301003 0.344012,0 0.625476,-0.159348 0.625476,-0.354108 0,-0.210017 -0.388834,-0.261156 -0.955588,-0.125674 -0.525573,0.125637 -1.265536,0.3881 -1.644361,0.583251 -0.378827,0.19515 -1.786148,0.653394 -3.127379,1.01832 -1.341233,0.364926 -2.634066,0.678795 -2.872964,0.697487 -0.238896,0.01869 -0.434358,0.13941 -0.434358,0.268261 0,0.128852 -0.89912,0.433786 -1.998047,0.677631 -1.098926,0.243845 -2.394373,0.646245 -2.878773,0.894222 -0.484396,0.247977 -1.461704,0.559859 -2.171791,0.693073 -0.710086,0.133212 -1.291066,0.39171 -1.291066,0.574437 0,0.182724 0.273646,0.250578 0.608102,0.150784 z m 30.04021,-0.907847 c -0.344012,0 -0.813118,-0.187643 -1.042459,-0.416983 -0.229341,-0.229342 -0.416984,-0.542078 -0.416984,-0.694974 0,-0.152894 0.250013,-0.277989 0.555586,-0.277989 0.305573,0 1.048326,-0.21419 1.650561,-0.47598 0.602236,-0.261788 2.861872,-1.043632 5.021413,-1.737431 2.159542,-0.693799 4.114154,-1.262417 4.343582,-1.263595 0.229428,-0.0011 0.84058,-0.223045 1.358109,-0.493037 0.517532,-0.269992 1.812799,-0.686004 2.87837,-0.924468 1.460009,-0.326736 2.035865,-0.33511 2.33699,-0.03399 0.219774,0.219773 0.299742,0.499433 0.177707,0.621466 -0.122029,0.122033 -1.284372,0.529526 -2.582981,0.90554 -1.29861,0.376016 -2.556566,0.69576 -2.795463,0.710544 -0.238897,0.01479 -0.434359,0.127047 -0.434359,0.249471 0,0.122423 -1.133675,0.513343 -2.519278,0.86871 -1.385602,0.355368 -2.59746,0.744794 -2.69302,0.865393 -0.09556,0.120599 -1.111957,0.494154 -2.258663,0.830117 -1.146705,0.335967 -2.280379,0.628218 -2.519276,0.649452 -0.238897,0.02124 -0.434359,0.16891 -0.434359,0.328177 0,0.159264 -0.281465,0.289571 -0.625476,0.289571 z m -0.470465,-0.718492 c 0.257261,0.01293 1.351844,-0.229909 2.432405,-0.539659 1.080563,-0.30975 2.121027,-0.67622 2.312145,-0.814383 0.191118,-0.138162 1.363885,-0.527021 2.606149,-0.86413 1.242264,-0.337109 2.415032,-0.729353 2.606148,-0.871654 0.191119,-0.1423 1.481163,-0.546551 2.866765,-0.898337 1.385603,-0.351785 2.519278,-0.765835 2.519278,-0.920112 0,-0.154277 0.260614,-0.280504 0.579145,-0.280504 0.318527,0 0.481641,-0.0975 0.36247,-0.216671 -0.119165,-0.119165 -0.497059,-0.09358 -0.839757,0.05686 -0.342698,0.150442 -0.701273,0.300542 -0.796832,0.333554 -0.09556,0.03302 -0.408296,0.163953 -0.694973,0.29098 -0.286676,0.127027 -1.303075,0.454725 -2.258662,0.728217 -0.955588,0.273494 -2.988385,0.894728 -4.517325,1.380518 -1.528941,0.48579 -3.561738,1.135114 -4.517326,1.442941 -0.955587,0.307827 -2.05017,0.692252 -2.432405,0.854274 -0.382235,0.162023 -0.484486,0.305174 -0.227225,0.318106 z m -64.41647,-0.520213 c -0.770628,0.127468 -1.513381,0.119524 -1.65056,-0.01765 -0.137179,-0.13718 -0.249416,-0.441065 -0.249416,-0.6753 0,-0.241292 1.091948,-0.688606 2.519276,-1.032017 1.385603,-0.333372 2.675648,-0.720997 2.866764,-0.86139 0.191119,-0.140392 1.59844,-0.526991 3.12738,-0.859109 1.52894,-0.332116 2.936261,-0.720612 3.127379,-0.863319 0.191117,-0.14271 1.12933,-0.444097 2.084919,-0.669749 0.955588,-0.225651 2.808571,-0.735185 4.117743,-1.132298 2.175961,-0.660036 2.427753,-0.674577 2.93295,-0.169379 0.303953,0.303953 0.483767,0.611683 0.399584,0.683846 -0.08419,0.07217 -1.45276,0.544991 -3.041281,1.050732 -1.588521,0.505742 -3.074026,0.916847 -3.301122,0.91357 -0.227096,-0.0032 -1.663853,0.383051 -3.192793,0.85851 -1.528942,0.475459 -4.030845,1.241867 -5.559785,1.703129 -1.52894,0.461263 -3.410408,0.942954 -4.181038,1.070428 z m -0.08674,-0.341632 c 0.614671,-0.135006 1.357271,-0.380242 1.650221,-0.544973 0.292949,-0.164729 1.744495,-0.613952 3.225656,-0.998274 1.481161,-0.384322 3.90488,-1.013212 5.386042,-1.397533 1.481161,-0.384324 2.935375,-0.835213 3.231581,-1.001979 0.296213,-0.166765 1.437025,-0.504276 2.535141,-0.750024 1.098116,-0.245747 2.076851,-0.576702 2.174964,-0.735455 0.09813,-0.158753 0.05189,-0.283242 -0.102724,-0.27664 -0.154617,0.0066 -1.688443,0.404509 -3.408502,0.884243 -1.720059,0.479735 -4.221961,1.170256 -5.559785,1.534494 -1.337823,0.364238 -3.839726,1.077711 -5.559784,1.585496 -1.720059,0.507785 -3.397153,0.939951 -3.726876,0.960372 -0.329724,0.02043 -0.681403,0.250564 -0.781506,0.511431 -0.141531,0.368823 0.06654,0.419717 0.935579,0.228842 z m 32.037871,-0.57383 c -0.89376,0.279427 -1.138498,0.227314 -1.476845,-0.314467 -0.353343,-0.56579 -0.260158,-0.709831 0.723803,-1.118805 0.621146,-0.258176 2.302122,-0.750747 3.735505,-1.094605 1.433382,-0.343857 2.762517,-0.741897 2.953636,-0.884531 0.191117,-0.142635 1.520254,-0.515643 2.953635,-0.828905 1.433382,-0.31326 2.918887,-0.716744 3.301122,-0.896627 0.382236,-0.179884 1.632437,-0.562529 2.778221,-0.85032 1.816725,-0.456313 2.147497,-0.459006 2.585466,-0.02104 0.276218,0.276218 0.408341,0.596091 0.293606,0.710826 -0.11474,0.114739 -1.278195,0.503519 -2.585464,0.863964 -1.307272,0.360444 -3.784176,1.06162 -5.504235,1.558169 -1.720059,0.49655 -3.283748,0.9479 -3.474865,1.003002 -0.191118,0.0551 -0.582041,0.19501 -0.868717,0.310906 -0.286675,0.115897 -1.381258,0.439497 -2.432405,0.719113 -1.051147,0.279615 -2.393256,0.659109 -2.982463,0.84332 z M 45.500581,33.89041 c 0.440943,0.01279 1.535526,-0.155692 2.432406,-0.374393 0.896879,-0.218702 1.787059,-0.510077 1.978178,-0.647502 0.191118,-0.137426 1.520254,-0.527141 2.953636,-0.866035 1.433382,-0.338894 2.762518,-0.734139 2.953635,-0.878323 0.191118,-0.144185 1.547244,-0.52675 3.013612,-0.850143 1.466368,-0.323394 2.951875,-0.821146 3.301122,-1.106113 0.594205,-0.484841 0.579195,-0.50337 -0.233721,-0.288444 -0.477793,0.126324 -2.35422,0.610205 -4.169837,1.07529 -1.815617,0.465085 -3.544999,0.981545 -3.843069,1.147687 -0.29807,0.166142 -1.470838,0.493078 -2.606149,0.726523 -1.135311,0.233444 -2.220571,0.51996 -2.411689,0.636699 -0.191116,0.116744 -0.503855,0.248052 -0.694973,0.291806 -0.191117,0.04375 -1.051146,0.311335 -1.911176,0.594627 -1.036559,0.341441 -1.293425,0.522912 -0.761975,0.538321 z m 29.89833,-0.351673 c -0.06668,-0.01509 -0.316688,-0.106306 -0.555585,-0.202702 -0.238897,-0.09639 -0.434359,-0.390762 -0.434359,-0.654146 0,-0.273867 0.632236,-0.636794 1.476818,-0.847746 0.812251,-0.202878 1.748341,-0.521644 2.080204,-0.708367 0.331864,-0.186724 0.761878,-0.339499 0.955588,-0.339499 0.193711,0 0.352201,0.131487 0.352201,0.292191 0,0.160706 -0.860028,0.484658 -1.911175,0.719893 -1.311081,0.293408 -1.911176,0.596901 -1.911176,0.966561 0,0.385074 0.123959,0.439517 0.434358,0.19077 0.238898,-0.191447 1.372572,-0.610204 2.519278,-0.930574 1.146705,-0.320368 2.554025,-0.791859 3.127379,-1.047756 0.573352,-0.255896 1.589751,-0.553803 2.258662,-0.662014 l 1.216202,-0.19675 -1.216202,0.420711 c -0.668911,0.231393 -1.372571,0.518838 -1.563689,0.638771 -0.191118,0.119933 -1.2857,0.480453 -2.432406,0.801155 -1.146705,0.320703 -2.577659,0.80896 -3.179894,1.085016 -0.602236,0.276055 -1.149528,0.489574 -1.216204,0.474486 z M 42.694614,31.481251 c -0.254594,0 -0.650538,-0.187644 -0.879878,-0.416984 -0.229342,-0.229341 -0.416984,-0.524676 -0.416984,-0.656301 0,-0.131624 0.586383,-0.348897 1.303074,-0.482827 0.716691,-0.133931 1.459444,-0.364526 1.650561,-0.512433 0.191118,-0.147906 1.520254,-0.546196 2.953636,-0.885091 1.433381,-0.338893 2.762518,-0.731037 2.953635,-0.87143 0.191118,-0.140392 1.598439,-0.52699 3.127379,-0.859107 1.52894,-0.332118 2.936261,-0.720613 3.12738,-0.863322 0.191117,-0.142709 1.098257,-0.442679 2.015873,-0.666602 0.91761,-0.223921 1.825388,-0.310095 2.017283,-0.191497 0.191897,0.118604 0.301153,0.462904 0.242794,0.765125 -0.06693,0.346587 -0.811827,0.722206 -2.017288,1.017231 -1.051147,0.257258 -2.067545,0.519082 -2.258662,0.58183 -0.191119,0.06274 -0.582041,0.208911 -0.868718,0.324809 -0.286676,0.115896 -1.459443,0.459991 -2.606148,0.764655 -1.146706,0.304664 -2.241289,0.589685 -2.432405,0.63338 -0.191119,0.04369 -0.503857,0.174959 -0.694974,0.291699 -0.191118,0.116743 -1.261387,0.400143 -2.378378,0.629783 -1.116992,0.229642 -2.558385,0.63793 -3.203089,0.907307 -0.64471,0.269376 -1.380503,0.489775 -1.635091,0.489775 z m -0.120297,-0.694974 c 0.137462,0 1.375383,-0.252858 2.750933,-0.561908 1.375553,-0.309051 2.657371,-0.67861 2.84849,-0.821246 0.191116,-0.142636 1.520252,-0.536613 2.953635,-0.875508 1.433382,-0.338893 2.762517,-0.734139 2.953636,-0.878324 0.191116,-0.144184 1.559894,-0.529563 3.041722,-0.856397 1.481833,-0.326835 2.796329,-0.759428 2.921105,-0.961317 0.148883,-0.240899 -0.06055,-0.286166 -0.609322,-0.131692 -0.459898,0.129459 -2.165316,0.546768 -3.789817,0.927355 -1.624499,0.380586 -3.266373,0.840842 -3.648608,1.022793 -0.382235,0.18195 -1.633186,0.587988 -2.779892,0.902306 -1.146705,0.314318 -3.059046,0.838114 -4.249646,1.163992 -1.1906,0.325877 -2.272152,0.699929 -2.40345,0.831226 -0.131297,0.131296 -0.126251,0.23872 0.01121,0.23872 z m 37.170541,-0.03435 c -0.163534,-0.0189 0.40633,-0.251689 1.266359,-0.517317 0.860029,-0.265629 1.876427,-0.631422 2.258662,-0.812872 0.382235,-0.18145 1.633186,-0.582824 2.779892,-0.891939 1.146706,-0.309116 2.577659,-0.787892 3.179895,-1.063949 0.602236,-0.276055 1.492128,-0.501919 1.977539,-0.501919 0.48541,0 0.968257,0.138651 1.072989,0.308114 0.104731,0.169463 -0.0034,0.461723 -0.240105,0.649467 -0.236792,0.187745 -1.290563,0.540903 -2.34171,0.784797 -1.051145,0.243894 -1.989359,0.557466 -2.084918,0.696824 -0.09556,0.139359 -0.721034,0.361727 -1.389947,0.494152 l -1.216202,0.240771 1.01808,-0.556417 c 0.559946,-0.306031 2.004177,-0.804118 3.209403,-1.10686 1.205225,-0.302743 2.106088,-0.688348 2.001918,-0.856901 -0.104171,-0.168554 -0.414729,-0.30646 -0.690125,-0.30646 -0.275397,0 -0.500722,0.121734 -0.500722,0.270522 0,0.148788 -1.133674,0.558865 -2.519277,0.911284 -1.385602,0.352418 -2.675646,0.763994 -2.866764,0.914614 -0.191118,0.150621 -1.308272,0.522386 -2.482562,0.82615 -1.174293,0.303762 -2.268875,0.536835 -2.432405,0.517939 z m -7.690507,-0.313131 c -0.170195,0 -0.413689,-0.104241 -0.541099,-0.231657 -0.127412,-0.127412 -0.231657,-0.44015 -0.231657,-0.694973 0,-0.254824 0.251281,-0.463315 0.558406,-0.463315 0.353599,0 0.485047,0.191172 0.358391,0.521229 -0.110505,0.28797 -0.01049,0.520273 0.223437,0.51909 0.2329,-0.0011 0.871343,-0.235731 1.418763,-0.521231 0.547419,-0.285498 1.133804,-0.519088 1.303075,-0.519088 0.169271,0 0.307765,0.137805 0.307765,0.306234 0,0.168429 -0.69472,0.481167 -1.54382,0.694973 -0.8491,0.213807 -1.683069,0.388738 -1.853261,0.388738 z m 0.88305,-1.426125 c -0.241783,-0.01989 0.342241,-0.265495 1.297828,-0.545771 0.955588,-0.280275 2.206541,-0.714501 2.779893,-0.964947 0.573353,-0.250448 1.86388,-0.646038 2.867834,-0.879092 1.003957,-0.233053 1.912308,-0.56439 2.018556,-0.736304 0.106246,-0.171914 0.418506,-0.312572 0.693902,-0.312572 0.275399,0 0.500723,0.139526 0.500723,0.310057 0,0.170529 -1.133676,0.585271 -2.519278,0.921648 -1.385603,0.336377 -2.597462,0.712588 -2.693022,0.836024 -0.09556,0.123437 -1.148689,0.49054 -2.340286,0.815783 -1.191602,0.325244 -2.364368,0.575072 -2.60615,0.555174 z m 2.985104,-2.55e-4 c -0.163534,-0.02004 0.328146,-0.242577 1.092617,-0.494525 0.76447,-0.25195 1.663592,-0.470108 1.998047,-0.484795 0.334456,-0.01469 0.608102,-0.156901 0.608102,-0.316028 0,-0.159128 1.172766,-0.581364 2.606148,-0.938301 1.433382,-0.356937 2.606149,-0.760289 2.606149,-0.896335 0,-0.136048 0.624656,-0.352896 1.388126,-0.481882 0.76347,-0.128988 1.476358,-0.377286 1.584198,-0.551773 0.107833,-0.174489 0.137038,-0.317251 0.06489,-0.317251 -0.07216,0 -0.952471,0.243896 -1.95627,0.541992 -1.003794,0.298097 -2.009483,0.47997 -2.234859,0.404163 -0.225376,-0.07581 0.450255,-0.343862 1.501402,-0.595679 1.051146,-0.251819 2.168542,-0.617509 2.483105,-0.812645 0.421761,-0.261641 0.720471,-0.206248 1.137694,0.210975 0.522704,0.522703 0.452716,0.598106 -0.919414,0.990551 -0.816851,0.233629 -1.641551,0.536959 -1.832669,0.674066 -0.191117,0.137106 -1.363885,0.525101 -2.606148,0.862211 -1.242265,0.337109 -2.415031,0.730865 -2.606149,0.875012 -0.191118,0.144148 -1.308273,0.510621 -2.482563,0.814383 -1.174292,0.303763 -2.268875,0.5359 -2.432406,0.515861 z m -54.224749,-0.69885 c -0.154267,-0.02217 -0.593222,-0.109515 -0.975457,-0.194089 -0.382235,-0.08459 -0.929527,-0.248395 -1.216203,-0.364037 -0.286676,-0.115647 -0.623438,-0.223764 -0.74836,-0.240271 -0.124921,-0.0165 -0.620985,-0.454986 -1.10236,-0.974401 -0.481377,-0.519414 -0.975497,-1.260297 -1.098044,-1.646408 -0.13112,-0.413121 0.03094,-1.131587 0.393806,-1.745871 0.339141,-0.574119 1.091837,-1.196882 1.67266,-1.38392 0.580823,-0.187038 1.688087,-0.437618 2.460586,-0.556845 0.772499,-0.119224 2.101635,-0.03164 2.953635,0.194636 0.852,0.226278 1.900922,0.737425 2.330936,1.135887 0.504171,0.467176 0.781844,1.128641 0.781844,1.862491 0,0.831203 -0.298646,1.417129 -1.107717,2.173272 -0.609244,0.569388 -1.773071,1.20279 -2.586281,1.407559 -0.813208,0.204768 -1.604779,0.354167 -1.759045,0.331997 z m 17.756495,-0.307178 c -0.419123,0 -0.856956,-0.247342 -0.972961,-0.54965 -0.116004,-0.302307 -0.210922,-0.597642 -0.210922,-0.656301 0,-0.05865 0.586384,-0.21623 1.303076,-0.350161 0.71669,-0.133931 1.459443,-0.364525 1.65056,-0.512432 0.191118,-0.147907 1.520253,-0.546198 2.953635,-0.885091 1.433383,-0.338894 2.762519,-0.73414 2.953636,-0.878324 0.191118,-0.144184 1.598438,-0.533886 3.127379,-0.866004 1.528941,-0.332116 2.93626,-0.719599 3.127379,-0.861072 0.191118,-0.141472 1.171742,-0.450463 2.179164,-0.686644 1.447515,-0.339355 1.939456,-0.339976 2.345535,-0.003 0.282621,0.234555 0.513856,0.533719 0.513856,0.664811 0,0.13109 -0.977306,0.494756 -2.171791,0.808145 -1.194485,0.313388 -3.657296,0.976284 -5.472913,1.4731 -1.815617,0.496818 -3.61386,1.048772 -3.996096,1.226567 -0.382235,0.177796 -1.867739,0.577999 -3.301121,0.889342 -1.433382,0.311343 -2.7547,0.705713 -2.936261,0.876376 -0.181562,0.170657 -0.673033,0.310291 -1.092155,0.310291 z m 0.0301,-0.694974 c 0.116888,0 1.337977,-0.252857 2.713526,-0.561908 1.375553,-0.309049 2.657373,-0.67861 2.84849,-0.821245 0.191119,-0.142635 1.520253,-0.540233 2.953635,-0.88355 1.433382,-0.343318 2.840703,-0.754612 3.12738,-0.913987 0.286675,-0.159376 1.683315,-0.571451 3.103638,-0.915725 1.420323,-0.344273 2.650276,-0.829554 2.733225,-1.078403 0.119212,-0.357646 -0.0048,-0.369201 -0.59154,-0.05515 -0.408301,0.218515 -0.882144,0.310909 -1.052989,0.205322 -0.170842,-0.10559 -0.363071,-0.06536 -0.427176,0.08939 -0.06411,0.154753 -1.367502,0.607378 -2.896442,1.005831 -1.52894,0.398455 -4.030844,1.056676 -5.559785,1.462713 -1.52894,0.406037 -3.046709,0.88966 -3.372819,1.074718 -0.326106,0.185059 -1.228694,0.438134 -2.005748,0.56239 -0.777053,0.124255 -1.49677,0.361749 -1.599372,0.527762 -0.10261,0.166015 -0.09092,0.301843 0.02598,0.301843 z m 29.81971,-0.02442 c -0.609852,0.01343 -1.188875,-0.105101 -1.286713,-0.263408 -0.09784,-0.158309 0.40113,-0.536874 1.108821,-0.841256 0.707694,-0.304383 1.912191,-0.721277 2.676662,-0.926432 0.76447,-0.205155 1.624499,-0.35978 1.911176,-0.34361 0.286676,0.01617 -0.02606,0.179814 -0.694974,0.36365 -0.668911,0.183836 -1.68531,0.541655 -2.258662,0.795154 -0.573353,0.253498 -1.277013,0.55613 -1.563689,0.672516 -0.286677,0.116385 0.18243,0.135917 1.042459,0.04341 1.12651,-0.121177 1.369386,-0.07821 0.868716,0.153676 -0.382235,0.177034 -1.193943,0.332871 -1.803796,0.346302 z m 3.714968,-0.867756 -1.216202,0.231468 1.13911,-0.586499 c 0.626508,-0.322574 1.238952,-0.486652 1.360985,-0.364618 0.122035,0.122034 0.156728,0.281799 0.0771,0.355032 -0.07964,0.07323 -0.692078,0.237311 -1.360991,0.364617 z m 2.013505,-0.876829 c -0.247397,-0.01737 0.410214,-0.25904 1.461361,-0.537053 1.051147,-0.278013 2.380283,-0.716987 2.953636,-0.975498 0.573353,-0.258509 1.94343,-0.667607 3.044614,-0.909107 1.101181,-0.241498 2.183981,-0.658179 2.406216,-0.925955 0.336718,-0.40572 0.234681,-0.44628 -0.612209,-0.243358 -0.558949,0.13393 -1.174004,0.36615 -1.366787,0.516046 -0.192785,0.149897 -1.443736,0.523262 -2.779891,0.8297 -1.336159,0.306438 -2.943763,0.797983 -3.572461,1.092323 -0.628696,0.294339 -1.410543,0.464844 -1.737433,0.378898 -0.430591,-0.113212 -0.378934,-0.167369 0.187497,-0.196572 0.430015,-0.02217 0.781844,-0.168087 0.781844,-0.32426 0,-0.156173 1.21186,-0.566088 2.693021,-0.910921 1.481161,-0.344833 2.84939,-0.743869 3.040507,-0.886746 0.191118,-0.142876 1.181069,-0.455253 2.199889,-0.694168 1.273237,-0.298576 1.964527,-0.322271 2.211012,-0.07578 0.197233,0.197235 0.263322,0.512784 0.146862,0.701221 -0.116458,0.188436 -1.424154,0.61135 -2.905985,0.939809 -1.481829,0.328458 -2.772421,0.709525 -2.867981,0.846815 -0.09556,0.137291 -1.222276,0.509845 -2.503821,0.8279 -1.28154,0.318056 -2.532491,0.564075 -2.779891,0.546709 z m -9.067481,-1.010886 c -0.248453,0 -0.639375,-0.187641 -0.868717,-0.416983 -0.229341,-0.229342 -0.416983,-0.524677 -0.416983,-0.656301 0,-0.131625 0.586384,-0.348897 1.303075,-0.482828 0.71669,-0.133931 1.459443,-0.367581 1.65056,-0.519223 0.191117,-0.151641 1.520254,-0.532017 2.953636,-0.84528 1.433382,-0.313261 2.957743,-0.748787 3.38747,-0.967833 0.429725,-0.219046 0.885801,-0.293784 1.013503,-0.166084 0.127701,0.127699 0.160083,0.304278 0.07196,0.392396 -0.08811,0.08811 -1.404225,0.429571 -2.92468,0.758786 -1.520455,0.329213 -2.847336,0.718874 -2.948621,0.865912 -0.101289,0.147038 -0.847502,0.373414 -1.658261,0.50306 -0.81076,0.129645 -1.558053,0.371548 -1.660657,0.537562 -0.102609,0.166014 -0.02096,0.301844 0.181444,0.301844 0.202398,0 0.367995,0.156367 0.367995,0.347486 0,0.191118 -0.203278,0.347486 -0.451732,0.347486 z m 1.017208,-0.726547 c -0.215453,-0.01737 0.468297,-0.253369 1.519443,-0.524455 1.051148,-0.271083 2.154998,-0.630496 2.452998,-0.798693 0.298001,-0.168197 1.783507,-0.576359 3.301122,-0.907023 1.517617,-0.330665 2.907852,-0.738889 3.089412,-0.907165 0.181563,-0.168275 0.533394,-0.305954 0.781846,-0.305954 0.248452,0 0.451733,0.13079 0.451733,0.290645 0,0.159855 -1.290045,0.580874 -2.866764,0.935598 -1.576722,0.354724 -2.944949,0.747876 -3.040507,0.87367 -0.09556,0.125795 -1.326601,0.48662 -2.735647,0.801834 -1.409045,0.315216 -2.738181,0.558909 -2.953636,0.541543 z m -3.895555,-2.402971 c -0.398164,0.0011 -0.828179,-0.10211 -0.955589,-0.229516 -0.127412,-0.127413 -0.231659,-0.423178 -0.231659,-0.657259 0,-0.246112 0.952545,-0.614936 2.258662,-0.874551 1.242266,-0.246923 2.258664,-0.576632 2.258664,-0.732688 0,-0.156055 0.312738,-0.283737 0.694973,-0.283737 0.382234,0 0.694973,0.138664 0.694973,0.308141 0,0.169476 -1.008754,0.498477 -2.241674,0.731113 -1.232917,0.232634 -2.522961,0.636291 -2.866764,0.89701 -0.592933,0.449655 -0.588448,0.474607 0.08726,0.48509 0.39179,0.006 0.860897,-0.125339 1.04246,-0.292038 0.18156,-0.1667 1.502879,-0.578983 2.93626,-0.916187 1.433382,-0.337204 2.762518,-0.731066 2.953635,-0.87525 0.191118,-0.144184 1.598439,-0.532434 3.127379,-0.862777 1.528941,-0.330344 2.928444,-0.738304 3.110004,-0.90658 0.181563,-0.168275 0.533392,-0.305955 0.781845,-0.305955 0.248453,0 0.451734,0.13079 0.451734,0.290646 0,0.159855 -1.290045,0.580874 -2.866765,0.935598 -1.57672,0.354724 -2.944948,0.74658 -3.040506,0.87079 -0.09556,0.124212 -1.424696,0.516233 -2.953636,0.871161 -1.528941,0.354928 -3.170815,0.847716 -3.648609,1.095086 -0.477795,0.247369 -1.194484,0.450726 -1.592644,0.451903 z m 12.712213,-1.091618 c -0.286675,-0.0146 0.495169,-0.275003 1.737434,-0.578675 1.242264,-0.303673 2.353245,-0.68868 2.468842,-0.855572 0.115599,-0.166893 0.729035,-0.252749 1.363187,-0.190792 0.634153,0.06195 1.210452,0.287958 1.280664,0.502222 0.07064,0.215569 -0.568163,0.564786 -1.430188,0.781846 -0.856815,0.215749 -1.762249,0.375875 -2.012075,0.355835 -0.249825,-0.02004 0.171249,-0.242576 0.935719,-0.494525 0.76447,-0.25195 1.155392,-0.467664 0.868716,-0.479366 -0.286677,-0.01169 -1.459443,0.205264 -2.606149,0.482146 -1.146705,0.276884 -2.319473,0.49148 -2.60615,0.476881 z M 64.049122,18.93709 c -0.58605,0.313645 -0.910058,0.214714 -1.863869,-0.569108 -0.634983,-0.521811 -1.235153,-1.057585 -1.333713,-1.190605 -0.09856,-0.133023 -1.248255,-0.428026 -2.554873,-0.655564 -1.771869,-0.308558 -2.675734,-0.677164 -3.556278,-1.450291 -0.952766,-0.836541 -1.180607,-1.290932 -1.180607,-2.354539 0,-1.069076 0.227756,-1.517925 1.206119,-2.376938 0.832071,-0.7305667 1.853177,-1.1862863 3.292559,-1.4694677 1.14754,-0.2257653 2.17233,-0.4104824 2.277309,-0.4104824 0.104982,0 1.129769,0.1847171 2.277309,0.4104824 1.439383,0.2831814 2.46049,0.738901 3.29256,1.4694677 0.866712,0.760982 1.206119,1.348637 1.206119,2.088293 0,0.566118 -0.154216,1.317458 -0.342699,1.669643 -0.277805,0.519083 -0.113307,0.841746 0.868717,1.703973 0.666277,0.584999 1.211414,1.302966 1.211414,1.595481 0,0.369759 -0.348606,0.531846 -1.143853,0.531846 -0.894028,0 -1.473891,-0.336284 -2.654957,-1.539702 -1.400708,-1.427217 -1.469457,-1.581348 -0.941066,-2.109739 0.31352,-0.313522 0.570038,-0.938622 0.570038,-1.389113 0,-0.450493 -0.229616,-1.048692 -0.510257,-1.329333 -0.280644,-0.280643 -1.38113,-0.784182 -2.44553,-1.118976 -1.453015,-0.4570281 -2.12683,-0.5179822 -2.70399,-0.244604 -0.422798,0.200263 -1.2829,0.557709 -1.911336,0.794326 -0.628437,0.236617 -1.301668,0.72741 -1.496069,1.090653 -0.194402,0.363243 -0.255527,0.968987 -0.135835,1.346099 0.119691,0.377112 0.671722,0.920485 1.226738,1.207495 0.555016,0.287008 1.939337,0.619061 3.076267,0.737895 1.847446,0.193097 2.221901,0.37374 3.523149,1.699615 1.392916,1.419279 1.425265,1.500001 0.746634,1.863193 z m -0.499974,-0.456752 c 0.119695,-0.119695 -0.365021,-0.767194 -1.077142,-1.438888 -0.712122,-0.671696 -1.465088,-1.116 -1.673256,-0.987345 -0.247817,0.15316 -0.181975,0.34389 0.190707,0.552454 0.313057,0.175197 0.968092,0.717434 1.455629,1.204972 0.487541,0.487539 0.984367,0.788503 1.104062,0.668807 z m 3.996964,-0.903145 c 0.334456,0.0025 0.608101,-0.140416 0.608101,-0.317662 0,-0.177247 -0.412011,-0.646353 -0.915578,-1.04246 -0.503567,-0.396107 -1.050859,-0.720193 -1.216203,-0.720193 -0.165344,0 -0.300624,0.124564 -0.300624,0.27681 0,0.152247 0.273646,0.619282 0.608101,1.037857 0.334455,0.418575 0.881747,0.763118 1.216203,0.765648 z M 58.42459,16.148369 c 0.784266,-0.02497 0.76667,-0.05213 -0.181013,-0.279407 C 57.666225,15.7305 56.767104,15.3376 56.24553,14.995851 c -0.521574,-0.341748 -0.948318,-0.46654 -0.948318,-0.277314 0,0.189227 0.508198,0.594574 1.129331,0.90077 0.621131,0.306195 1.520254,0.544273 1.998047,0.529062 z m 6.254756,-0.998984 c 0.191117,0 0.347486,-0.156369 0.347486,-0.347486 0,-0.191118 -0.156369,-0.347488 -0.347486,-0.347488 -0.191119,0 -0.347486,0.15637 -0.347486,0.347488 0,0.191117 0.156367,0.347486 0.347486,0.347486 z m -9.849295,-0.942558 c 0.03451,-0.150505 0.158459,-0.847362 0.275423,-1.548571 0.165159,-0.990129 0.501412,-1.449394 1.505276,-2.055959 0.981489,-0.593045 1.84097,-0.784313 3.5709,-0.794662 1.857785,-0.011093 2.499148,0.1407908 3.474866,0.823014 0.658114,0.460155 1.311454,1.000546 1.451868,1.200872 0.140411,0.200326 0.257689,0.785014 0.260615,1.299309 0.0027,0.514295 0.157105,1.028888 0.342619,1.143542 0.185514,0.114657 0.437019,-0.188855 0.558899,-0.674465 0.121881,-0.485611 0.126093,-1.263469 0.0093,-1.728573 C 66.16309,11.406228 65.61148,10.700916 65.054025,10.303974 64.496571,9.9070319 63.216481,9.4259942 62.209382,9.2350014 61.202283,9.04401 59.82142,8.9764857 59.140798,9.0849494 58.460175,9.1934143 57.554341,9.35359 57.127833,9.4408987 c -0.426509,0.087316 -1.32563,0.6417893 -1.998047,1.2321803 -0.830761,0.729426 -1.222566,1.373708 -1.222566,2.010399 0,0.515331 0.193505,1.130473 0.430014,1.36698 0.236508,0.236508 0.458255,0.306873 0.492775,0.156369 z m 14.528708,4.430208 c -0.197525,0.162221 -0.559593,0.171062 -0.804588,0.01965 -0.276985,-0.171185 0.384501,-0.448653 1.749088,-0.733677 1.206994,-0.252107 2.272717,-0.562454 2.368277,-0.689663 0.09556,-0.127209 1.445342,-0.547399 2.999521,-0.933757 1.966902,-0.488959 3.009331,-0.599748 3.429686,-0.364506 0.492218,0.275459 0.515863,0.393735 0.127856,0.63953 -0.261827,0.165863 -0.788787,0.301568 -1.171022,0.301568 -0.575486,0 -0.605356,-0.05791 -0.173744,-0.336845 0.286677,-0.185265 0.350621,-0.339238 0.142099,-0.342165 -0.208525,-0.0029 -1.099375,0.21144 -1.979673,0.47637 -0.880295,0.264931 -1.686992,0.395238 -1.792658,0.289573 -0.105662,-0.105662 -0.192119,-0.03004 -0.192119,0.168069 0,0.198105 -0.977306,0.551604 -2.171791,0.785551 -1.194485,0.233948 -2.333403,0.558084 -2.530932,0.720306 z M 58.982016,13.665327 c -0.115468,0.115468 -0.197596,-0.08978 -0.182507,-0.456075 0.01667,-0.404802 0.09902,-0.487142 0.209937,-0.20994 0.100373,0.250841 0.08803,0.550549 -0.02742,0.666015 z m 2.56995,-0.253376 c -0.191116,0 -0.347486,-0.234552 -0.347486,-0.521229 0,-0.286676 0.15637,-0.521228 0.347486,-0.521228 0.191119,0 0.347486,0.234552 0.347486,0.521228 0,0.286677 -0.156367,0.521229 -0.347486,0.521229 z m -1.940132,-1.06989 c -0.404804,-0.01668 -0.48714,-0.09902 -0.20994,-0.20994 0.25084,-0.100374 0.550547,-0.08803 0.666017,0.02744 0.115466,0.115466 -0.08978,0.197594 -0.456077,0.182507 z m 35.240664,83.527918 c 0.06356,-0.26653 -0.03332,-0.672547 -0.21533,-0.902263 -0.181993,-0.229716 -0.528938,-1.043141 -0.770987,-1.807611 -0.242049,-0.76447 -0.903749,-2.289067 -1.470444,-3.387994 -0.5667,-1.098925 -1.209973,-1.998067 -1.429501,-1.998088 -0.219527,-2.4e-5 -1.37645,0.425691 -2.570934,0.946038 -1.194485,0.520348 -2.171792,1.114654 -2.171792,1.320686 0,0.206031 1.055492,1.242159 2.345534,2.302512 1.290045,1.060347 2.892826,2.207936 3.561738,2.550193 0.668911,0.34226 1.294386,0.733391 1.389946,0.869185 0.09556,0.135794 0.408296,0.324531 0.694973,0.41942 0.286675,0.09488 0.573234,-0.04554 0.636797,-0.312078 z M 72.89409,94.723795 c 0.122406,0 0.865158,-0.30174 1.650561,-0.670535 0.785403,-0.368794 2.486806,-1.152004 3.780893,-1.740469 l 2.352887,-1.069936 -0.486303,-0.95255 c -0.267467,-0.523902 -0.827884,-1.708269 -1.245364,-2.631922 -0.439852,-0.973136 -0.932554,-1.607095 -1.17161,-1.507512 -0.226902,0.09452 -1.204885,0.507373 -2.173296,0.917441 l -1.760749,0.745585 -0.584785,3.050567 c -0.321633,1.67781 -0.584788,3.232538 -0.584788,3.454946 0,0.222412 0.100155,0.404385 0.222554,0.404385 z M 61.930953,91.877226 c 0.269351,-0.08883 0.539698,-0.501085 0.600769,-0.91613 0.06107,-0.415045 -0.0562,-0.754627 -0.260615,-0.754627 -0.204409,0 -0.371655,0.143583 -0.371655,0.319067 0,0.175488 -0.103098,0.587745 -0.229115,0.91613 -0.160809,0.419062 -0.08312,0.548914 0.260616,0.43556 z m 6.223258,-2.886959 c 0.164253,-0.382235 0.309631,-0.812249 0.323062,-0.955588 0.01344,-0.143337 -0.226857,-0.260615 -0.533984,-0.260615 -0.36643,0 -0.485894,0.188964 -0.347486,0.549651 0.116004,0.302307 0.221913,0.732321 0.235347,0.955587 0.01343,0.223264 0.158806,0.0932 0.323061,-0.289035 z m 17.281951,0.173742 c 0.124198,0 1.288448,-0.430013 2.587218,-0.955587 1.298773,-0.525574 2.363332,-1.136715 2.365688,-1.358091 0.0024,-0.221377 -0.707969,-1.276867 -1.5785,-2.345535 -0.870529,-1.068665 -1.766627,-1.943029 -1.991334,-1.943029 -0.224702,0 -1.215375,0.33441 -2.2015,0.743134 -1.729941,0.717025 -1.782634,0.779111 -1.499392,1.766715 0.161457,0.562971 0.698209,1.714061 1.192783,2.557988 0.494571,0.843924 1.000838,1.534405 1.125037,1.534405 z M 73.944069,86.731606 c 0.126541,0 1.064755,-0.263111 2.08492,-0.584689 1.53966,-0.485334 1.854844,-0.721522 1.854844,-1.389945 0,-0.486711 -0.207688,-0.80526 -0.525017,-0.80526 -0.288757,0 -1.226971,0.329961 -2.084918,0.733243 -1.039287,0.488521 -1.559903,0.952412 -1.559903,1.389946 0,0.361188 0.103536,0.656705 0.230074,0.656705 z m 21.156569,-1.737434 c 0.277757,0 0.505009,-0.08866 0.505009,-0.197018 0,-0.108357 -0.816632,-1.124758 -1.814735,-2.258662 -0.998102,-1.133904 -2.032696,-2.061644 -2.299096,-2.061644 -0.297032,0 -0.03193,0.524291 0.685404,1.355607 0.643371,0.745584 1.450711,1.761983 1.794087,2.258662 0.343379,0.496681 0.851577,0.903055 1.129331,0.903055 z m -10.607291,-2.35926 c 1.629649,-0.521142 1.690454,-0.583533 1.150295,-1.1804 -0.31367,-0.346598 -0.897898,-0.625204 -1.298293,-0.619127 -0.400391,0.006 -1.015815,0.229149 -1.367607,0.495709 -0.418703,0.31727 -0.564559,0.721139 -0.422303,1.169353 0.209355,0.659609 0.280339,0.664536 1.937908,0.134465 z M 99.00841,81.707239 c 0.106031,-0.106031 -0.282858,-0.849389 -0.864193,-1.651903 -0.581338,-0.802513 -1.233967,-1.518113 -1.450287,-1.590219 -0.216322,-0.07211 -0.39331,0.01009 -0.39331,0.182795 0,0.172641 0.565875,0.974995 1.257501,1.783005 0.691628,0.808007 1.344257,1.382353 1.450289,1.276322 z m -8.225028,-1.925364 c 0.358836,0 0.652426,-0.11876 0.652426,-0.263899 0,-0.145145 -0.319096,-0.463183 -0.709108,-0.706746 -0.390008,-0.243563 -0.866708,-0.345443 -1.059334,-0.226394 -0.228546,0.141251 -0.208853,0.386791 0.05668,0.706745 0.2238,0.26966 0.700498,0.490294 1.059331,0.490294 z m 5.214939,-2.084919 c 0.630323,0 0.635472,-0.04629 0.0966,-0.868716 -0.31306,-0.477794 -0.70759,-0.868717 -0.876726,-0.868717 -0.169136,0 -0.307522,0.143581 -0.307522,0.319066 0,0.175489 0.09491,0.566411 0.210921,0.868717 0.116003,0.302309 0.510534,0.54965 0.876727,0.54965 z m 3.690291,-11.086858 c 0.937818,-0.249938 0.960168,-0.318587 1.202088,-3.690599 0.13556,-1.889757 0.19634,-3.486065 0.13505,-3.547348 -0.0613,-0.06129 -0.50074,0.0366 -0.97658,0.217509 -0.725194,0.275716 -0.901146,0.628641 -1.087635,2.181513 -0.12236,1.018918 -0.223825,2.581808 -0.225489,3.47309 -0.0031,1.598362 0.0104,1.617028 0.952566,1.365835 z m 40.182158,31.936048 c -4.37094,0 -5.37075,-0.1003 -6.3766,-0.639743 -0.65607,-0.351859 -1.35729,-0.938242 -1.55826,-1.303075 -0.20097,-0.364833 -0.51274,-0.769327 -0.69283,-0.898882 -0.1801,-0.129553 -0.32222,-0.989582 -0.31582,-1.911175 0.007,-1.106495 0.27807,-2.118215 0.79611,-2.9787 0.43147,-0.71669 0.98447,-1.303073 1.22886,-1.303073 0.2444,0 0.62216,-0.214248 0.83949,-0.476102 0.3115,-0.375338 0.13665,-0.673256 -0.82617,-1.40763 -0.67172,-0.512342 -1.22129,-1.174856 -1.22129,-1.472252 0,-0.297396 -0.19546,-0.466028 -0.43436,-0.374736 -0.30666,0.117184 -0.42583,-0.255004 -0.40537,-1.265897 0.016,-0.787537 0.0551,-1.770604 0.0869,-2.184592 0.0318,-0.413988 0.65525,-1.393334 1.38537,-2.176322 0.73013,-0.782988 1.43378,-1.317328 1.56368,-1.187425 0.12991,0.129905 0.23619,0.06865 0.23619,-0.136117 0,-0.248432 1.8498,-0.378691 5.55979,-0.391506 3.05789,-0.01062 5.55978,0.112676 5.55978,0.273862 0,0.161184 0.35183,0.406398 0.78186,0.544917 0.43,0.138519 0.91073,0.231065 1.06828,0.20566 0.15755,-0.0254 0.1952,0.101456 0.0836,0.281892 -0.11153,0.180446 0.0333,0.564075 0.32167,0.852506 0.28843,0.288434 0.52441,0.691964 0.52441,0.896731 0,0.20477 0.12712,0.372307 0.2825,0.372307 0.15534,0 0.22723,0.734635 0.1597,1.632526 -0.0675,0.897888 -0.31272,2.028866 -0.5449,2.51328 -0.23219,0.484414 -0.9235,1.19619 -1.53629,1.581724 -0.61276,0.385533 -1.12015,0.821601 -1.12752,0.969036 -0.007,0.147435 0.33845,0.428659 0.76847,0.624939 0.43001,0.196283 1.13368,0.894397 1.56368,1.551368 0.50519,0.771803 0.78018,1.718804 0.77711,2.676181 -0.002,0.814929 -0.0916,1.794428 -0.19777,2.176663 -0.10616,0.382235 -0.86209,1.203171 -1.67983,1.824304 l -1.48679,1.129331 z m -1.76719,-1.047582 3.05818,0.0051 -0.84607,-1.129331 c -0.46534,-0.621132 -0.95405,-1.484675 -1.08604,-1.918984 -0.13199,-0.434309 -0.13864,-1.251014 -0.0148,-1.814901 0.12385,-0.563887 0.68,-1.512129 1.23589,-2.107204 l 1.0107,-1.081958 -3.62949,0.1383 c -2.91304,0.110994 -3.76972,0.265212 -4.33994,0.781257 -0.39076,0.35363 -0.93307,1.089179 -1.20514,1.634557 -0.27207,0.545372 -0.42172,1.419206 -0.33254,1.941851 0.0892,0.522647 0.44528,1.341186 0.79136,1.81898 0.34609,0.477795 1.00508,1.061873 1.46445,1.297953 0.47364,0.243415 2.15915,0.431453 3.89342,0.434357 z m -1.8529,-1.73231 c -0.38824,0 -0.78852,-0.215329 -0.8895,-0.478509 -0.10099,-0.263181 -0.13518,-1.240486 -0.076,-2.171791 0.0983,-1.545801 0.18332,-1.693281 0.97636,-1.693281 0.79043,0 0.86408,0.125269 0.81725,1.389945 -0.0283,0.764471 -0.0674,1.741777 -0.0868,2.171792 -0.0246,0.542597 -0.25141,0.781844 -0.74129,0.781844 z m 6.91128,1.04246 c 0.57561,0 1.4169,-0.140802 1.86953,-0.312892 0.46205,-0.175672 1.09654,-0.919587 1.44679,-1.69631 0.5169,-1.146274 0.55075,-1.5245 0.19747,-2.206391 -0.2345,-0.452628 -0.66229,-1.09355 -0.95065,-1.424266 -0.28835,-0.330721 -1.03111,-0.696388 -1.65056,-0.812598 -0.72947,-0.13685 -1.51371,-0.01097 -2.22589,0.357335 -0.60478,0.312741 -1.24924,0.962235 -1.43216,1.44332 -0.18291,0.48108 -0.33257,1.267464 -0.33257,1.747517 0,0.501388 0.43227,1.305078 1.01574,1.888554 0.67298,0.672988 1.36888,1.015731 2.0623,1.015731 z m -5.07607,-9.059075 c 1.04478,-0.01727 1.28049,-0.101309 0.80572,-0.287256 -0.3691,-0.144558 -1.03367,-0.193526 -1.47682,-0.10881 -0.44315,0.08471 -0.80573,0.213978 -0.80573,0.287259 0,0.07328 0.66457,0.122242 1.47683,0.108811 z m 4.08297,-0.09241 c 1.43337,0 2.01976,-0.06133 1.30306,-0.136304 -0.71668,-0.07497 -1.88946,-0.07497 -2.60615,0 -0.71668,0.07497 -0.13031,0.136304 1.30309,0.136304 z m -0.37889,-0.624499 c 0.94316,0.04304 2.26039,-0.149707 2.92719,-0.428315 0.80866,-0.337879 1.41796,-0.939781 1.82972,-1.807521 0.60082,-1.266119 0.59814,-1.334404 -0.10057,-2.549892 -0.39487,-0.68691 -1.08881,-1.442089 -1.54211,-1.678168 -0.45327,-0.236078 -1.79348,-0.43154 -2.9782,-0.434358 l -2.15407,-0.0051 0.50351,1.205041 c 0.27691,0.662775 0.50253,1.718265 0.50135,2.345534 -0.001,0.627272 -0.22072,1.559454 -0.48788,2.071517 -0.26715,0.512062 -0.42454,0.992227 -0.34973,1.067029 0.0748,0.0748 0.90768,0.171218 1.85082,0.214254 z m 1.97289,-1.343592 c -0.63878,0 -1.32438,-0.196336 -1.52352,-0.4363 -0.19916,-0.239968 -0.46783,-0.857576 -0.59706,-1.372461 -0.18443,-0.734812 -0.0397,-1.131402 0.67281,-1.843941 0.67259,-0.672587 1.10886,-0.846157 1.68386,-0.669929 0.42682,0.130818 0.97151,0.394227 1.21041,0.585355 0.23889,0.191129 0.43436,0.807747 0.43436,1.370264 0,0.562515 -0.16187,1.325213 -0.35972,1.694883 -0.24549,0.458703 -0.7285,0.672129 -1.52114,0.672129 z m 0.19189,-1.593641 c 0.16446,-0.101643 0.29902,-0.331947 0.29902,-0.511786 0,-0.179839 -0.23456,-0.326978 -0.52124,-0.326978 -0.28667,0 -0.52122,0.130307 -0.52122,0.28957 0,0.159269 0.1,0.389567 0.2222,0.511786 0.12223,0.122215 0.35679,0.139047 0.52124,0.03741 z m -8.07111,2.636101 c 0.50505,0 1.30491,-0.264583 1.77743,-0.587961 0.47255,-0.323378 0.97406,-0.753392 1.11446,-0.955587 0.14042,-0.202196 0.25769,-0.946905 0.26061,-1.654908 0.003,-0.920593 -0.24662,-1.539234 -0.87918,-2.171792 -0.6426,-0.642603 -1.25189,-0.884509 -2.22777,-0.884509 -1.07337,0 -1.52402,0.214809 -2.24287,1.069122 -0.49477,0.588014 -0.89961,1.438818 -0.89961,1.890667 0,0.45185 0.15893,0.919766 0.35316,1.039809 0.19423,0.120042 0.27092,0.351305 0.17044,0.513912 -0.10047,0.162609 0.23077,0.620909 0.73615,1.018451 0.5054,0.397538 1.33212,0.722796 1.83718,0.722796 z m 11.72764,-2.69302 c 0.0964,-0.238898 0.0964,-0.62982 0,-0.868716 -0.0964,-0.238898 -0.17526,-0.04343 -0.17526,0.434358 0,0.477794 0.0788,0.673255 0.17526,0.434358 z m -9.81497,-4.284145 c 0.36631,0.01508 0.57155,-0.06704 0.45609,-0.182506 -0.11548,-0.115467 -0.41519,-0.127809 -0.66603,-0.02742 -0.27719,0.110923 -0.19486,0.193265 0.20994,0.209938 z"
       id="path37" />
  </g>
</svg>
