<?xml version="1.0" encoding="UTF-8" standalone="no"?>
<svg
   xmlns:dc="http://purl.org/dc/elements/1.1/"
   xmlns:cc="http://creativecommons.org/ns#"
   xmlns:rdf="http://www.w3.org/1999/02/22-rdf-syntax-ns#"
   xmlns:svg="http://www.w3.org/2000/svg"
   xmlns="http://www.w3.org/2000/svg"
   xmlns:sodipodi="http://sodipodi.sourceforge.net/DTD/sodipodi-0.dtd"
   xmlns:inkscape="http://www.inkscape.org/namespaces/inkscape"
   width="500"
   height="500"
   viewBox="0 0 132.29166 132.29167"
   version="1.1"
   id="svg8"
   inkscape:version="1.0.2 (e86c870879, 2021-01-15, custom)"
   sodipodi:docname="201021b.svg">
  <defs
     id="defs2" />
  <sodipodi:namedview
     id="base"
     pagecolor="#ffffff"
     bordercolor="#666666"
     borderopacity="1.0"
     inkscape:pageopacity="0.0"
     inkscape:pageshadow="2"
     inkscape:zoom="0.49497475"
     inkscape:cx="306.78581"
     inkscape:cy="212.22685"
     inkscape:document-units="mm"
     inkscape:current-layer="layer1"
     inkscape:document-rotation="0"
     showgrid="false"
     inkscape:window-width="1368"
     inkscape:window-height="850"
     inkscape:window-x="-6"
     inkscape:window-y="-6"
     inkscape:window-maximized="1"
     units="px" />
  <metadata
     id="metadata5">
    <rdf:RDF>
      <cc:Work
         rdf:about="">
        <dc:format>image/svg+xml</dc:format>
        <dc:type
           rdf:resource="http://purl.org/dc/dcmitype/StillImage" />
        <dc:title />
      </cc:Work>
    </rdf:RDF>
  </metadata>
  <g
     inkscape:label="Ebene 1"
     inkscape:groupmode="layer"
     id="layer1"
     transform="translate(-10.339915,-26.030838)">
    <path
       id="path39"
       style="fill:#000000;stroke:none;stroke-width:0.264583"
       d="m 43.40625,28.699219 c -1.906671,0.184804 -3.987377,0.228706 -5.628906,1.335937 -1.590463,1.106963 -2.175399,3.105211 -2.210888,4.957375 -0.338555,4.801252 0.15644,9.611415 0.04487,14.418016 -0.01846,8.187592 0.03692,16.37649 -0.0277,24.56327 -0.1005,2.988258 -0.681159,6.232132 0.50759,9.118705 0.892538,2.119415 3.301464,2.921976 5.394589,3.26463 3.107931,0.467058 6.339571,0.373559 9.379423,-0.452855 2.214279,-0.745355 3.261611,-3.131022 3.594485,-5.279131 0.763879,-4.560213 -0.214839,-9.141172 -0.06128,-13.707588 0.01735,-8.538555 -0.03465,-17.078203 0.0259,-25.616081 0.105731,-3.06815 0.619614,-6.327139 -0.654808,-9.233138 -0.840089,-1.988757 -3.07422,-2.756394 -5.03934,-3.098373 -1.755846,-0.304574 -3.546306,-0.360192 -5.323941,-0.270767 z m 56.017578,0.105469 c -3.855735,0.144968 -7.714223,0.407126 -11.572622,0.171229 -3.435691,-0.103273 -7.119982,-0.145196 -10.165713,1.69295 -3.804542,2.176205 -6.285883,6.336309 -6.597863,10.686401 -0.361409,3.879302 0.08747,7.774966 -0.02122,11.66231 -0.0097,25.338471 0.01939,50.677222 -0.01455,76.015522 -0.126251,5.6934 -0.965697,11.51992 0.512601,17.11143 0.867612,3.36954 3.054635,6.45575 6.210348,8.02308 4.193018,2.1392 9.05278,2.09461 13.641052,1.93164 3.604707,-0.17804 7.213864,-0.40586 10.822787,-0.18863 3.31563,0.12463 6.8424,0.0183 9.76136,-1.75632 3.59806,-2.06263 6.07856,-5.91214 6.44737,-10.04605 0.41929,-3.9683 -0.14426,-7.95502 -0.0196,-11.93325 0.009,-25.58157 -0.0184,-51.163423 0.0138,-76.744816 0.12911,-5.5645 1.00477,-11.254661 -0.40078,-16.72943 -0.7568,-3.1138 -2.76269,-5.891561 -5.53492,-7.515207 -3.9143,-2.338152 -8.6523,-2.483788 -13.082032,-2.380859 z m -54.146484,1.722656 c 2.048502,0.09755 4.143709,0.18641 5.916991,1.242875 1.340575,0.956239 1.477276,2.783576 1.576203,4.293412 0.08384,2.747616 -0.340882,5.474205 -0.225616,8.24301 0.02066,10.682181 -0.0592,21.365034 0.07991,32.046478 -0.07334,1.839472 0.103119,3.729013 -0.367022,5.525787 -0.34801,1.330854 -1.512065,2.330738 -2.876777,2.495051 -2.963804,0.568033 -6.089923,0.604841 -9.017471,-0.183169 -1.261647,-0.325177 -2.525046,-1.131227 -2.805779,-2.488467 -0.855281,-3.274441 -0.01387,-6.611692 -0.09294,-9.931618 -0.02198,-9.491198 0.0449,-18.983043 -0.03516,-28.473828 -0.03179,-3.181082 -0.21585,-6.385489 0.159679,-9.550893 0.245875,-1.443605 1.434218,-2.653937 2.909219,-2.8158 1.568313,-0.331992 3.17932,-0.414515 4.778758,-0.402838 z m 56.458986,0.03906 c 3.80294,0.04124 7.9328,0.460662 10.98814,2.955894 2.56134,2.043012 3.66503,5.393912 4.00156,8.486976 0.54868,4.665604 -0.1656,9.535918 -0.15181,14.291505 0.009,26.297189 -0.0181,52.594689 0.0135,78.891679 0.0334,3.85602 0.65632,7.85458 -0.6151,11.58684 -1.46003,3.9488 -5.29276,7.00095 -9.54883,7.19336 -2.70426,0.23242 -5.57723,-0.0446 -8.349534,-0.003 -5.558191,0.0728 -11.23116,1.03202 -16.704466,-0.35735 -2.923592,-0.70723 -5.602758,-2.58483 -6.953766,-5.31457 -1.716776,-3.31708 -1.850453,-7.16556 -1.802331,-10.87308 0.123728,-3.84463 0.390237,-7.6857 0.304236,-11.53488 -0.0093,-25.28613 0.01864,-50.572522 -0.01399,-75.858492 -0.03615,-3.956342 -0.590986,-8.074057 0.77375,-11.88291 1.447079,-3.923516 5.207272,-6.964612 9.431375,-7.207067 3.416745,-0.318437 7.008601,0.133537 10.494973,-0.0643 2.710338,-0.112008 5.417973,-0.322179 8.132248,-0.310666 z m -56.943361,2.273438 c -2.168828,0.06193 -4.31262,1.573435 -4.709125,3.775798 -0.636994,2.740056 1.148842,5.999041 4.047015,6.417561 2.416927,0.378807 5.160776,-1.075344 5.712891,-3.564453 0.729884,-2.798645 -1.116247,-6.177121 -4.093444,-6.578188 -0.317133,-0.05321 -0.63669,-0.05566 -0.957337,-0.05072 z m 49.27539,9.292968 c -1.408409,-0.01599 -2.658508,1.102613 -2.816509,2.498816 -0.245038,1.814539 0.0038,3.656057 -0.07802,5.481653 0.0038,28.363526 -0.005,56.727129 -0.0011,85.090599 -0.0399,1.62618 0.116786,3.64184 1.641428,4.59025 1.539265,0.86348 3.797501,-0.0439 4.226833,-1.79022 0.510721,-1.89017 0.104207,-3.86984 0.21875,-5.79844 0.01035,-24.73513 -0.02075,-49.470452 0.01563,-74.20547 0.05065,-4.321924 0.33849,-8.663807 -0.107422,-12.972656 -0.262022,-1.499695 -1.479629,-2.934778 -3.09961,-2.894532 z M 45.070312,73.349609 c -2.185219,0.0078 -4.360121,1.46928 -4.868108,3.652186 -0.775003,2.690455 0.780762,6.066725 3.66303,6.631017 2.414025,0.490734 5.183398,-0.906414 5.847657,-3.361328 0.835389,-2.653557 -0.563129,-6.061657 -3.392853,-6.77263 -0.405346,-0.115036 -0.829915,-0.149322 -1.249726,-0.149245 z m 50.337891,50.714841 c -0.01047,4.1273 0.05388,8.25705 -0.03906,12.38282 -0.01784,0.77655 -0.396975,1.8588 -1.369263,1.70557 -1.000334,-0.0859 -0.944467,-1.36569 -0.970372,-2.11136 -0.0072,-19.96886 7.75e-4,-39.937817 -0.0022,-59.906714 0.79362,-0.0612 1.587239,-0.122396 2.380859,-0.183594 0,16.03776 0,32.075518 0,48.113278 z" />
  </g>
</svg>
