<?xml version="1.0" encoding="UTF-8" standalone="no"?>
<svg
   xmlns:dc="http://purl.org/dc/elements/1.1/"
   xmlns:cc="http://creativecommons.org/ns#"
   xmlns:rdf="http://www.w3.org/1999/02/22-rdf-syntax-ns#"
   xmlns:svg="http://www.w3.org/2000/svg"
   xmlns="http://www.w3.org/2000/svg"
   xmlns:sodipodi="http://sodipodi.sourceforge.net/DTD/sodipodi-0.dtd"
   xmlns:inkscape="http://www.inkscape.org/namespaces/inkscape"
   width="150mm"
   height="150mm"
   viewBox="0 0 150 150"
   version="1.1"
   id="svg8"
   inkscape:version="1.0.2 (e86c870879, 2021-01-15, custom)"
   sodipodi:docname="icon.svg">
  <defs
     id="defs2" />
  <sodipodi:namedview
     id="base"
     pagecolor="#ffffff"
     bordercolor="#666666"
     borderopacity="1.0"
     inkscape:pageopacity="0.0"
     inkscape:pageshadow="2"
     inkscape:zoom="0.98994949"
     inkscape:cx="107.50799"
     inkscape:cy="375.40264"
     inkscape:document-units="mm"
     inkscape:current-layer="layer1"
     inkscape:document-rotation="0"
     showgrid="false"
     inkscape:window-width="1920"
     inkscape:window-height="1018"
     inkscape:window-x="2729"
     inkscape:window-y="-6"
     inkscape:window-maximized="1" />
  <metadata
     id="metadata5">
    <rdf:RDF>
      <cc:Work
         rdf:about="">
        <dc:format>image/svg+xml</dc:format>
        <dc:type
           rdf:resource="http://purl.org/dc/dcmitype/StillImage" />
        <dc:title></dc:title>
      </cc:Work>
    </rdf:RDF>
  </metadata>
  <g
     inkscape:label="Ebene 1"
     inkscape:groupmode="layer"
     id="layer1">
    <path
       id="path24"
       style="fill:#7b7c80;stroke:none;stroke-width:0.238276"
       d="M 74.808594,6.8398438 C 70.790043,6.8666381 67.220976,9.1569879 64.383287,11.820272 60.477698,15.469355 57.26302,19.782126 53.351953,23.42748 41.3137,35.447706 29.320504,47.513284 17.240308,59.489989 c -3.766903,3.546737 -8.0020635,6.941002 -10.14096,11.792219 -1.6550744,3.784891 -1.2495026,8.411248 1.1895477,11.771404 2.5627793,3.812728 6.3585333,6.518623 9.4545013,9.855847 15.910924,15.899521 31.79595,31.826091 47.729887,47.701871 2.588197,2.44753 5.882236,4.4542 9.54467,4.48998 3.597743,0.14859 7.021099,-1.51011 9.688862,-3.82462 16.108164,-16.54423 33.896864,-34.35081 48.742304,-49.072159 3.70198,-3.488656 7.84842,-6.84975 9.92568,-11.631456 1.64835,-3.827857 1.15774,-8.486883 -1.33676,-11.841094 -2.58759,-3.75137 -6.34089,-6.449291 -9.41467,-9.764861 C 116.82498,43.179196 101.04865,27.368029 85.225595,11.605509 82.59444,9.0504599 79.234859,6.8636981 75.445306,6.8459831 c -0.211958,-0.015347 -0.424461,-0.00446 -0.636712,-0.00614 z m 0.257812,4.0312502 c 3.420368,-0.05695 6.388734,2.063373 8.682358,4.408864 5.59056,5.482497 11.07761,11.06752 16.630956,16.587567 10.52363,10.506215 21.00406,21.055113 31.57304,31.514612 3.0597,2.922365 6.53396,5.812714 7.92588,9.956904 0.95007,2.966155 0.20838,6.277539 -1.60126,8.764236 -0.71177,1.198125 -1.67921,2.20392 -2.77491,3.052816 -1.90678,1.761707 -3.46987,3.873852 -5.51533,5.490851 -3.28365,2.967086 -6.31672,6.19816 -9.48958,9.28117 -1.3437,1.312566 -2.54322,2.783446 -3.96045,4.013296 -1.17874,0.68034 -2.60882,0.52784 -3.87248,0.68948 -5.46953,0.31274 -10.93408,-0.31728 -16.40497,-0.29047 -18.564454,0.0139 -37.130059,-0.0302 -55.694123,0.0305 -2.113091,0.0421 -4.354429,0.58738 -6.374131,-0.25565 -2.445568,-1.30787 -3.885853,-3.7966 -5.823847,-5.689392 C 24.858147,94.845758 21.292891,91.319862 17.740694,87.781971 15.330773,85.285125 12.38292,83.117828 10.941923,79.859433 9.7869918,77.488138 9.9490663,74.640749 11.134299,72.3143 c 1.903932,-3.867099 5.285467,-6.682357 8.213227,-9.746182 16.28534,-16.251129 32.514918,-32.563512 48.831937,-48.783783 1.860288,-1.765424 4.287152,-3.032069 6.886943,-2.913201 z"
       sodipodi:nodetypes="ccccccccccccccccccccccccccccccccccccccc" />
  </g>
</svg>
