<?xml version="1.0" encoding="UTF-8" standalone="no"?>
<!-- Created with Inkscape (http://www.inkscape.org/) -->

<svg
   width="150mm"
   height="150mm"
   viewBox="0 0 150 150"
   version="1.1"
   id="svg5"
   inkscape:version="1.1 (c68e22c387, 2021-05-23)"
   sodipodi:docname="learnmode.svg"
   xmlns:inkscape="http://www.inkscape.org/namespaces/inkscape"
   xmlns:sodipodi="http://sodipodi.sourceforge.net/DTD/sodipodi-0.dtd"
   xmlns="http://www.w3.org/2000/svg"
   xmlns:svg="http://www.w3.org/2000/svg">
  <sodipodi:namedview
     id="namedview7"
     pagecolor="#ffffff"
     bordercolor="#666666"
     borderopacity="1.0"
     inkscape:pageshadow="2"
     inkscape:pageopacity="0.0"
     inkscape:pagecheckerboard="0"
     inkscape:document-units="mm"
     showgrid="false"
     width="150mm"
     inkscape:zoom="0.78363065"
     inkscape:cx="343.91202"
     inkscape:cy="312.64729"
     inkscape:window-width="1368"
     inkscape:window-height="850"
     inkscape:window-x="-6"
     inkscape:window-y="-6"
     inkscape:window-maximized="1"
     inkscape:current-layer="layer1" />
  <defs
     id="defs2" />
  <g
     inkscape:label="Ebene 1"
     inkscape:groupmode="layer"
     id="layer1">
    <path
       style="fill:#000000;stroke-width:0.477506"
       d="m 70.403329,141.28799 c -14.319918,-0.3701 -37.124339,-3.025 -39.029059,-4.54379 -0.462408,-0.36872 -0.592077,-13.60217 -0.600351,-61.269456 -0.0059,-33.855197 0.173081,-60.912643 0.403818,-61.055247 0.660014,-0.407912 1.064588,0.288745 0.53692,0.924548 -0.306358,0.369139 -0.43195,6.341908 -0.347328,16.517906 l 0.132552,15.939685 0.112717,-16.087659 c 0.07418,-10.587999 0.283881,-16.193444 0.613409,-16.397104 0.342749,-0.21183 0.325681,-0.520322 -0.05411,-0.977936 -0.305138,-0.36767 -0.745328,-0.550736 -0.978199,-0.406814 -0.232871,0.143922 -0.423402,0.04168 -0.423402,-0.22721 0,-0.802983 1.436912,-1.314328 5.968829,-2.124087 10.691133,-1.9102846 15.62921,-2.1816534 39.633028,-2.1780056 23.982007,0.00361 29.010507,0.279982 39.633027,2.1780056 4.53192,0.809759 5.96883,1.321104 5.96883,2.124087 0,0.268887 -0.26861,0.327518 -0.59688,0.130292 -0.47282,-0.284067 -0.4721,-0.204446 0.003,0.383089 0.87172,1.076897 0.86127,121.830696 -0.011,122.525926 -0.69225,0.55199 -7.02594,1.73878 -14.43745,2.70524 -9.427837,1.22941 -26.619162,2.09465 -36.529229,1.83853 z m 1.796216,-0.93944 c -0.456538,-0.11952 -1.316049,-0.12386 -1.910025,-0.01 -0.593977,0.11421 -0.220446,0.21201 0.830069,0.21731 1.050514,0.005 1.536495,-0.0882 1.079956,-0.20767 z m 10.50514,0 c -0.456539,-0.11952 -1.31605,-0.12386 -1.910024,-0.01 -0.593976,0.11421 -0.220447,0.21201 0.830067,0.21731 1.050515,0.005 1.536496,-0.0882 1.079957,-0.20767 z m -21.010279,-0.47751 c -0.456538,-0.11952 -1.31605,-0.12386 -1.910026,-0.01 -0.593976,0.11421 -0.220446,0.212 0.830069,0.2173 1.050514,0.005 1.536495,-0.0882 1.079957,-0.20767 z m 14.755242,-1.22381 c -0.132466,-0.32829 -0.240847,-0.0597 -0.240847,0.59689 0,0.65657 0.108384,0.92516 0.240847,0.59687 0.132467,-0.32828 0.132467,-0.86548 0,-1.19376 z m 16.277103,1.22274 c -0.4596,-0.1201 -1.211672,-0.1201 -1.671272,0 -0.4596,0.1201 -0.08356,0.21837 0.835636,0.21837 0.919199,0 1.295236,-0.0982 0.835636,-0.21837 z m -37.961755,-0.4646 c -0.328286,-0.13246 -0.865481,-0.13246 -1.193767,0 -0.328284,0.13247 -0.05968,0.24085 0.596884,0.24085 0.656571,0 0.925169,-0.10841 0.596883,-0.24085 z m 17.742719,-0.0895 c 0.137898,-0.22312 -2.696552,-0.55051 -6.298778,-0.72752 -3.602225,-0.17703 -9.020597,-0.54372 -12.040824,-0.8149 -6.09708,-0.54743 -21.431579,-2.73586 -22.110487,-3.15545 -0.238849,-0.14762 -0.142733,-0.45312 0.213591,-0.6789 0.433509,-0.27468 0.4597,-0.41293 0.07917,-0.41782 -0.912492,-0.0117 -1.150395,0.79107 -0.415233,1.40121 1.504467,1.2486 18.584495,3.61271 30.972186,4.28699 3.728856,0.20296 7.357971,0.40121 8.0647,0.44055 0.706728,0.0393 1.397786,-0.11103 1.535683,-0.33416 z m 23.91971,-0.60602 c 6.653895,-0.51929 17.533385,-1.93872 21.575985,-2.81499 1.36164,-0.29514 2.75835,-0.89787 3.10378,-1.33938 0.54002,-0.69021 0.52765,-0.72671 -0.0882,-0.2603 -1.53519,1.16268 -17.63813,3.26998 -31.176408,4.07987 -5.403324,0.32324 -9.713396,0.76704 -9.577938,0.98621 0.251475,0.4069 5.11268,0.21098 16.162774,-0.65141 z m 2.754754,0.69849 c -0.323292,-0.1308 -0.967926,-0.13876 -1.432522,-0.0177 -0.464596,0.12107 -0.200091,0.22808 0.587797,0.23782 0.787877,0.01 1.168006,-0.0894 0.844725,-0.22013 z m -48.963442,-0.45276 c -0.158671,-0.15867 -0.570521,-0.17563 -0.91522,-0.0377 -0.380923,0.15243 -0.267774,0.26558 0.288493,0.28849 0.503371,0.0207 0.785399,-0.0921 0.626727,-0.2508 z m 53.729413,-0.0277 c -0.32828,-0.13247 -0.86548,-0.13247 -1.19377,0 -0.32829,0.13246 -0.0597,0.24085 0.59689,0.24085 0.65657,0 0.92517,-0.10842 0.59688,-0.24085 z m -58.02697,-0.44976 c -0.158671,-0.15867 -0.570521,-0.17563 -0.91522,-0.0377 -0.380923,0.15243 -0.267775,0.26558 0.288493,0.28849 0.503371,0.0207 0.785399,-0.0921 0.626727,-0.2508 z m 62.07583,0 c -0.15867,-0.15867 -0.57053,-0.17563 -0.91522,-0.0377 -0.38093,0.15243 -0.26778,0.26558 0.28849,0.28849 0.50337,0.0207 0.7854,-0.0921 0.62673,-0.2508 z M 42.578636,138.0006 c -0.158671,-0.15867 -0.570521,-0.17562 -0.915221,-0.0377 -0.380922,0.15243 -0.267774,0.26558 0.288494,0.28849 0.503371,0.0207 0.785398,-0.0921 0.626727,-0.2508 z m 28.660329,-0.0594 c -0.984856,-0.10305 -2.596441,-0.10305 -3.581298,0 -0.984856,0.10306 -0.179064,0.18732 1.79065,0.18732 1.969713,0 2.775505,-0.0843 1.790648,-0.18732 z m 14.337812,9.7e-4 c -0.977915,-0.10261 -2.696937,-0.10404 -3.820051,-0.003 -1.123115,0.10086 -0.323001,0.18483 1.778028,0.18657 2.101028,0.002 3.019937,-0.0808 2.042023,-0.1834 z m 25.762773,0.0586 c -0.15867,-0.15867 -0.57053,-0.17564 -0.91522,-0.0377 -0.38092,0.15243 -0.26778,0.26557 0.28849,0.28848 0.50337,0.0207 0.7854,-0.0921 0.62673,-0.25079 z m -48.228843,-0.53771 c -0.990715,-0.10338 -2.49486,-0.10163 -3.342545,0.003 -0.847685,0.10546 -0.0371,0.19007 1.8013,0.18794 1.838399,-0.002 2.531959,-0.0884 1.541245,-0.1918 z m 30.09355,4.8e-4 c -0.984856,-0.10305 -2.59644,-0.10305 -3.581297,0 -0.984857,0.10305 -0.179066,0.18731 1.790649,0.18731 1.969713,0 2.775506,-0.0843 1.790648,-0.18731 z m -36.52267,-0.46578 c -0.587304,-0.11333 -1.661693,-0.11628 -2.387532,-0.007 -0.725839,0.10976 -0.245319,0.20249 1.067824,0.20608 1.313142,0.003 1.907011,-0.0862 1.319708,-0.19956 z m 15.631767,-1.09623 c 0,-1.24399 -0.172808,-1.43274 -1.313142,-1.43421 -2.909543,-0.003 -16.849622,-0.99497 -20.65215,-1.46848 -5.019004,-0.62501 -6.985334,-1.20278 -8.865162,-2.60485 -1.424812,-1.06268 -1.478991,-1.06747 -2.033448,-0.17964 -0.69458,1.11219 -3.32676,1.25036 -3.731409,0.19586 -0.169588,-0.44194 -0.895369,-0.71625 -1.895038,-0.71625 -1.527243,0 -1.620184,0.0941 -1.620184,1.63908 0,1.95325 -0.245156,1.85371 7.640101,3.10209 9.457312,1.49725 21.587782,2.67169 29.247264,2.83163 l 3.223168,0.0672 z m 25.307833,0.44449 c 6.566613,-0.60176 18.859183,-2.2733 21.129653,-2.8732 1.6332,-0.43154 1.79065,-0.61846 1.79065,-2.126 0,-1.52673 -0.11193,-1.65286 -1.46662,-1.65286 -0.80665,0 -1.78895,0.32231 -2.1829,0.71625 -1.00822,1.00824 -2.91881,0.89025 -3.61418,-0.22321 -0.58012,-0.92891 -0.59772,-0.9291 -1.56953,-0.0161 -0.54056,0.50782 -1.87934,1.23962 -2.97507,1.62621 -2.16954,0.76546 -13.772564,2.03566 -22.691528,2.48405 l -5.610699,0.28209 v 1.44285 1.44285 l 6.088205,-0.32172 c 3.348514,-0.17695 8.344425,-0.52848 11.102019,-0.78118 z m 1.313143,0.64602 c -0.722224,-0.10941 -1.904053,-0.10941 -2.626281,0 -0.722229,0.1094 -0.131315,0.19893 1.313138,0.19893 1.44446,0 2.035379,-0.0895 1.313143,-0.19893 z m -47.745064,-0.46358 c -0.456538,-0.11951 -1.31605,-0.12385 -1.910026,-0.01 -0.593976,0.11421 -0.220445,0.212 0.830069,0.2173 1.050513,0.005 1.536495,-0.0882 1.079957,-0.20766 z m 27.331671,-0.57884 c 0,-0.73123 -0.4163,-0.94004 -2.148779,-1.07783 -1.962532,-0.15609 -2.148778,-0.0775 -2.148778,0.90692 0,0.95909 0.23672,1.07784 2.148778,1.07784 1.792469,0 2.148779,-0.15038 2.148779,-0.90693 z m 24.949713,0.56994 c -0.59092,-0.11382 -1.55787,-0.11382 -2.14878,0 -0.59092,0.11381 -0.10743,0.20693 1.07438,0.20693 1.18183,0 1.6653,-0.0931 1.0744,-0.20693 z m -56.336668,-0.45374 c -0.323287,-0.13079 -0.967921,-0.13875 -1.432519,-0.0177 -0.464598,0.12107 -0.20009,0.22808 0.587795,0.23782 0.787885,0.01 1.168011,-0.0894 0.844724,-0.22013 z m 60.401038,-0.0149 c -0.45655,-0.11951 -1.31606,-0.12385 -1.91003,-0.01 -0.59398,0.11423 -0.22045,0.21201 0.83007,0.21731 1.05051,0.005 1.53649,-0.0882 1.07996,-0.20767 z m -63.991424,-0.47859 c -0.4596,-0.1201 -1.211672,-0.1201 -1.671272,0 -0.4596,0.1201 -0.08356,0.21837 0.835637,0.21837 0.919199,0 1.295235,-0.0982 0.835635,-0.21837 z m 67.328404,0 c -0.45961,-0.1201 -1.21168,-0.1201 -1.67129,0 -0.45959,0.1201 -0.0836,0.21837 0.83565,0.21837 0.91919,0 1.29523,-0.0982 0.83564,-0.21837 z m -70.423107,-0.46156 c -0.323287,-0.13081 -0.967921,-0.13877 -1.432519,-0.0177 -0.464598,0.12107 -0.200091,0.22809 0.587795,0.23782 0.787885,0.01 1.168011,-0.0894 0.844724,-0.22013 z m 74.013487,0 c -0.32328,-0.13081 -0.96792,-0.13877 -1.43253,-0.0177 -0.46459,0.12107 -0.20009,0.22809 0.5878,0.23782 0.78789,0.01 1.16802,-0.0894 0.84473,-0.22013 z m -77.365119,-0.48055 c -0.328286,-0.13246 -0.86548,-0.13246 -1.193766,0 -0.328286,0.13247 -0.05968,0.24086 0.596883,0.24086 0.656571,0 0.925168,-0.10842 0.596883,-0.24086 z m 80.230149,0.003 c -0.32328,-0.1308 -0.96792,-0.13876 -1.43252,-0.0177 -0.4646,0.12106 -0.20008,0.22808 0.5878,0.23782 0.78788,0.01 1.16801,-0.0894 0.84472,-0.22012 z m -82.866382,-0.45263 c -0.158672,-0.15867 -0.570521,-0.17563 -0.915221,-0.0377 -0.380923,0.15243 -0.267774,0.26558 0.288493,0.28849 0.503372,0.0207 0.785399,-0.0921 0.626728,-0.25079 z m 42.498065,0 c -0.158671,-0.15867 -0.570521,-0.17563 -0.91522,-0.0377 -0.380923,0.15243 -0.267774,0.26558 0.288493,0.28849 0.503371,0.0207 0.785399,-0.0921 0.626727,-0.25079 z m 43.301017,-0.12002 c 0.13886,-0.2247 -0.27822,-0.30709 -0.92684,-0.1831 -0.64862,0.12399 -1.17931,0.30783 -1.17931,0.40853 0,0.36947 1.86163,0.1702 2.10615,-0.22543 z m -49.24549,-0.89509 c -1.108248,-0.1002 -3.042148,-0.1013 -4.297557,-0.003 -1.25541,0.0989 -0.348663,0.18085 2.014993,0.18231 2.363658,0.001 3.390811,-0.0793 2.282564,-0.17944 z m 5.980585,-1.91923 c -0.08004,-1.24748 -0.360418,-2.26816 -0.623047,-2.26816 -0.262628,0 -0.542999,1.02068 -0.623046,2.26816 -0.117213,1.82671 0.0041,2.26816 0.623046,2.26816 0.618999,0 0.74026,-0.44145 0.623047,-2.26816 z m 9.28521,1.91852 c -1.116171,-0.10053 -2.942632,-0.10053 -4.058804,0 -1.11617,0.10053 -0.20294,0.1828 2.029402,0.1828 2.232342,0 3.145574,-0.0822 2.029402,-0.1828 z m -54.694886,-2.62921 c -0.114216,-0.59398 -0.212002,-0.22045 -0.217302,0.83007 -0.0053,1.05051 0.08815,1.53649 0.207666,1.07996 0.119516,-0.45655 0.123852,-1.31606 0.0096,-1.91003 z m 27.715777,2.17218 c -0.459599,-0.1201 -1.211672,-0.1201 -1.671272,0 -0.4596,0.12011 -0.08356,0.21838 0.835636,0.21838 0.919199,0 1.295236,-0.0982 0.835636,-0.21838 z m 36.060817,0.016 c -0.323286,-0.13079 -0.96792,-0.13875 -1.432519,-0.0177 -0.464599,0.12106 -0.200089,0.22808 0.587796,0.23781 0.787885,0.01 1.16801,-0.0894 0.844723,-0.22013 z m 25.983067,-0.73133 c -0.15243,-0.38091 -0.26558,-0.26778 -0.2885,0.2885 -0.0207,0.50337 0.0921,0.78539 0.25081,0.62672 0.15866,-0.15866 0.17562,-0.57052 0.0377,-0.91522 z m -67.535207,0.2508 c -0.328286,-0.13247 -0.86548,-0.13247 -1.193765,0 -0.328286,0.13246 -0.05969,0.24085 0.596882,0.24085 0.656572,0 0.925169,-0.10842 0.596883,-0.24085 z m 20.322845,-1.47441 -0.148202,-1.79065 -14.701809,-0.1263 -14.701811,-0.12631 0.137867,-4.17125 0.137866,-4.17126 8.667018,-0.12996 c 8.25901,-0.12384 8.655806,-0.17284 8.428853,-1.04071 -0.218444,-0.83532 -0.824654,-0.92342 -7.320745,-1.0638 -7.930689,-0.17139 -9.342281,-0.67847 -10.198397,-3.66358 -0.429605,-1.49793 -0.442807,-1.5033 -3.704609,-1.5033 h -3.273468 v 1.70449 c 0,1.49448 -0.132369,1.68568 -1.07439,1.5519 -0.996523,-0.14153 -1.084593,-0.42617 -1.215186,-3.92735 -0.08146,-2.18396 0.06946,-3.98502 0.35813,-4.27368 0.325623,-0.32562 0.498926,-5.68525 0.498926,-15.429896 0,-13.013725 -0.09113,-14.895992 -0.709622,-14.658652 -0.46115,0.176959 -0.868832,-0.146442 -1.164312,-0.923617 -1.233792,-3.245114 -1.46861,-1.66147 -1.46861,9.904528 0,10.215355 0.09431,11.727088 0.731647,11.727088 1.666566,0 1.801444,3.930509 0.164932,4.806339 -0.840345,0.44974 -0.896579,1.22752 -0.896579,12.4007 0,7.68111 0.170952,11.92085 0.480664,11.92085 0.264365,0 0.947749,-0.53719 1.51863,-1.19376 1.685117,-1.93806 3.814781,-1.63606 6.689538,0.94859 1.310548,1.1783 3.168583,2.35058 4.128964,2.60508 3.194273,0.84648 10.245067,1.55816 18.936376,1.91136 4.727313,0.19209 8.876683,0.38403 9.220823,0.42654 0.440763,0.0544 0.581903,-0.45202 0.477506,-1.71339 z m 0.90578,-0.7107 c -0.114216,-0.59397 -0.212002,-0.22043 -0.217303,0.83008 -0.0053,1.05051 0.08815,1.53649 0.207667,1.07995 0.119516,-0.45653 0.123852,-1.31605 0.0096,-1.91003 z m 2.865039,0 c -0.114218,-0.59397 -0.212004,-0.22043 -0.217304,0.83008 -0.0053,1.05051 0.08815,1.53649 0.207666,1.07995 0.119517,-0.45653 0.123854,-1.31605 0.0096,-1.91003 z m 14.226221,1.77977 c 8.521672,-0.36155 15.124922,-1.34422 17.053492,-2.53784 0.86309,-0.53419 2.20037,-1.63093 2.97173,-2.43721 1.82505,-1.90766 4.34878,-2.02864 5.98504,-0.28692 0.60922,0.64848 1.29131,1.06555 1.51575,0.92683 0.22446,-0.13872 0.4081,-5.38684 0.4081,-11.66248 v -11.41068 l -1.19376,-1.19377 c -0.65657,-0.65657 -1.19376,-1.53998 -1.19376,-1.96313 0,-1.19781 0.91531,-2.616595 1.68807,-2.616595 0.60474,0 0.69945,-3.161182 0.69945,-23.342894 V 51.970277 l -1.19376,-0.782185 c -1.55567,-1.019315 -1.55567,-2.857902 0,-4.299648 1.12309,-1.040842 1.19376,-1.394848 1.19376,-5.97924 0,-4.780247 -0.0205,-4.869994 -1.07438,-4.720308 -0.69046,0.09806 -1.12892,0.536523 -1.22698,1.226977 -0.0839,0.590914 -0.44753,1.074389 -0.80803,1.074389 -0.54308,0 -0.60612,1.607902 -0.36773,9.381179 0.25327,8.258636 0.19639,9.447938 -0.47534,9.939126 -0.47538,0.3476 -0.81927,1.446395 -0.91219,2.914607 -0.14392,2.273876 -0.20367,2.361924 -1.70106,2.506298 l -1.55189,0.149631 v -2.624361 c 0,-2.267591 -0.13984,-2.668745 -1.02863,-2.950836 -1.02081,-0.323993 -1.02639,-0.398187 -0.73603,-9.777561 0.24856,-8.029202 0.18779,-9.491299 -0.4039,-9.718353 -0.38306,-0.146995 -0.69647,-0.703763 -0.69647,-1.237263 0,-0.716328 -0.31219,-0.969998 -1.19377,-0.969998 -0.65657,0 -1.35493,-0.0013 -1.5519,-0.003 -0.19697,-0.0016 -0.46557,2.630629 -0.59688,5.849454 l -0.23875,5.852413 -3.58131,-0.139185 -3.581286,-0.139185 2.387526,1.138644 c 8.30771,3.962051 10.66867,14.949427 4.81856,22.424474 l -1.18379,1.512612 4.3033,1.536482 c 4.38722,1.56644 7.16781,3.278764 8.07405,4.972087 0.27829,0.520004 0.50771,2.498891 0.50979,4.397528 0.002,1.898637 -0.008,9.935556 -0.0219,17.859825 l -0.0257,14.40776 -1.20505,1.43212 c -1.41342,1.67977 -4.76143,3.41657 -6.58609,3.41657 h -1.28176 v 4.05879 4.05881 H 93.323634 78.520937 v 1.9212 1.9212 l 3.700674,-0.24028 c 2.035371,-0.13215 6.494086,-0.3588 9.908257,-0.50365 z m 7.998232,0.40534 c -0.328281,-0.13247 -0.865484,-0.13247 -1.19377,0 -0.328285,0.13246 -0.05968,0.24085 0.596888,0.24085 0.656572,0 0.925172,-0.10842 0.596882,-0.24085 z m -50.386869,-0.44976 c -0.158672,-0.15867 -0.57052,-0.17564 -0.915221,-0.0377 -0.380923,0.15243 -0.267773,0.26558 0.288494,0.28849 0.503371,0.0207 0.785398,-0.0921 0.626727,-0.2508 z m 54.435729,0 c -0.15867,-0.15867 -0.57053,-0.17564 -0.91522,-0.0377 -0.38093,0.15243 -0.26778,0.26558 0.28849,0.28849 0.50336,0.0207 0.7854,-0.0921 0.62673,-0.2508 z m -68.154089,-3.7234 c 0.393943,-0.0956 0.66254,-0.41383 0.596883,-0.70723 -0.06565,-0.2934 0.323061,-0.53345 0.863818,-0.53345 0.540756,0 0.859568,0.20003 0.70847,0.44451 -0.151098,0.24449 -0.07119,0.57031 0.177577,0.72405 0.838257,0.51807 1.149797,-0.83002 0.330295,-1.42925 -0.995999,-0.72829 -2.345401,-0.41971 -3.436384,0.7858 -0.451656,0.49907 -1.428956,0.90741 -2.171776,0.90741 h -1.350583 l -0.135583,-12.53454 -0.135582,-12.53454 -0.1111,12.94792 -0.111098,12.94794 2.029402,-0.42243 c 1.116171,-0.23233 2.351718,-0.50062 2.745661,-0.59619 z m 1.910026,0.66935 c 0,-0.26264 -0.214878,-0.47751 -0.477506,-0.47751 -0.262629,0 -0.477507,0.21487 -0.477507,0.47751 0,0.26263 0.214878,0.47751 0.477507,0.47751 0.262628,0 0.477506,-0.21488 0.477506,-0.47751 z m 77.833533,0 c 0,-0.26264 -0.21487,-0.47751 -0.47751,-0.47751 -0.26262,0 -0.47751,0.21487 -0.47751,0.47751 0,0.26263 0.21489,0.47751 0.47751,0.47751 0.26264,0 0.47751,-0.21488 0.47751,-0.47751 z m 5.60953,-18.98088 c -0.0811,-3.61114 -0.14749,-0.65657 -0.14749,6.56571 0,7.22228 0.0664,10.17685 0.14749,6.56571 0.0811,-3.61113 0.0811,-9.52028 0,-13.13142 z m -1.18351,18.66766 c -0.32329,-0.1308 -0.96792,-0.13876 -1.43252,-0.0177 -0.4646,0.12107 -0.20009,0.22809 0.5878,0.23782 0.78788,0.01 1.168,-0.0894 0.84472,-0.22012 z m -73.067556,-0.50971 -1.551896,-0.19259 v -3.28262 c 0,-2.95963 0.09157,-3.27572 0.93067,-3.21251 0.698717,0.0527 0.804412,0.22224 0.424085,0.6805 -0.655379,0.78969 -0.166467,2.05508 0.794024,2.05508 0.990011,0 1.441617,-1.27477 0.747779,-2.1108 -0.46858,-0.5646 0.593638,-0.67588 6.969984,-0.73015 4.137548,-0.0353 7.626153,-0.16739 7.752457,-0.29369 0.126303,-0.1263 -3.840021,-0.17103 -8.814054,-0.0994 l -9.043697,0.13025 -0.143956,3.05349 c -0.185845,3.94206 0.0042,4.36485 1.919617,4.27144 l 1.566883,-0.0764 z m -0.119376,-5.1459 c 0,-0.39395 0.322316,-0.71627 0.716259,-0.71627 0.393943,0 0.71626,0.32232 0.71626,0.71627 0,0.39394 -0.322317,0.71626 -0.71626,0.71626 -0.393943,0 -0.716259,-0.32232 -0.716259,-0.71626 z m 21.158204,5.13464 c -3.464126,-0.0815 -9.265828,-0.0817 -12.892671,-4.7e-4 -3.626844,0.0813 -0.792559,0.14788 6.298411,0.14813 7.090969,2.7e-4 10.058386,-0.0661 6.59426,-0.14766 z m 8.795371,0.0682 c -0.158671,-0.15866 -0.570521,-0.17562 -0.91522,-0.0377 -0.380923,0.15243 -0.267774,0.26558 0.288493,0.28849 0.503371,0.0207 0.785399,-0.0921 0.626727,-0.25079 z m 22.452745,-0.0687 c -3.873769,-0.0803 -10.212665,-0.0803 -14.086435,0 -3.87377,0.0803 -0.704323,0.14594 7.043219,0.14594 7.747538,0 10.916988,-0.0657 7.043216,-0.14594 z M 114.188,127.59668 c -0.051,-0.27827 0.39585,-0.5804 0.99313,-0.6714 0.65954,-0.10053 1.03454,0.0576 0.955,0.40275 -0.0721,0.31249 0.24509,0.63142 0.70469,0.70873 1.21331,0.20409 1.02373,-0.58469 -0.35813,-1.49013 -1.10584,-0.72456 -1.28168,-0.72456 -2.38753,0 -1.33066,0.87189 -1.55226,1.55602 -0.50403,1.55602 0.37935,0 0.64795,-0.22768 0.59687,-0.50597 z m -7.49419,-1.87844 c 0,-1.48144 -0.0934,-1.57487 -1.38534,-1.38525 -1.08615,0.15942 -1.45374,-0.0123 -1.70209,-0.79469 -0.17422,-0.54891 -0.18277,-1.21481 -0.019,-1.47979 0.55601,-0.89966 -3.749592,-0.51956 -5.380847,0.47501 -1.068377,0.6514 -2.405562,0.95323 -4.222888,0.95323 -2.257865,0 -2.697162,-0.1442 -2.909189,-0.95501 -0.233353,-0.89234 -0.651328,-0.955 -6.369915,-0.955 h -6.120176 l -0.151092,1.31313 c -0.132738,1.15362 -0.354124,1.31314 -1.822365,1.31314 -1.468241,0 -1.689628,-0.15952 -1.822366,-1.31314 l -0.151089,-1.31313 H 61.98707 c -8.134022,0 -12.5472,0.16695 -12.361366,0.46762 0.158958,0.25721 0.04509,0.92343 -0.253042,1.48049 -0.411272,0.76846 -0.877447,0.96362 -1.932108,0.80883 -1.29739,-0.19042 -1.390049,-0.0981 -1.390049,1.38456 v 1.58856 h 30.321653 30.321652 z m 0.95501,-1.26149 c 0,-2.33719 -0.12888,-2.80059 -0.71625,-2.5752 -0.39395,0.15118 -0.71627,0.55924 -0.71627,0.90682 0,0.34758 -0.37603,0.72536 -0.83563,0.8395 -0.4596,0.11415 -0.24472,0.13447 0.4775,0.0451 1.23952,-0.15328 1.31315,-0.056 1.31315,1.7357 0,1.04394 0.10743,1.89808 0.23876,1.89808 0.1313,0 0.23874,-1.28252 0.23874,-2.85005 z m -31.157285,-0.822 c -1.178089,-0.30787 -1.038647,-1.39533 0.238754,-1.86195 0.590913,-0.21586 4.190117,-0.51828 7.998231,-0.67205 5.178399,-0.20912 3.493145,-0.2789 -6.685089,-0.27682 -7.484912,10e-4 -11.071835,0.071 -7.970939,0.15425 5.348132,0.14368 5.622731,0.19956 5.341125,1.08681 -0.37495,1.18137 0.06518,1.91493 1.106099,1.84353 0.727962,-0.0499 0.725188,-0.0769 -0.02818,-0.27377 z m 20.351722,-1.00357 c 0.128392,-0.20774 -0.557284,-0.3028 -1.523718,-0.21122 -2.952804,0.27977 -3.301025,0.4754 -0.949698,0.53354 1.231985,0.0304 2.345024,-0.11457 2.473416,-0.32232 z m -0.249219,-1.00011 c 0.449705,-0.28499 0.104923,-0.50935 -1.14233,-0.74334 -1.327573,-0.24905 -1.979259,-0.14232 -2.537092,0.4155 -0.682518,0.68253 -0.578847,0.74999 1.142329,0.74334 1.041136,-0.003 2.182825,-0.191 2.537093,-0.4155 z m 7.182842,-1.0097 c 2.01078,0 3.47373,-0.21951 3.67926,-0.55206 0.2451,-0.39656 -0.1,-0.46381 -1.22527,-0.23875 -0.86156,0.17232 -3.01868,0.3133 -4.79362,0.3133 -2.811252,0 -3.258928,0.12146 -3.473628,0.94245 -0.232889,0.89059 -0.17154,0.90373 1.114356,0.23876 0.818103,-0.42306 2.692122,-0.7037 4.698902,-0.7037 z m 2.67818,0.95501 c 0.16804,-0.2719 -0.24319,-0.47751 -0.95501,-0.47751 -0.71183,0 -1.12306,0.20561 -0.95502,0.47751 0.16232,0.26262 0.59207,0.4775 0.95502,0.4775 0.36294,0 0.79269,-0.21488 0.95501,-0.4775 z m -14.078918,-2.02629 c 1.046379,-0.32658 1.902505,-0.75634 1.902505,-0.95501 0,-0.19869 -6.313838,-0.36125 -14.030746,-0.36125 -13.62916,0 -14.037893,0.0273 -14.280487,0.95501 -0.244997,0.93687 -0.01465,0.95502 12.128242,0.95502 8.529433,0 12.969507,-0.18462 14.280486,-0.59377 z m 2.250688,0.30527 c -0.158675,-0.15868 -0.570524,-0.17563 -0.915222,-0.0377 -0.380921,0.15243 -0.267775,0.26557 0.288495,0.28848 0.503369,0.0207 0.785397,-0.0921 0.626727,-0.25079 z m 11.58947,-1.13801 c 2.29833,-0.32123 1.98528,-0.37433 -2.50691,-0.42529 -4.025698,-0.0457 -5.133187,0.0811 -5.133187,0.58794 0,0.67655 1.929557,0.63549 7.640097,-0.16265 z m 5.87317,0.17823 c 2.24436,-1.13199 4.15878,-3.08763 4.12419,-4.213 -0.0298,-0.97171 -0.0356,-0.97211 -0.42269,-0.03 -0.57511,1.3996 -3.30681,3.66962 -5.25383,4.3659 -0.932,0.33331 -1.30784,0.61543 -0.8352,0.62696 0.47264,0.0115 1.54703,-0.32588 2.38753,-0.74982 z m -47.109249,-1.85552 c 0.605216,-0.60521 2.963571,-0.71625 15.211988,-0.71625 12.248415,0 14.606772,0.11104 15.211987,0.71625 0.393943,0.39394 0.920179,0.71626 1.169409,0.71626 0.249229,0 0.720644,-0.32232 1.047582,-0.71626 0.478121,-0.57609 1.942216,-0.71625 7.481523,-0.71625 6.67554,0 6.92308,-0.036 8.05914,-1.17207 l 1.17207,-1.17206 V 97.223546 80.467413 l -1.17207,-1.172058 c -1.01174,-1.011746 -1.61075,-1.172064 -4.37933,-1.172064 -2.31431,0 -3.4504,-0.220025 -4.08051,-0.790268 -0.79984,-0.723843 -0.94395,-0.726273 -1.71454,-0.02889 -0.48245,0.436612 -1.95912,0.837861 -3.461925,0.940692 -1.441339,0.09863 0.748365,0.219071 4.866005,0.267652 6.08589,0.07181 7.62701,0.228721 8.23698,0.838697 0.65419,0.654183 0.75037,2.939959 0.75037,17.83248 0,15.994776 -0.0561,17.132846 -0.88063,17.879086 -0.80698,0.7303 -3.55906,0.78642 -32.902438,0.67089 -17.611989,-0.0693 -31.922154,0.035 -31.800369,0.23205 0.121787,0.19698 3.405605,0.35814 7.297375,0.35814 5.707196,0 7.190934,0.13854 7.670389,0.71625 0.326943,0.39394 0.798359,0.71626 1.047589,0.71626 0.249229,0 0.775462,-0.32232 1.169405,-0.71626 z m -10.095849,-2.14877 c -0.726458,-0.31217 -0.43505,-0.41842 1.217642,-0.44395 2.104847,-0.0325 3.31867,-0.64734 3.318667,-1.68096 0,-0.29589 -1.369944,-0.52948 -3.342544,-0.56995 -2.226156,-0.0457 -3.344985,0.11382 -3.349855,0.47751 -0.0041,0.30034 -0.21561,0.22376 -0.470194,-0.17018 -0.399163,-0.61766 -0.463889,-0.6054 -0.470195,0.0891 -0.0049,0.5487 -0.501911,0.86676 -1.559208,0.99797 -1.345257,0.16694 -1.281675,0.20276 0.477507,0.269 1.451612,0.0546 2.029402,0.28035 2.029402,0.79269 0,0.49663 0.475854,0.70596 1.551896,0.68269 1.300501,-0.0282 1.397191,-0.1001 0.596882,-0.44394 z m 18.861502,0 c 0,-0.26264 -0.752073,-0.47751 -1.671273,-0.47751 -0.9192,0 -1.671272,0.21487 -1.671272,0.47751 0,0.26263 0.752072,0.4775 1.671272,0.4775 0.9192,0 1.671273,-0.21487 1.671273,-0.4775 z m 13.608931,0 c -0.726459,-0.31217 -0.435052,-0.41842 1.217641,-0.44395 2.104882,-0.0325 3.318775,-0.64739 3.318569,-1.68096 -5.7e-5,-0.29819 -1.451405,-0.53511 -3.581298,-0.58462 -3.494682,-0.0813 -3.581197,-0.0553 -3.581197,1.07439 0,0.6367 0.22756,1.15763 0.505688,1.15763 0.278129,0 0.372885,0.21487 0.210571,0.47751 -0.175349,0.28372 0.346131,0.46388 1.28496,0.44394 1.31659,-0.0279 1.420825,-0.10196 0.625066,-0.44394 z m 18.861495,0 c 0,-0.26264 -0.75207,-0.47751 -1.67127,-0.47751 -0.91919,0 -1.67127,0.21487 -1.67127,0.47751 0,0.26263 0.75208,0.4775 1.67127,0.4775 0.9192,0 1.67127,-0.21487 1.67127,-0.4775 z M 46.766764,97.269143 c 0,-9.692176 -0.161158,-17.522535 -0.358129,-17.4008 -0.442454,0.273448 -0.481426,34.262967 -0.0398,34.704597 0.175084,0.17509 0.336243,0.31835 0.358129,0.31835 0.02188,0 0.0398,-7.92997 0.0398,-17.622147 z M 64.07637,113.42052 c -0.4596,-0.26769 -0.835636,-0.79836 -0.835636,-1.17925 0,-0.38089 -0.412181,-0.69253 -0.915959,-0.69253 -1.625508,0 -2.332025,0.49721 -2.079371,1.46335 0.195885,0.74908 0.660884,0.92143 2.454138,0.90966 1.735283,-0.0114 2.032235,-0.11949 1.376828,-0.50123 z m 17.787111,-0.43926 c 0.682835,0 1.511518,0.2686 1.841522,0.59688 0.481312,0.47881 0.513631,0.36074 0.16337,-0.59688 -0.631588,-1.72675 -2.475092,-1.78722 -3.630237,-0.11906 -0.499997,0.72205 -0.618179,1.04423 -0.262628,0.71594 0.355551,-0.32828 1.205139,-0.59688 1.887973,-0.59688 z m 0.348184,0.66652 c -0.158676,-0.15867 -0.570525,-0.17563 -0.915222,-0.0377 -0.380921,0.15243 -0.267776,0.26558 0.288495,0.2885 0.503368,0.0207 0.785398,-0.0921 0.626727,-0.25081 z m 14.335138,-0.22726 c -0.4596,-0.26769 -0.835637,-0.81263 -0.835637,-1.21097 0,-1.24669 -2.595706,-0.63736 -2.778872,0.65234 -0.140358,0.98828 0.03185,1.07322 2.148778,1.05986 1.795773,-0.0113 2.11778,-0.12145 1.465731,-0.50123 z m -49.212128,-2.2299 c -0.120106,-0.45961 -0.218375,-0.0836 -0.218375,0.83563 0,0.91919 0.09827,1.29524 0.218375,0.83564 0.120106,-0.45961 0.120106,-1.21168 0,-1.67127 z m 3.83379,1.139 c -0.09773,-0.29817 -0.859496,-0.60946 -1.692813,-0.69176 -1.213074,-0.1198 -1.515121,0.0277 -1.515121,0.73975 0,0.73743 0.28924,0.85562 1.692812,0.69177 0.981813,-0.11463 1.61818,-0.42532 1.515122,-0.73976 z m -14.429334,0.17414 c -0.162313,-0.26263 -0.497311,-0.47751 -0.74444,-0.47751 -0.24713,0 -0.449326,0.21488 -0.449326,0.47751 0,0.26262 0.334999,0.4775 0.744441,0.4775 0.409441,0 0.611639,-0.21488 0.449325,-0.4775 z m 71.735389,0.18901 c -0.15868,-0.15868 -0.57053,-0.17564 -0.91522,-0.0377 -0.38093,0.15243 -0.26778,0.26558 0.28849,0.28849 0.50337,0.0207 0.7854,-0.0921 0.62673,-0.25079 z M 42.588583,111.6784 c -0.984856,-0.10306 -2.59644,-0.10306 -3.581297,0 -0.984857,0.10305 -0.179065,0.18731 1.790649,0.18731 1.969713,0 2.775505,-0.0843 1.790648,-0.18731 z m 22.528614,-0.51393 c 0.0299,0.72116 0.789345,0.81201 6.957404,0.83232 l 6.923842,0.0228 V 98.401239 84.782857 l -6.944327,0.132146 -6.944327,0.13214 0.0069,12.514759 c 0.0042,7.591518 -0.175608,12.627558 -0.457022,12.801478 -0.255153,0.1577 -0.448814,0.65008 -0.430355,1.09417 0.02736,0.65825 0.109403,0.63098 0.443945,-0.14755 0.335771,-0.78139 0.416485,-0.80784 0.443945,-0.14551 z m 6.868553,-0.5266 c -0.131008,-0.50097 -0.648086,-1.01805 -1.149062,-1.14906 -0.500976,-0.13101 -0.910865,-0.49331 -0.910865,-0.80511 0,-0.31179 0.409889,-0.6741 0.910865,-0.80511 0.500976,-0.131 1.015017,-0.63647 1.142315,-1.12325 0.135785,-0.51926 0.618557,-0.85591 1.168013,-0.81453 0.605449,0.0456 0.866139,0.33987 0.737366,0.83229 -0.120415,0.46047 0.292059,1.02464 1.042912,1.42649 1.039256,0.55619 1.120555,0.73279 0.497808,1.08129 -0.409366,0.22909 -0.597094,0.65472 -0.417173,0.94584 0.208173,0.33683 0.05255,0.42394 -0.427946,0.23956 -0.434621,-0.16679 -0.866811,0.001 -1.018358,0.39636 -0.3757,0.97905 -1.295372,0.84789 -1.575875,-0.22477 z M 111.46887,98.443446 V 84.860643 l -6.92384,-0.02282 -6.923843,-0.02282 v 13.605613 13.605614 h 6.923843 6.92384 V 98.443421 Z m -8.23698,11.995794 c -1.30604,-1.06934 -1.78607,-2.71055 -0.7928,-2.71055 0.28619,0 0.89602,-0.46395 1.35519,-1.03099 0.86426,-1.06731 1.94452,-0.87681 1.94452,0.34292 0,0.37844 0.21488,0.68807 0.4775,0.68807 0.26263,0 0.47751,0.42975 0.47751,0.95501 0,0.52526 -0.2004,0.95501 -0.44532,0.95501 -0.24494,0 -0.58173,0.42976 -0.74844,0.95502 -0.37987,1.19686 -0.63926,1.1792 -2.26816,-0.15449 z m -48.70008,0.30391 c -0.456538,-0.11951 -1.31605,-0.12385 -1.910026,-0.01 -0.593975,0.11422 -0.220444,0.21201 0.830069,0.21731 1.050515,0.005 1.536495,-0.0882 1.079957,-0.20767 z m 32.712705,0.0149 c -0.323286,-0.13079 -0.967919,-0.13875 -1.432519,-0.0177 -0.464599,0.12107 -0.20009,0.22808 0.587796,0.23782 0.787886,0.01 1.168009,-0.0894 0.844723,-0.22013 z M 44.140479,74.541993 V 38.490262 h -3.342544 -3.342544 v 36.051731 36.051737 h 3.342544 3.342544 z m 39.026199,35.763237 c -0.158676,-0.15866 -0.570525,-0.17563 -0.915222,-0.0377 -0.380921,0.15243 -0.267776,0.26558 0.288495,0.28849 0.503368,0.0207 0.785398,-0.0921 0.626727,-0.2508 z M 48.438037,96.001597 c 0,-8.969813 -0.163427,-13.536106 -0.477506,-13.341995 -0.299453,0.185072 -0.477507,5.151415 -0.477507,13.318774 0,11.476974 0.127201,13.660334 0.795844,13.660334 0.08754,0 0.159169,-6.1367 0.159169,-13.637113 z m 14.32519,0.03338 V 82.426532 l -6.923842,0.03834 -6.923842,0.03834 v 13.536433 13.536425 l 6.923842,0.0336 6.923842,0.0336 V 96.034952 Z M 54.64562,87.963262 c 0,-0.365847 -0.322318,-0.788855 -0.71626,-0.940029 -0.393943,-0.15117 -0.71626,-0.711351 -0.71626,-1.244855 0,-0.543879 0.31465,-0.969997 0.71626,-0.969997 0.393942,0 0.71626,-0.322316 0.71626,-0.716259 0,-0.39792 0.42445,-0.71626 0.955012,-0.71626 0.525257,0 0.955012,0.244908 0.955012,0.544243 0,0.29933 0.348651,0.799178 0.774779,1.110771 0.826247,0.60417 0.506582,2.900597 -0.33165,2.382542 -0.24372,-0.150625 -0.443129,0.06113 -0.443129,0.470573 0,0.426102 -0.408382,0.744441 -0.955012,0.744441 -0.525257,0 -0.955012,-0.29933 -0.955012,-0.66517 z m 9.429506,2.933326 c -0.08159,-3.479828 -0.148339,-0.632697 -0.148339,6.326959 0,6.959663 0.06676,9.806783 0.148339,6.326963 0.08159,-3.47983 0.08159,-9.174094 0,-12.653922 z m 16.235219,0 c -0.08159,-3.479828 -0.148343,-0.632697 -0.148343,6.326959 0,6.959663 0.06676,9.806783 0.148343,6.326963 0.08159,-3.47983 0.08159,-9.174094 0,-12.653922 z M 95.23366,96.029294 V 82.42263 l -6.923842,0.05228 -6.923842,0.05227 v 13.469654 13.469656 l 6.923842,0.0848 6.923842,0.0848 z m -8.475738,-8.550802 c -0.590914,-0.623394 -1.074389,-1.384439 -1.074389,-1.691203 0,-0.30677 -0.248079,-0.404443 -0.551286,-0.217051 -0.344301,0.212791 -0.421553,0.130803 -0.205758,-0.218359 0.190038,-0.30749 0.545556,-0.435453 0.790039,-0.28435 0.244479,0.151097 0.444511,0.03447 0.444511,-0.259148 0,-0.293628 0.214878,-0.401066 0.477507,-0.238752 0.262628,0.162314 0.477506,-0.03987 0.477506,-0.449325 0,-0.426102 0.408382,-0.744442 0.955012,-0.744442 0.530562,0 0.955013,0.31834 0.955013,0.71626 0,0.393943 0.309634,0.716259 0.688077,0.716259 0.378442,0 0.820648,0.214502 0.982679,0.476671 0.357624,0.578651 -0.910293,2.512157 -1.355454,2.066992 -0.173416,-0.173417 -0.315302,0.04283 -0.315302,0.480543 0,1.129384 -1.011678,0.971444 -2.268155,-0.354095 z m 9.787639,3.418096 c -0.08159,-3.479828 -0.148343,-0.632697 -0.148343,6.326959 0,6.959663 0.06676,9.806783 0.148343,6.326963 0.08159,-3.47983 0.08159,-9.174094 0,-12.653922 z M 36.857872,83.764562 c -0.07855,-4.547155 -0.142968,-0.961708 -0.14314,7.96766 -1.72e-4,8.929368 0.0641,12.649778 0.142826,8.267556 0.07873,-4.382215 0.07887,-11.688062 3.14e-4,-16.235216 z m -2.906289,16.682148 c -0.132467,-0.32828 -0.240848,-0.0597 -0.240848,0.59689 0,0.65657 0.108385,0.92517 0.240848,0.59688 0.132466,-0.32829 0.132466,-0.86548 0,-1.19377 z m 84.996127,0 c -0.13247,-0.32828 -0.24085,-0.0597 -0.24085,0.59689 0,0.65657 0.10842,0.92517 0.24085,0.59688 0.13247,-0.32829 0.13247,-0.86548 0,-1.19377 z M 31.605588,61.291191 c -0.07457,-6.893998 -0.135582,-1.253453 -0.135582,12.534543 0,13.787996 0.06101,19.428541 0.135582,12.534542 0.07457,-6.893999 0.07457,-18.175086 0,-25.069085 z m 89.771232,1.943285 c -0.0749,-6.649662 -0.13629,-1.346401 -0.13638,11.785024 -8e-5,13.131425 0.0612,18.572056 0.13623,12.090294 0.075,-6.481763 0.0751,-17.225655 1.5e-4,-23.875318 z m -4.70297,21.693281 c -0.0322,-2.825567 -0.17137,-3.791721 -0.42992,-2.984415 -0.56179,1.754205 -0.56179,7.162595 0,7.162595 0.28559,0 0.45838,-1.679332 0.42992,-4.17818 z M 63.566925,82.808823 c -0.152432,-0.380921 -0.26558,-0.267776 -0.288494,0.288495 -0.02073,0.503368 0.09212,0.785398 0.250796,0.626726 0.158672,-0.158675 0.175635,-0.570524 0.03769,-0.915221 z m 32.470431,0 c -0.152431,-0.380921 -0.26558,-0.267776 -0.288491,0.288495 -0.02072,0.503368 0.09212,0.785398 0.250796,0.626726 0.158671,-0.158675 0.175631,-0.570524 0.03767,-0.915221 z m -29.415024,0.08954 c 0.241149,0 0.438452,-0.399958 0.438452,-0.888796 0,-0.694686 -0.286781,-0.849671 -1.313142,-0.709641 -1.039742,0.141852 -1.121576,0.09574 -0.393042,-0.221473 0.875706,-0.381293 0.878169,-0.416711 0.05103,-0.734113 -1.159841,-0.445074 -1.270598,-0.256455 -0.909524,1.548916 0.215126,1.075635 0.513586,1.455688 0.997382,1.270033 0.379715,-0.145706 0.887694,-0.264926 1.128842,-0.264926 z m 12.853618,-0.41904 c 0,-1.0193 0.755749,-1.75806 2.148778,-2.100469 0.525258,-0.129109 -0.495412,-0.259673 -2.268154,-0.290138 -2.992262,-0.05143 -3.223168,0.01781 -3.223168,0.966358 0,1.143809 1.238161,2.282553 2.506907,2.305612 0.504525,0.0092 0.835637,-0.340062 0.835637,-0.881363 z m 19.912321,0.299664 c 0.24832,-0.328286 0.477683,-1.134078 0.509693,-1.790649 0.04994,-1.023593 -0.0099,-1.074643 -0.416761,-0.35813 -0.26122,0.4596 -0.894027,0.835637 -1.406228,0.835637 -0.612953,0 -0.93129,0.326447 -0.93129,0.955012 0,1.084498 1.512582,1.325839 2.244586,0.35813 z m 12.459699,-0.627701 c 0.12302,-0.855562 -0.0686,-0.951685 -1.55189,-0.778517 -1.91266,0.223292 -2.04597,0.432645 -0.85661,1.34523 1.13798,0.873155 2.23871,0.614155 2.4085,-0.566713 z m 0.90682,-0.556984 c -0.12106,-0.464599 -0.22808,-0.200089 -0.23782,0.587796 -0.01,0.787886 0.0894,1.16801 0.22013,0.844723 0.13081,-0.323285 0.13876,-0.96792 0.0177,-1.432519 z m -38.17328,0.833064 c 0.328285,-0.0038 0.596883,-0.511142 0.596883,-1.127908 0,-1.062681 -0.178208,-1.12659 -3.404,-1.220778 -2.908897,-0.08494 -3.362515,0.0087 -3.118778,0.643879 0.161031,0.419637 0.03185,0.749599 -0.296674,0.757798 -0.320043,0.008 -0.190296,0.242253 0.288329,0.520591 0.478623,0.278339 1.391854,0.375149 2.029402,0.215136 0.717558,-0.180096 1.159176,-0.08434 1.159176,0.251359 0,0.329356 0.421876,0.429236 1.074389,0.254373 0.590914,-0.158361 1.342987,-0.290863 1.671273,-0.29445 z m 27.78073,0.0034 c 1.06679,-0.305952 1.82662,-0.30535 2.19664,0.0019 0.31113,0.258216 1.23653,0.335318 2.05645,0.171333 1.17259,-0.234518 1.47201,-0.52466 1.40292,-1.359427 -0.0788,-0.952592 -0.37328,-1.071581 -2.87514,-1.161864 -3.38354,-0.122098 -4.65924,0.233553 -4.64957,1.296259 0.007,0.693262 0.0709,0.705223 0.4702,0.08719 0.40034,-0.619493 0.46386,-0.608744 0.47019,0.07958 0.003,0.437711 -0.26128,0.904226 -0.58957,1.03669 -1.041431,0.420225 -0.1736,0.333606 1.51788,-0.151507 z M 50.954033,81.630127 c -0.323288,-0.130799 -0.967921,-0.138759 -1.432519,-0.01772 -0.464599,0.121067 -0.200091,0.228086 0.587795,0.237817 0.787886,0.0097 1.16801,-0.08932 0.844724,-0.220125 z m 10.734805,-0.0288 c -0.722229,-0.109414 -1.904056,-0.109414 -2.626285,0 -0.722229,0.109403 -0.131314,0.198924 1.313142,0.198924 1.444457,0 2.035372,-0.08952 1.313143,-0.198924 z m 21.965293,0.01285 c -0.459601,-0.120102 -1.211672,-0.120102 -1.671273,0 -0.4596,0.120107 -0.08356,0.218378 0.835636,0.218378 0.9192,0 1.295237,-0.09827 0.835637,-0.218378 z m 10.750458,-0.007 c -0.587304,-0.113341 -1.661694,-0.116277 -2.387532,-0.0065 -0.725838,0.109755 -0.245319,0.202491 1.067824,0.206077 1.313142,0.0034 1.907012,-0.08622 1.319708,-0.199559 z m 16.586781,-1.051674 c 0,-0.238042 -0.42975,-0.320422 -0.95501,-0.183062 -0.52526,0.137359 -0.95501,0.332121 -0.95501,0.432802 0,0.100686 0.42975,0.183062 0.95501,0.183062 0.52526,0 0.95501,-0.19476 0.95501,-0.432802 z m -54.56505,-0.33316 c -0.158672,-0.158671 -0.570521,-0.175632 -0.91522,-0.03767 -0.380923,0.15243 -0.267775,0.26558 0.288493,0.288491 0.503371,0.02072 0.785399,-0.09212 0.626727,-0.250796 z m 28.172876,0 c -0.158675,-0.158671 -0.570524,-0.175632 -0.915221,-0.03767 -0.380922,0.15243 -0.267777,0.26558 0.288494,0.288491 0.503369,0.02072 0.785398,-0.09212 0.626727,-0.250796 z m 4.297557,0 c -0.158675,-0.158671 -0.570524,-0.175632 -0.915221,-0.03767 -0.380921,0.15243 -0.267776,0.26558 0.288495,0.288491 0.503368,0.02072 0.785398,-0.09212 0.626726,-0.250796 z M 57.675631,79.436434 c -0.121735,-0.196971 -1.068165,-0.35813 -2.10318,-0.35813 -1.035014,0 -1.881844,0.161159 -1.881844,0.35813 0,0.196972 0.946431,0.358129 2.103181,0.358129 1.156749,0 2.003579,-0.161157 1.881843,-0.358129 z m 32.782965,0.119376 c 0,-0.262628 -0.91323,-0.447012 -2.029402,-0.409743 l -2.029402,0.06776 1.910026,0.341986 c 1.050513,0.18809 1.963745,0.372479 2.029402,0.409744 0.06565,0.03727 0.119376,-0.147115 0.119376,-0.409744 z m -16.58678,-0.336131 c -0.587303,-0.113341 -1.661693,-0.116277 -2.387532,-0.0065 -0.725839,0.109755 -0.245319,0.202491 1.067824,0.206077 1.313142,0.0034 1.907011,-0.08622 1.319708,-0.199559 z m 9.320814,-0.01418 c -1.23868,-0.098 -3.387459,-0.09902 -4.775063,-0.0024 -1.387603,0.09677 -0.374136,0.176949 2.252148,0.178191 2.626285,0.0014 3.761595,-0.07793 2.522915,-0.175933 z m 23.14962,0.01418 c -0.5873,-0.113341 -1.6617,-0.116277 -2.38754,-0.0065 -0.72583,0.109755 -0.24532,0.202491 1.06783,0.206077 1.31314,0.0034 1.90702,-0.08622 1.31971,-0.199559 z m -47.065353,-0.97248 c -1.854373,-0.115828 -2.857816,-0.401678 -3.035503,-0.864725 -0.34046,-0.887226 -1.317323,-0.886315 -2.054487,0.0019 -0.340283,0.410015 -1.682044,0.763571 -3.281636,0.864721 -1.488294,0.09412 0.409742,0.17111 4.217854,0.17111 3.808114,0 5.67731,-0.07785 4.153772,-0.17302 z m 27.988858,-0.0034 c -4.251034,-0.07906 -11.342002,-0.07921 -15.757709,-3.29e-4 -4.415708,0.07888 -0.937589,0.143562 7.72915,0.143743 8.666741,1.82e-4 12.279592,-0.06435 8.028559,-0.143414 z M 50.711759,77.317833 c -0.456538,-0.119514 -1.316049,-0.12385 -1.910025,-0.0096 -0.593977,0.114214 -0.220446,0.212003 0.830069,0.217303 1.050514,0.0053 1.536495,-0.08816 1.079956,-0.207666 z m 10.857703,-0.149607 c 0.376831,-0.609728 -1.205295,-0.609728 -2.148779,0 -0.560227,0.362045 -0.436337,0.464475 0.568702,0.470196 0.706728,0.0041 1.417763,-0.207568 1.580077,-0.470196 z M 113.425,76.985011 c -0.61614,-0.742397 -8.568,-3.636836 -9.99143,-3.636836 -0.50622,0 -1.20493,0.376037 -1.55271,0.835636 -0.53792,0.710897 -0.5324,0.746538 0.037,0.238753 0.36814,-0.328285 1.14164,-0.596882 1.71888,-0.596882 1.41408,0 5.25788,2.199909 4.41608,2.527441 -0.35354,0.137555 0.13203,0.139255 1.07904,0.0038 1.08253,-0.15486 2.23493,0.03156 3.10379,0.502135 1.72566,0.93459 1.87339,0.950239 1.1893,0.125967 z M 70.529271,76.832147 c -0.587303,-0.11334 -1.661692,-0.116277 -2.387531,-0.0065 -0.72584,0.109755 -0.245319,0.202492 1.067823,0.206077 1.313143,0.0034 1.907011,-0.08622 1.319708,-0.199559 z m 12.886106,-9.55e-4 c -0.590914,-0.113819 -1.557864,-0.113819 -2.148779,0 -0.590913,0.113814 -0.107443,0.206937 1.07439,0.206937 1.181828,0 1.665303,-0.09312 1.074389,-0.206937 z M 51.807058,76.213265 c 1.025687,0 1.375378,-0.251779 1.492208,-1.074389 0.193327,-1.361241 2.673499,-1.801283 3.53236,-0.626722 0.504445,0.689868 0.587122,0.671627 0.809461,-0.178597 0.22883,-0.875049 -0.02958,-0.957467 -3.403319,-1.085515 L 50.586815,73.109474 V 47.801636 22.493799 L 62.426299,22.366034 74.265782,22.23827 73.528321,21.185396 c -0.927291,-1.323894 -0.9406,-2.776801 -0.03639,-3.972278 0.385591,-0.509796 0.707907,-1.725134 0.716259,-2.70075 0.01863,-2.175554 1.367266,-3.169974 3.17938,-2.34432 0.896144,0.408311 1.136544,0.893332 1.148549,2.317282 0.0083,0.990487 0.330673,2.217992 0.716259,2.727788 0.905959,1.19778 0.890549,2.648891 -0.04226,3.980667 l -0.743343,1.061261 H 92.102793 105.7388 l 0.0528,4.178181 0.0528,4.17818 0.63549,-2.612244 c 0.79491,-3.267507 1.66103,-3.953287 4.50104,-3.56386 2.40462,0.329724 3.83048,1.581937 3.83048,3.363967 0,0.695765 0.27945,1.140865 0.71627,1.140865 0.47161,0 0.71625,0.471829 0.71625,1.381431 0,0.787444 0.30798,1.499613 0.71626,1.656286 0.39395,0.15117 0.71626,0.711354 0.71626,1.244853 0,0.71633 0.31219,0.97 1.19377,0.97 h 1.19376 v -9.05582 c 0,-8.464518 -0.0603,-9.088097 -0.92362,-9.550128 -0.50799,-0.271868 -1.38285,-0.494307 -1.94413,-0.494307 -0.92774,0 -0.9523,0.06822 -0.27015,0.750368 1.44814,1.448138 0.40005,4.024696 -1.63716,4.024696 -2.94623,0 -3.19931,-4.657977 -0.26262,-4.833606 1.40109,-0.08379 -8.70211,-1.794696 -10.78093,-1.825673 -1.00897,-0.01504 -1.98856,0.283109 -2.34624,0.714089 -0.41515,0.500223 -1.24616,0.693572 -2.565377,0.596883 -1.580299,-0.115823 -1.979231,-0.338917 -2.098129,-1.173325 -0.135782,-0.952906 -0.530384,-1.059824 -5.252568,-1.423185 -6.508102,-0.500782 -25.167559,-0.494244 -31.278839,0.01096 -4.339874,0.358767 -4.717442,0.471882 -5.121374,1.534305 -0.359291,0.945005 -0.769743,1.146983 -2.33085,1.146983 -1.281328,0 -2.096779,-0.280123 -2.518727,-0.865235 -0.600784,-0.833097 -0.898867,-0.825536 -8.025308,0.203561 -4.070743,0.587837 -7.992263,1.294191 -8.714492,1.569675 l -1.313142,0.500881 v 13.679219 c 0,12.105164 0.08242,13.610816 0.71626,13.084775 0.393942,-0.326944 0.716259,-0.890448 0.716259,-1.252234 0,-0.361786 0.203105,-0.657791 0.451344,-0.657791 0.248238,0 0.516835,-1.020671 0.596882,-2.268155 l 0.14554,-2.268156 2.268155,-0.14554 c 2.047795,-0.1314 2.268155,-0.258977 2.268155,-1.313142 0,-1.564728 1.775428,-1.647633 1.996191,-0.09322 0.126181,0.888451 0.524465,1.115709 2.301366,1.313143 l 2.14878,0.238753 0.145539,2.268155 c 0.08004,1.247485 0.348644,2.268155 0.596882,2.268155 0.24824,0 0.451344,0.320496 0.451344,0.712213 0,0.391718 0.429756,0.9806 0.955013,1.308629 0.525256,0.328028 0.955012,0.927047 0.955012,1.331152 0,0.404105 -0.429756,1.044486 -0.955012,1.42307 -0.525257,0.378583 -0.955013,1.070653 -0.955013,1.537933 0,0.46728 -0.268597,0.79588 -0.596883,0.730223 -0.461602,-0.09232 -0.625863,2.505073 -0.724749,11.460152 -0.111429,10.091023 -0.0347,11.579529 0.596883,11.579529 0.398612,0 0.724749,0.320498 0.724749,0.712215 0,0.391718 0.429756,0.980599 0.955013,1.308626 1.245458,0.777801 1.208202,1.66166 -0.119377,2.832109 l -1.07439,0.947225 1.611585,-0.273803 c 0.886371,-0.15059 2.214412,-0.273802 2.951203,-0.273802 z M 35.801531,18.931742 c -1.178614,-1.302355 -0.637605,-3.247856 1.018779,-3.663581 1.610496,-0.404209 2.744286,0.308705 2.929159,1.841821 0.287519,2.384328 -2.341102,3.597295 -3.947938,1.82176 z m 2.131366,-1.45176 c 0,-0.262628 -0.214878,-0.477506 -0.477506,-0.477506 -0.262629,0 -0.477507,0.214878 -0.477507,0.477506 0,0.262629 0.214878,0.477507 0.477507,0.477507 0.262628,0 0.477506,-0.214878 0.477506,-0.477507 z m 60.513982,58.922295 c -0.158673,-0.15867 -0.570527,-0.175632 -0.915218,-0.03767 -0.380923,0.152429 -0.26778,0.26558 0.288489,0.28849 0.503374,0.02072 0.785402,-0.09212 0.626729,-0.250796 z m 1.910031,0 c -0.15868,-0.15867 -0.570528,-0.175632 -0.91523,-0.03767 -0.380917,0.152429 -0.267769,0.26558 0.2885,0.28849 0.50336,0.02072 0.7854,-0.09212 0.62673,-0.250796 z m -13.167814,-0.83948 c -1.667892,-0.354906 -2.909729,-0.957243 -3.581298,-1.737063 -0.56543,-0.656571 -0.976199,-1.106096 -0.912825,-0.998948 0.06337,0.107158 -0.10821,0.464055 -0.381313,0.793124 -0.348584,0.420019 -0.325368,0.704106 0.07792,0.95335 0.395226,0.244265 0.453068,0.145783 0.185382,-0.315617 -0.230345,-0.397041 -0.211741,-0.508315 0.0456,-0.272742 0.239078,0.218861 0.434688,0.648616 0.434688,0.955013 0,0.559485 2.58107,1.125568 5.25257,1.152008 0.896174,0.0089 0.476565,-0.189241 -1.120724,-0.529125 z m 4.09519,0.361974 c -0.158671,-0.158671 -0.570525,-0.175632 -0.915223,-0.03767 -0.380921,0.152429 -0.267776,0.26558 0.288496,0.28849 0.503367,0.02072 0.785397,-0.09212 0.626727,-0.250796 z m -9.792978,-1.502154 c -0.503091,-0.722229 -1.158922,-1.742899 -1.457402,-2.268155 -0.532477,-0.937035 -0.548377,-0.934786 -0.844771,0.119376 -0.280917,0.999125 -0.568867,1.07439 -4.110495,1.07439 -3.133026,0 -4.032125,0.17597 -5.069865,0.992253 -1.098744,0.864272 -1.693553,0.956903 -4.611626,0.718174 -2.224713,-0.182006 -3.029352,-0.125584 -2.395169,0.167949 0.525257,0.243117 5.106044,0.457135 10.179526,0.475591 l 9.224513,0.03357 z m 13.870815,0.999927 c -0.323286,-0.130798 -0.96792,-0.138759 -1.432519,-0.01772 -0.464599,0.121067 -0.200089,0.228086 0.587796,0.237817 0.787885,0.0097 1.16801,-0.08932 0.844723,-0.220125 z m -60.64397,-1.159668 c -0.189794,-0.725775 -0.363155,-0.82895 -0.640048,-0.38093 -0.410946,0.664923 -0.154717,1.376307 0.495724,1.376307 0.222542,0 0.287488,-0.44792 0.144324,-0.995377 z m 13.037731,0.02855 c 0,-0.621594 -0.233171,-0.877361 -0.65299,-0.71626 -0.359145,0.137804 -0.742855,0.250563 -0.85269,0.250563 -0.109834,0 -0.199699,0.322316 -0.199699,0.716259 0,0.393943 0.38371,0.71626 0.85269,0.71626 0.537828,0 0.852689,-0.357013 0.852689,-0.966836 z m 38.111422,-0.551195 c -2.853292,-2.155244 -2.784073,-2.115592 -2.351581,-1.347008 0.848686,1.508219 1.873912,2.387533 2.783719,2.387533 0.809989,0 0.74809,-0.149035 -0.432138,-1.040525 z m 9.730051,-0.242574 c -0.456539,-0.119515 -1.31605,-0.123851 -1.910026,-0.0096 -0.593975,0.114215 -0.220445,0.212004 0.830069,0.217304 1.050514,0.0053 1.536496,-0.08815 1.079957,-0.207667 z M 34.150213,71.57867 c 0.37732,-0.992425 0.578143,-1.097883 1.164313,-0.611408 0.622995,0.517044 0.703803,-0.814421 0.670648,-11.050124 -0.02073,-6.400896 -0.14608,-11.369397 -0.278546,-11.041113 -0.132466,0.328286 -0.867574,0.596884 -1.633574,0.596884 H 32.680327 V 61.43875 c 0,11.803595 0.231136,13.398079 1.469886,10.13992 z m 2.707439,-19.092135 c -0.08035,-3.889837 -0.146283,-0.840972 -0.14651,6.775255 -2.26e-4,7.616226 0.06552,10.798821 0.146098,7.072427 0.08058,-3.726387 0.08076,-9.957846 4.12e-4,-13.847682 z m 20.294875,20.034551 c -1.11617,-0.100533 -2.942632,-0.100533 -4.058803,0 -1.116171,0.100532 -0.202941,0.18279 2.029401,0.18279 2.232343,0 3.145574,-0.08226 2.029402,-0.18279 z m 21.05657,-0.0085 c 0.122117,-0.196971 -0.885871,-0.296737 -2.239973,-0.221697 -4.390834,0.243324 -4.925187,0.435157 -1.415796,0.508281 1.888558,0.03935 3.533656,-0.08961 3.655769,-0.286584 z m 15.329415,-0.05622 c -0.667501,-0.609717 -3.557422,-1.066204 -3.557422,-0.561924 0,0.422373 1.211295,0.780761 3.079915,0.911258 0.553703,0.03868 0.74726,-0.102931 0.477507,-0.349334 z m 4.146653,-0.138729 c 1.015334,-0.304201 1.846053,-0.700736 1.846053,-0.881195 0,-0.383619 -4.089361,0.58941 -4.592763,1.092811 -0.504676,0.504681 0.653836,0.415426 2.74671,-0.211616 z m -12.001632,-0.08915 c 0,-0.09061 -0.483475,-0.574087 -1.07439,-1.07439 l -1.074389,-0.909645 0.909644,1.07439 c 0.854842,1.009658 1.239135,1.291769 1.239135,0.909645 z m 18.383987,-0.790269 c 0.47536,-0.525257 0.75684,-0.955013 0.62553,-0.955013 -0.13131,0 -0.62767,0.429756 -1.10304,0.955013 -0.47535,0.525257 -0.75683,0.955013 -0.62551,0.955013 0.13131,0 0.62767,-0.429756 1.10302,-0.955013 z M 66.014607,23.210059 c 10.798882,0 14.855007,0.152148 15.275867,0.573007 0.445671,0.445673 0.700344,0.445673 1.146015,0 0.412165,-0.412163 3.629049,-0.573007 11.460153,-0.573007 h 10.887148 l -0.0991,4.655687 -0.0991,4.655687 -0.15757,-4.416934 -0.15757,-4.416934 H 94.117845 83.965262 l 0.110548,1.790649 c 0.06419,1.039657 0.007,1.289987 -0.136318,0.596882 -0.388127,-1.87689 -0.882255,-2.021241 -0.882255,-0.257734 v 1.60454 l 7.286503,0.06203 7.286504,0.06203 0.473204,-1.244631 c 0.637834,-1.677633 3.014312,-1.541284 3.258832,0.186974 0.0879,0.621205 -0.0733,1.362534 -0.35813,1.647398 -0.28486,0.284864 -0.51664,1.388189 -0.51506,2.451836 l 0.003,1.9339 2.50404,0.03481 2.50404,0.03481 -0.23875,-4.809881 -0.23876,-4.809879 -14.086437,-0.238753 c -7.747541,-0.131314 -19.88814,-0.131314 -26.97911,0 l -12.892671,0.238753 -0.0065,24.352825 -0.0065,24.352825 0.130216,-24.233448 0.130217,-24.233448 z m 1.523684,47.034377 v -1.671272 h -4.551297 c -3.28007,0 -4.617438,-0.172361 -4.788101,-0.617101 -0.130242,-0.339407 -0.06978,-4.475806 0.134363,-9.191998 l 0.371167,-8.574897 h 3.103791 3.103792 l 0.139927,3.167591 c 0.136309,3.085694 0.176432,3.17489 1.551896,3.449984 1.279471,0.255891 1.411968,0.460101 1.411968,2.176173 0,1.04158 0.214878,2.026585 0.477507,2.188899 0.262628,0.162314 0.477506,1.558729 0.477506,3.103147 v 2.808033 l 1.790648,0.148199 c 1.731824,0.143333 1.795409,0.213561 1.935531,2.137682 0.115785,1.589934 -0.02806,2.03432 -0.716259,2.212764 -0.473628,0.122805 0.589284,0.248213 2.362026,0.278678 l 3.223168,0.05539 v -1.43252 c 0,-0.787885 -0.0019,-1.591413 -0.0041,-1.785615 -0.0022,-0.194202 -0.378279,-0.355361 -0.835636,-0.35813 -0.693724,-0.0043 -0.854961,-0.539282 -0.972751,-3.228201 -0.130316,-2.974842 -0.06594,-3.223168 0.835635,-3.223168 0.643689,0 0.976811,-0.311535 0.976811,-0.913537 0,-0.816402 -0.165,-0.859583 -1.551896,-0.406096 -0.853542,0.279089 -2.000484,0.707818 -2.548758,0.952731 -0.548274,0.244913 -1.622665,0.37394 -2.387532,0.286723 -1.263049,-0.144021 -1.404075,-0.343408 -1.536756,-2.172711 -0.108516,-1.496123 -0.507642,-2.355386 -1.551895,-3.340993 -1.248032,-1.177942 -1.40581,-1.643801 -1.40581,-4.150854 0,-2.570766 0.136168,-2.945566 1.518522,-4.179732 0.835188,-0.745654 1.892003,-1.355735 2.348478,-1.355735 1.342573,0 2.340583,0.530798 2.340583,1.244854 0,0.365844 0.322318,0.665171 0.71626,0.665171 1.009819,0 1.04427,6.930672 0.03727,7.496998 -0.552461,0.310696 -0.56739,0.534171 -0.08012,1.199191 0.945942,1.291009 2.669134,-0.141227 2.669134,-2.218461 0,-0.872151 0.322316,-1.853227 0.716259,-2.180171 0.467908,-0.388329 0.716259,-1.451678 0.716259,-3.066758 0,-1.359774 0.257854,-2.730169 0.573008,-3.045323 0.380893,-0.380892 2.66226,-0.591579 6.804466,-0.628399 3.427301,-0.03047 5.845628,-0.155546 5.374052,-0.277958 -0.728551,-0.189119 -0.83619,-0.665179 -0.716259,-3.167777 l 0.141146,-2.945209 4.735602,-0.137632 c 3.466844,-0.100763 4.840164,0.02717 5.125872,0.477506 0.597612,0.941909 0.477752,4.887614 -0.168102,5.533453 -0.445673,0.445674 0.03187,0.573008 2.148774,0.573008 h 2.7218 v -4.297557 c 0,-4.226964 -0.019,-4.297558 -1.15472,-4.297558 -1.82925,0 -2.66421,-0.499432 -2.67986,-1.602983 -0.0131,-0.92454 -0.0615,-0.942652 -0.501234,-0.187665 -0.4346,0.746179 -1.394072,0.835636 -8.962593,0.835636 -5.955678,0 -8.646265,-0.170377 -9.048893,-0.573008 -0.340505,-0.340507 -0.573007,-1.98057 -0.573007,-4.042004 0,-3.033642 -0.125651,-3.536242 -1.001208,-4.004825 -0.811798,-0.434463 -0.967499,-0.889314 -0.823019,-2.404333 0.102515,-1.075013 -0.02994,-1.868642 -0.311931,-1.868831 -0.316234,-2.12e-4 -0.490127,2.922184 -0.490127,8.236985 v 8.237314 H 72.313311 65.866976 V 31.92422 23.686906 l -7.043219,3.29e-4 -7.043219,3.29e-4 v 24.114072 24.114072 h 7.878855 7.878855 z M 58.804203,48.69726 C 58.61801,48.511067 58.46567,47.749907 58.46567,47.005792 c 0,-1.314089 0.07211,-1.352934 2.511524,-1.352934 h 2.511524 l -0.0046,-1.551896 c -0.0041,-1.355534 0.168896,-1.571723 1.366697,-1.708603 0.754222,-0.08619 1.587257,0.05924 1.851189,0.323169 0.727552,0.727536 -7.33e-4,2.93733 -0.968044,2.93733 -0.620323,0 -0.829984,0.393657 -0.826539,1.551895 l 0.0046,1.551896 -2.884635,0.139573 c -1.586549,0.07677 -3.036974,-0.01277 -3.223168,-0.198962 z m 2.884635,-0.53035 c -1.577081,-0.124355 -2.268155,-0.389109 -2.268155,-0.868943 0,-0.50323 0.678828,-0.713403 2.506908,-0.776166 l 2.506908,-0.08607 -2.334772,-0.181568 c -2.487408,-0.193437 -3.462645,0.299807 -2.996188,1.515377 0.212403,0.553514 0.881606,0.725946 2.570312,0.662286 l 2.283142,-0.08607 z m 0.960579,-0.932112 c -0.456537,-0.119516 -1.316048,-0.123852 -1.910024,-0.0096 -0.593977,0.114216 -0.220446,0.212002 0.830069,0.217303 1.050513,0.0053 1.536494,-0.08815 1.079955,-0.207666 z m 2.849523,-2.34794 c -0.15867,-0.158671 -0.570519,-0.175635 -0.91522,-0.03769 -0.380922,0.152431 -0.267773,0.26558 0.288494,0.288493 0.50337,0.02073 0.785398,-0.09212 0.626726,-0.250796 z m -0.109424,-1.773839 c 0.753029,-0.207206 0.710444,-0.244137 -0.201351,-0.174615 -0.636001,0.04849 -1.243273,0.410486 -1.349496,0.804429 -0.12761,0.473258 -0.0593,0.532499 0.201351,0.174614 0.216966,-0.297903 0.824238,-0.659896 1.349496,-0.804428 z m 7.900009,1.597901 c -0.316324,-0.195499 -0.504209,-0.976771 -0.417521,-1.73616 0.1558,-1.364827 0.193308,-1.380707 3.261405,-1.380707 2.900211,0 3.114272,0.07409 3.263593,1.129464 0.0879,0.621204 -0.05573,1.345002 -0.31917,1.60844 -0.584005,0.584005 -4.989817,0.872456 -5.788307,0.378963 z m 0.594709,-1.445593 c -0.178803,-0.683744 -0.01465,-0.955013 0.577902,-0.955013 0.553063,0 0.755215,0.277232 0.609327,0.835635 -0.181527,0.694818 0.109479,0.835637 1.72687,0.835637 1.5935,0 1.963275,-0.172664 2.045234,-0.955013 0.0776,-0.740786 0.04479,-0.767565 -0.146303,-0.119377 -0.135492,0.4596 -0.660348,0.835637 -1.166349,0.835637 -1.147725,0 -1.193018,-0.74854 -0.08437,-1.394272 0.4596,-0.267693 0.610014,-0.493248 0.334254,-0.501234 -0.275759,-0.008 -0.733902,0.217999 -1.018092,0.502191 -0.37061,0.37061 -0.799291,0.340237 -1.516102,-0.107421 -1.182142,-0.73826 -2.286435,0.0089 -1.817879,1.229884 0.412992,1.076239 0.750896,0.922935 0.455501,-0.206656 z m 11.128959,1.286388 c -1.217516,-0.890272 -0.842631,-2.91241 0.577249,-3.113693 2.112029,-0.299402 3.177422,1.5398 1.730257,2.986962 -0.911898,0.9119 -1.211237,0.92834 -2.307506,0.126731 z m 0.326242,-1.305329 c -0.140081,-0.535673 -0.361391,-0.867257 -0.491793,-0.736853 -0.258331,0.258328 0.197969,1.710805 0.537453,1.710805 0.114968,0 0.09442,-0.438278 -0.04566,-0.973952 z m 1.537867,-0.936072 c -0.162314,-0.262629 -0.551034,-0.474217 -0.863819,-0.470195 -0.341709,0.0044 -0.282813,0.192066 0.147559,0.470195 0.917348,0.592836 1.08265,0.592836 0.71626,0 z M 81.87772,70.456597 c 0.725614,-1.355822 0.230678,-1.134579 -0.725108,0.324136 -0.451388,0.688908 -0.584697,1.106697 -0.296236,0.92842 0.288457,-0.178276 0.748062,-0.741925 1.021344,-1.252556 z m 7.625866,0.982236 c 0,-0.149728 -0.698352,-0.676699 -1.551895,-1.171052 -1.546743,-0.89584 -1.549116,-0.895658 -0.715219,0.05517 0.460173,0.524699 0.739004,1.051675 0.619622,1.171056 -0.119381,0.119381 0.202468,0.217055 0.715219,0.217055 0.512751,0 0.932273,-0.122504 0.932273,-0.272231 z m 11.218134,-0.0059 c -0.42003,-0.679606 2.48976,-3.48001 3.17554,-3.056174 0.3266,0.201847 0.42874,0.137144 0.24722,-0.15658 -0.17015,-0.275306 0.0267,-1.304948 0.43752,-2.288095 0.89871,-2.150923 0.80828,-9.315646 -0.11311,-8.962347 -0.3886,0.148997 -0.42419,0.663744 -0.11938,1.726534 0.89462,3.119359 0.10447,7.389513 -1.74575,9.433941 -1.31257,1.450363 -1.33271,0.736176 -0.0332,-1.178691 5.07579,-7.479602 -2.910541,-17.583164 -11.524868,-14.58019 l -1.465491,0.510871 0.90624,1.996037 c 0.551066,1.213744 0.910352,3.085844 0.916731,4.776708 0.009,2.393983 -0.105723,2.758406 -0.82515,2.620516 -0.636793,-0.122045 -0.906307,-0.816521 -1.132635,-2.918504 -0.417981,-3.881876 -0.896777,-3.956479 -0.896777,-0.139718 0,2.80724 -0.106752,3.198118 -0.835635,3.059713 -0.660808,-0.12548 -0.885589,-0.798683 -1.074389,-3.217725 -0.261904,-3.355624 -0.787552,-3.322641 -1.896647,0.119009 -1.317473,4.088305 1.008723,9.372619 4.970068,11.290271 2.917469,1.412325 7.622667,1.236698 9.789635,-0.365402 1.757948,-1.299712 2.367708,-1.361873 1.250608,-0.12749 -0.72197,0.79777 -0.70482,1.940113 0.0291,1.940113 0.13131,0 0.10448,-0.217255 -0.0597,-0.482793 z M 85.91657,70.602566 c -0.08798,-0.4596 -0.176411,-0.902038 -0.196504,-0.983196 -0.02011,-0.08116 -0.261844,-0.0083 -0.537228,0.161889 -0.342276,0.21154 -0.323777,0.522612 0.05847,0.983195 0.732485,0.88259 0.868942,0.849876 0.675262,-0.161888 z m 17.36865,0.198963 c 0.39486,-0.475773 0.36941,-0.636679 -0.10075,-0.636679 -0.346,0 -0.6291,0.286504 -0.6291,0.636679 0,0.350169 0.0453,0.636673 0.10075,0.636673 0.0554,0 0.33849,-0.286504 0.6291,-0.636673 z M 80.969848,69.886306 c 0.519107,-0.974218 0.498411,-1.013288 -0.221955,-0.41904 -1.026915,0.847129 -1.029861,0.1575 -0.0043,-0.97588 0.434646,-0.480281 0.565076,-0.873235 0.289842,-0.873235 -0.275235,0 -0.62488,0.324309 -0.776984,0.72069 -0.152106,0.396379 -0.44369,0.664976 -0.647967,0.596884 -0.392539,-0.130847 -0.610173,0.260828 -0.610173,1.098141 0,0.278127 0.214878,0.372884 0.477507,0.21057 0.262629,-0.162314 0.477506,-0.06756 0.477506,0.210571 0,0.811574 0.400247,0.587629 1.016392,-0.568701 z m -8.656494,-0.55894 c 0,-0.895435 -0.322024,-1.226557 -1.429376,-1.46977 -1.481787,-0.325458 -2.868181,0.509681 -2.868181,1.727738 0,0.393971 0.206833,0.334498 0.596883,-0.171625 1.043944,-1.3546 3.223168,-1.277205 3.223168,0.114467 0,0.525257 0.107442,0.955013 0.238753,0.955013 0.131315,0 0.238753,-0.520123 0.238753,-1.155823 z m 12.733624,-2.783604 c -1.316432,-2.581935 -1.237209,-2.463584 -1.483979,-2.216819 -0.340277,0.340276 1.552363,4.246221 2.057517,4.246221 0.253652,0 -0.0043,-0.913231 -0.573538,-2.029402 z M 65.76205,67.746729 c -1.108247,-0.100138 -3.042148,-0.101332 -4.297557,-0.0028 -1.25541,0.09891 -0.348663,0.180845 2.014993,0.182297 2.363657,0.0014 3.390811,-0.07929 2.282564,-0.179433 z m -2.283607,-5.858654 h 4.489695 l 0.172294,2.745661 0.172293,2.745662 0.09029,-2.760646 c 0.06578,-2.011567 -0.09428,-2.831475 -0.589906,-3.021665 -0.476603,-0.182889 -0.603774,-0.731927 -0.424879,-1.834331 0.140423,-0.865327 0.05563,-1.696728 -0.188416,-1.847563 -0.250767,-0.15498 -0.353911,0.33775 -0.237184,1.133061 l 0.206548,1.407302 h -3.84253 c -3.822535,0 -3.843624,-0.0068 -4.052819,-1.313143 -0.231245,-1.444008 -0.218848,-1.567405 -0.515699,5.133193 -0.0919,2.074589 -0.07647,2.193345 0.04655,0.35813 l 0.184061,-2.745661 z m 4.059848,2.865038 v -2.387532 h -4.058805 -4.058803 v 2.387532 2.387532 h 4.058803 4.058805 z m 8.932107,-0.596883 c -0.113815,-0.590915 -0.206937,-0.107443 -0.206937,1.074389 0,1.181829 0.09312,1.665304 0.206937,1.074389 0.113814,-0.590914 0.113814,-1.557864 0,-2.148778 z m 2.469837,1.590177 c -0.689647,-1.978332 -1.851817,-2.31347 -1.851817,-0.534014 0,1.055943 0.25486,1.433412 1.074389,1.591261 0.590914,0.113814 1.11693,0.236199 1.168926,0.271963 0.052,0.03577 -0.124175,-0.562377 -0.391498,-1.32921 z m 1.633177,0.454868 c -0.13511,-0.516652 -0.541927,-1.185257 -0.904039,-1.48578 -0.552308,-0.458378 -0.574936,-0.307032 -0.140439,0.939369 0.563138,1.615424 1.444619,2.076566 1.044478,0.546411 z m 4.400221,-9.403738 c 0.423539,-0.646404 0.66606,-1.430774 0.538929,-1.743046 -0.127127,-0.312271 -0.248103,-0.191729 -0.268837,0.267871 -0.02072,0.4596 -0.231557,0.835637 -0.46849,0.835637 -0.730825,0 -1.482324,2.88334 -1.418686,5.443199 l 0.06055,2.435655 0.393231,-3.032018 c 0.216272,-1.667609 0.739758,-3.560893 1.163301,-4.207298 z m -4.211764,4.263989 c -0.121066,-0.4646 -0.228085,-0.200091 -0.237816,0.587795 -0.0097,0.787886 0.08932,1.168009 0.220126,0.844723 0.130798,-0.323285 0.138757,-0.967919 0.01766,-1.432518 z m 0.955013,0 c -0.121067,-0.4646 -0.228085,-0.200091 -0.237817,0.587795 -0.0097,0.787886 0.08932,1.168009 0.220125,0.844723 0.130799,-0.323285 0.138759,-0.967919 0.01767,-1.432518 z m 25.307838,0 c -0.12106,-0.4646 -0.22809,-0.200091 -0.23781,0.587795 -0.01,0.787886 0.0894,1.168009 0.22012,0.844723 0.1308,-0.323285 0.13876,-0.967919 0.0177,-1.432518 z m 6.71231,1.452402 c -0.87918,-0.229753 -0.90492,-0.501959 -0.92848,-9.817851 -0.005,-2.035371 -0.18366,-3.700674 -0.39671,-3.700674 -0.21304,0 -0.72724,-0.130428 -1.14266,-0.289841 -0.64752,-0.248474 -0.75532,0.223022 -0.75532,3.30349 0,4.009232 0.267,5.103958 1.24486,5.103958 0.49465,0 0.66517,0.734473 0.66517,2.865039 0,2.669227 0.0734,2.861252 1.07438,2.809647 0.80851,-0.04168 0.86759,-0.109435 0.23876,-0.273768 z m -5.76201,-1.192893 c -0.15243,-0.38092 -0.26558,-0.267775 -0.28849,0.288496 -0.0207,0.503368 0.0921,0.785398 0.25079,0.626727 0.15867,-0.158676 0.17563,-0.570525 0.0377,-0.915223 z M 79.919892,58.97095 c 0.01848,-0.685217 0.624784,-2.417952 1.347385,-3.850519 1.255851,-2.489743 1.270401,-2.596369 0.329713,-2.416545 -1.575012,0.301082 -2.24895,1.965103 -2.358819,5.824129 -0.06068,2.131312 0.05057,3.209383 0.272851,2.6438 0.206422,-0.525258 0.390415,-1.515648 0.40887,-2.200865 z M 113.73582,45.08336 c -0.0827,-3.232261 -0.15068,-0.719769 -0.15099,5.583315 -3.2e-4,6.303084 0.0674,8.947662 0.15042,5.876837 0.083,-3.070823 0.0833,-8.227892 4.8e-4,-11.460152 z m 1.81681,12.02965 c 0.55186,0 0.6913,-0.861206 0.6913,-4.269376 0,-4.39096 -0.26429,-5.191984 -1.33196,-4.036865 -0.43536,0.471015 -0.4532,0.66614 -0.0609,0.66614 0.41934,0 0.41827,0.164507 -0.004,0.673748 -0.38225,0.460581 -0.40075,0.771654 -0.0585,0.983194 0.27538,0.170195 0.49741,1.532311 0.49338,3.026926 -0.006,1.930691 -0.1414,2.510104 -0.47026,2.001222 -0.31952,-0.494427 -0.43779,0.318965 -0.38186,2.626285 0.0724,2.984577 0.0998,3.074066 0.25639,0.835635 0.12516,-1.789049 0.37334,-2.506909 0.86668,-2.506909 z m -43.808932,3.700676 c -0.728682,-0.578232 -1.491812,-3.209622 -0.911515,-3.143048 0.884102,0.101431 2.111035,-0.190663 1.627373,-0.387424 -0.313533,-0.127547 -0.441007,-0.568205 -0.28328,-0.979236 0.189085,-0.492747 -0.145388,-0.37157 -0.981838,0.355712 -1.849514,1.608137 -1.646924,4.750878 0.306256,4.750878 0.878982,0 0.907358,-0.06969 0.243004,-0.596882 z M 60.214432,58.426153 c -0.132466,-0.328285 -0.240847,-0.05968 -0.240847,0.596883 0,0.656572 0.108384,0.925169 0.240847,0.596883 0.132467,-0.328286 0.132467,-0.86548 0,-1.193766 z m 6.217531,0.507351 c -0.152432,-0.380922 -0.265581,-0.267777 -0.288493,0.288495 -0.02073,0.503369 0.09212,0.785397 0.250796,0.626727 0.15867,-0.158675 0.175635,-0.570524 0.03769,-0.915222 z m -3.320554,0.278543 c -0.158671,-0.15867 -0.570521,-0.175631 -0.91522,-0.03767 -0.380923,0.152429 -0.267775,0.265579 0.288493,0.28849 0.503371,0.02072 0.785398,-0.09212 0.626727,-0.250796 z M 76.67182,57.709894 c 0.593956,-0.757353 0.577066,-0.774244 -0.180285,-0.180288 -0.4596,0.360446 -0.835636,0.736483 -0.835636,0.835637 0,0.393006 0.392121,0.140057 1.015921,-0.655349 z m -11.043555,-5.11e-4 c 0,-0.197249 -1.200157,-0.421265 -2.667015,-0.49781 -1.760013,-0.09185 -2.562384,0.03013 -2.35935,0.35864 0.348096,0.563234 5.026365,0.692767 5.026365,0.13917 z m 3.984827,-1.333226 c -0.155516,-0.405269 -0.385167,-0.634443 -0.510335,-0.509275 -0.125167,0.125168 -0.08595,0.456752 0.08717,0.736853 0.470846,0.761843 0.746047,0.61384 0.423163,-0.227578 z m -8.759891,-0.842649 c 1.028067,-0.209497 1.000038,-0.23275 -0.201928,-0.167516 -0.787371,0.04273 -1.47962,0.387933 -1.588248,0.792007 -0.128715,0.478795 -0.06177,0.534329 0.201928,0.167515 0.216965,-0.301807 0.931678,-0.65821 1.588248,-0.792006 z m 1.796216,0.773912 c -0.456537,-0.119517 -1.316048,-0.123854 -1.910024,-0.0096 -0.593977,0.114215 -0.220446,0.212001 0.830069,0.217301 1.050513,0.0053 1.536494,-0.08815 1.079955,-0.207665 z m 41.298733,0.01184 c -0.32828,-0.132466 -0.59688,-0.466898 -0.59688,-0.743183 0,-0.49139 -2.20119,-2.760625 -2.67786,-2.760625 -0.13261,0 0.46938,0.855638 1.33775,1.901418 0.86837,1.04578 1.79374,1.888327 2.05636,1.872327 0.26264,-0.016 0.20892,-0.137471 -0.11937,-0.269937 z M 71.259051,52.180249 c 0.115831,-3.04178 0.0147,-3.662353 -0.596883,-3.662353 -0.602727,0 -0.736345,0.700414 -0.736345,3.859843 0,2.874866 0.152316,3.809447 0.596883,3.662353 0.391238,-0.129449 0.644931,-1.459287 0.736345,-3.859843 z m -7.063304,3.067441 c 0,-0.238042 -0.429756,-0.32042 -0.955013,-0.183061 -0.525257,0.137357 -0.955013,0.332118 -0.955013,0.432802 0,0.100686 0.429756,0.183061 0.955013,0.183061 0.525257,0 0.955013,-0.194761 0.955013,-0.432802 z m 4.219725,-3.0573 -0.07783,-2.478728 -0.321843,2.626285 -0.321842,2.626285 -0.07783,-2.705869 c -0.04281,-1.488228 0.142416,-2.815099 0.411611,-2.948602 0.269194,-0.133503 0.215475,-0.188332 -0.119376,-0.121843 -0.638966,0.126876 -1.117026,4.146636 -0.640755,5.387778 0.543656,1.416742 1.222929,0.0051 1.147868,-2.385306 z m 4.998178,-2.765294 c -0.211219,-0.21237 -0.279296,1.054495 -0.15128,2.815258 l 0.232756,3.201384 0.151281,-2.815256 c 0.08321,-1.548391 -0.02154,-2.989015 -0.232757,-3.201386 z m -13.854438,4.344711 c 0.137453,-0.52562 0.05507,-0.835254 -0.183061,-0.688078 -0.238136,0.147176 -0.432974,0.577228 -0.432974,0.955672 0,0.988318 0.324464,0.847377 0.616035,-0.267594 z m 9.753613,-2.745002 c -0.109403,-0.722229 -0.198924,-0.131314 -0.198924,1.313142 0,1.444457 0.08952,2.035371 0.198924,1.313143 0.109414,-0.722229 0.109414,-1.904057 0,-2.626285 z m 2.865039,0 c -0.109414,-0.722229 -0.198924,-0.131314 -0.198924,1.313142 0,1.444457 0.08952,2.035371 0.198924,1.313143 0.109414,-0.722229 0.109414,-1.904057 0,-2.626285 z m 42.493766,1.199333 c -0.11421,-0.593976 -0.212,-0.220445 -0.2173,0.830069 -0.005,1.050514 0.0882,1.536494 0.20767,1.079956 0.11952,-0.456537 0.12385,-1.316048 0.01,-1.910025 z m -51.789026,1.686843 c -0.590915,-0.113816 -1.557865,-0.113816 -2.148779,0 -0.590914,0.113815 -0.107443,0.206936 1.074389,0.206936 1.181829,0 1.665304,-0.09312 1.07439,-0.206936 z m 25.18846,-1.275813 c 0,-0.09915 -0.376036,-0.475193 -0.835636,-0.835635 -0.757353,-0.593957 -0.774243,-0.577068 -0.180287,0.180284 0.6238,0.795406 1.015923,1.048356 1.015923,0.655351 z M 100.00872,52.38466 c 0,-0.236937 -0.644629,-0.655515 -1.432517,-0.930174 -1.7959,-0.626056 -1.902609,0.03584 -0.11938,0.740485 0.722235,0.285388 1.36687,0.541746 1.432523,0.569685 0.06571,0.02794 0.119374,-0.143061 0.119374,-0.379996 z m -38.050719,-1.62025 2.476498,-0.188817 -2.621812,0.04555 c -1.96763,0.03418 -2.634401,0.224258 -2.672265,0.7618 -0.02775,0.393942 0.03764,0.458417 0.145314,0.143276 0.107673,-0.315141 1.310191,-0.65795 2.672265,-0.7618 z m 31.843139,0.660275 c 2.335776,-0.23345 2.839487,-0.402625 2.035648,-0.683683 -1.414274,-0.494495 -5.115076,0.08562 -6.192293,0.970656 -0.812047,0.667177 -0.806895,0.686326 0.09784,0.363745 0.525256,-0.187279 2.351718,-0.480102 4.058803,-0.650718 z m -30.918536,0.09877 c -0.590915,-0.113815 -1.557865,-0.113815 -2.148779,0 -0.590914,0.113815 -0.107443,0.206937 1.074389,0.206937 1.181829,0 1.665304,-0.09312 1.07439,-0.206937 z m 20.595384,-2.357537 c 2.022363,0.237688 3.03842,0.09923 4.663771,-0.635516 l 2.078083,-0.939413 -5.322223,0.01643 -5.322224,0.01643 -0.205633,1.401076 c -0.194522,1.325353 -0.158933,1.358813 0.658453,0.619086 0.67919,-0.614657 1.417387,-0.716961 3.449773,-0.478093 z m 35.469722,-0.767392 c -0.13247,-0.328286 -0.24085,-0.05969 -0.24085,0.596882 0,0.656571 0.10842,0.925169 0.24085,0.596883 0.13247,-0.328286 0.13247,-0.865481 0,-1.193765 z M 93.920518,48.201658 c -0.328286,-0.132466 -0.865481,-0.132466 -1.193767,0 -0.328286,0.132467 -0.05968,0.240848 0.596883,0.240848 0.656571,0 0.925168,-0.108385 0.596884,-0.240848 z m 2.138831,0.02775 c -0.158675,-0.158672 -0.570524,-0.175637 -0.915221,-0.03769 -0.380922,0.152433 -0.267777,0.265581 0.288494,0.288495 0.503368,0.02073 0.785398,-0.09212 0.626727,-0.250797 z m 16.364541,0.100828 c 0,-0.103216 -0.33348,-0.315633 -0.74106,-0.472038 -0.42494,-0.163066 -0.61661,-0.08301 -0.44933,0.187666 0.28043,0.453729 1.19039,0.67111 1.19039,0.284372 z M 34.112846,46.905098 c 0,-0.361786 -0.322317,-0.925292 -0.71626,-1.252235 -0.605707,-0.502692 -0.716259,-0.401164 -0.716259,0.657792 0,0.79476 0.261668,1.252234 0.716259,1.252234 0.393943,0 0.71626,-0.296006 0.71626,-0.657791 z m 63.835729,0.01208 c 0.170106,-0.170114 -1.338107,-0.309298 -3.351589,-0.309298 -2.013486,0 -3.660883,0.185194 -3.660883,0.411542 0,0.467677 6.537867,0.372354 7.012472,-0.102241 z m -16.20447,-0.160953 c -0.4596,-0.120106 -1.211672,-0.120106 -1.671272,0 -0.4596,0.120106 -0.08357,0.218375 0.835636,0.218375 0.919199,0 1.295236,-0.09827 0.835636,-0.218375 z m 8.107661,0.04066 c -0.158675,-0.15867 -0.570524,-0.175635 -0.915221,-0.03769 -0.380922,0.152431 -0.267777,0.265581 0.288494,0.288493 0.503369,0.02073 0.785398,-0.09212 0.626727,-0.250796 z m 12.186354,-0.02775 c -0.32828,-0.132466 -0.86547,-0.132466 -1.19376,0 -0.32829,0.132466 -0.0597,0.240847 0.59688,0.240847 0.65657,0 0.92517,-0.108384 0.59688,-0.240847 z m 2.13884,0.02775 c -0.15867,-0.158672 -0.57053,-0.175635 -0.91522,-0.03769 -0.38093,0.152433 -0.26778,0.265581 0.28849,0.288494 0.50336,0.02073 0.7854,-0.09212 0.62673,-0.250796 z m 1.08434,-5.231009 c 0,-3.035727 -0.16116,-5.420499 -0.35814,-5.299492 -0.36959,0.227054 -0.22355,10.818997 0.14916,10.818997 0.11494,0 0.20898,-2.483778 0.20898,-5.519505 z m 10.02762,5.042 c 0,-0.262629 -0.21487,-0.477506 -0.47751,-0.477506 -0.26262,0 -0.47749,0.214877 -0.47749,0.477506 0,0.262629 0.21487,0.477507 0.47749,0.477507 0.26264,0 0.47751,-0.214878 0.47751,-0.477507 z m 6.08735,-23.039683 c -0.0792,-4.267712 -0.14389,-0.775948 -0.14389,7.759479 0,8.535426 0.0647,12.027192 0.14389,7.759478 0.0792,-4.267712 0.0792,-11.251243 0,-15.518957 z M 47.515454,44.78824 c -0.413208,-0.137736 -0.411692,-0.349673 0.0061,-0.85309 0.447312,-0.538979 0.357928,-0.669823 -0.457577,-0.669823 -0.695142,0 -1.01348,0.299972 -1.01348,0.955011 0,0.525258 0.227559,0.955013 0.505687,0.955013 0.278128,0 0.34432,0.268598 0.147092,0.596883 -0.216031,0.359586 -0.01658,0.319064 0.501686,-0.101923 0.544316,-0.442147 0.658351,-0.766116 0.310484,-0.882071 z m -11.492583,0.642665 c 0,-0.122073 -0.429755,-0.451951 -0.955013,-0.73306 -0.575516,-0.308008 -0.955012,-0.328596 -0.955012,-0.05181 0,0.252612 0.376036,0.557563 0.835636,0.677668 0.4596,0.120107 0.889356,0.243301 0.955013,0.273766 0.06565,0.03047 0.119376,-0.04448 0.119376,-0.16656 z M 99.438997,43.96895 c -0.14702,-0.147018 -0.414023,0.117998 -0.593339,0.588925 -0.259139,0.680541 -0.204285,0.73539 0.267309,0.267306 0.326337,-0.323909 0.473051,-0.709212 0.32603,-0.856231 z m 13.330953,-3.20198 c -0.10623,-0.858247 -0.19542,-0.271181 -0.1981,1.30459 -0.003,1.575771 0.0842,2.277972 0.19324,1.560447 0.10896,-0.717525 0.11114,-2.006792 0.004,-2.865037 z m 2.69552,2.856486 c 0.44018,-1.642559 0.35487,-5.133194 -0.12546,-5.133194 -0.66639,0 -1.00609,1.303001 -1.00609,3.859105 0,2.436595 0.62993,3.145877 1.13155,1.274089 z M 35.664741,43.426589 c -0.328286,-0.132466 -0.86548,-0.132466 -1.193765,0 -0.328286,0.132467 -0.05968,0.240848 0.596882,0.240848 0.656572,0 0.925169,-0.108385 0.596883,-0.240848 z m 75.672699,-3.614632 c -0.10634,-0.858247 -0.19543,-0.271181 -0.1981,1.30459 -0.003,1.575772 0.0842,2.277973 0.19322,1.560447 0.10897,-0.717525 0.11115,-2.006792 0.004,-2.865037 z m -20.552654,2.408824 c -0.152431,-0.380922 -0.26558,-0.267774 -0.288491,0.288494 -0.02072,0.50337 0.09212,0.785398 0.250795,0.626727 0.158672,-0.158672 0.175632,-0.570521 0.03767,-0.915221 z m 4.92638,0.556708 c 0,-0.256946 -0.966951,-0.467175 -2.148778,-0.467175 -1.181829,0 -2.148779,0.168144 -2.148779,0.373655 0,0.205512 0.96695,0.415741 2.148779,0.467176 1.181827,0.05144 2.148778,-0.116709 2.148778,-0.373656 z m 1.671273,0.01029 c 0.162309,-0.262625 -0.03986,-0.477503 -0.449324,-0.477503 -0.409444,0 -0.744443,0.214878 -0.744443,0.477507 0,0.262628 0.202196,0.477506 0.449324,0.477506 0.247129,0 0.582124,-0.214878 0.744443,-0.477506 z m 1.671271,-0.238754 c 0,-0.393943 -0.179064,-0.716259 -0.397925,-0.716259 -0.218861,0 -0.397924,0.322316 -0.397924,0.716259 0,0.393943 0.179063,0.71626 0.397924,0.71626 0.218861,0 0.397925,-0.322317 0.397925,-0.71626 z m -0.311169,-1.551896 c 0.122479,-0.196971 -1.100382,-0.298005 -2.717481,-0.22452 -4.943443,0.224642 -5.528861,0.43588 -1.416466,0.511105 2.151185,0.03935 4.011457,-0.08961 4.133947,-0.286585 z M 97.26306,40.084003 c -0.328284,-0.132465 -0.865479,-0.132465 -1.193764,0 -0.328286,0.132466 -0.05968,0.240847 0.596883,0.240847 0.656576,0 0.925166,-0.108384 0.596881,-0.240847 z M 75.297769,39.569238 c -1.641427,-0.09324 -4.327401,-0.09324 -5.968829,0 -1.641429,0.09324 -0.298442,0.169532 2.984414,0.169532 3.282857,0 4.625843,-0.07629 2.984415,-0.169532 z M 66.461099,28.60383 c -0.08972,-2.047374 -0.163684,-0.499331 -0.164353,3.440097 -6.68e-4,3.939426 0.07274,5.614552 0.163136,3.722498 0.09039,-1.892052 0.09094,-5.115221 0.0012,-7.162595 z m 11.104825,3.440097 v -6.923844 h -5.25257 -5.25257 v 6.923844 6.923841 h 5.25257 5.25257 z m 0.832833,-3.440097 c -0.08972,-2.047374 -0.163684,-0.499331 -0.164352,3.440097 -4.77e-4,3.939426 0.07274,5.614552 0.163135,3.722498 0.09039,-1.892052 0.09094,-5.115221 0.0014,-7.162595 z m -37.25264,9.120432 c -0.158672,-0.15867 -0.570521,-0.175635 -0.915221,-0.03769 -0.380923,0.152432 -0.267774,0.265581 0.288494,0.288493 0.503371,0.02073 0.785397,-0.09212 0.626727,-0.250795 z m 73.665293,-1.621531 c 0,-1.803914 -0.0796,-1.910026 -1.43251,-1.910026 -1.35294,0 -1.43252,0.106107 -1.43252,1.910026 0,1.803912 0.0796,1.910025 1.43252,1.910025 1.35293,0 1.43251,-0.106118 1.43251,-1.910025 z m -73.345589,0.399237 c -0.12153,-0.196641 -0.5364,-0.236484 -0.921931,-0.08854 -0.972135,0.373042 -0.87566,0.598122 0.220964,0.515516 0.507063,-0.0382 0.822499,-0.230335 0.700967,-0.426976 z m 61.288559,0.04002 c -0.45959,-0.267692 -0.83564,-1.002553 -0.83564,-1.633024 0,-0.630471 0.37605,-1.365332 0.83564,-1.633024 0.75581,-0.440221 0.73833,-0.488101 -0.18306,-0.501235 -0.89476,-0.01276 -1.57227,1.027492 -1.60106,2.458281 -0.0109,0.536719 1.45398,1.825794 2.05698,1.810236 0.30953,-0.008 0.18674,-0.233541 -0.27286,-0.501234 z m 7.75217,-0.825569 c -0.007,-0.695858 -0.0713,-0.708461 -0.47019,-0.09119 -0.60433,0.935136 -0.60433,1.567263 0,1.193766 0.26262,-0.162313 0.47421,-0.658469 0.47019,-1.10257 z M 95.114283,35.27029 c -2.03537,-0.08951 -5.365978,-0.08951 -7.401348,0 -2.035372,0.0895 -0.370068,0.162743 3.700674,0.162743 4.070741,0 5.736045,-0.07323 3.700674,-0.162743 z M 82.209545,30.739335 c -0.106271,-0.858245 -0.19542,-0.27118 -0.198098,1.304592 -0.0028,1.57577 0.08427,2.277972 0.193227,1.560447 0.108954,-0.717525 0.111144,-2.006792 0.0048,-2.865039 z m 28.304315,2.880362 c 0,-0.771371 -0.1412,-0.90931 -0.5314,-0.519112 -0.29227,0.292271 -0.38703,0.765002 -0.21057,1.050514 0.49392,0.799193 0.74197,0.621543 0.74197,-0.531402 z M 98.960493,31.92455 98.814962,29.656394 90.816726,29.525472 82.818494,29.39455 v 2.399078 2.399077 h 8.143771 8.14377 z m 0.912732,-1.432519 c -0.109403,-0.722229 -0.198918,-0.131314 -0.198918,1.313142 0,1.444457 0.08947,2.035371 0.198918,1.313143 0.109403,-0.722229 0.109403,-1.904057 0,-2.626285 z m 9.208125,2.730674 c 0,-0.533499 0.32231,-1.093683 0.71625,-1.244853 0.39394,-0.15117 0.71626,-0.666272 0.71626,-1.144672 0,-0.478399 0.33828,-1.2081 0.75174,-1.621556 0.68398,-0.683981 0.68344,-0.77795 -0.007,-1.042542 -1.05043,-0.403085 -2.12952,0.615244 -1.83707,1.73361 0.1334,0.510093 -0.20385,1.684021 -0.74945,2.608728 -0.79335,1.344604 -0.85178,1.681285 -0.29184,1.681285 0.38542,0 0.70016,-0.436031 0.70016,-0.97 z m 8.1176,0.253741 c 0,-0.393943 -0.20814,-0.71626 -0.46253,-0.71626 -0.25437,0 -0.33883,0.322317 -0.18766,0.71626 0.15117,0.393942 0.3593,0.716259 0.46253,0.716259 0.10316,0 0.18766,-0.322317 0.18766,-0.716259 z m -3.22317,-0.07749 c -0.32829,-0.132465 -0.86548,-0.132465 -1.19376,0 -0.32829,0.132467 -0.0597,0.240847 0.59688,0.240847 0.65657,0 0.92517,-0.108384 0.59688,-0.240847 z m -1.49098,-1.44669 c 0.4453,-0.548971 0.46404,-0.692987 0.0585,-0.449326 -0.37562,0.225658 -0.59689,0.08262 -0.59689,-0.385846 0,-0.409442 -0.21487,-0.74444 -0.47751,-0.74444 -0.62158,0 -0.61629,0.812873 0.008,1.19858 0.26692,0.164961 0.36168,0.499959 0.21057,0.74444 -0.4641,0.750928 0.10338,0.49234 0.79757,-0.363408 z m 3.27432,-1.249663 c 0.003,-0.4751 -0.1807,-0.747615 -0.4105,-0.605592 -0.2298,0.142025 -0.41783,0.822281 -0.41783,1.51168 0,0.883314 0.12122,1.062143 0.41051,0.605592 0.22578,-0.356325 0.41381,-1.036581 0.41782,-1.51168 z m -14.79538,-3.954414 c 0,-0.913422 -1.348789,-1.425335 -2.010913,-0.763213 -0.36725,0.367255 -0.200079,0.432051 0.585016,0.226744 0.944247,-0.246926 1.061197,-0.142089 0.829577,0.743635 -0.1483,0.567096 -0.0748,0.910668 0.16334,0.763492 0.23814,-0.147176 0.43298,-0.583973 0.43298,-0.970658 z M 80.669715,25.881941 c 0,-0.89412 -0.161158,-1.526073 -0.358129,-1.404338 -0.620969,0.383779 -0.34295,3.030013 0.318339,3.030013 0.02188,0 0.03979,-0.731554 0.03979,-1.625675 z m 1.988419,0.399812 c 0.397981,-1.037125 -0.612374,-2.012457 -1.335562,-1.289267 -0.611228,0.611225 -0.232569,2.037623 0.540909,2.037623 0.279112,0 0.636707,-0.33676 0.794653,-0.748356 z m 27.975106,-1.000406 c -0.32829,-0.132466 -0.86548,-0.132466 -1.19377,0 -0.32828,0.132467 -0.0597,0.240848 0.59689,0.240848 0.65657,0 0.92516,-0.108385 0.59688,-0.240848 z M 75.297769,24.289033 c -1.641427,-0.09324 -4.327401,-0.09324 -5.968829,0 -1.641429,0.09324 -0.298442,0.169533 2.984414,0.169533 3.282857,0 4.625843,-0.07629 2.984415,-0.169533 z m 2.267797,-4.182334 c 0.445575,-0.536885 0.465017,-1.044196 0.07776,-2.029402 -0.283975,-0.722466 -0.578721,-1.911169 -0.654994,-2.641562 -0.201612,-1.930669 -1.051621,-1.631703 -1.349182,0.474536 -0.140521,0.994656 -0.422988,2.078984 -0.627705,2.40962 -1.07236,1.731958 1.250803,3.357199 2.554112,1.786808 z m 38.200864,-2.626717 c 0,-0.262628 -0.21487,-0.477506 -0.47751,-0.477506 -0.26262,0 -0.47751,0.214878 -0.47751,0.477506 0,0.262629 0.21489,0.477507 0.47751,0.477507 0.26264,0 0.47751,-0.214878 0.47751,-0.477507 z M 75.030044,14.256814 c -0.120107,-0.459599 -0.218375,-0.08357 -0.218375,0.835636 0,0.9192 0.09827,1.295236 0.218375,0.835637 0.120106,-0.4596 0.120106,-1.211673 0,-1.671273 z m 2.865038,0 c -0.120106,-0.459599 -0.218375,-0.08357 -0.218375,0.835636 0,0.9192 0.09827,1.295236 0.218375,0.835637 0.120105,-0.4596 0.120105,-1.211673 0,-1.671273 z m 42.811188,0.57629 c -0.15552,-0.40527 -0.38517,-0.634445 -0.51034,-0.509276 -0.12517,0.125168 -0.086,0.456752 0.0872,0.736854 0.47083,0.761842 0.74604,0.613838 0.42316,-0.227578 z M 34.351599,14.137437 c -0.162314,-0.262628 -0.497311,-0.477506 -0.744441,-0.477506 -0.247128,0 -0.449325,0.214878 -0.449325,0.477506 0,0.262629 0.334999,0.477507 0.744441,0.477507 0.409442,0 0.611638,-0.214878 0.449325,-0.477507 z m 85.234871,0 c 0,-0.262628 -0.0947,-0.477506 -0.21057,-0.477506 -0.11581,0 -0.34336,0.214878 -0.50568,0.477506 -0.16231,0.262629 -0.0676,0.477507 0.21057,0.477507 0.27813,0 0.50568,-0.214878 0.50568,-0.477507 z M 36.977884,13.949772 c 0,-0.103215 -0.333477,-0.315633 -0.74106,-0.472037 -0.424945,-0.163067 -0.616615,-0.08301 -0.449326,0.187666 0.28042,0.453728 1.190386,0.67111 1.190386,0.284371 z m 80.221066,-0.274854 c 0,-0.254386 -0.32232,-0.338836 -0.71626,-0.187665 -0.39395,0.15117 -0.71626,0.359304 -0.71626,0.462519 0,0.103216 0.32231,0.187665 0.71626,0.187665 0.39394,0 0.71626,-0.208134 0.71626,-0.462519 z M 39.365415,13.182424 c -0.393942,-0.254585 -0.931137,-0.462882 -1.193765,-0.462882 -0.262629,0 -0.155189,0.208297 0.238754,0.462882 0.393941,0.254586 0.931137,0.462884 1.193765,0.462884 0.262629,0 0.155189,-0.208298 -0.238754,-0.462884 z m 74.968505,0 c 0.39394,-0.254585 0.50138,-0.462882 0.23875,-0.462882 -0.26264,0 -0.79983,0.208297 -1.19377,0.462882 -0.39395,0.254586 -0.50138,0.462884 -0.23876,0.462884 0.26264,0 0.79983,-0.208298 1.19378,-0.462884 z M 42.469207,12.704918 c -1.312705,-0.564088 -2.066631,-0.564088 -1.193766,0 0.393943,0.254586 1.038577,0.45107 1.43252,0.436633 0.472279,-0.01731 0.390953,-0.166039 -0.238754,-0.436633 z m 68.999663,0 c 0.87287,-0.564088 0.11894,-0.564088 -1.19376,0 -0.62971,0.270594 -0.71103,0.419325 -0.23875,0.436633 0.39394,0.01443 1.03857,-0.182047 1.43251,-0.436633 z M 37.326066,12.416425 c -0.158671,-0.158672 -0.570521,-0.175636 -0.915221,-0.0377 -0.380922,0.152433 -0.267774,0.265581 0.288494,0.288494 0.503371,0.02073 0.785398,-0.09212 0.626727,-0.250796 z m 9.639659,0.116914 c -0.109425,-0.09437 -0.843595,-0.315774 -1.631479,-0.492011 -1.046177,-0.234013 -1.239348,-0.189712 -0.716261,0.164267 0.644811,0.436349 2.826911,0.74097 2.34774,0.327744 z m 61.160605,-0.327744 c 0.52309,-0.353979 0.32992,-0.39828 -0.71625,-0.164267 -1.75576,0.392735 -2.1369,0.666039 -0.91523,0.656279 0.50337,-0.0041 1.23754,-0.225427 1.63148,-0.492012 z M 40.191104,11.938918 c -0.158672,-0.15867 -0.570521,-0.175635 -0.915221,-0.03769 -0.380922,0.152433 -0.267774,0.265581 0.288494,0.288493 0.503371,0.02073 0.785399,-0.09212 0.626727,-0.250796 z m 9.679451,-0.189012 c -0.393942,-0.254585 -1.038575,-0.45107 -1.432518,-0.436633 -0.472281,0.01731 -0.390954,0.166039 0.238753,0.436633 1.312706,0.564088 2.066631,0.564088 1.193765,0 z m 54.435725,0 c 0.87287,-0.564089 0.11894,-0.564089 -1.19376,0 -0.62971,0.270594 -0.71104,0.419324 -0.23876,0.436632 0.39395,0.01443 1.03857,-0.182047 1.43252,-0.436632 z m 9.42081,0.189012 c -0.15869,-0.15867 -0.57053,-0.175635 -0.91523,-0.03769 -0.38092,0.152433 -0.26777,0.265581 0.2885,0.288493 0.50336,0.02073 0.78539,-0.09212 0.62673,-0.250796 z M 43.533649,11.461412 c -0.158672,-0.158671 -0.570521,-0.175635 -0.915221,-0.03769 -0.380922,0.152433 -0.267774,0.265581 0.288494,0.288493 0.50337,0.02073 0.785398,-0.09212 0.626727,-0.250796 z m 66.850881,0 c -0.15867,-0.158671 -0.57051,-0.175635 -0.91521,-0.03769 -0.38092,0.152433 -0.26778,0.265581 0.2885,0.288493 0.50336,0.02073 0.78539,-0.09212 0.62671,-0.250796 z M 46.876193,10.983906 c -0.158671,-0.158671 -0.570521,-0.175636 -0.91522,-0.03769 -0.380923,0.152432 -0.267775,0.265581 0.288493,0.288493 0.503371,0.02073 0.785398,-0.09212 0.626727,-0.250796 z m 6.207583,0 c -0.158672,-0.158671 -0.570521,-0.175636 -0.91522,-0.03769 -0.380923,0.152432 -0.267775,0.265581 0.288493,0.288493 0.503371,0.02073 0.785397,-0.09212 0.626727,-0.250796 z m 9.162153,0.116189 c -0.109424,-0.09477 -1.165912,-0.300157 -2.347739,-0.456423 -1.434806,-0.189715 -1.831459,-0.143615 -1.193767,0.138743 0.911972,0.403803 3.956282,0.676885 3.541506,0.31768 z m 31.793965,-0.305202 0.955013,-0.410382 -0.955013,0.02293 c -0.525257,0.01262 -1.599646,0.186965 -2.387532,0.387448 l -1.43252,0.364514 1.43252,0.02293 c 0.787886,0.01262 1.862275,-0.161737 2.387532,-0.387448 z m 7.878846,0 c 0.95966,-0.307337 1.00649,-0.385063 0.23876,-0.396346 -0.52525,-0.0077 -1.38477,0.170636 -1.91003,0.396346 -1.216779,0.522875 0.0385,0.522875 1.67127,0 z m 5.12325,0.189013 c -0.15867,-0.158671 -0.57052,-0.175636 -0.91522,-0.03769 -0.38091,0.152433 -0.26778,0.265581 0.28849,0.288494 0.50338,0.02073 0.78541,-0.09212 0.62673,-0.250796 z M 51.17375,10.5064 c -0.158671,-0.158671 -0.570521,-0.175636 -0.91522,-0.03769 -0.380923,0.152433 -0.267775,0.265581 0.288493,0.288493 0.503371,0.02073 0.785399,-0.09212 0.626727,-0.250794 z m 34.822315,-0.07695 c 0.303207,-0.192949 -4.027552,-0.350818 -9.623907,-0.350818 -5.596354,0 -9.927112,0.157869 -9.623905,0.350818 0.719382,0.45779 18.52843,0.45779 19.247812,0 z M 56.684109,10.004172 C 56.360822,9.8733728 55.716188,9.8654113 55.25159,9.9864754 c -0.464598,0.1210686 -0.20009,0.2280856 0.587795,0.2378186 0.787885,0.0098 1.168011,-0.08933 0.844724,-0.220126 z m 41.056458,-0.0031 c -0.328286,-0.132466 -0.86548,-0.132466 -1.193764,0 -0.328286,0.132467 -0.05969,0.240848 0.596882,0.240848 0.656566,0 0.925168,-0.108385 0.596882,-0.240848 z"
       id="path465" />
  </g>
</svg>
