<?xml version="1.0" encoding="UTF-8" standalone="no"?>
<svg
   xmlns:dc="http://purl.org/dc/elements/1.1/"
   xmlns:cc="http://creativecommons.org/ns#"
   xmlns:rdf="http://www.w3.org/1999/02/22-rdf-syntax-ns#"
   xmlns:svg="http://www.w3.org/2000/svg"
   xmlns="http://www.w3.org/2000/svg"
   xmlns:sodipodi="http://sodipodi.sourceforge.net/DTD/sodipodi-0.dtd"
   xmlns:inkscape="http://www.inkscape.org/namespaces/inkscape"
   width="500"
   height="500"
   viewBox="0 0 132.29166 132.29167"
   version="1.1"
   id="svg8"
   inkscape:version="1.0.2 (e86c870879, 2021-01-15, custom)"
   sodipodi:docname="201016.svg">
  <defs
     id="defs2" />
  <sodipodi:namedview
     id="base"
     pagecolor="#ffffff"
     bordercolor="#666666"
     borderopacity="1.0"
     inkscape:pageopacity="0.0"
     inkscape:pageshadow="2"
     inkscape:zoom="0.49497475"
     inkscape:cx="306.78581"
     inkscape:cy="212.22685"
     inkscape:document-units="mm"
     inkscape:current-layer="layer1"
     inkscape:document-rotation="0"
     showgrid="false"
     inkscape:window-width="1368"
     inkscape:window-height="850"
     inkscape:window-x="-6"
     inkscape:window-y="-6"
     inkscape:window-maximized="1"
     units="px" />
  <metadata
     id="metadata5">
    <rdf:RDF>
      <cc:Work
         rdf:about="">
        <dc:format>image/svg+xml</dc:format>
        <dc:type
           rdf:resource="http://purl.org/dc/dcmitype/StillImage" />
        <dc:title />
      </cc:Work>
    </rdf:RDF>
  </metadata>
  <g
     inkscape:label="Ebene 1"
     inkscape:groupmode="layer"
     id="layer1"
     transform="translate(-10.339915,-26.030838)">
    <path
       id="path23"
       style="fill:#000000;stroke:none;stroke-width:0.264583"
       d="m 96.613281,36.808594 c -4.287154,0.155819 -8.575445,0.245354 -12.865557,0.239369 -8.154043,0.04881 -16.309079,0.356726 -24.462907,0.169546 -4.214482,-0.0982 -8.45787,-0.399828 -12.655911,0.104757 -4.236961,0.652403 -7.804701,3.33296 -10.732395,6.32047 -2.773808,2.85091 -5.346352,5.896198 -8.265562,8.605804 -3.636073,3.568993 -7.514309,7.17517 -9.60656,11.918082 -1.961922,4.506347 -1.428326,9.524494 -1.461889,14.304862 -0.02302,7.728031 0.04676,15.457143 -0.03619,23.184486 -0.172005,6.06723 -0.95757,12.27945 0.620173,18.2327 1.103852,4.25312 4.062449,7.67568 7.051551,10.75943 3.90017,3.9398 8.248951,7.41322 12.006833,11.49823 2.476382,2.60648 5.335024,5.10689 8.91657,5.97565 5.526361,1.46101 11.297276,0.75845 16.930392,0.59403 8.449314,-0.14075 16.894231,0.33525 25.342664,0.39422 5.852464,0.0363 11.724256,-0.0177 17.545816,-0.66123 4.51344,-0.59443 8.60235,-2.97414 11.87646,-6.06113 3.20237,-2.93303 5.90382,-6.35799 9.07722,-9.32205 3.6631,-3.60948 7.57483,-7.3081 9.48473,-12.20111 1.78984,-4.7712 1.21373,-9.95238 1.30487,-14.93698 0.0258,-7.044906 -0.0531,-14.09108 0.0421,-21.135178 0.17932,-6.194045 0.9099,-12.538789 -0.72047,-18.609269 -0.74108,-2.931133 -2.3762,-5.533104 -4.32368,-7.811103 -4.27422,-5.09243 -9.61393,-9.138097 -14.10679,-14.024712 -2.55337,-2.674549 -5.41776,-5.314688 -9.0734,-6.31753 -3.83511,-1.186718 -7.90569,-1.286229 -11.888099,-1.221344 z m 2.490235,1.818359 c 3.837254,0.0718 7.839104,0.355777 11.310934,2.138364 2.92863,1.697076 4.94779,4.506635 7.51867,6.64952 5.11814,4.681117 10.61272,9.15403 14.43783,15.023001 1.87086,3.08213 2.51491,6.624803 2.7262,10.162457 0.30473,5.67764 -0.40416,11.347419 -0.26707,17.027049 -0.01,7.847052 0.0128,15.694686 0.003,23.541296 -0.0436,3.36453 -0.67532,6.81116 -2.51671,9.68264 -2.20422,3.653 -5.4498,6.63849 -8.47981,9.63194 -4.26069,4.03881 -7.71251,9.06735 -12.90111,12.02459 -2.79397,1.62531 -6.02981,2.29384 -9.23549,2.36851 -12.832795,0.77301 -25.7513,-0.11059 -38.618345,-0.0413 -5.662472,0.10413 -11.431137,0.9566 -17.016241,-0.36469 -3.434728,-0.7515 -6.187386,-3.11661 -8.558101,-5.5877 -3.573104,-3.85616 -7.647783,-7.1876 -11.384258,-10.87651 -3.024642,-3.07404 -6.088894,-6.45728 -7.198104,-10.73932 -1.49895,-5.77286 -0.698555,-11.76798 -0.543681,-17.66666 0.07511,-8.067294 0.01282,-16.136191 0.0316,-24.20408 0.002,-4.206151 -0.544178,-8.667563 1.339666,-12.589211 2.353411,-4.905744 6.584683,-8.481676 10.339788,-12.268661 4.043133,-3.937397 7.265484,-8.856311 12.22971,-11.747908 2.228773,-1.328924 4.831077,-1.880232 7.408905,-1.844 13.554015,-0.52313 27.117745,-0.0038 40.675462,-0.09953 2.898968,-0.07123 5.796381,-0.237439 8.697052,-0.219834 z m 5.117184,6.277344 c -3.69521,0.128612 -7.288639,2.701181 -8.191532,6.357439 -0.604649,2.165526 -0.30235,4.658422 1.223954,6.385633 1.309842,1.668829 3.324298,3.089694 3.531908,5.362035 0.11833,1.496464 -0.10591,2.935611 -0.0995,4.439815 2.56705,0 5.13411,0 7.70117,0 0.046,-1.993865 -0.45464,-3.974704 0.15884,-5.871897 0.69041,-1.568911 2.45441,-2.301659 3.23649,-3.823909 2.46009,-3.802125 1.0639,-9.434371 -2.83292,-11.704094 -1.41397,-0.849278 -3.08723,-1.216175 -4.72843,-1.145022 z m 0.0547,1.785156 c 2.71063,-0.162771 5.42819,1.468853 6.43664,4.011391 1.25174,2.847088 0.2232,6.461819 -2.34184,8.223888 -1.07455,0.784158 -1.84919,1.983273 -1.90504,3.33469 -0.11686,1.109675 -0.001,2.225675 0.0427,3.336281 -1.3138,0 -2.6276,0 -3.9414,0 0.0876,-1.8784 0.37061,-4.02057 -0.93079,-5.582183 -1.2819,-1.887946 -3.633699,-3.149871 -4.002808,-5.570161 -0.467069,-2.708186 0.912299,-5.627842 3.387908,-6.873359 0.99975,-0.538194 2.12161,-0.831923 3.25467,-0.880547 z m -55.636718,3.332031 c -2.348876,0.06918 -4.707906,1.645836 -5.200498,4.029452 -0.778152,3.080749 1.272762,6.75504 4.530211,7.21133 2.556484,0.404793 5.489093,-1.0236 6.195458,-3.634503 0.964349,-3.116647 -1.032187,-6.991994 -4.363062,-7.535966 -0.386569,-0.06181 -0.771051,-0.08251 -1.162109,-0.07031 z M 29.261719,70.09375 c 0,1.058594 0,2.117188 0,3.175781 7.094611,0.01867 14.19059,-0.03732 21.284353,0.02793 1.664486,0.04179 3.618783,0.403945 5.012522,-0.746679 0.853944,-0.734655 0.973138,-1.93197 0.984375,-2.986328 -9.09375,0 -18.1875,0 -27.28125,0 0,0.176432 0,0.352865 0,0.529297 z m 33.603515,0.0293 c -0.05116,1.348973 0.765389,2.756913 2.144532,3.054687 2.019594,0.46866 4.097754,-0.04076 6.14414,0.0918 6.321094,0 12.642188,0 18.963282,0 -10e-7,-1.235026 0,-2.470052 0,-3.705078 -9.093751,0 -18.1875,0 -27.28125,0 0.0098,0.186198 0.01953,0.372396 0.0293,0.558594 z m 33.865235,-0.0293 c 0,1.058594 0,2.117188 0,3.175781 7.094611,0.01867 14.190591,-0.03732 21.284351,0.02793 1.66449,0.04179 3.61879,0.403945 5.01252,-0.746679 0.85448,-0.734598 0.97289,-1.931784 0.98438,-2.986328 -9.09375,0 -18.1875,0 -27.281251,0 0,0.176432 0,0.352865 0,0.529297 z m -44.978516,6.523438 c -3.838231,0.194136 -7.685113,0.04499 -11.526953,0.0918 -3.654427,0 -7.308854,0 -10.963281,0 0,1.234375 0,2.46875 0,3.703125 9.09375,0 18.1875,0 27.28125,0 0.04403,-1.298029 -0.313809,-2.844944 -1.626991,-3.409994 -0.985682,-0.44986 -2.104292,-0.425679 -3.164025,-0.384927 z m 14.269531,0.0078 c -1.338538,0.02394 -2.750947,0.818233 -3.02539,2.212891 -0.13354,0.514039 -0.127274,1.047997 -0.160156,1.574218 9.09375,0 18.1875,0 27.28125,0 0,-1.234375 0,-2.46875 0,-3.703125 -7.094612,-0.01867 -14.190591,0.03732 -21.284354,-0.02793 -0.93619,-0.04275 -1.874281,-0.130525 -2.81135,-0.05606 z m 53.199216,-0.0078 c -3.83823,0.194136 -7.68511,0.04499 -11.52695,0.0918 -3.65443,0 -7.30885,0 -10.963281,0 0,1.234375 0,2.46875 0,3.703125 9.093751,0 18.187501,0 27.281251,0 0.044,-1.298029 -0.31381,-2.844944 -1.62699,-3.409994 -0.98568,-0.44986 -2.10429,-0.425679 -3.16403,-0.384927 z m -66.87695,7.373046 c -3.623169,0.235027 -7.304912,0.08488 -10.966797,0.126954 -4.038411,-10e-7 -8.076823,0 -12.115234,0 0,1.234374 0,2.468749 0,3.703124 7.071948,0.018 14.188062,-0.03615 21.232422,0.02734 1.674119,0.0627 3.508257,0.367822 5.052734,-0.453125 1.129286,-0.601103 1.041109,-2.424903 -0.132387,-2.925428 C 54.477769,83.987828 53.3719,83.989458 52.34375,83.990234 Z m 67.46875,0 c -3.62317,0.235027 -7.30491,0.08488 -10.9668,0.126954 -4.03841,-10e-7 -8.07682,0 -12.115231,0 0,1.234374 0,2.468749 0,3.703124 7.071951,0.018 14.188061,-0.03615 21.232421,0.02734 1.67413,0.06271 3.50825,0.367817 5.05273,-0.453125 1.12929,-0.601103 1.04111,-2.424903 -0.13238,-2.925428 -0.93672,-0.481243 -2.04259,-0.479699 -3.07074,-0.478869 z m -56.947266,0.685547 c -0.05185,1.349443 0.765959,2.756082 2.144532,3.054688 2.019682,0.469888 4.097729,-0.04256 6.14414,0.08984 6.321094,0 12.642188,10e-7 18.963282,0 0,-1.234374 0,-2.46875 0,-3.703124 -9.093751,0 -18.1875,0 -27.28125,0 0.0098,0.186197 0.01953,0.372395 0.0293,0.558593 z m -33.603515,7.378907 c 0,0.970052 0,1.940104 0,2.910156 9.083984,0 18.167968,0 27.251953,0 0,-1.146485 0,-2.292969 0,-3.439453 -9.083984,0 -18.167969,0 -27.251953,0 0,0.176432 0,0.352864 0,0.529297 z m 33.603515,0 c 0,0.970052 0,1.940104 0,2.910156 9.083985,0 18.167969,0 27.251954,0 0,-1.146485 -10e-7,-2.292969 0,-3.439453 -9.083985,0 -18.167969,0 -27.251954,0 0,0.176432 0,0.352864 0,0.529297 z m 33.865235,0 c 0,0.970052 0,1.940104 0,2.910156 9.083981,0 18.167971,0 27.251951,0 0,-1.146485 0,-2.292969 0,-3.439453 -9.08398,0 -18.16797,0 -27.251951,0 0,0.176432 0,0.352864 0,0.529297 z M 52.34375,98.542969 c -3.792783,0.236249 -7.640199,0.08037 -11.466797,0.125 -3.871745,0 -7.743489,0 -11.615234,0 0,1.235026 0,2.470051 0,3.705081 7.068743,0.0167 14.20206,-0.0336 21.230469,0.0254 1.673237,0.0667 3.507487,0.36843 5.050781,-0.45117 1.136306,-0.59705 1.044418,-2.430158 -0.132833,-2.928526 -0.935851,-0.479937 -2.039805,-0.476558 -3.066386,-0.475775 z m 67.46875,0 c -3.79278,0.236249 -7.6402,0.08037 -11.4668,0.125 -3.87174,0 -7.74349,0 -11.615231,0 0,1.235026 0,2.470051 0,3.705081 7.068741,0.0167 14.202061,-0.0336 21.230471,0.0254 1.67324,0.0667 3.50748,0.36842 5.05078,-0.45117 1.1363,-0.59705 1.04442,-2.430158 -0.13283,-2.928526 -0.93586,-0.479906 -2.03981,-0.476611 -3.06639,-0.475775 z m -56.947266,0.683593 c -0.05026,1.348058 0.763278,2.756498 2.142578,3.054688 1.986612,0.46853 4.032431,-0.0357 6.046094,0.0918 6.354427,0 12.708854,0 19.063282,0 -10e-7,-1.23503 0,-2.470055 0,-3.705081 -9.093751,0 -18.1875,0 -27.28125,0 0.0098,0.186198 0.01953,0.372396 0.0293,0.558593 z m -33.603515,7.380858 c 0,0.97005 0,1.94011 0,2.91016 9.083984,0 18.167968,0 27.251953,0 0,-1.14649 0,-2.29297 0,-3.43946 -9.083984,0 -18.167969,1e-5 -27.251953,0 0,0.17644 0,0.35287 0,0.5293 z m 33.603515,0 c 0,0.97005 0,1.94011 0,2.91016 9.083985,0 18.167969,0 27.251954,0 0,-1.14649 0,-2.29297 0,-3.43946 -9.083985,0 -18.167969,1e-5 -27.251954,0 0,0.17644 0,0.35287 0,0.5293 z m 33.865235,0 c 0,0.97005 0,1.94011 0,2.91016 9.083981,0 18.167971,0 27.251951,0 0,-1.14649 0,-2.29297 0,-3.43946 -9.08398,1e-5 -18.16797,1e-5 -27.251951,0 0,0.17644 0,0.35287 0,0.5293 z m -45.507813,12.96289 c 0,4.23373 0,8.46745 0,12.70117 17.021485,0 34.042969,0 51.064454,0 0,-4.41015 0,-8.82031 0,-13.23046 -17.021485,0 -34.042969,0 -51.064454,0 0,0.17643 0,0.35286 0,0.52929 z m 16.138672,1.0586 c 0,3.35156 0,6.70312 0,10.05468 -4.85026,0 -9.700521,0 -14.550781,0 0,-3.35156 0,-6.70312 0,-10.05468 4.85026,0 9.700521,0 14.550781,0 z m 16.669922,0 c 0,3.35156 0,6.70312 0,10.05468 -4.850911,0 -9.701823,0 -14.552734,0 0,-3.35156 0,-6.70312 0,-10.05468 4.850911,0 9.701823,0 14.552734,0 z m 16.66797,0 c 0,3.35156 0,6.70312 0,10.05468 -4.850262,0 -9.700522,0 -14.550782,0 -10e-7,-3.35156 0,-6.70312 0,-10.05468 4.85026,0 9.70052,0 14.550782,0 z" />
  </g>
</svg>
