<?xml version="1.0" encoding="UTF-8" standalone="no"?>
<svg
   xmlns:dc="http://purl.org/dc/elements/1.1/"
   xmlns:cc="http://creativecommons.org/ns#"
   xmlns:rdf="http://www.w3.org/1999/02/22-rdf-syntax-ns#"
   xmlns:svg="http://www.w3.org/2000/svg"
   xmlns="http://www.w3.org/2000/svg"
   xmlns:sodipodi="http://sodipodi.sourceforge.net/DTD/sodipodi-0.dtd"
   xmlns:inkscape="http://www.inkscape.org/namespaces/inkscape"
   version="1.0"
   width="231.000000pt"
   height="450.000000pt"
   viewBox="0 0 231.000000 450.000000"
   preserveAspectRatio="xMidYMid meet"
   id="svg182"
   sodipodi:docname="SVG-afbeelding.svg"
   inkscape:version="1.0.1 (3bc2e813f5, 2020-09-07)">
  <defs
     id="defs186" />
  <sodipodi:namedview
     pagecolor="#ffffff"
     bordercolor="#666666"
     borderopacity="1"
     objecttolerance="10"
     gridtolerance="10"
     guidetolerance="10"
     inkscape:pageopacity="0"
     inkscape:pageshadow="2"
     inkscape:window-width="1440"
     inkscape:window-height="837"
     id="namedview184"
     showgrid="false"
     inkscape:zoom="1.0466667"
     inkscape:cx="154"
     inkscape:cy="300"
     inkscape:window-x="-8"
     inkscape:window-y="-8"
     inkscape:window-maximized="1"
     inkscape:current-layer="svg182" />
  <metadata
     id="metadata160">
Created by potrace 1.10, written by Peter Selinger 2001-2011
<rdf:RDF>
  <cc:Work
     rdf:about="">
    <dc:format>image/svg+xml</dc:format>
    <dc:type
       rdf:resource="http://purl.org/dc/dcmitype/StillImage" />
  </cc:Work>
</rdf:RDF>
</metadata>
  <g
     transform="matrix(0,-0.1,-0.1,0,387.54961,386.80918)"
     fill="#000000"
     stroke="none"
     id="g180">
    <path
       d="m 1308,4470 -206,-5 -39,-31 c -76,-61 -78,-72 -77,-314 0,-182 -2,-217 -15,-226 -12,-9 -13,-15 -4,-25 8,-10 13,-171 19,-522 7,-491 6,-508 -12,-522 -25,-18 -12,-30 14,-14 20,13 21,19 17,763 -4,794 -5,769 42,822 10,12 37,31 60,43 41,21 51,21 535,21 h 493 l 38,-25 c 69,-48 77,-76 82,-322 2,-120 7,-954 10,-1853 C 2271,430 2275,536 2201,396 2113,229 2035,151 1890,83 1811,46 1656,32 1530,50 c -141,20 -322,148 -396,280 -38,67 -78,176 -71,194 3,8 2,17 -3,22 -4,5 -11,230 -14,501 -3,270 -8,497 -10,505 -5,14 -11,248 -22,881 -5,238 -11,377 -17,377 -10,0 -7,-362 8,-1040 3,-129 10,-455 16,-725 7,-365 14,-506 25,-554 49,-215 253,-413 465,-451 205,-37 432,21 559,142 89,86 157,202 191,325 l 22,78 -7,1800 c -3,990 -8,1834 -9,1875 -4,85 -13,112 -53,159 -50,59 -62,61 -396,59 -167,-1 -396,-4 -510,-8 z"
       id="path162" />
    <path
       d="m 1676,4193 c -46,-12 -164,-72 -177,-90 -12,-17 -13,-106 -9,-539 l 5,-518 33,-23 c 51,-34 141,-64 181,-61 35,3 35,4 -17,16 -29,6 -82,26 -117,42 l -65,30 2,528 3,527 45,22 c 82,40 147,58 164,44 13,-11 15,-88 16,-569 0,-306 3,-558 5,-561 10,-10 5,1121 -5,1140 -11,19 -26,22 -64,12 z"
       id="path168" />
    <path
       d="m 1985,4185 c 33,-16 82,-21 55,-6 -8,5 -31,11 -50,15 l -35,6 z"
       id="path170" />
    <path
       d="m 2070,4150 c 0,-5 5,-10 10,-10 6,0 28,-11 50,-25 43,-27 50,-29 50,-16 0,10 -86,61 -101,61 -5,0 -9,-4 -9,-10 z"
       id="path172" />
    <path
       d="m 1597,3982 c -35,-39 -7,-84 38,-64 29,14 32,42 7,65 -23,21 -25,21 -45,-1 z"
       id="path176" />
  </g>
</svg>
