<?xml version="1.0" encoding="UTF-8" standalone="no"?>
<svg
   xmlns:dc="http://purl.org/dc/elements/1.1/"
   xmlns:cc="http://creativecommons.org/ns#"
   xmlns:rdf="http://www.w3.org/1999/02/22-rdf-syntax-ns#"
   xmlns:svg="http://www.w3.org/2000/svg"
   xmlns="http://www.w3.org/2000/svg"
   xmlns:sodipodi="http://sodipodi.sourceforge.net/DTD/sodipodi-0.dtd"
   xmlns:inkscape="http://www.inkscape.org/namespaces/inkscape"
   width="500"
   height="500"
   viewBox="0 0 132.29167 132.29167"
   version="1.1"
   id="svg8"
   inkscape:version="1.0.2 (e86c870879, 2021-01-15, custom)"
   sodipodi:docname="learnmode.svg">
  <defs
     id="defs2" />
  <sodipodi:namedview
     id="base"
     pagecolor="#ffffff"
     bordercolor="#666666"
     borderopacity="1.0"
     inkscape:pageopacity="0.0"
     inkscape:pageshadow="2"
     inkscape:zoom="0.98994949"
     inkscape:cx="62.200962"
     inkscape:cy="292.28525"
     inkscape:document-units="mm"
     inkscape:current-layer="layer1"
     inkscape:document-rotation="0"
     showgrid="false"
     units="px"
     inkscape:window-width="1920"
     inkscape:window-height="1018"
     inkscape:window-x="2729"
     inkscape:window-y="-6"
     inkscape:window-maximized="1" />
  <metadata
     id="metadata5">
    <rdf:RDF>
      <cc:Work
         rdf:about="">
        <dc:format>image/svg+xml</dc:format>
        <dc:type
           rdf:resource="http://purl.org/dc/dcmitype/StillImage" />
        <dc:title></dc:title>
      </cc:Work>
    </rdf:RDF>
  </metadata>
  <g
     inkscape:label="Ebene 1"
     inkscape:groupmode="layer"
     id="layer1">
    <path
       style="fill:#000000;stroke-width:0.303574"
       d="m 64.106196,122.56269 c -0.31242,-0.37643 -0.320438,-0.6048 -0.03718,-1.05839 0.198662,-0.3181 0.361205,-0.84538 0.361205,-1.17172 0,-0.32634 -0.136608,-0.67778 -0.303574,-0.78097 -0.166966,-0.10325 -0.303574,-0.45278 -0.303574,-0.77686 0,-0.32407 0.136608,-0.58923 0.303574,-0.58923 0.166966,0 0.303574,-0.26003 0.303574,-0.57784 0,-0.52013 -0.287955,-0.58835 -2.882649,-0.68304 l -2.882649,-0.10515 -9.641537,-9.63847 -9.641536,-9.63848 h -7.074265 c -4.638871,0 -7.009673,-0.104505 -6.886644,-0.303574 0.115747,-0.18728 2.709139,-0.303574 6.769792,-0.303574 h 6.582177 l -6.52155,-6.526843 -6.52155,-6.526844 h -2.792791 c -1.536038,0 -2.877222,-0.136608 -2.980413,-0.303574 -0.119638,-0.193581 0.778443,-0.303574 2.478656,-0.303574 h 2.666274 l -7.641896,-7.6653 C 11.835773,69.96821 9.6596668,67.583261 9.2191501,66.577927 8.8899256,65.826581 8.5262572,64.699562 8.4109979,64.073441 L 8.2014364,62.935038 H 6.2619892 c -1.090582,0 -1.939447,-0.132869 -1.939447,-0.303574 0,-0.170625 0.8471939,-0.303575 1.9344329,-0.303575 h 1.9344324 l 0.2035579,-1.29019 c 0.1119569,-0.709604 0.4995128,-1.904928 0.8612366,-2.656273 0.3617239,-0.751346 1.809751,-2.561407 3.217839,-4.022357 l 2.560158,-2.656274 h -2.927235 c -1.749108,0 -2.9272352,-0.12218 -2.9272352,-0.303575 0,-0.183537 1.2890492,-0.303574 3.2600022,-0.303574 h 3.260002 L 33.620003,33.184773 C 44.800706,22.009931 51.75838,15.2739 52.120217,15.2739 c 0.337128,0 2.368279,-1.758592 4.851214,-4.200232 3.500946,-3.4427206 4.541081,-4.2913391 5.767324,-4.705399 0.822832,-0.2778416 2.198729,-0.5051665 3.057557,-0.5051665 0.858826,0 2.234724,0.2282796 3.057556,0.5072875 1.19634,0.4056595 2.230669,1.2266896 5.162953,4.098251 l 3.666896,3.590963 H 90.94108 c 8.63586,0 13.25736,0.105826 13.25736,0.303574 0,0.197628 -4.508987,0.303574 -12.919815,0.303574 -8.535908,0 -12.856155,0.103004 -12.732199,0.303574 0.103195,0.166965 0.479824,0.303574 0.83696,0.303574 0.440125,0 2.76023,2.102942 7.200844,6.526844 l 6.5515,6.526843 8.33942,0.07072 8.33942,0.07072 -8.18702,0.08615 -8.187016,0.08615 14.001136,14.03522 c 10.64171,10.667619 14.18154,14.399417 14.75302,15.553089 0.41354,0.834829 0.84873,2.098456 0.9671,2.808061 l 0.2152,1.29019 h 3.00906 c 1.80365,0 3.00906,0.121609 3.00906,0.303574 0,0.181917 -1.20305,0.303575 -3.00196,0.303575 h -3.00196 l -0.2052,1.138403 c -0.11287,0.62612 -0.49109,1.75314 -0.84051,2.504485 -0.45099,0.969771 -3.15002,3.89808 -9.30353,10.093841 l -8.66824,8.727755 h 4.46597 c 2.77494,0 4.46599,0.114949 4.46599,0.303574 0,0.18955 -1.79826,0.303575 -4.78762,0.303575 h -4.78763 l -2.71276,2.725391 -2.712766,2.725395 5.906616,0.08963 5.90663,0.08963 -6.07013,0.06893 -6.070126,0.06894 -12.52469,12.522425 -12.524687,12.52243 -2.883055,0.10515 c -2.595095,0.0947 -2.883056,0.16292 -2.883056,0.68304 0,0.31781 0.136607,0.57784 0.303573,0.57784 0.166967,0 0.303574,0.2775 0.303574,0.61668 0,0.33917 -0.204129,0.69501 -0.453619,0.79075 -0.249489,0.0957 -0.378034,0.29635 -0.285656,0.44582 0.09589,0.15517 8.094647,0.27176 18.64108,0.27176 h 18.473122 l 0.78592,-0.934 c 0.43226,-0.51372 0.78592,-1.06015 0.78592,-1.2143 0,-0.15416 -0.10928,-0.28028 -0.24286,-0.28028 -0.13357,0 -0.39137,0.14851 -0.57288,0.33002 -0.20855,0.20855 -0.39728,0.22122 -0.51273,0.0344 -0.1005,-0.16258 0.0142,-0.45899 0.25472,-0.65866 0.24059,-0.19967 0.68149,-0.31603 0.97979,-0.2586 0.29829,0.0575 0.59044,0.35413 0.64921,0.6593 0.0587,0.30517 -0.20254,0.88418 -0.58069,1.28671 l -0.68754,0.73186 h 0.66007 c 0.36304,0 0.66007,0.13661 0.66007,0.30357 0,0.19924 -6.729236,0.30358 -19.580541,0.30358 -10.769294,0 -19.580533,0.0702 -19.580533,0.1559 0,0.0857 0.162542,0.41618 0.361204,0.73428 0.283264,0.45359 0.275248,0.68196 -0.03717,1.0584 -0.248988,0.30001 -0.882763,0.48001 -1.690115,0.48001 -0.807352,0 -1.441127,-0.18 -1.690116,-0.48001 z m 2.904413,-0.12713 c 0.115743,-0.18728 -0.407586,-0.30357 -1.366084,-0.30357 -0.958499,0 -1.481828,0.11629 -1.366085,0.30357 0.103196,0.16697 0.71793,0.30358 1.366085,0.30358 0.648154,0 1.262892,-0.13661 1.366084,-0.30358 z m 0.225366,-3.233 c 0.126497,-0.0782 0.229994,-0.27069 0.229994,-0.42781 0,-0.15711 -0.751346,-0.28566 -1.669657,-0.28566 -0.918313,0 -1.669659,0.1093 -1.669659,0.24286 0,0.13358 0.170761,0.41492 0.379469,0.62521 0.246174,0.24805 0.751877,0.31301 1.439663,0.18495 0.583111,-0.10858 1.163697,-0.26138 1.29019,-0.33955 z m -6.145063,-3.10411 c 0,-0.39868 -0.293969,-0.628 -0.98127,-0.76546 -0.767828,-0.15356 -2.904685,-2.11561 -9.823727,-9.02006 -6.945743,-6.931081 -8.984064,-8.801789 -9.502646,-8.721224 -0.539912,0.08389 1.072076,1.830868 8.848256,9.589264 8.525091,8.50558 9.609324,9.48668 10.483915,9.48668 0.751413,0 0.975472,-0.13074 0.975472,-0.5692 z m 8.803651,0.11384 c 0,-0.38228 -0.657746,-0.45536 -4.098251,-0.45536 -3.440507,0 -4.098251,0.073 -4.098251,0.45536 0,0.38228 0.657744,0.45536 4.098251,0.45536 3.440505,0 4.098251,-0.0731 4.098251,-0.45536 z m 15.019264,-11.99013 c 11.19931,-11.191488 12.363702,-12.445605 11.55608,-12.44654 -0.777448,-9.1e-4 -2.492244,1.589697 -12.76272,11.83835 -8.44597,8.42802 -12.057778,11.83938 -12.535039,11.83938 -0.468053,0 -0.670437,0.18328 -0.670437,0.60716 0,0.48163 0.202384,0.60714 0.978959,0.60714 0.884452,0 2.181263,-1.20146 13.433157,-12.44549 z m -1.443719,-0.67865 c 6.224645,-6.216472 11.317536,-11.441068 11.317536,-11.610204 0,-0.169133 -5.157631,4.848774 -11.461403,11.150904 l -11.461403,11.45843 h -6.068041 -6.068044 l -8.56628,-8.56233 c -4.711452,-4.70927 -8.635728,-8.49287 -8.720614,-8.407984 -0.08488,0.08488 3.706283,4.006234 8.424815,8.714104 l 8.579148,8.55978 h 6.353374 6.353372 z m -22.379196,8.06318 c 0,-1.99119 0.118764,-2.7636 0.487583,-3.17114 0.464438,-0.51319 0.284503,-0.54315 -3.790716,-0.63105 l -4.278298,-0.0922 3.254282,3.26342 c 1.789858,1.79488 3.49568,3.26343 3.790719,3.26343 0.471616,0 0.53643,-0.31807 0.53643,-2.63238 z m 8.803651,-0.0891 c 0,-2.37995 -0.07369,-2.76091 -0.587191,-3.03573 -0.322955,-0.17285 -2.003238,-0.31426 -3.733963,-0.31426 -2.042723,0 -3.274582,0.12781 -3.51106,0.36429 -0.228142,0.22815 -0.364288,1.36271 -0.364288,3.03574 v 2.67146 h 4.098251 4.098251 z m 4.934297,-0.54193 3.254282,-3.26342 -4.252033,0.0919 -4.252033,0.0919 0.461318,0.65863 c 0.322507,0.46044 0.461317,1.41473 0.461317,3.17145 0,2.20002 0.06678,2.51283 0.536431,2.51283 0.295037,0 2.00086,-1.46854 3.790718,-3.26342 z M 85.430532,99.759921 c 4.301928,-4.290283 7.767504,-7.854696 7.701279,-7.92092 -0.06623,-0.06623 -2.384617,-0.02125 -5.151985,0.09995 l -5.031575,0.220368 v 1.5919 c 0,0.911308 -0.163805,1.72785 -0.383137,1.909879 -0.210723,0.174886 -1.13283,0.294069 -2.049126,0.26485 L 78.85,95.872828 v -1.821446 c 0,-1.76136 0.02753,-1.824613 0.83483,-1.9175 0.477825,-0.05499 0.834829,-0.282164 0.834829,-0.531256 0,-0.365791 -1.161946,-0.435198 -7.285781,-0.435198 h -7.285779 v 2.560217 2.560217 l 0.834828,0.09606 c 0.775745,0.08926 0.841235,0.206284 0.925328,1.653532 0.06261,1.077533 -0.04973,1.697708 -0.364584,2.012556 -0.30228,0.30228 -0.995222,0.44188 -2.06373,0.41576 l -1.608649,-0.0393 v -1.973234 c 0,-1.926946 0.01958,-1.975484 0.83483,-2.069289 l 0.834828,-0.09606 V 93.72765 91.167433 h -7.437567 c -4.755996,0 -7.437567,0.109452 -7.437567,0.303575 0,0.166965 0.416343,0.303574 0.925209,0.303574 h 0.925206 l -0.09038,1.897338 -0.09038,1.897339 -1.89734,0.07345 -1.897338,0.07345 v -1.970785 -1.970782 h 0.910723 c 0.708338,0 0.910722,-0.134921 0.910722,-0.607148 0,-0.599198 0.202384,-0.607149 15.456985,-0.607149 8.501341,0 15.502519,0.117158 15.558177,0.260349 0.05565,0.143193 2.907645,0.355834 6.33776,0.47254 l 6.236567,0.21219 1.732254,-1.816088 c 1.33781,-1.402551 1.732253,-2.028594 1.732253,-2.749343 v -0.933259 h -6.526845 c -6.324461,0 -6.526845,0.01882 -6.526845,0.607148 0,0.526194 -0.202383,0.607149 -1.517871,0.607149 h -1.51787 V 85.70311 84.185239 h 1.51787 c 1.315488,0 1.517871,0.08095 1.517871,0.607148 0,0.588321 0.202384,0.607148 6.526845,0.607148 h 6.526845 v -4.637851 c 0,-3.706293 -0.09492,-4.773371 -0.472574,-5.312546 -0.461439,-0.658793 -0.615029,-0.674696 -6.516165,-0.674696 -5.664424,0 -6.063305,0.03684 -6.357845,0.587191 -0.172839,0.322954 -0.314254,1.89395 -0.314254,3.491102 v 2.903911 h -1.821449 -1.821445 v -2.580379 -2.58038 h 1.06251 c 0.978182,0 1.06251,-0.07228 1.06251,-0.910723 v -0.910735 h -23.35352 c -20.825712,0 -23.405163,0.05163 -23.830571,0.477045 -0.3825,0.3825 -0.477046,1.224809 -0.477046,4.250037 v 3.772993 h 3.491103 3.491104 v -1.214297 -1.214296 h 1.366082 1.366085 v 2.428593 2.428593 h -1.366085 c -1.315486,0 -1.366082,-0.03373 -1.366082,-0.910723 v -0.910722 h -3.491104 -3.491103 v 2.026345 2.026348 l 4.464595,4.500495 4.464597,4.500499 h 6.008712 6.008714 l 0.0046,-1.29019 c 0.0027,-0.741926 0.105874,-1.130823 0.242853,-0.915163 0.17662,0.278067 0.764892,0.311618 2.275434,0.129765 1.120477,-0.134893 2.104061,-0.178428 2.185744,-0.09675 0.08168,0.08168 0.148508,0.94539 0.148508,1.919358 v 1.770849 h -2.428543 c -1.956366,0 -2.428594,-0.08855 -2.428594,-0.455361 0,-0.388664 -0.833742,-0.455003 -5.692015,-0.452914 l -5.692016,0.0024 5.027295,5.006527 5.027291,5.00653 h 11.807645 11.807644 l 7.821685,-7.800517 z m -21.000304,6.889789 c -0.333932,-0.33393 -0.607149,-0.88935 -0.607149,-1.23425 0,-0.34491 0.147085,-0.90194 0.326855,-1.23784 0.192312,-0.35933 0.511208,-0.54 0.774703,-0.43889 0.2518,0.0966 0.366657,0.0405 0.262377,-0.12824 -0.104178,-0.16855 0.162895,-0.30009 0.609298,-0.30009 0.446403,0 0.713471,0.13154 0.609298,0.30009 -0.104284,0.16873 0.01057,0.22487 0.262375,0.12824 0.263497,-0.10113 0.582392,0.0796 0.774703,0.43889 0.179771,0.3359 0.326855,0.89293 0.326855,1.23784 0,0.3449 -0.273216,0.90032 -0.607147,1.23425 -0.333933,0.33393 -0.94867,0.60715 -1.366084,0.60715 -0.417415,0 -1.032153,-0.27322 -1.366084,-0.60715 z m 1.517871,-1.51787 c 0,-0.16697 -0.06024,-0.30357 -0.133871,-0.30357 -0.07363,0 -0.2183,0.1366 -0.321491,0.30357 -0.103195,0.16696 -0.04295,0.30357 0.133871,0.30357 0.176819,0 0.321491,-0.13661 0.321491,-0.30357 z M 35.479835,78.395284 c -0.480956,-0.37832 -0.799875,-0.930136 -0.799875,-1.384 0,-0.493254 0.121451,-0.679757 0.350479,-0.53821 0.221718,0.137031 0.267879,0.08297 0.125652,-0.14717 -0.123654,-0.200076 -0.05973,-0.562705 0.142052,-0.805837 0.201786,-0.243136 0.807109,-0.442064 1.34517,-0.442064 0.562213,0 1.191969,0.236113 1.480699,0.555158 0.276328,0.305338 0.502411,0.91016 0.502411,1.34405 0,0.490676 -0.302368,1.026736 -0.799875,1.418073 -0.43993,0.346051 -0.96794,0.629182 -1.173356,0.629182 -0.205417,0 -0.733427,-0.283131 -1.173357,-0.629182 z M 35.94991,77.44082 c -0.217832,-0.217833 -0.359228,-0.235756 -0.359228,-0.04554 0,0.172534 0.09107,0.404768 0.202384,0.516077 0.111308,0.111311 0.272961,0.131802 0.359228,0.04554 0.08627,-0.08626 -0.0048,-0.318498 -0.202384,-0.516077 z m 1.765791,0.02995 c 0,-0.166966 -0.136609,-0.219147 -0.303574,-0.115956 -0.166966,0.103195 -0.303575,0.324226 -0.303575,0.491191 0,0.166966 0.136609,0.219148 0.303575,0.115957 0.166965,-0.103195 0.303574,-0.324227 0.303574,-0.491192 z m 0,-1.178466 c 0,-0.166966 -0.144671,-0.303574 -0.321491,-0.303574 -0.176819,0 -0.237061,0.136608 -0.133871,0.303574 0.103196,0.166966 0.247863,0.303574 0.321492,0.303574 0.07363,0 0.13387,-0.136608 0.13387,-0.303574 z m 56.050373,2.102986 c -0.520483,-0.409413 -0.799875,-0.923164 -0.799875,-1.47082 0,-0.462902 0.249821,-1.067725 0.555159,-1.34405 0.305338,-0.276329 0.980632,-0.502412 1.500658,-0.502412 0.632913,0 1.101731,0.223057 1.418073,0.674696 0.259915,0.37108 0.472575,0.923724 0.472575,1.228094 0,0.304369 -0.335314,0.88871 -0.745138,1.298536 -0.409826,0.409824 -0.937835,0.745137 -1.173358,0.745137 -0.235518,0 -0.788163,-0.283131 -1.228094,-0.629181 z m 2.235867,-0.888689 c 0,-0.166966 -0.06024,-0.303574 -0.13387,-0.303574 -0.07363,0 -0.2183,0.136608 -0.321491,0.303574 -0.103195,0.166966 -0.04295,0.303574 0.13387,0.303574 0.176819,0 0.321491,-0.136608 0.321491,-0.303574 z m -1.669658,-1.214297 c 0.103195,-0.166966 0.04295,-0.303574 -0.133871,-0.303574 -0.176819,0 -0.321491,0.136608 -0.321491,0.303574 0,0.166966 0.06024,0.303574 0.133871,0.303574 0.07363,0 0.2183,-0.136608 0.321491,-0.303574 z m 1.669658,0.188956 c 0,-0.06304 -0.239065,-0.302101 -0.531255,-0.531254 -0.481487,-0.377606 -0.492225,-0.366869 -0.114617,0.114618 0.229153,0.292189 0.468217,0.531254 0.531254,0.531254 0.06304,0 0.114618,-0.05158 0.114618,-0.114618 z M 67.101704,98.412187 67.192794,97.0054 H 65.65972 64.126646 v 1.444299 1.4443 l 1.441977,-0.03752 1.441978,-0.03752 z m -2.267155,0.47285 c -0.101071,-0.263396 0.03982,-0.702495 0.313104,-0.975776 0.460111,-0.460114 0.533631,-0.460114 0.993743,0 0.273281,0.273281 0.414179,0.71238 0.313104,0.975776 -0.101071,0.263396 -0.465565,0.478901 -0.809975,0.478901 -0.344412,0 -0.7089,-0.215505 -0.809976,-0.478901 z m 1.281684,-0.154703 c 0.112183,-0.181517 0.05194,-0.482055 -0.13387,-0.667864 -0.248069,-0.248068 -0.427608,-0.248068 -0.675677,0 -0.185809,0.185809 -0.246053,0.486347 -0.13387,0.667864 0.112183,0.181512 0.324451,0.330024 0.471709,0.330024 0.147257,0 0.359525,-0.148512 0.471708,-0.330024 z m -9.882507,-1.794995 c 0,-0.667863 -0.136609,-1.214296 -0.303575,-1.214296 -0.166965,0 -0.303574,0.546433 -0.303574,1.214296 0,0.667864 0.136609,1.214297 0.303574,1.214297 0.166966,0 0.303575,-0.546433 0.303575,-1.214297 z m 0.517815,-0.683042 c -0.07236,-0.375673 -0.13156,-0.0683 -0.13156,0.683042 0,0.751347 0.0592,1.058715 0.13156,0.683042 0.07236,-0.375673 0.07236,-0.99041 0,-1.366084 z m 0.910722,0 c -0.07236,-0.375673 -0.13156,-0.0683 -0.13156,0.683042 0,0.751347 0.0592,1.058715 0.13156,0.683042 0.07236,-0.375673 0.07236,-0.99041 0,-1.366084 z m 1.000055,0.683042 c 0,-0.667863 -0.136608,-1.214296 -0.303574,-1.214296 -0.166966,0 -0.303574,0.546433 -0.303574,1.214296 0,0.667864 0.136608,1.214297 0.303574,1.214297 0.166966,0 0.303574,-0.546433 0.303574,-1.214297 z m 0.517817,-0.683042 c -0.07236,-0.375673 -0.131561,-0.0683 -0.131561,0.683042 0,0.751347 0.0592,1.058715 0.131561,0.683042 0.07236,-0.375673 0.07236,-0.99041 0,-1.366084 z m -24.80375,-5.843801 c -5.016432,-5.020506 -6.696703,-6.526844 -7.280486,-6.526844 -0.630844,0 0.341747,1.101573 5.762615,6.526844 5.016433,5.020505 6.696704,6.526843 7.280486,6.526843 0.630846,0 -0.341745,-1.101573 -5.762615,-6.526843 z m 3.411285,2.197115 -4.322007,-4.32973 v -2.197114 c 0,-1.262362 -0.129155,-2.197115 -0.303575,-2.197115 -0.169849,0 -0.303574,0.831906 -0.303574,1.888568 v 1.888567 L 30.953007,85.77022 c -1.048027,-1.038713 -2.037247,-1.888568 -2.198262,-1.888568 -0.16102,0 2.641935,2.93708 6.228789,6.526844 3.586852,3.589763 6.657582,6.526843 6.823842,6.526843 0.166266,0 -1.642605,-1.948378 -4.019706,-4.329728 z m 12.258615,2.450307 c 0.1229,-0.198853 0.06266,-0.415149 -0.133869,-0.480662 -0.196528,-0.06551 -0.357322,-0.385225 -0.357322,-0.710484 0,-0.325258 0.215503,-0.674074 0.4789,-0.77515 0.263396,-0.10107 0.685189,0.02253 0.937315,0.274641 0.383655,0.383657 0.394067,0.561449 0.06384,1.090217 -0.217013,0.347492 -0.300584,0.725785 -0.185714,0.840654 0.114869,0.11487 0.417065,0.03605 0.671549,-0.17515 0.264503,-0.219518 0.462698,-0.873198 0.462698,-1.526052 v -1.142049 l -1.517871,0.02289 -1.517871,0.02289 v 1.459894 c 0,1.068727 0.11721,1.459895 0.437445,1.459895 0.240594,0 0.537999,-0.162699 0.660895,-0.361552 z m 30.569846,0.163887 c 0.108716,-0.108715 -0.01257,-0.351384 -0.269501,-0.539262 -0.281219,-0.205636 -0.387245,-0.549871 -0.266377,-0.864847 0.110435,-0.287785 0.463679,-0.523246 0.784985,-0.523246 0.321309,0 0.666355,0.214095 0.766767,0.475767 0.100416,0.261672 0.0278,0.630515 -0.161316,0.81965 -0.189135,0.189136 -0.343882,0.45317 -0.343882,0.586742 0,0.133573 0.273217,0.24286 0.607148,0.24286 0.514834,0 0.607149,-0.202384 0.607149,-1.331057 v -1.331055 h -1.517871 -1.517871 v 1.331055 c 0,1.08834 0.101483,1.331057 0.556551,1.331057 0.306107,0 0.645503,-0.08895 0.754218,-0.197664 z M 50.76939,93.729894 c 0,-0.240594 -0.128545,-0.437444 -0.285657,-0.437444 -0.157112,0 -0.370087,0.136608 -0.473278,0.303573 -0.103195,0.166967 -0.101811,0.442412 0.0031,0.612101 0.104875,0.169688 0.317848,0.229932 0.473278,0.133869 0.155427,-0.09606 0.282598,-0.371504 0.282598,-0.612099 z m 30.591421,0.416358 c -0.06609,-0.198274 -0.282388,-0.41457 -0.480659,-0.480658 -0.198273,-0.06609 -0.360493,0.09614 -0.360493,0.360494 0,0.264362 0.216296,0.480658 0.480657,0.480658 0.264366,0 0.426586,-0.162224 0.360495,-0.360494 z m 17.214388,-5.689935 c 1.331811,-1.347305 2.295541,-2.449646 2.141631,-2.449646 -0.15391,0 -0.66299,0.367078 -1.131281,0.815731 l -0.851441,0.815731 v -0.815731 c 0,-0.448653 -0.136608,-0.815731 -0.303574,-0.815731 -0.166966,0 -0.303574,0.507986 -0.303574,1.128856 0,0.951319 -0.250658,1.386593 -1.593765,2.767618 -0.87657,0.901318 -1.320547,1.495673 -0.986615,1.32079 0.333931,-0.174883 1.696809,-1.420311 3.028619,-2.767618 z m 1.828571,0.282521 c 2.60457,-2.616697 2.68156,-2.732167 1.82145,-2.732167 -0.71881,0 -1.39917,0.498517 -3.408876,2.497783 -1.380956,1.373782 -2.510829,2.603258 -2.510829,2.732167 0,0.128913 0.310216,0.234384 0.689372,0.234384 0.464268,0 1.577376,-0.89214 3.408883,-2.732167 z m -66.326909,-2.655566 -0.147738,-2.353407 -0.09557,1.941256 c -0.05256,1.067692 -0.02453,2.126407 0.06232,2.352699 0.08684,0.226294 0.196324,0.411763 0.243308,0.412151 0.04698,3.04e-4 0.01894,-1.058326 -0.06232,-2.352699 z m 63.746524,0.917397 c 0,-0.602355 -0.04897,-1.038268 -0.108818,-0.968701 -0.05985,0.06957 -0.188368,0.641831 -0.285591,1.271696 -0.105404,0.682838 -0.06147,1.073942 0.108816,0.968699 0.157079,-0.09708 0.285593,-0.669342 0.285593,-1.271694 z M 83.858974,85.703097 V 84.4888 h -1.214297 -1.214296 v 1.214297 1.214296 h 1.214296 1.214297 z m -1.973231,0.303574 c -0.103196,-0.166966 -0.103196,-0.440183 0,-0.607149 0.103195,-0.166965 0.452774,-0.303574 0.776852,-0.303574 0.386847,0 0.589231,0.208538 0.589231,0.607149 0,0.39861 -0.202384,0.607148 -0.589231,0.607148 -0.324078,0 -0.673662,-0.136608 -0.776852,-0.303574 z M 32.55494,85.247735 v -1.366083 h -1.42929 -1.429292 l 1.340712,1.366083 c 0.737391,0.751346 1.38057,1.366084 1.42929,1.366084 0.04872,0 0.08858,-0.614738 0.08858,-1.366084 z m 66.938104,1.06251 c 0.103195,-0.166966 0.04295,-0.303574 -0.133871,-0.303574 -0.176819,0 -0.321491,0.136608 -0.321491,0.303574 0,0.166966 0.06024,0.303574 0.133871,0.303574 0.07363,0 0.2183,-0.136608 0.321491,-0.303574 z m -55.70586,-3.035741 v -2.125019 h -0.910722 c -0.555207,0 -0.910722,0.157543 -0.910722,0.403572 0,0.223278 0.305146,0.392803 0.683041,0.379467 0.594313,-0.02098 0.695416,0.148572 0.778301,1.305177 0.0918,1.281065 0.06703,1.323887 -0.683042,1.1805 -0.609878,-0.116584 -0.7783,-0.0265 -0.7783,0.41627 0,0.425453 0.224999,0.565051 0.910722,0.565051 h 0.910722 z m 53.957743,-3.87057 c -0.05841,-1.127019 -0.106199,-0.204913 -0.106199,2.049124 0,2.254039 0.04779,3.176145 0.106199,2.049126 0.05841,-1.127019 0.05841,-2.971232 0,-4.09825 z m 0.989181,1.000898 c 0,-3.013941 -0.133663,-5.288048 -0.337049,-5.734432 -0.185378,-0.406856 -0.669936,-0.891416 -1.076792,-1.076794 -0.478136,-0.21785 -2.85504,-0.31541 -6.72105,-0.27586 l -5.981307,0.06119 6.253454,0.166492 c 4.655766,0.123956 6.381476,0.272939 6.754525,0.58313 0.431489,0.358782 0.501071,1.170287 0.501071,5.843802 0,3.415728 0.11251,5.427164 0.303574,5.427164 0.190083,0 0.303574,-1.867278 0.303574,-4.99469 z m 11.440712,-4.795575 c 8.15763,-8.191344 9.80413,-9.988581 10.0816,-11.004562 0.18241,-0.667863 0.33241,-1.316752 0.33334,-1.441977 9.1e-4,-0.125225 -0.32326,-0.22768 -0.72042,-0.22768 -0.52221,0 -0.83064,0.262045 -1.11421,0.946626 -0.21566,0.520644 -0.81282,1.203176 -1.32702,1.516735 -0.5142,0.313562 -1.25578,0.570622 -1.64797,0.571244 -0.39218,6.08e-4 -1.16712,-0.214332 -1.72209,-0.477683 -0.59845,-0.283984 -1.21645,-0.91592 -1.51877,-1.553012 -0.32597,-0.686924 -0.44193,-1.413259 -0.32165,-2.014685 0.10346,-0.517272 0.55113,-1.319406 0.99482,-1.782523 0.44369,-0.463118 1.24764,-0.924748 1.78654,-1.025848 0.63068,-0.118314 1.36505,-9.1e-4 2.06089,0.329185 0.71235,0.338039 1.26598,0.914438 1.62327,1.690073 0.40481,0.878789 0.72492,1.17906 1.26321,1.184907 0.64435,0.007 0.70111,-0.09155 0.53399,-0.927128 -0.10282,-0.514224 -0.39294,-1.368976 -0.64467,-1.899442 -0.25171,-0.530468 -3.52728,-4.031823 -7.27904,-7.780792 l -6.82136,-6.816308 0.7605,1.882806 c 0.41827,1.035543 0.91729,2.95853 1.10891,4.273304 0.29199,2.003301 0.2678,2.799703 -0.1493,4.916892 -0.27375,1.389517 -0.93168,3.407881 -1.46207,4.485254 -0.6043,1.227501 -1.71443,2.711979 -2.97338,3.976016 -1.11283,1.117342 -2.82154,2.441034 -3.830471,2.967376 -1.001794,0.522622 -2.660815,1.166633 -3.686707,1.43114 -1.025896,0.264504 -2.357827,0.480919 -2.959848,0.480919 -0.673817,0 -1.094203,-0.145871 -1.09359,-0.379468 6.07e-4,-0.233761 0.972567,-0.567854 2.531299,-0.870094 1.391668,-0.269845 3.246655,-0.85043 4.122196,-1.29019 0.875542,-0.439761 1.65704,-0.799563 1.736658,-0.799563 0.07962,0 0.06033,0.136608 -0.04286,0.303573 -0.103195,0.166966 -0.05101,0.303575 0.115956,0.303575 0.166967,0 0.387997,-0.136609 0.491187,-0.303575 0.1032,-0.166965 0.0366,-0.303573 -0.14802,-0.303573 -0.1846,0 0.45622,-0.738466 1.42406,-1.641034 0.96784,-0.902569 1.82801,-1.571075 1.9115,-1.485567 0.0835,0.0855 -0.59142,0.82397 -1.49979,1.641034 -0.90838,0.81706 -1.51884,1.485567 -1.35659,1.485567 0.16225,0 1.07622,-0.78946 2.03105,-1.754355 0.95482,-0.964896 1.73605,-1.869577 1.73605,-2.010402 0,-0.140827 -0.20492,-0.08599 -0.45537,0.121867 -0.25401,0.210811 -0.45535,0.243686 -0.45535,0.07435 0,-0.166965 0.19162,-0.46261 0.42584,-0.656988 0.32712,-0.271486 0.4569,-0.26251 0.55984,0.03872 0.0737,0.215678 0.47793,-0.290902 0.89827,-1.125732 0.42034,-0.834828 1.01498,-2.269215 1.3214,-3.187528 0.37544,-1.125115 0.55722,-2.560726 0.55734,-4.401824 1.5e-4,-2.023877 -0.17508,-3.251073 -0.6759,-4.733799 -0.37185,-1.100896 -1.12543,-2.740196 -1.67462,-3.642889 -0.54919,-0.902693 -1.1599,-1.607106 -1.35714,-1.565364 -0.19724,0.04174 -0.35861,-0.08252 -0.35861,-0.276144 0,-0.193623 -3.10129,-3.472223 -6.891747,-7.285779 -6.359146,-6.3979 -6.973507,-6.933745 -7.94972,-6.933745 h -1.057977 l 0.815731,0.85144 c 0.448652,0.468292 0.815731,1.083029 0.815731,1.366083 0,0.342065 -0.246408,0.514644 -0.734814,0.514644 -0.571724,0 -0.779791,0.204762 -0.937445,0.922565 -0.126992,0.578187 -1.266928,2.061028 -3.053838,3.972467 -1.568164,1.677448 -3.46328,3.970594 -4.211369,5.09588 -0.748089,1.125285 -1.650928,2.718735 -2.00631,3.540992 -0.355379,0.822258 -0.907189,2.507277 -1.226242,3.744487 -0.319054,1.23721 -0.578475,3.218031 -0.576493,4.401825 0.0021,1.183793 0.189558,2.850694 0.416834,3.704226 0.227274,0.853529 0.577489,1.809787 0.778252,2.125019 0.349442,0.54868 0.356639,0.547226 0.168632,-0.03401 -0.108014,-0.333932 -0.391546,-1.353043 -0.630071,-2.264694 -0.238521,-0.911648 -0.433676,-2.488096 -0.433676,-3.503215 0,-1.015118 0.209174,-2.648742 0.464829,-3.630275 0.255658,-0.981532 0.880647,-2.564753 1.388864,-3.518267 0.508219,-0.953517 1.699281,-2.511305 2.646805,-3.461756 1.096192,-1.099576 2.504096,-2.105086 3.871005,-2.764629 1.277644,-0.616467 3.061525,-1.178034 4.401825,-1.385693 1.73969,-0.269541 2.760313,-0.263418 4.475685,0.02683 1.305524,0.220911 3.107215,0.818816 4.367953,1.449537 1.298378,0.649551 2.818646,1.74943 3.849386,2.784934 0.93694,0.94127 2.07471,2.401128 2.52837,3.244127 0.45366,0.842997 1.03425,2.336694 1.29019,3.319327 0.25594,0.982633 0.46536,2.753767 0.46536,3.935851 0,1.182084 -0.20942,2.953218 -0.46536,3.93585 -0.25594,0.982633 -0.83653,2.47633 -1.29019,3.319329 -0.45366,0.842997 -1.57796,2.287613 -2.49844,3.210256 -0.92048,0.922642 -2.523587,2.128431 -3.562464,2.679534 -1.038872,0.551099 -2.881313,1.210617 -4.094307,1.465589 -1.479262,0.310945 -2.841026,0.396717 -4.135749,0.260493 -1.061665,-0.1117 -2.644571,-0.448836 -3.517562,-0.74919 -0.872994,-0.300353 -2.052869,-0.786873 -2.621946,-1.081154 -0.569077,-0.294279 -1.889099,-1.355508 -2.933386,-2.358283 -1.044285,-1.002772 -1.895723,-1.630812 -1.892081,-1.395639 0.0036,0.235173 1.114169,1.793671 2.467843,3.463328 1.353673,1.669657 2.66186,3.507371 2.907084,4.083807 0.253127,0.595014 0.375637,1.480792 0.283411,2.049125 l -0.162452,1.001069 h 6.227536 6.227539 l 0.887368,0.887372 0.887371,0.887367 v 5.335902 5.335898 h 0.693582 c 0.506503,0 3.323383,-2.64067 10.443553,-9.790265 z m -5.56296,-14.495664 c 0.0877,-0.250449 0.53405,-1.343316 0.99192,-2.428593 0.65661,-1.556273 0.85979,-2.58988 0.96153,-4.891472 0.095,-2.148418 -0.006,-3.389687 -0.38296,-4.705399 -0.28158,-0.982937 -0.98616,-2.657321 -1.56574,-3.720854 -0.57958,-1.063531 -0.99375,-1.993743 -0.92035,-2.067136 0.0734,-0.07339 0.55761,0.607925 1.07604,1.514043 0.51842,0.906117 1.15282,2.243325 1.40976,2.971572 0.25694,0.728246 0.59337,2.21487 0.74764,3.303605 0.17362,1.225371 0.17107,2.751402 -0.006,4.005588 -0.15796,1.114336 -0.56247,2.761808 -0.89892,3.661047 -0.33645,0.89924 -0.8277,1.900027 -1.09166,2.223971 -0.28603,0.351026 -0.41553,0.405014 -0.32052,0.133628 z m 8.13086,15.254441 c 7.46979,-7.507509 9.06558,-9.261645 9.45872,-10.397255 0.26011,-0.751347 0.5533,-1.741757 0.65154,-2.200913 0.14682,-0.68616 0.0733,-0.834828 -0.41276,-0.834828 -0.45957,0 -0.70288,0.389069 -1.09161,1.74555 -0.48581,1.695222 -0.77287,2.016901 -9.95582,11.156349 l -9.45559,9.410798 9.0061,-9.110975 c 6.4908,-6.566391 9.17868,-9.491461 9.62403,-10.473308 0.33986,-0.749282 0.60509,-1.703852 0.58939,-2.121267 -0.0229,-0.609303 -0.0555,-0.639229 -0.1649,-0.151787 -0.075,0.333932 -0.28132,1.085278 -0.4585,1.669658 -0.23974,0.790759 -2.76205,3.51493 -9.86192,10.651181 l -9.53979,9.588671 1.31265,0.04965 1.31267,0.04965 z M 19.297533,75.305683 C 14.675554,70.654813 11.125549,66.831269 10.77138,66.122566 10.437621,65.454702 10.068717,64.464292 9.951591,63.921654 9.7976406,63.208406 9.5704096,62.935038 9.1314876,62.935038 c -0.5250024,0 -0.5791838,0.133487 -0.4004592,0.986616 0.1136794,0.542638 0.471062,1.601353 0.7941846,2.352698 0.4389717,1.020726 2.560343,3.342297 8.391213,9.183118 5.985683,5.995896 7.978061,7.817034 8.552071,7.817034 0.613302,0 -0.680798,-1.438088 -7.170964,-7.968821 z m 0.611688,-0.607149 c -6.330798,-6.362491 -8.615689,-8.850205 -8.852654,-9.638478 -0.175671,-0.58438 -0.380763,-1.335726 -0.455758,-1.669658 -0.10947,-0.487442 -0.141982,-0.457516 -0.164902,0.151787 -0.0157,0.417415 0.249228,1.373673 0.588732,2.12502 0.447071,0.989396 2.849783,3.605282 8.713602,9.486691 4.452976,4.466334 8.2331,8.120608 8.400275,8.120608 0.167178,0 -3.536004,-3.859186 -8.229295,-8.57597 z m 12.645719,4.457762 c 0,-2.548589 0.134605,-4.370936 0.353161,-4.781292 0.194238,-0.364697 0.569911,-0.829501 0.834828,-1.032899 0.264917,-0.203395 0.94026,-0.374156 1.500765,-0.379468 0.802513,-0.0076 0.979934,-0.111706 0.834829,-0.489844 -0.101346,-0.264104 -0.184267,-5.045396 -0.184267,-10.625094 V 51.702795 h -8.449203 -8.449202 l -3.663386,3.736332 c -2.778111,2.833434 -3.743677,4.025536 -3.995644,4.93308 -0.182744,0.658212 -0.333022,1.367508 -0.333953,1.576214 -9.42e-4,0.208708 0.305675,0.375944 0.681349,0.371636 0.494126,-0.0057 0.833007,-0.333389 1.225257,-1.184907 0.346237,-0.751632 0.911443,-1.352287 1.563751,-1.661825 0.561843,-0.266615 1.274104,-0.484242 1.582802,-0.483616 0.308699,6.08e-4 1.013468,0.276832 1.566153,0.613793 0.552686,0.336965 1.208304,1.099516 1.456929,1.694558 0.3521,0.842694 0.379672,1.301185 0.124709,2.073729 -0.180034,0.545511 -0.645303,1.290552 -1.033929,1.655649 -0.388627,0.365096 -1.183167,0.741149 -1.765646,0.835668 -0.68745,0.111561 -1.399113,-0.004 -2.028216,-0.329313 -0.533041,-0.275645 -1.194225,-0.973128 -1.469299,-1.549964 -0.357608,-0.749911 -0.70039,-1.048791 -1.202844,-1.048791 -0.428795,0 -0.702709,0.1813 -0.702709,0.465111 0,0.25581 0.209836,0.973004 0.466304,1.593764 0.309691,0.749582 3.342282,4.008976 9.029335,9.704621 l 8.563029,8.57597 h 1.747548 1.747549 z m 0.910723,-0.416149 c 0,-3.117514 0.103565,-4.280905 0.40324,-4.529611 0.221783,-0.184063 0.938976,-0.47158 1.593765,-0.638929 l 1.190524,-0.304269 -1.331956,0.123111 c -0.732576,0.06771 -1.552226,0.342993 -1.821446,0.611738 -0.395262,0.394568 -0.508511,1.340226 -0.588304,4.912555 -0.06928,3.101678 -0.0012,4.363617 0.22768,4.222142 0.207459,-0.128218 0.326497,-1.731228 0.326497,-4.396737 z m 0.527733,0.218601 c -0.06152,-0.882168 -0.112495,-0.237857 -0.113284,1.431802 -9.11e-4,1.669657 0.04954,2.391428 0.111849,1.60394 0.06231,-0.78749 0.06295,-2.153573 0.0015,-3.035742 z m 9.18664,3.708607 c 0,-0.166965 -0.204913,-0.303574 -0.455362,-0.303574 -0.250448,0 -0.455361,0.136609 -0.455361,0.303574 0,0.166966 0.204913,0.303575 0.455361,0.303575 0.250449,0 0.455362,-0.136609 0.455362,-0.303575 z m 39.544709,-1.427991 c -0.373378,-0.07205 -1.056419,-0.07392 -1.517871,-0.0041 -0.46145,0.06978 -0.155961,0.128735 0.678869,0.131014 0.834828,0.0021 1.212381,-0.05482 0.839002,-0.126869 z m -0.08007,-0.668607 c 0,-0.151335 -0.257798,-0.207739 -0.572887,-0.125339 -0.315089,0.0824 -0.66837,-0.0046 -0.785069,-0.193508 -0.1167,-0.188823 -0.04709,-0.542247 0.154695,-0.785379 0.286792,-0.345562 0.286792,-0.538568 0,-0.88413 -0.201783,-0.243133 -0.278751,-0.584653 -0.17104,-0.758935 0.107711,-0.174278 0.05117,-0.31687 -0.125652,-0.31687 -0.187303,0 -0.321491,0.696902 -0.321491,1.669657 0,1.652791 0.0092,1.669658 0.910722,1.669658 0.500897,0 0.910722,-0.123819 0.910722,-0.275154 z m -46.996898,-6.18677 c 0.565237,-0.107939 0.521626,-0.14207 -0.224058,-0.175367 -0.509246,-0.02274 -1.089832,0.12259 -1.290191,0.322949 -0.200358,0.200359 -0.363779,0.71264 -0.363154,1.138403 0.0013,0.764906 0.0081,0.76266 0.588348,-0.188923 0.322966,-0.529673 0.903042,-1.023348 1.289055,-1.097062 z m 61.858169,0.221946 c -0.200228,-0.24126 -0.791299,-0.42005 -1.313492,-0.397313 -0.76117,0.03314 -0.808373,0.06817 -0.238033,0.17662 0.391277,0.07441 0.93771,0.533678 1.214297,1.02061 0.451345,0.794599 0.51305,0.821453 0.602078,0.262033 0.05456,-0.342813 -0.06462,-0.820694 -0.26485,-1.06195 z M 83.36161,75.22979 c 0.0961,-0.25045 0.04242,-0.455361 -0.119308,-0.455361 -0.161727,0 -0.294049,0.204911 -0.294049,0.455361 0,0.250448 0.0537,0.45536 0.119308,0.45536 0.06563,0 0.19794,-0.204912 0.294049,-0.45536 z M 70.88118,74.243286 c -6.219475,-0.04586 -16.396799,-0.04586 -22.616274,0 -6.219476,0.04588 -1.130814,0.0834 11.308137,0.0834 12.438951,0 17.527613,-0.03753 11.308137,-0.0834 z m 12.895579,0.04416 c -0.10087,-0.10088 -0.36271,-0.111658 -0.581851,-0.02396 -0.242171,0.09691 -0.170239,0.168841 0.18341,0.183407 0.320016,0.01318 0.499316,-0.05857 0.398441,-0.159443 z m 8.051039,-0.04245 c -1.377468,-0.05625 -3.631506,-0.05625 -5.008974,0 -1.377468,0.05625 -0.250448,0.102276 2.504487,0.102276 2.754935,0 3.881955,-0.04602 2.504487,-0.102276 z M 74.827643,72.931114 c 0.451466,-0.554536 0.531255,-1.312873 0.531255,-5.049154 0,-4.170587 0.03185,-4.404946 0.619524,-4.558624 l 0.619526,-0.162012 -0.619526,-0.433932 c -0.340737,-0.23866 -0.619524,-0.76956 -0.619524,-1.17977 0,-0.410214 0.17076,-1.035055 0.379467,-1.388533 0.303574,-0.514154 0.303574,-0.670177 0,-0.780115 -0.294718,-0.106731 -0.379467,-2.775916 -0.379467,-11.951514 0,-11.40933 -0.0208,-11.834895 -0.607149,-12.421242 -0.593818,-0.593818 -1.008713,-0.607045 -18.897492,-0.6025 -10.059688,0.0024 -18.440652,0.105012 -18.624366,0.22768 -0.18371,0.122668 -0.491079,0.521422 -0.683041,0.886117 -0.21481,0.408108 -0.349019,2.298324 -0.349019,4.915625 v 4.252539 l -1.290191,0.09334 c -0.709604,0.05135 -1.296905,0.229958 -1.305114,0.396924 -0.0082,0.166965 -0.11823,0.605783 -0.244498,0.97515 -0.128637,0.376298 -0.084,0.943566 0.101494,1.29019 0.18351,0.342887 0.63752,0.618614 1.018612,0.618614 0.378147,0 0.851472,-0.16393 1.05183,-0.364289 0.200359,-0.200359 0.364289,-0.661761 0.364289,-1.025339 0,-0.363576 -0.17076,-0.801294 -0.379468,-0.972707 -0.208707,-0.17141 -0.720989,-0.374446 -1.138403,-0.45119 -0.67918,-0.124869 -0.661637,-0.143879 0.166966,-0.180875 0.509246,-0.02274 1.089831,0.122589 1.29019,0.322948 0.200359,0.200359 0.36429,0.79837 0.36429,1.328914 0,0.530541 -0.20607,1.135644 -0.45793,1.344669 -0.288366,0.239323 -0.87852,0.312478 -1.593765,0.197563 -0.779788,-0.125282 -0.993094,-0.09148 -0.680474,0.107836 0.250449,0.159677 0.967644,0.292415 1.593765,0.29497 1.124979,0.0045 1.138404,0.01897 1.138404,1.218945 0,0.876992 0.126489,1.214296 0.455361,1.214296 0.392339,0 0.45536,-1.026329 0.45536,-7.415533 v -7.415532 l 0.799876,-0.629181 c 0.787514,-0.619458 1.061744,-0.629182 17.744805,-0.629182 11.947183,0 17.166932,0.101145 17.697631,0.342953 0.413984,0.188626 0.901885,0.703114 1.08422,1.143315 0.229786,0.554746 0.305952,6.075994 0.2482,17.991585 -0.07957,16.415473 -0.109417,17.220054 -0.661628,17.830067 -0.57517,0.635382 -0.673485,0.638845 -18.138556,0.638845 -17.155486,0 -17.574246,-0.01399 -18.167399,-0.607148 -0.582617,-0.582617 -0.607149,-1.011912 -0.607149,-10.625094 0,-8.702459 -0.05979,-10.017947 -0.45536,-10.017947 -0.395725,0 -0.454776,1.321932 -0.450887,10.09384 0.0034,7.501366 0.102635,10.288762 0.386653,10.852775 0.298841,0.593439 0.678506,0.792034 1.741077,0.910722 0.747394,0.08349 9.145576,0.12293 18.662626,0.08766 17.300515,-0.06413 17.303824,-0.06425 17.834982,-0.716675 z M 33.969158,47.305737 c -0.262733,-0.262735 -0.404636,-0.668095 -0.315337,-0.900802 0.0893,-0.232708 0.343431,-0.492589 0.564742,-0.577514 0.221309,-0.08492 0.654725,0.03312 0.963143,0.262321 0.437779,0.325338 0.489429,0.533183 0.235502,0.947699 -0.178897,0.292032 -0.470407,0.579346 -0.647806,0.63848 -0.1774,0.05913 -0.537509,-0.107451 -0.800244,-0.370184 z m 1.144904,-0.798101 c -0.0915,-0.148047 -0.363212,-0.269175 -0.603806,-0.269175 -0.240595,0 -0.437445,0.182144 -0.437445,0.404764 0,0.222624 0.08989,0.494653 0.199749,0.604516 0.109864,0.10986 0.381575,0.04885 0.603806,-0.135587 0.222232,-0.184437 0.329196,-0.45647 0.237696,-0.604518 z m 45.3416,26.828512 c -0.953511,-0.06005 -2.592812,-0.06054 -3.64289,-0.0012 -1.050081,0.05945 -0.269936,0.108579 1.733654,0.10918 2.00359,6.08e-4 2.862744,-0.04804 1.909236,-0.10809 z m 3.479206,0.02292 c -0.208708,-0.08422 -0.550229,-0.08422 -0.758935,0 -0.208708,0.08422 -0.03795,0.15312 0.379467,0.15312 0.417414,0 0.588175,-0.0689 0.379468,-0.15312 z M 81.92956,72.033657 c -0.101124,-0.505621 -1.170196,-2.554746 -2.37572,-4.553612 -1.948303,-3.230454 -2.284586,-3.634286 -3.0264,-3.634286 h -0.834544 l -0.09111,4.554067 -0.0911,4.554064 3.301368,-3.03e-4 3.30137,-3.04e-4 -0.183863,-0.919314 z m 2.393151,0.285772 c 0.110595,-0.348449 0.118242,-1.075101 0.017,-1.614789 -0.101251,-0.539685 -0.905015,-1.859741 -1.786154,-2.933455 -0.881136,-1.073715 -2.093226,-2.600013 -2.693532,-3.391776 -0.870304,-1.147872 -1.159844,-1.357174 -1.428932,-1.032941 -0.259058,0.31214 0.02638,0.999314 1.228492,2.957436 0.861278,1.40295 1.885267,3.154555 2.275528,3.892455 0.390262,0.737901 0.709567,1.660008 0.709567,2.049126 0,0.547043 0.167473,0.707486 0.738479,0.707486 0.482118,0 0.808284,-0.219934 0.939556,-0.633542 z M 38.929998,70.658722 v -1.990687 l 1.266572,0.09335 c 1.065706,0.07854 1.274307,0.20167 1.31535,0.776391 0.03764,0.527086 -0.11292,0.683041 -0.659423,0.683041 -0.427129,0 -0.708202,0.180724 -0.708202,0.455361 0,0.309594 0.309976,0.455362 0.96834,0.455362 0.53259,0 1.796218,-0.149231 2.808061,-0.331625 1.011847,-0.182393 2.249545,-0.447851 2.750443,-0.589908 0.866634,-0.24578 0.859288,-0.251029 -0.151787,-0.108433 -0.584381,0.08242 -1.608943,0.03439 -2.276806,-0.106722 -0.667863,-0.141117 -1.214297,-0.385196 -1.214297,-0.542402 0,-0.157206 0.273217,-0.329848 0.607148,-0.383651 0.333932,-0.0538 0.812061,-0.181507 1.06251,-0.283781 0.286068,-0.116821 0.06034,-0.252343 -0.607148,-0.364523 -0.731314,-0.122904 -1.051059,-0.333142 -1.025771,-0.674456 0.02589,-0.349441 -0.303359,-0.550271 -1.11491,-0.680043 -0.633407,-0.101282 -1.574988,-0.540371 -2.092403,-0.975748 l -0.940752,-0.791591 0.0248,-14.842643 0.0248,-14.842646 h 16.830109 16.83011 v 1.821444 1.821444 H 71.32571 c -1.09865,0 -1.301033,-0.09445 -1.301033,-0.607147 0,-0.430065 0.202383,-0.607149 0.693886,-0.607149 0.405993,0 0.693882,-0.183914 0.693882,-0.443276 0,-0.358709 -0.489292,-0.431106 -2.564704,-0.379468 -1.466755,0.03649 -2.343984,0.162264 -2.049125,0.293788 0.283568,0.126489 0.03745,0.143806 -0.546932,0.03848 -0.58438,-0.10533 -4.835785,-0.25077 -9.447561,-0.323206 -7.304265,-0.114733 -8.407882,-0.07222 -8.562159,0.329822 -0.13009,0.339007 0.08115,0.501245 0.795698,0.61113 0.535041,0.08228 1.639496,0.234952 2.454343,0.339271 0.814844,0.104316 1.805255,0.337172 2.200913,0.517443 0.395654,0.180274 0.730563,0.476602 0.744242,0.65851 0.01369,0.181904 0.0045,5.863376 -0.02034,12.62549 -0.04055,11.025132 -0.09919,12.388799 -0.567859,13.205474 -0.352252,0.613815 -0.964173,1.059176 -1.876987,1.366083 -1.253768,0.421547 -1.347508,0.525566 -1.262295,1.400725 0.09003,0.924575 0.05664,0.950842 -1.517871,1.194506 -1.362832,0.210906 -1.470143,0.270652 -0.699198,0.389286 l 0.910723,0.140138 -0.758936,0.243744 c -0.488414,0.156859 -0.244944,0.18283 0.683042,0.07287 1.195075,-0.141624 1.441978,-0.08701 1.441978,0.318949 0,0.357423 0.287208,0.48983 1.062509,0.48983 0.742069,0 1.06251,-0.137332 1.06251,-0.455362 0,-0.274637 -0.281074,-0.455361 -0.708203,-0.455361 -0.546503,0 -0.697064,-0.155955 -0.659423,-0.683041 0.04105,-0.574721 0.249644,-0.697847 1.315351,-0.776391 l 1.266541,-0.09335 v 1.990687 1.990687 h 9.540902 c 8.268784,0 9.60451,-0.06361 10.017947,-0.477045 0.422788,-0.422787 0.477046,-2.493664 0.477046,-18.20745 V 36.234512 l -0.716927,-0.46975 c -0.629646,-0.412557 -2.813237,-0.459612 -17.935471,-0.386465 -16.643214,0.08049 -17.232934,0.102973 -17.649308,0.672559 -0.343411,0.469778 -0.430769,2.054997 -0.430769,7.817034 0,6.677517 0.04044,7.228492 0.531256,7.23741 0.505958,0.0092 0.505958,0.02887 0,0.412937 -0.486675,0.369438 -0.531256,1.226376 -0.531256,10.212067 0,8.701169 0.05673,9.871477 0.502413,10.363947 0.276325,0.305338 0.617846,0.555158 0.758936,0.555158 0.141086,0 0.256523,-0.895807 0.256524,-1.990687 z M 57.448021,70.44854 c 0.08349,-1.043561 0.06424,-4.629548 -0.04277,-7.968863 -0.107,-3.339316 -0.209457,-9.189833 -0.227681,-13.001146 l -0.03313,-6.929665 0.865046,-0.865043 c 0.475773,-0.475777 1.356376,-0.957221 1.956887,-1.069878 0.643402,-0.120703 1.130165,-0.403811 1.185142,-0.689295 0.05832,-0.302855 0.661895,-0.619218 1.610109,-0.843939 l 1.516808,-0.359477 -1.441977,-0.03607 c -1.022456,-0.02556 -1.441977,-0.160779 -1.441977,-0.464739 0,-0.261869 0.461657,-0.506674 1.186404,-0.629121 0.652521,-0.110243 1.711236,-0.05471 2.3527,0.123413 0.641461,0.178119 1.712728,0.326706 2.380592,0.330194 0.667863,0.0035 1.390351,0.118039 1.605528,0.254559 0.290375,0.184227 0.312751,0.454648 0.0868,1.048943 -0.288071,0.757682 -0.238786,0.82039 0.916937,1.166653 0.671755,0.201264 1.53861,0.742949 1.926348,1.203747 0.703274,0.835798 0.705515,0.86737 0.929298,13.10131 0.123378,6.744919 0.130364,12.559535 0.01551,12.921365 -0.114842,0.361833 -0.352932,0.657879 -0.52909,0.657879 -0.211464,0 -0.202177,-0.142316 0.02732,-0.418854 0.256147,-0.308637 0.292958,-3.664274 0.139893,-12.752454 -0.134529,-7.98749 -0.325981,-12.570795 -0.543316,-13.006724 -0.192275,-0.385666 -0.98158,-0.919477 -1.848272,-1.249996 -1.115171,-0.425278 -2.350319,-0.583574 -4.700211,-0.602368 -2.22574,-0.01782 -3.717831,0.134681 -4.945035,0.505357 -0.966632,0.291969 -2.040258,0.813603 -2.385842,1.159185 -0.622448,0.622449 -0.6263,0.74676 -0.411321,13.269414 0.119356,6.952594 0.322481,12.754153 0.451384,12.892359 0.128907,0.138202 0.763359,0.374009 1.409896,0.524011 0.646534,0.150002 2.966933,0.275992 5.156441,0.279974 2.189508,0.004 4.681298,-0.125579 5.537317,-0.287921 0.856016,-0.162339 1.762616,-0.216027 2.014667,-0.119308 0.33691,0.129286 0.458272,0.649622 0.458272,1.964823 v 1.788965 l -7.665247,4.3e-5 -7.665248,4.5e-5 0.151787,-1.897383 z m 14.875135,0.07586 c 0,-1.484141 -0.02025,-1.51787 -0.910722,-1.51787 -0.500898,0 -0.910723,0.136607 -0.910723,0.303573 0,0.166966 0.273217,0.303574 0.607149,0.303574 0.472227,0 0.607148,0.202384 0.607148,0.910723 v 0.910722 H 65.037376 58.358744 V 70.5244 c 0,-0.708339 0.134921,-0.910723 0.607149,-0.910723 0.333931,0 0.607148,-0.136608 0.607148,-0.303574 0,-0.166966 -0.409826,-0.303573 -0.910723,-0.303573 -0.890483,0 -0.910722,0.03373 -0.910722,1.51787 v 1.517871 h 7.28578 7.28578 z m -8.955438,0 c 0.15452,-0.486851 0.459317,-0.607149 1.538329,-0.607149 0.740092,0 1.345626,-0.119423 1.345626,-0.265384 0,-0.145961 -0.613903,-0.248417 -1.364233,-0.227681 -0.750326,0.02073 -1.365063,0.167482 -1.366083,0.3261 -9.1e-4,0.158618 -0.165782,0.124466 -0.366141,-0.0759 -0.200359,-0.200359 -1.020009,-0.364289 -1.821445,-0.364289 -1.092867,0 -1.457156,0.113841 -1.457156,0.455361 0,0.252977 -0.269844,0.455361 -0.607148,0.455361 -0.337305,0 -0.607149,0.202384 -0.607149,0.455362 0,0.363921 0.453089,0.455361 2.256349,0.455361 1.989734,0 2.27912,-0.07175 2.449051,-0.607149 z m 2.883955,0.303574 c 0,-0.166966 -0.614738,-0.303574 -1.366084,-0.303574 -0.751346,0 -1.366084,0.136608 -1.366084,0.303574 0,0.166966 0.614738,0.303574 1.366084,0.303574 0.751346,0 1.366084,-0.136608 1.366084,-0.303574 z m 5.160761,-0.151787 c 0,-0.283335 -0.286708,-0.455362 -0.758936,-0.455362 -0.520483,0 -0.758875,-0.166913 -0.758747,-0.531254 1.6e-4,-0.448537 -0.234056,-0.51502 -1.504253,-0.42698 -0.827442,0.05735 -1.649537,0.2791 -1.826873,0.492777 -0.177336,0.213676 -0.237152,0.61073 -0.132922,0.882341 0.152861,0.398352 0.652806,0.493839 2.585616,0.493839 1.927496,0 2.396115,-0.08906 2.396115,-0.455361 z m -9.031332,-31.01383 c -0.208708,-0.08422 -0.550228,-0.08422 -0.758935,0 -0.208707,0.08422 -0.03795,0.153119 0.379468,0.153119 0.417414,0 0.588175,-0.0689 0.379467,-0.153119 z m 4.70894,-0.0075 c -0.290245,-0.07598 -0.836678,-0.07874 -1.214297,-0.0061 -0.377619,0.07261 -0.140149,0.13478 0.527715,0.13815 0.667863,0.0034 0.976826,-0.05604 0.686582,-0.132025 z m -2.578144,-0.29412 c -0.205529,-0.08316 -0.615353,-0.08822 -0.910723,-0.01123 -0.295368,0.07697 -0.127206,0.145004 0.373691,0.151192 0.500897,0.0062 0.742561,-0.05678 0.537032,-0.139945 z m 2.12502,-0.303574 c -0.205529,-0.08316 -0.615355,-0.08822 -0.910723,-0.01123 -0.295368,0.07697 -0.127206,0.145006 0.373691,0.151193 0.500897,0.0062 0.742561,-0.05679 0.537032,-0.139945 z m 1.961131,-0.287859 c -0.10087,-0.10087 -0.36271,-0.111656 -0.581851,-0.02396 -0.242171,0.09691 -0.170239,0.168843 0.18341,0.183408 0.320016,0.01318 0.499315,-0.05857 0.398441,-0.159443 z m -1.811581,-0.328768 c -0.290245,-0.07598 -0.836678,-0.07874 -1.214297,-0.0061 -0.377619,0.07261 -0.140149,0.13478 0.527715,0.13815 0.667863,0.0034 0.976826,-0.05604 0.686582,-0.132024 z m -3.045606,-0.581979 c -0.10088,-0.10088 -0.362711,-0.111658 -0.581851,-0.02395 -0.242171,0.09691 -0.170238,0.168841 0.183411,0.183407 0.320015,0.01318 0.499315,-0.05857 0.39844,-0.159444 z m 0.689366,25.557147 c 0,-0.236533 -0.158317,-0.482835 -0.351816,-0.547336 -0.2322,-0.0774 -0.157654,-0.344034 0.219254,-0.784232 0.314087,-0.36683 0.677316,-0.666961 0.807176,-0.666961 0.12986,0 0.236108,0.204913 0.236108,0.455361 0,0.250449 0.204913,0.455361 0.455362,0.455361 0.250448,0 0.455361,0.136609 0.455361,0.303575 0,0.166965 -0.204913,0.303574 -0.455361,0.303574 -0.250449,0 -0.455362,0.204912 -0.455362,0.45536 0,0.250449 -0.204912,0.455362 -0.455361,0.455362 -0.250449,0 -0.455361,-0.193528 -0.455361,-0.430064 z m -0.910723,-19.13214 c 0,-0.351864 0.318801,-0.473688 1.239594,-0.473688 0.855778,0 1.200996,0.117495 1.114936,0.379467 -0.06856,0.208708 -0.626377,0.421866 -1.239593,0.473688 -0.848098,0.07167 -1.114937,-0.01916 -1.114937,-0.379467 z m -9.714373,26.392622 c 0,-1.315488 -0.03373,-1.366084 -0.910723,-1.366084 -0.500897,0 -0.910722,0.136608 -0.910722,0.303574 0,0.166965 0.273216,0.303574 0.607148,0.303574 0.445243,0 0.607148,0.202384 0.607148,0.758936 v 0.758935 H 46.519352 39.84072 v -0.758935 c 0,-0.556552 0.161905,-0.758936 0.607149,-0.758936 0.333931,0 0.607148,-0.136609 0.607148,-0.303574 0,-0.166966 -0.409825,-0.303574 -0.910722,-0.303574 -0.876993,0 -0.910723,0.0506 -0.910723,1.366084 v 1.366084 h 7.28578 7.28578 z m -6.754525,0.237926 c -0.459157,-0.06956 -1.210502,-0.06956 -1.669659,0 -0.459155,0.06956 -0.08349,0.126466 0.83483,0.126466 0.918312,0 1.293985,-0.05691 0.834829,-0.126466 z m -1.22062,-1.180272 c -0.100881,-0.100871 -0.362711,-0.111658 -0.581852,-0.02395 -0.24217,0.09691 -0.170239,0.168842 0.18341,0.183407 0.320016,0.01318 0.499316,-0.05857 0.398442,-0.159442 z m -1.517871,-0.303575 c -0.100881,-0.10087 -0.362711,-0.111656 -0.581851,-0.02396 -0.242171,0.09691 -0.170239,0.168843 0.18341,0.183408 0.320016,0.01318 0.499315,-0.05857 0.398441,-0.159443 z m 3.501601,-0.333858 c -0.373378,-0.07205 -1.056421,-0.07392 -1.517872,-0.0041 -0.46145,0.06978 -0.155961,0.128735 0.678869,0.131014 0.834828,0.0021 1.212381,-0.05482 0.839003,-0.126869 z m 2.569882,-0.273289 c -0.10088,-0.100881 -0.36271,-0.111658 -0.581852,-0.02396 -0.242169,0.09691 -0.170237,0.168841 0.183411,0.183407 0.320015,0.01318 0.499316,-0.05857 0.398441,-0.159444 z m 42.962068,-0.01764 c -0.208708,-0.08422 -0.550228,-0.08422 -0.758936,0 -0.208707,0.08422 -0.03795,0.15312 0.379468,0.15312 0.417415,0 0.588175,-0.0689 0.379468,-0.15312 z M 48.720265,68.501895 c -0.208708,-0.08422 -0.550229,-0.08422 -0.758936,0 -0.208707,0.08422 -0.03795,0.15312 0.379468,0.15312 0.417414,0 0.588175,-0.0689 0.379468,-0.15312 z m 48.412802,-0.572714 c 1.130638,-0.425575 2.185643,-0.903704 2.344449,-1.062509 0.158809,-0.15881 0.186334,-0.288745 0.06117,-0.288745 -0.125167,0 -0.66477,0.230134 -1.199118,0.511404 -0.534348,0.281273 -1.791191,0.74967 -2.792985,1.040883 -1.001795,0.291212 -1.517194,0.539208 -1.145335,0.551105 0.371864,0.0119 1.601181,-0.326567 2.731822,-0.752138 z m -50.537822,0.26914 c -0.208706,-0.08422 -0.550228,-0.08422 -0.758935,0 -0.208707,0.08422 -0.03795,0.153119 0.379468,0.153119 0.417414,0 0.588175,-0.0689 0.379467,-0.153119 z m -2.125018,-0.303575 c -0.208708,-0.08422 -0.550229,-0.08422 -0.758936,0 -0.208707,0.08422 -0.03795,0.15312 0.379468,0.15312 0.417414,0 0.588174,-0.0689 0.379468,-0.15312 z m 5.317984,-0.01584 c -0.456166,-0.06927 -1.275816,-0.07066 -1.821444,-0.0031 -0.54563,0.06756 -0.172403,0.124237 0.829391,0.12594 1.001795,0.0018 1.448218,-0.05358 0.992053,-0.122844 z m 0.09047,-0.849215 c 0.929322,-0.09784 2.128052,-0.444484 2.663842,-0.77032 0.535791,-0.325832 1.107366,-0.942776 1.270173,-1.370983 0.174057,-0.457826 0.296006,-5.69217 0.296006,-12.705518 V 40.255916 l -1.584029,0.410894 c -0.929371,0.241074 -3.15634,0.408929 -5.388441,0.406149 -2.192535,-0.0027 -4.575076,-0.186006 -5.623353,-0.43257 -1.00042,-0.235302 -1.888375,-0.358459 -1.973232,-0.273681 -0.08486,0.08478 -0.154292,5.777921 -0.154292,12.651428 v 12.497282 l 1.439172,0.713896 c 0.858812,0.426013 2.327846,0.802408 3.64289,0.933385 1.212045,0.120716 2.545239,0.180195 2.962653,0.132176 0.417415,-0.04802 1.519289,-0.167361 2.448611,-0.265206 z m -4.666569,-3.37804 c -0.10677,-0.10677 -0.121475,-0.311682 -0.03268,-0.45536 0.0888,-0.143694 0.631519,-0.261247 1.206046,-0.261247 0.726144,0 1.044592,0.138818 1.044592,0.45536 0,0.313693 -0.314818,0.455362 -1.011912,0.455362 -0.556555,0 -1.099273,-0.08735 -1.206045,-0.19413 z M 46.382062,45.859 c -0.127185,-0.292191 -0.421543,-0.531256 -0.654129,-0.531256 -0.232583,0 -0.422882,-0.204911 -0.422882,-0.455361 0,-0.250449 0.190299,-0.45536 0.422882,-0.45536 0.232586,0 0.504837,-0.213571 0.605005,-0.474603 0.100162,-0.261031 0.321922,-0.388201 0.492792,-0.282597 0.17087,0.105605 0.232077,0.319172 0.136014,0.474603 -0.09606,0.155426 0.03832,0.282597 0.298622,0.282597 0.260303,0 0.473278,0.204911 0.473278,0.45536 0,0.25045 -0.194894,0.455361 -0.433102,0.455361 -0.238206,0 -0.490282,0.239065 -0.560168,0.531256 -0.121014,0.505957 -0.138078,0.505957 -0.358312,0 z m 49.92345,20.451502 c 0.918312,-0.351312 2.275319,-1.042162 3.015571,-1.535221 0.740247,-0.493059 1.478557,-0.814495 1.640667,-0.7143 0.16212,0.100194 0.20956,0.04431 0.10543,-0.124184 -0.10414,-0.168491 0.12396,-0.600675 0.50687,-0.960405 0.38292,-0.359725 0.81043,-0.550346 0.95003,-0.423594 0.13961,0.12675 0.15738,0.06262 0.0395,-0.142508 -0.11789,-0.205127 0.0869,-0.780349 0.45497,-1.278268 0.36812,-0.497919 0.80531,-0.82126 0.97152,-0.718533 0.16622,0.10272 0.22049,0.05455 0.12063,-0.10704 -0.0999,-0.161592 0.17017,-1.241414 0.60011,-2.399601 0.626,-1.686352 0.78171,-2.650006 0.78171,-4.837964 0,-2.18796 -0.15571,-3.151613 -0.78171,-4.837964 -0.42994,-1.158187 -0.69999,-2.238009 -0.60011,-2.399602 0.0999,-0.161595 0.0455,-0.209763 -0.12063,-0.107039 -0.16621,0.10273 -0.6034,-0.220614 -0.97152,-0.718533 -0.36813,-0.49792 -0.57286,-1.073141 -0.45497,-1.278269 0.1179,-0.205131 0.10019,-0.269259 -0.0395,-0.142507 -0.1396,0.126751 -0.56711,-0.06387 -0.95003,-0.423595 -0.38291,-0.35973 -0.61101,-0.791913 -0.50687,-0.960406 0.10413,-0.168492 0.0567,-0.224374 -0.10543,-0.124182 -0.16211,0.100193 -0.90042,-0.221243 -1.640667,-0.714302 -0.740252,-0.493059 -2.097259,-1.181865 -3.015571,-1.530678 -0.918312,-0.348813 -2.694221,-0.706231 -3.946464,-0.794265 -1.589584,-0.111749 -2.869107,-0.0081 -4.239131,0.343269 -1.079277,0.276833 -2.56284,0.838967 -3.296801,1.249187 -0.733963,0.41022 -1.459451,0.668615 -1.612193,0.574216 -0.152744,-0.0944 -0.243722,-0.05903 -0.202175,0.0786 0.04155,0.137634 -0.612206,0.94995 -1.452785,1.805145 -0.840582,0.855196 -1.925471,2.31343 -2.410864,3.240524 -0.485397,0.927093 -0.955279,1.641428 -1.04418,1.58741 -0.08891,-0.05402 -0.220668,0.400262 -0.29281,1.009512 -0.07214,0.609251 -0.131165,2.473812 -0.131165,4.143471 0,1.669657 0.05902,3.534218 0.131165,4.143471 0.07214,0.609249 0.217767,1.054962 0.323613,0.990474 0.105848,-0.0645 0.368576,0.307949 0.58384,0.827643 0.215265,0.519694 0.965543,1.724829 1.667287,2.67808 0.733904,0.996937 2.058601,2.255853 3.118457,2.963596 1.01341,0.676731 1.788182,1.284795 1.721718,1.35126 -0.06646,0.06647 0.111716,0.132143 0.395955,0.145949 0.284239,0.01381 1.268144,0.247745 2.186456,0.519859 1.164386,0.345033 2.450532,0.459241 4.250039,0.377394 1.640323,-0.07461 3.188652,-0.350063 4.250038,-0.756108 z m -7.437567,0.281692 c -0.66786,-0.143605 -1.793993,-0.493252 -2.502513,-0.777003 -0.736159,-0.294819 -1.203918,-0.652317 -1.091502,-0.834213 0.117366,-0.189898 0.04995,-0.227595 -0.167105,-0.09345 -0.200104,0.12367 -0.708485,-9.11e-4 -1.12973,-0.276982 -0.560893,-0.367509 -0.681613,-0.603395 -0.451002,-0.881263 0.232368,-0.279989 -0.07113,-0.759654 -1.158075,-1.830249 -0.906412,-0.89278 -1.552053,-1.322857 -1.67858,-1.118132 -0.113087,0.182976 -0.09509,0.348864 0.03999,0.368636 0.135079,0.01976 0.327138,0.02675 0.426799,0.01548 0.09967,-0.01127 0.692625,0.503293 1.317702,1.143427 0.828075,0.848029 1.031728,1.228637 0.750423,1.402491 -0.255239,0.157746 -0.887653,-0.306877 -1.86614,-1.371026 -0.814216,-0.885498 -1.40896,-1.794918 -1.322017,-2.02149 0.08693,-0.226521 0.0069,-0.379347 -0.177931,-0.339605 -0.184785,0.03974 -0.689748,-0.7474 -1.12214,-1.749194 -0.687802,-1.593549 -0.786166,-2.239254 -0.786166,-5.160761 0,-2.921506 0.09837,-3.567212 0.786166,-5.16076 0.432392,-1.001794 0.937355,-1.788932 1.12214,-1.749194 0.18479,0.03975 0.264857,-0.113085 0.177931,-0.339605 -0.08694,-0.226573 0.507801,-1.135993 1.322017,-2.021491 0.978487,-1.064149 1.610901,-1.528773 1.86614,-1.371027 0.281265,0.17383 0.07676,0.555378 -0.753276,1.405413 -0.626644,0.641743 -1.244324,1.101928 -1.372619,1.022637 -0.128297,-0.07929 -0.313238,-0.01478 -0.41098,0.143385 -0.09774,0.158153 -0.06151,0.359368 0.08053,0.447149 0.14203,0.08778 0.853037,-0.446457 1.580015,-1.187194 0.726979,-0.740736 1.352354,-1.555112 1.389724,-1.809727 0.03867,-0.263502 -0.08405,-0.386956 -0.284875,-0.286573 -0.194051,0.097 -0.02295,-0.113236 0.380254,-0.467194 0.403189,-0.353956 0.922565,-0.570841 1.154171,-0.481967 0.231603,0.08888 0.344074,0.03697 0.249939,-0.11535 -0.09414,-0.152314 0.574863,-0.556059 1.486669,-0.897206 0.911803,-0.341151 2.523118,-0.708925 3.5807,-0.817276 1.149249,-0.117745 2.646505,-0.04677 3.721497,0.176389 0.989242,0.205364 2.378197,0.65497 3.08656,0.999119 0.708366,0.34415 1.219276,0.736824 1.135358,0.872609 -0.08392,0.135783 0.04561,0.170827 0.28784,0.07787 0.242231,-0.09295 0.524774,-0.03252 0.627868,0.13429 0.1031,0.166811 0.04198,0.393198 -0.135822,0.503083 -0.224797,0.13893 -0.214982,0.330264 0.03222,0.628126 0.195517,0.235581 0.267525,0.428334 0.160017,0.428334 -0.107504,0 -0.725712,-0.350902 -1.373792,-0.77978 -0.648075,-0.428877 -1.840473,-0.982727 -2.649765,-1.230777 -0.809293,-0.24805 -2.502881,-0.454368 -3.763533,-0.458485 -1.549719,-0.0051 -2.866166,0.194284 -4.064537,0.615478 -0.974843,0.342629 -1.893456,0.548173 -2.04136,0.456764 -0.147904,-0.09141 -0.231378,-0.0024 -0.185502,0.197885 0.04587,0.200246 -0.10636,0.433036 -0.338308,0.517308 -0.29016,0.105425 -0.346006,0.02255 -0.179009,-0.265627 0.143299,-0.247289 0.129519,-0.315232 -0.03364,-0.165873 -0.151993,0.139141 -0.285347,0.344052 -0.296342,0.455361 -0.01099,0.111312 -0.707334,0.897487 -1.547421,1.74706 -0.840088,0.84957 -1.900025,2.306235 -2.355423,3.237032 -0.455395,0.930795 -0.980383,2.582014 -1.166642,3.669368 -0.25281,1.475907 -0.249049,2.458792 0.01485,3.877783 0.194418,1.045424 0.72384,2.660745 1.176493,3.589605 0.452654,0.928859 1.526966,2.378489 2.387359,3.221399 0.876986,0.859166 1.530946,1.760171 1.488323,2.05057 -0.04182,0.284904 0.05082,0.439615 0.205851,0.343798 0.155033,-0.09581 0.188933,-0.324591 0.07534,-0.508396 -0.12772,-0.206649 -0.04272,-0.263426 0.222729,-0.148776 0.236095,0.10198 1.248916,0.531774 2.25071,0.955109 1.44763,0.611728 2.336999,0.771172 4.333516,0.776898 1.713437,0.005 3.038443,-0.177798 4.167755,-0.574718 0.910625,-0.320061 2.055318,-0.866494 2.543765,-1.214297 0.488445,-0.347805 0.986176,-0.632372 1.106073,-0.632372 0.119894,0 0.05802,0.192751 -0.137498,0.428334 -0.247204,0.297861 -0.257018,0.489194 -0.03222,0.628126 0.177797,0.109884 0.238919,0.336271 0.135822,0.503082 -0.103089,0.166812 -0.385636,0.227241 -0.627867,0.134289 -0.242231,-0.09295 -0.368746,-0.05303 -0.28114,0.08872 0.08761,0.141748 -0.371563,0.497099 -1.020374,0.789672 -0.648808,0.292573 -1.349236,0.427141 -1.556501,0.299042 -0.228205,-0.141037 -0.299824,-0.108276 -0.181573,0.08306 0.107404,0.173781 -0.110553,0.400312 -0.484349,0.503402 -0.373795,0.10309 -1.635886,0.248879 -2.804647,0.323978 -1.16876,0.0751 -2.671453,0.01906 -3.339315,-0.124551 z m 3.263422,-0.228503 c -0.375673,-0.07236 -0.990411,-0.07236 -1.366084,0 -0.375672,0.07236 -0.0683,0.13156 0.683042,0.13156 0.751346,0 1.058715,-0.0592 0.683042,-0.13156 z m -1.619058,-0.588305 c 0.06957,-0.0595 -0.203649,-0.10609 -0.607148,-0.103533 -0.403501,0.0024 -0.938552,0.138975 -1.189,0.303151 -0.320368,0.21001 -0.140378,0.240701 0.607148,0.103533 0.58438,-0.107231 1.11943,-0.243648 1.189,-0.303149 z m 3.142709,-0.0037 c -0.205529,-0.08316 -0.615354,-0.08822 -0.910722,-0.01127 -0.295369,0.07697 -0.127207,0.145004 0.37369,0.151191 0.500898,0.0062 0.742561,-0.05678 0.537032,-0.139944 z m 3.377549,-0.763185 c -0.14269,-0.230878 -0.06044,-0.294121 0.235062,-0.18073 0.260847,0.100099 0.454566,0.0053 0.454566,-0.222423 0,-0.306946 -0.16243,-0.322851 -0.716954,-0.07019 -0.52457,0.23901 -0.612819,0.392752 -0.328873,0.572939 0.213445,0.135451 0.430297,0.248365 0.481893,0.250922 0.05159,0.0024 -0.005,-0.155175 -0.125694,-0.350517 z M 80.158566,58.862083 c -0.180563,-0.347844 -0.36122,-0.672489 -0.401461,-0.721431 -0.04024,-0.04894 -0.156779,0.128913 -0.258976,0.395235 -0.122481,0.319181 -0.06594,0.410138 0.165873,0.266866 0.227018,-0.140303 0.289852,-0.05621 0.177253,0.237212 -0.101853,0.265434 -0.0038,0.454567 0.235589,0.454567 0.31816,0 0.336469,-0.141694 0.08172,-0.632449 z m -0.911834,-2.158347 c -0.09347,-0.09347 -0.263213,0.07501 -0.377215,0.374406 -0.164743,0.432654 -0.129875,0.467523 0.169942,0.169942 0.207468,-0.205928 0.300741,-0.450881 0.207273,-0.544348 z m -0.341144,-1.414972 c -0.09691,-0.24217 -0.168842,-0.170238 -0.183407,0.18341 -0.01318,0.320016 0.05857,0.499316 0.159443,0.398442 0.10088,-0.100881 0.111657,-0.362711 0.02396,-0.581852 z m -0.296243,-2.747601 c -0.07261,-0.377618 -0.13478,-0.140147 -0.13815,0.527716 -0.0034,0.667863 0.05604,0.976825 0.132024,0.686581 0.07598,-0.290245 0.07874,-0.836678 0.0061,-1.214297 z m 0.296243,-2.109585 c -0.09691,-0.24217 -0.168842,-0.170238 -0.183407,0.183411 -0.01318,0.320015 0.05857,0.499316 0.159443,0.39844 0.10088,-0.10088 0.111657,-0.362709 0.02396,-0.581851 z m 0.133871,-1.541904 c -0.299817,-0.297582 -0.334685,-0.262713 -0.169942,0.16994 0.114002,0.299392 0.283748,0.467875 0.377215,0.374408 0.09346,-0.09347 1.95e-4,-0.338422 -0.207273,-0.544348 z m 1.119107,-1.614001 c 0.254747,-0.490755 0.236438,-0.632448 -0.08172,-0.632448 -0.239423,0 -0.337444,0.189133 -0.235589,0.454566 0.112599,0.293426 0.04976,0.377515 -0.177253,0.237213 -0.231819,-0.143272 -0.288354,-0.05231 -0.165873,0.266866 0.102201,0.266322 0.218736,0.444177 0.258976,0.395235 0.04024,-0.04894 0.220898,-0.373588 0.401461,-0.721432 z m 17.563629,-5.713669 c 0,-0.253985 -0.183817,-0.355883 -0.454566,-0.251984 -0.293426,0.112599 -0.377515,0.04976 -0.237212,-0.177254 0.145293,-0.235091 0.04935,-0.287214 -0.289394,-0.157228 -0.434084,0.166575 -0.403696,0.251596 0.211913,0.592915 0.395265,0.21915 0.730047,0.403298 0.74396,0.409211 0.01391,0.0059 0.02529,-0.18113 0.02529,-0.41566 z m -7.406493,-1.290578 c -0.205529,-0.08316 -0.615354,-0.08821 -0.910722,-0.01123 -0.295369,0.07697 -0.127207,0.145005 0.37369,0.151192 0.500898,0.0062 0.742561,-0.05679 0.537032,-0.139945 z m 3.333539,-0.0018 c -0.208707,-0.08422 -0.550228,-0.08422 -0.758935,0 -0.208708,0.08422 -0.03795,0.15312 0.379467,0.15312 0.417415,0 0.588175,-0.0689 0.379468,-0.15312 z M 92.13137,39.649287 c -0.375673,-0.07236 -0.99041,-0.07236 -1.366084,0 -0.375672,0.07236 -0.0683,0.13156 0.683043,0.13156 0.751345,0 1.058715,-0.0592 0.683041,-0.13156 z m 7.108031,24.297126 c -0.111672,-0.111676 0.03632,-0.476679 0.328874,-0.811117 0.383691,-0.438625 0.405024,-0.538151 0.07655,-0.357151 -0.250449,0.138004 -0.06032,-0.173575 0.422515,-0.692405 0.48283,-0.518829 0.96097,-0.933602 1.06252,-0.921724 0.10154,0.01187 0.25293,-0.0051 0.33641,-0.03758 0.0835,-0.03255 0.39086,-0.104939 0.68305,-0.160877 0.29219,-0.05594 0.53125,-0.0062 0.53125,0.110535 0,0.116727 -0.65358,0.855985 -1.4524,1.642795 -0.79883,0.786812 -1.527409,1.430565 -1.61907,1.430565 -0.09167,0 -0.258029,-0.09137 -0.369705,-0.203045 z m 1.740239,-1.264229 c 0.086,-0.139139 -0.0365,-0.25298 -0.2723,-0.25298 -0.23576,0 -0.3583,0.113841 -0.2723,0.25298 0.086,0.139034 0.20853,0.252875 0.2723,0.252875 0.0638,0 0.18631,-0.113841 0.2723,-0.252977 z m 0.43816,-2.082054 c 0.23128,-0.434098 0.56793,-0.624272 0.96854,-0.547125 0.34178,0.06583 0.53383,-0.01151 0.43315,-0.174406 -0.0994,-0.160961 -0.30804,-0.214063 -0.46347,-0.118 -0.15542,0.09606 -0.2826,0.114797 -0.2826,0.04164 0,-0.07316 0.37494,-0.935023 0.83321,-1.915255 0.73419,-1.570449 0.8332,-2.142978 0.8332,-4.817976 0,-2.674997 -0.099,-3.247527 -0.8332,-4.817976 -0.45827,-0.980335 -0.83321,-1.842198 -0.83321,-1.915359 0,-0.07316 0.15772,-0.03555 0.35049,0.08359 0.21888,0.135281 0.268,0.08316 0.13081,-0.138821 -0.12083,-0.195488 -0.33998,-0.281074 -0.48704,-0.19019 -0.14706,0.09088 -0.4332,-0.145956 -0.63587,-0.526303 -0.31211,-0.585708 -0.30283,-0.639437 0.0607,-0.351066 0.23604,0.187266 0.66978,0.301583 0.96385,0.25404 0.29407,-0.04754 0.67607,0.177736 0.84886,0.500621 0.17281,0.322887 0.21846,0.741957 0.10145,0.931271 -0.12437,0.201236 -0.0779,0.260871 0.11191,0.143573 0.19233,-0.118874 0.55165,0.387773 0.88172,1.243284 0.41916,1.086362 0.55711,2.270832 0.55711,4.783233 0,2.5124 -0.13795,3.696872 -0.55711,4.783232 -0.33007,0.855512 -0.68939,1.362159 -0.88172,1.243285 -0.1898,-0.117298 -0.23628,-0.05767 -0.11191,0.143572 0.117,0.189315 0.0713,0.608384 -0.10145,0.931272 -0.17279,0.322884 -0.55479,0.548163 -0.84886,0.50062 -0.29407,-0.04754 -0.72781,0.06678 -0.96385,0.254041 -0.36172,0.286963 -0.37345,0.235898 -0.0747,-0.324895 z m 2.68444,-5.007667 c -0.0969,-0.24217 -0.16884,-0.170239 -0.1834,0.18341 -0.0132,0.320016 0.0585,0.499316 0.15944,0.398441 0.10082,-0.100881 0.11166,-0.36271 0.024,-0.581851 z m 0.31621,-3.352852 c -0.0675,-0.545629 -0.12423,-0.172403 -0.12594,0.829391 -0.002,1.001796 0.0536,1.44822 0.12285,0.992053 0.0693,-0.456165 0.0707,-1.275815 0.003,-1.821444 z m -0.31621,-2.111482 c -0.0969,-0.242171 -0.16884,-0.170239 -0.1834,0.18341 -0.0132,0.320016 0.0585,0.499315 0.15944,0.398441 0.10082,-0.100881 0.11166,-0.36271 0.024,-0.581851 z m -2.51851,-5.159388 c -0.0877,-0.141861 -0.26567,-0.192254 -0.39555,-0.111986 -0.12988,0.08027 -0.62413,-0.259021 -1.09833,-0.753984 -0.474201,-0.495063 -0.751596,-0.90003 -0.616432,-0.90003 0.135166,0 0.08579,-0.192752 -0.10973,-0.428334 -0.265877,-0.320362 -0.267923,-0.482452 -0.0081,-0.643019 0.201294,-0.124407 0.973432,0.401969 1.836192,1.251751 0.81885,0.80654 1.48882,1.551258 1.48882,1.654932 0,0.103671 -0.21092,0.188498 -0.46872,0.188498 -0.25779,0 -0.54045,-0.116068 -0.62812,-0.257932 z m -0.42103,-1.343343 c 0,-0.0458 -0.12717,-0.161869 -0.28259,-0.257929 -0.15544,-0.09606 -0.35434,-0.05859 -0.44201,0.08328 -0.0877,0.141863 0.0395,0.257932 0.28259,0.257932 0.24311,0 0.44201,-0.03747 0.44201,-0.08328 z M 18.006732,64.476259 c 0.656966,-0.656965 0.887371,-1.175376 0.887371,-1.996582 0,-0.821208 -0.230405,-1.339618 -0.887371,-1.996584 -0.642751,-0.642751 -1.180286,-0.887371 -1.94994,-0.887371 -0.700235,0 -1.381066,0.267998 -1.996584,0.78592 -0.513708,0.432259 -0.934014,1.046997 -0.934014,1.366084 0,0.408489 0.213574,0.580163 0.721764,0.580163 0.396971,0 0.897559,-0.211818 1.112418,-0.47071 0.217392,-0.261939 0.738783,-0.43024 1.175575,-0.379467 0.597031,0.0694 0.807442,0.286191 0.879007,0.905652 0.06536,0.565729 -0.09014,0.913012 -0.509263,1.137317 -0.331843,0.177597 -0.81816,0.240472 -1.080703,0.139726 -0.262545,-0.100754 -0.477353,-0.305171 -0.477353,-0.454275 0,-0.1491 -0.409826,-0.271094 -0.910723,-0.271094 -0.566671,0 -0.910722,0.156386 -0.910722,0.413965 0,0.227681 0.360149,0.774114 0.800332,1.214297 0.593924,0.593925 1.108847,0.800331 1.996584,0.800331 0.917408,0 1.403096,-0.206844 2.083622,-0.887372 z m 99.659368,0.08704 c 0.44018,-0.440183 0.80034,-0.986616 0.80034,-1.214297 0,-0.246259 -0.32854,-0.413965 -0.81094,-0.413965 -0.446,0 -1.04937,0.2158 -1.34083,0.479555 -0.42317,0.382974 -0.66093,0.40943 -1.1805,0.131372 -0.46513,-0.248934 -0.62377,-0.580349 -0.5565,-1.162601 0.0715,-0.619461 0.28197,-0.836252 0.87901,-0.905652 0.43679,-0.05078 0.95818,0.117528 1.17557,0.379467 0.21486,0.258891 0.71544,0.47071 1.11241,0.47071 0.45484,0 0.72178,-0.177042 0.72178,-0.478712 0,-0.263293 -0.39932,-0.878031 -0.88737,-1.366084 -0.65698,-0.656967 -1.17538,-0.887371 -1.99659,-0.887371 -0.82121,0 -1.33962,0.230404 -1.99658,0.887371 -0.65698,0.656965 -0.88738,1.175376 -0.88738,1.996583 0,0.821207 0.2304,1.339618 0.88738,1.996582 0.68052,0.680529 1.16621,0.887372 2.08362,0.887372 0.88774,0 1.40266,-0.206406 1.99658,-0.80033 z M 16.709241,62.516926 c -0.05716,-0.400608 -0.350356,-0.681101 -0.774986,-0.74141 -0.375673,-0.05336 -0.683042,0.04911 -0.683042,0.227681 0,0.178578 0.239065,0.329032 0.531255,0.334342 0.498433,0.0091 0.49744,0.0353 -0.01609,0.4247 -0.404002,0.306351 -0.443753,0.451114 -0.151787,0.552774 0.217557,0.07575 0.573541,0.07216 0.791076,-0.008 0.217535,-0.08014 0.354144,-0.435686 0.303574,-0.790109 z m 99.252699,0.480711 c -0.29219,-0.05892 -0.53125,-0.233714 -0.53125,-0.388436 0,-0.154726 0.20492,-0.281316 0.45536,-0.281316 0.25045,0 0.45536,-0.14611 0.45536,-0.324688 0,-0.178577 -0.30597,-0.281034 -0.67993,-0.227681 -0.37568,0.0536 -0.72867,0.352425 -0.78881,0.667779 -0.0599,0.313926 0.063,0.676958 0.27294,0.806742 0.20999,0.129784 0.59911,0.15019 0.8647,0.04535 0.42278,-0.166893 0.41675,-0.20396 -0.0484,-0.297745 z M 78.179918,62.331304 c -0.08684,-0.332055 -0.28559,-0.524804 -0.441682,-0.428333 -0.167467,0.103501 -0.138084,0.350976 0.07168,0.603733 0.195516,0.235582 0.394272,0.428334 0.441682,0.428334 0.04741,0 0.01514,-0.271682 -0.07168,-0.603734 z m -1.718396,-0.341839 c -0.247319,-0.3531 -0.368461,-0.853639 -0.269198,-1.112311 0.118667,-0.309239 0.05884,-0.395135 -0.174689,-0.250807 -0.19534,0.120728 -0.355163,0.457337 -0.355163,0.748022 0,0.290685 0.16393,0.692447 0.364289,0.892805 0.200359,0.200359 0.481323,0.36429 0.624361,0.36429 0.143041,0 0.05772,-0.2889 -0.1896,-0.641999 z M 9.9654803,61.189487 c 0.1133637,-0.626122 0.4065767,-1.548229 0.6515847,-2.049126 0.245009,-0.500897 1.897874,-2.379262 3.673035,-4.174144 3.099786,-3.134224 3.190924,-3.263422 2.30205,-3.263422 -0.76724,0 -1.401994,0.485874 -3.711751,2.841171 -1.641376,1.673738 -3.0266188,3.388886 -3.3712512,4.174145 -0.3217573,0.733134 -0.6793163,1.845254 -0.7945757,2.471376 -0.1869854,1.015761 -0.1419949,1.138402 0.4176162,1.138402 0.4857122,0 0.6736678,-0.256775 0.833292,-1.138402 z m 1.3634807,-1.959105 c 0.200349,-0.383444 1.879411,-2.268165 3.731249,-4.188272 l 3.366979,-3.491103 -3.441922,3.339316 c -1.976117,1.917207 -3.683811,3.856445 -4.009914,4.553612 -0.312397,0.667863 -0.556026,1.624122 -0.541399,2.125019 0.02231,0.763828 0.06725,0.704902 0.278665,-0.365339 0.138639,-0.701837 0.415993,-1.589791 0.616342,-1.973233 z M 120.77237,59.78416 c -0.37448,-0.97855 -3.76771,-4.5231 -15.58293,-16.277866 L 90.085232,28.479375 105.0219,43.506294 c 10.2025,10.264141 15.08508,15.384645 15.40491,16.155571 0.25751,0.62076 0.48681,1.508715 0.50956,1.973232 0.0378,0.772832 0.0529,0.78322 0.17804,0.122294 0.0751,-0.397254 -0.0787,-1.285208 -0.34204,-1.973231 z m 2.07492,1.405327 C 122.73714,60.563365 122.38353,59.436345 122.06148,58.685 121.60558,57.621334 118.30443,54.143537 107.1495,42.975039 96.680999,32.493809 92.637948,28.631162 92.135687,28.631162 c -0.378047,0 -0.687358,0.100595 -0.687358,0.223548 0,0.122951 6.617825,6.850912 14.706281,14.951026 l 14.70628,14.727477 0.5222,1.897338 c 0.40459,1.470031 0.65083,1.897338 1.09333,1.897338 0.4932,0 0.54381,-0.155345 0.37087,-1.138402 z m -45.224551,0.248657 c 0.09606,-0.15543 0.03581,-0.368406 -0.133871,-0.473278 -0.169689,-0.104876 -0.308525,0.02228 -0.308525,0.282597 0,0.260302 0.06024,0.473278 0.133869,0.473278 0.07363,0 0.212466,-0.12717 0.308527,-0.282597 z m 0.736835,-1.349069 c -0.676139,-0.621965 -0.682654,-0.62247 -0.181347,-0.01409 0.285992,0.34708 0.535833,0.893513 0.555201,1.214297 0.03372,0.558528 0.0414,0.559123 0.181346,0.01409 0.08879,-0.345811 -0.129082,-0.822321 -0.5552,-1.214297 z M 39.989687,29.259839 C 61.71466,7.559068 61.860713,7.4209293 63.606585,6.9223479 c 1.163937,-0.3323927 2.188333,-0.4319095 3.035742,-0.294911 0.703452,0.113725 1.825437,0.4511603 2.4933,0.7498567 0.691575,0.3093009 2.518646,1.8644639 4.244343,3.6126964 1.666525,1.688288 3.166776,3.069614 3.333891,3.069614 0.167115,0 -1.128099,-1.444329 -2.878259,-3.209621 C 72.085445,9.0846918 70.107064,7.3452994 69.439201,6.9846677 68.484196,6.4689848 67.706321,6.3287561 65.796312,6.3279583 c -1.777264,-7.286e-4 -2.713553,0.149373 -3.491103,0.5597297 -0.584381,0.3084092 -2.985613,2.4580826 -5.336072,4.777053 -2.513959,2.480276 -4.514269,4.216307 -4.85817,4.216307 -0.368008,0 -7.107328,6.52345 -18.189943,17.607299 -15.819191,15.820951 -17.513327,17.607299 -16.698418,17.607299 0.795832,0 3.5846,-2.674697 22.767081,-21.835807 z M 62.9785,7.8484074 c 0.62076,-0.2570884 1.888774,-0.4674341 2.817812,-0.4674341 0.929036,0 2.183852,0.2066956 2.788474,0.4593233 0.604622,0.2526276 2.478601,1.7865429 4.164393,3.4086994 l 3.06508,2.949377 -2.883955,-2.986148 C 71.330577,9.5558108 69.505623,7.973293 68.832053,7.6584048 68.069435,7.3018888 66.940239,7.0907332 65.796312,7.0907332 c -1.147721,0 -2.270595,0.2107118 -3.035743,0.5696689 C 61.930294,8.049912 54.777877,15.03188 40.144295,29.737706 L 18.742316,51.245342 40.296082,29.780591 C 55.28205,14.856514 62.193767,8.1734069 62.9785,7.8484074 Z M 35.894256,50.033137 c 0,-1.03394 -0.03206,-1.062509 -1.192264,-1.062509 -0.926444,0 -1.332541,-0.178335 -1.821444,-0.799876 -0.34605,-0.43993 -0.629182,-1.129183 -0.629182,-1.531667 0,-0.402489 0.335313,-1.067106 0.745138,-1.476932 0.510909,-0.510912 1.083463,-0.745137 1.821445,-0.745137 h 1.076307 v -4.360885 c 0,-3.952119 0.05898,-4.435861 0.629182,-5.16076 l 0.629181,-0.799875 h 12.879869 12.879868 v -1.06251 c 0,-0.860125 0.115648,-1.062509 0.607149,-1.062509 0.333931,0 0.607148,-0.136608 0.607148,-0.303574 0,-0.166966 -0.341521,-0.303574 -0.758935,-0.303574 -0.605879,0 -0.758936,-0.152102 -0.758936,-0.754208 v -0.754207 l -8.575969,-0.08062 -8.57597,-0.08062 v -1.214295 -1.214297 l 8.57597,-0.08062 8.575969,-0.08062 v -0.754207 c 0,-0.602106 0.153057,-0.754208 0.758936,-0.754208 0.417414,0 0.758935,-0.120675 0.758935,-0.268167 0,-0.147493 -0.273217,-0.339616 -0.607148,-0.426942 -0.465061,-0.121616 -0.607149,-0.41408 -0.607149,-1.249702 v -1.09093 h 2.883956 2.883954 v 1.09093 c 0,0.835622 -0.142088,1.128086 -0.607149,1.249702 -0.333931,0.08732 -0.607148,0.347754 -0.607148,0.578729 0,0.306101 0.447803,0.419955 1.651741,0.419955 0.908458,0 1.736172,-0.136609 1.839362,-0.303575 0.103196,-0.166965 0.521079,-0.303574 0.92864,-0.303574 0.538635,0 0.741018,-0.165821 0.741018,-0.607148 0,-0.539688 0.202384,-0.607149 1.821445,-0.607149 1.740491,0 1.821445,-0.03373 1.821445,-0.758934 0,-0.556553 0.161905,-0.758936 0.607149,-0.758936 0.445242,0 0.607148,0.202383 0.607148,0.758936 0,0.725204 0.08095,0.758934 1.821445,0.758934 1.619061,0 1.821445,0.06746 1.821445,0.607149 0,0.522603 0.202384,0.607148 1.453388,0.607148 1.342345,0 1.567617,0.115971 2.948437,1.51787 1.233483,1.252314 1.68249,1.517871 2.566437,1.517871 1.055652,0 0.971119,-0.100352 -5.753965,-6.830418 l -6.825358,-6.830424 h -3.083015 -3.083014 l -0.107044,2.574649 c -0.101451,2.439992 -0.158954,2.626551 -1.099499,3.566996 -0.824256,0.824167 -1.221996,0.992347 -2.346862,0.992347 -1.124919,0 -1.522568,-0.16816 -2.346862,-0.992454 l -0.992455,-0.992454 v -4.515902 c 0,-4.086547 0.05772,-4.580642 0.607149,-5.196821 0.333931,-0.374504 1.06284,-0.873704 1.619796,-1.1093312 0.779703,-0.3298628 1.24081,-0.3531152 2.004484,-0.1010815 0.545512,0.180035 1.307969,0.6638418 1.694351,1.0751268 0.503754,0.5362199 0.741741,1.2208419 0.841168,2.4197819 l 0.138654,1.671993 h 2.763767 2.763767 L 72.336404,11.492539 C 70.621046,9.7682225 69.283908,8.7109121 68.263391,8.2718982 67.187625,7.8091151 66.339906,7.6573702 65.359489,7.7520867 64.597947,7.8256601 63.496738,8.1132378 62.912356,8.3911532 62.296071,8.684242 52.989489,17.757655 40.752262,29.996048 L 19.654676,51.095646 h 8.11979 8.11979 z M 77.749893,43.0955 c 0.647102,-1.360237 1.658942,-3.137919 2.248535,-3.9504 0.589592,-0.812483 2.245845,-2.748767 3.680563,-4.302858 1.434716,-1.554087 2.608577,-2.972605 2.608577,-3.152263 0,-0.207532 -0.940983,-0.32665 -2.580381,-0.32665 -2.550023,0 -2.58038,0.0089 -2.58038,0.758935 0,0.725205 -0.08095,0.758935 -1.821445,0.758935 -1.740491,0 -1.821445,0.03373 -1.821445,0.758935 0,0.556552 -0.161906,0.758936 -0.607148,0.758936 -0.441943,0 -0.607149,-0.202384 -0.607149,-0.743787 0,-0.692537 -0.120267,-0.750059 -1.745551,-0.834829 -1.512886,-0.07891 -1.757798,-0.176878 -1.837441,-0.735013 -0.07346,-0.51483 -0.371125,-0.682245 -1.484347,-0.834829 -0.765851,-0.10497 -1.919827,-0.190858 -2.564385,-0.190858 -0.83933,0 -1.171927,0.129234 -1.171927,0.455362 0,0.252978 0.269845,0.455361 0.607148,0.455361 0.491503,0 0.607149,0.202384 0.607149,1.062509 v 1.06251 h 2.861921 c 2.7302,0 2.890879,0.03682 3.491104,0.799875 0.591498,0.751968 0.630695,1.201956 0.654472,7.51346 0.02432,6.453329 0.04197,6.644702 0.455439,4.936707 0.236579,-0.977281 0.959592,-2.889798 1.606691,-4.250038 z m -44.724801,3.780379 c -0.0081,-0.651216 -0.117247,-1.121282 -0.242471,-1.044593 -0.125225,0.07669 -0.227681,0.393413 -0.227681,0.703836 0,0.310424 0.08291,0.780489 0.184267,1.044592 0.101346,0.264107 0.210459,0.480191 0.24247,0.480191 0.03202,0 0.05155,-0.532812 0.04341,-1.184026 z m 18.784422,-6.399878 c 0.989482,-0.162036 1.933835,-0.429384 2.09856,-0.59411 0.19695,-0.19695 0.01636,-0.407144 -0.527378,-0.613878 -0.454784,-0.172907 -1.576421,-0.402472 -2.492529,-0.510144 -1.3362,-0.157042 -1.64777,-0.112104 -1.575256,0.227204 0.06965,0.325926 -0.431166,0.443768 -2.182835,0.513623 -1.250278,0.04986 -2.587796,0.01172 -2.972263,-0.0848 -0.384468,-0.09649 -0.617079,-0.308048 -0.516915,-0.47012 0.104717,-0.169431 -0.277081,-0.294673 -0.898306,-0.294673 -0.594234,0 -1.080426,0.136607 -1.080426,0.303573 0,0.166966 -0.47813,0.303574 -1.06251,0.303574 -0.58438,0 -1.06251,0.118856 -1.06251,0.264123 0,0.145265 0.580585,0.416054 1.29019,0.60175 0.709605,0.185696 1.700016,0.387895 2.200913,0.449329 0.500898,0.06143 2.276806,0.131375 3.946465,0.155427 1.669657,0.02404 3.845319,-0.08886 4.8348,-0.250883 z m -3.772292,-1.675107 c 0,-0.344049 -0.371034,-0.45536 -1.51787,-0.45536 -1.146837,0 -1.517871,0.111311 -1.517871,0.45536 0,0.34405 0.371034,0.455361 1.517871,0.455361 1.146836,0 1.51787,-0.111311 1.51787,-0.455361 z m -6.67863,-0.151786 c 0,-0.166967 -0.341522,-0.303574 -0.758936,-0.303574 -0.640879,0 -0.758936,-0.14167 -0.758936,-0.910723 v -0.910723 h 15.937644 15.937644 v 0.910723 c 0,0.708339 -0.134921,0.910723 -0.607148,0.910723 -0.333932,0 -0.607149,0.136607 -0.607149,0.303574 0,0.166966 0.409825,0.303573 0.910723,0.303573 0.890483,0 0.910722,-0.03373 0.910722,-1.51787 V 35.91694 H 55.778364 39.233572 v 1.517871 1.51787 h 1.06251 c 0.58438,0 1.06251,-0.136607 1.06251,-0.303573 z m 2.784743,-0.494638 c 0.779888,-0.128958 1.066705,-0.310462 0.954136,-0.603809 -0.118126,-0.30783 -0.798473,-0.419424 -2.557063,-0.419424 -1.878152,0 -2.396113,0.09408 -2.396113,0.435198 0,0.241717 0.371144,0.49142 0.834828,0.561663 0.459156,0.06956 1.108046,0.145431 1.441977,0.168608 0.333933,0.0232 1.108939,-0.04082 1.722235,-0.142236 z m 3.819825,-0.947339 c 0.08755,-0.266512 -0.289516,-0.379468 -1.266724,-0.379468 -0.765259,0 -1.391381,0.11384 -1.391381,0.252977 0,0.139141 0.09757,0.350553 0.216832,0.469812 0.119256,0.119256 0.689282,0.176176 1.266723,0.126487 0.577441,-0.04969 1.105991,-0.261101 1.17455,-0.469808 z m 17.896071,-4.701859 c -0.07261,-0.377619 -0.134782,-0.140149 -0.138151,0.527714 -0.0034,0.667864 0.05604,0.976826 0.132024,0.686582 0.07598,-0.290244 0.07874,-0.836678 0.0061,-1.214296 z m 11.321112,0.983075 c 0,-0.333931 -0.136608,-0.607148 -0.303574,-0.607148 -0.166966,0 -0.303574,0.273217 -0.303574,0.607148 0,0.333932 0.136608,0.607149 0.303574,0.607149 0.166966,0 0.303574,-0.273217 0.303574,-0.607149 z M 65.34095,33.032986 c 0,-0.640878 -0.141669,-0.758935 -0.910722,-0.758935 -0.769054,0 -0.910723,0.118057 -0.910723,0.758935 0,0.640879 0.141669,0.758935 0.910723,0.758935 0.769053,0 0.910722,-0.118056 0.910722,-0.758935 z m 2.732167,0 c 0,-0.640878 -0.141668,-0.758935 -0.910721,-0.758935 -0.769055,0 -0.910723,0.118057 -0.910723,0.758935 0,0.640879 0.141668,0.758935 0.910723,0.758935 0.769053,0 0.910721,-0.118056 0.910721,-0.758935 z m 6.678632,-1.062509 c 0,-0.166966 -0.409825,-0.303574 -0.910722,-0.303574 -0.500898,0 -0.910723,0.136608 -0.910723,0.303574 0,0.166966 0.409825,0.303574 0.910723,0.303574 0.500897,0 0.910722,-0.136608 0.910722,-0.303574 z m 3.946464,0 c 0,-0.168652 -0.809532,-0.303574 -1.821444,-0.303574 -1.011913,0 -1.821446,0.134922 -1.821446,0.303574 0,0.168654 0.809533,0.303574 1.821446,0.303574 1.011912,0 1.821444,-0.13492 1.821444,-0.303574 z m 2.12502,0 c 0,-0.166966 -0.409826,-0.303574 -0.910723,-0.303574 -0.500897,0 -0.910723,0.136608 -0.910723,0.303574 0,0.166966 0.409826,0.303574 0.910723,0.303574 0.500897,0 0.910723,-0.136608 0.910723,-0.303574 z m 4.624715,-1.830343 C 84.902677,29.64413 84.193544,29.23831 83.8721,29.23831 c -0.321442,0 -0.668871,0.136608 -0.772062,0.303574 -0.103195,0.166966 -0.691839,0.305077 -1.308106,0.306915 -0.616268,0.0019 -1.632768,0.08802 -2.258889,0.191508 -0.669558,0.11067 -1.138404,0.359346 -1.138404,0.603806 0,0.331341 0.815819,0.413836 4.022358,0.406743 l 4.022358,-0.0089 -0.991407,-0.901823 z m 3.268213,0.675597 c 0,-0.134212 -0.478129,-0.707444 -1.06251,-1.273847 -0.58438,-0.566404 -1.062509,-0.939357 -1.062509,-0.828786 0,0.110572 0.230215,0.683803 0.511586,1.273847 0.308055,0.645998 0.73077,1.072809 1.062509,1.072809 0.30301,0 0.550924,-0.10981 0.550924,-0.244023 z M 63.119732,30.092112 c -0.09691,-0.242172 -0.168842,-0.170237 -0.183408,0.18341 -0.01318,0.320017 0.05857,0.499316 0.159443,0.39844 0.10087,-0.10088 0.111658,-0.362707 0.02395,-0.58185 z m 1.61407,0.208707 c 0,-0.252979 -0.269844,-0.455361 -0.607149,-0.455361 -0.337303,0 -0.607148,0.202382 -0.607148,0.455361 0,0.252978 0.269845,0.455361 0.607148,0.455361 0.337305,0 0.607149,-0.202383 0.607149,-0.455361 z M 77.180343,28.479375 V 26.202569 H 71.10886 c -5.194492,0 -6.071484,0.06577 -6.071484,0.45536 0,0.379469 0.607149,0.455362 3.64289,0.455362 h 3.64289 v 1.366084 1.366083 h -3.64289 c -3.035741,0 -3.64289,0.0759 -3.64289,0.455361 0,0.389587 0.876992,0.455361 6.071484,0.455361 h 6.071483 z m 0.526245,-1.130379 c -0.06413,-0.714018 -0.1175,-0.205347 -0.118603,1.130379 -0.0012,1.335725 0.05137,1.919923 0.116596,1.298214 0.06524,-0.621708 0.06613,-1.714575 0.0021,-2.428593 z m 3.951473,2.196229 c 0.942969,-0.0024 1.29019,-0.12589 1.29019,-0.458702 0,-0.333176 -0.386919,-0.470044 -1.441977,-0.510081 l -1.441977,-0.05472 1.441977,-0.113702 c 1.002627,-0.07906 1.441977,-0.247375 1.441977,-0.552429 0,-0.329409 -0.416033,-0.438728 -1.669657,-0.438728 -0.918312,0 -1.669658,-0.136609 -1.669658,-0.303575 0,-0.166965 -0.341521,-0.303574 -0.758936,-0.303574 -0.710918,0 -0.758935,0.09855 -0.758935,1.557592 v 1.557591 l 1.138404,-0.188167 c 0.626121,-0.103491 1.718988,-0.189669 2.428592,-0.191507 z M 46.121466,27.796333 c -0.07635,-0.29219 -0.138833,-0.05312 -0.138833,0.531254 0,0.58438 0.06248,0.823445 0.138833,0.531255 0.07635,-0.29219 0.07635,-0.770319 0,-1.062509 z m 25.898116,0.531254 V 27.416865 H 59.269467 46.519352 v 0.910722 0.910723 H 59.269467 72.019582 Z M 85.073271,26.961503 83.73256,25.59542 H 81.0636 c -2.170027,0 -2.668961,0.08513 -2.668961,0.455362 0,0.283336 0.286708,0.455361 0.758936,0.455361 0.417414,0 0.758935,0.136608 0.758935,0.303573 0,0.166966 0.648889,0.304126 1.441977,0.304799 0.793088,6.68e-4 2.12502,0.260888 2.959848,0.578253 0.834829,0.317366 1.648769,0.590032 1.808759,0.605924 0.159987,0.01589 -0.312432,-0.585842 -1.049823,-1.337189 z m 4.857187,1.28766 c 0,-0.04313 -3.107841,-3.150973 -6.906313,-6.906311 l -6.906312,-6.827888 6.82789,6.906312 c 3.755337,3.798471 6.863178,6.906311 6.906313,6.906311 0.04313,0 0.07842,-0.03529 0.07842,-0.07842 z m -3.64289,-6.144845 c -3.419745,-3.422798 -6.439606,-6.22327 -6.710808,-6.22327 -0.271201,0 -0.840433,-0.273217 -1.264957,-0.607148 -0.424525,-0.333931 -0.885787,-0.607148 -1.025025,-0.607148 -0.13924,0 2.81825,3.073688 6.572196,6.830417 5.865053,5.869402 6.953461,6.830418 7.735835,6.830418 0.838991,0 0.422305,-0.488606 -5.307241,-6.223269 z m -23.167836,4.344905 c -0.09691,-0.242171 -0.168842,-0.170238 -0.183408,0.183409 -0.01318,0.320018 0.05857,0.499316 0.159443,0.398441 0.10087,-0.100881 0.111658,-0.362708 0.02395,-0.58185 z m 1.61407,0.208706 c 0,-0.252977 -0.269844,-0.45536 -0.607149,-0.45536 -0.337303,0 -0.607148,0.202383 -0.607148,0.45536 0,0.252979 0.269845,0.455362 0.607148,0.455362 0.337305,0 0.607149,-0.202383 0.607149,-0.455362 z m 9.031332,-0.976371 c -0.459157,-0.06956 -1.210502,-0.06956 -1.669659,0 -0.459156,0.06956 -0.08349,0.126467 0.834829,0.126467 0.918312,0 1.293985,-0.05691 0.83483,-0.126467 z m 0.912606,-0.769179 c -0.06853,-0.208708 -0.489737,-0.422694 -0.936018,-0.475526 -0.575052,-0.06808 -0.811418,0.04246 -0.811418,0.379468 0,0.328835 0.288745,0.475525 0.93602,0.475525 0.612889,0 0.893006,-0.130999 0.811416,-0.379467 z m 4.020473,0.07589 c 0,-0.168653 -0.809532,-0.303574 -1.821444,-0.303574 -1.011913,0 -1.821446,0.134921 -1.821446,0.303574 0,0.168652 0.809533,0.303574 1.821446,0.303574 1.011912,0 1.821444,-0.134922 1.821444,-0.303574 z m 2.12502,-0.171951 c 0,-0.337004 -0.236366,-0.447544 -0.811418,-0.379468 -0.446281,0.05283 -0.867491,0.266818 -0.936019,0.475526 -0.08159,0.248468 0.198528,0.379467 0.811417,0.379467 0.647275,0 0.93602,-0.14669 0.93602,-0.475525 z M 65.859231,23.398047 c -0.07261,-0.377619 -0.134782,-0.140148 -0.138151,0.527715 -0.0034,0.667864 0.05604,0.976825 0.132024,0.686582 0.07598,-0.290244 0.07874,-0.836677 0.0061,-1.214297 z m -0.574011,0.300035 c 0.08631,-0.750107 0.0015,-0.834829 -0.834829,-0.834829 -0.836417,0 -0.930886,0.09447 -0.930886,0.930887 0,0.836417 0.08472,0.921138 0.83483,0.834828 0.65571,-0.07544 0.855438,-0.275175 0.930885,-0.930886 z m 2.787897,0.07589 c 0,-0.80953 -0.101187,-0.910722 -0.910721,-0.910722 -0.751709,0 -0.910723,0.123678 -0.910723,0.708339 0,0.389587 0.09107,0.799413 0.202384,0.910723 0.111308,0.111311 0.521133,0.202383 0.910721,0.202383 0.584661,0 0.708339,-0.159016 0.708339,-0.910723 z m 8.982275,-0.833291 c -0.09824,-0.09824 -0.263803,-0.09344 -0.367915,0.01066 -0.104103,0.104114 -0.08297,0.434247 0.04699,0.733638 0.225762,0.520133 0.242128,0.519658 0.367914,-0.01066 0.0724,-0.305258 0.05126,-0.635395 -0.04699,-0.733637 z m -9.262497,-2.482672 c 0.834291,-0.834292 0.887371,-1.034037 0.887371,-3.339315 0,-2.413025 -0.01205,-2.451946 -0.758936,-2.451946 -0.614351,0 -0.758934,0.14992 -0.758934,0.786947 0,0.43282 0.273216,1.134285 0.607147,1.55881 0.333933,0.424525 0.607149,1.10547 0.607149,1.513212 0,0.414618 -0.391086,1.132432 -0.887371,1.628718 -0.53495,0.534949 -1.20733,0.88737 -1.693009,0.88737 -0.48568,0 -1.15806,-0.352421 -1.693009,-0.88737 -0.496287,-0.496286 -0.887372,-1.2141 -0.887372,-1.628718 0,-0.407742 0.273217,-1.088687 0.607148,-1.513212 0.469068,-0.596323 0.607149,-1.231534 0.607149,-2.793064 0,-1.11166 0.141413,-2.285436 0.314254,-2.60839 0.17832,-0.333192 0.633307,-0.587191 1.05183,-0.587191 0.418521,0 0.87351,0.253999 1.05183,0.587191 0.172839,0.322954 0.314254,1.005996 0.314254,1.51787 0,0.790342 0.114441,0.93068 0.758934,0.93068 0.709872,0 0.758936,-0.09963 0.758936,-1.541223 0,-1.298691 -0.139639,-1.680862 -0.887371,-2.428593 -0.656965,-0.6569651 -1.175376,-0.8873706 -1.996583,-0.8873706 -0.821208,0 -1.339618,0.2304055 -1.996584,0.8873706 l -0.887372,0.887371 v 4.296741 4.296741 l 0.887372,0.887371 c 0.656966,0.656966 1.175376,0.88737 1.996584,0.88737 0.821207,0 1.339618,-0.230404 1.996583,-0.88737 z m -1.120663,-0.06273 c 0.413984,-0.188624 0.904712,-0.709938 1.090502,-1.158477 0.237037,-0.572255 0.244514,-1.060883 0.02508,-1.638057 -0.172003,-0.452394 -0.519692,-0.901953 -0.772646,-0.999021 -0.252956,-0.09707 -0.459917,-0.522484 -0.459917,-0.94537 0,-0.422885 -0.239065,-0.950358 -0.531255,-1.172163 -0.50396,-0.382559 -0.503065,-0.403775 0.01746,-0.412934 0.456636,-0.008 0.533046,-0.226148 0.455361,-1.299844 -0.07646,-1.056691 -0.203231,-1.290191 -0.700497,-1.290191 -0.545016,0 -0.616426,0.232599 -0.697795,2.272945 -0.06739,1.689776 -0.233686,2.429711 -0.64815,2.883954 -0.306628,0.336056 -0.644989,0.900335 -0.751913,1.253955 -0.106926,0.353619 -0.05632,1.006177 0.11248,1.450126 0.168789,0.443949 0.616246,0.931463 0.994348,1.083363 0.378099,0.151901 0.783485,0.284842 0.900853,0.295426 0.117368,0.01058 0.55211,-0.135087 0.966097,-0.323712 z m -44.059345,76.94616 c -0.208708,-0.08422 -0.379469,-0.421733 -0.379469,-0.750043 0,-0.328309 0.208423,-0.999967 0.463158,-1.492574 0.254734,-0.492606 0.603043,-0.895647 0.77402,-0.895647 0.20192,0 0.210904,0.178614 0.02565,0.509667 -0.210765,0.376612 -0.124899,0.639492 0.328901,1.006956 0.516407,0.418164 0.557693,0.602737 0.259459,1.15999 -0.195068,0.364486 -0.520621,0.651917 -0.723454,0.638735 -0.202833,-0.01318 -0.539548,-0.09287 -0.748256,-0.177084 z m 0.880364,-0.861457 c 0,-0.158619 -0.146853,-0.337347 -0.326342,-0.397176 -0.179488,-0.05983 -0.326342,0.118898 -0.326342,0.397176 0,0.278276 0.146854,0.457005 0.326342,0.397174 0.179489,-0.05982 0.326342,-0.238557 0.326342,-0.397174 z m 86.857819,-5.07022 c -0.18869,-0.231609 -0.23821,-0.894818 -0.12008,-1.608414 0.17163,-1.036682 0.31128,-1.214297 0.95481,-1.214297 0.70216,0 0.75378,0.103956 0.75378,1.517871 0,1.307782 -0.0877,1.530401 -0.63371,1.608414 -0.34854,0.0498 -0.7782,-0.08682 -0.9548,-0.303574 z m 1.13316,-0.697693 c 0,-0.250448 -0.12855,-0.45536 -0.28566,-0.45536 -0.15712,0 -0.35832,0.117553 -0.44711,0.261231 -0.0888,0.143678 -0.0741,0.348591 0.0327,0.455361 0.10677,0.10677 0.30796,0.19413 0.44711,0.19413 0.13914,0 0.25297,-0.204913 0.25297,-0.455362 z m 0,-1.366083 c 0,-0.166965 -0.13662,-0.303574 -0.30358,-0.303574 -0.16697,0 -0.30357,0.136609 -0.30357,0.303574 0,0.166966 0.1366,0.303574 0.30357,0.303574 0.16696,0 0.30358,-0.136608 0.30358,-0.303574 z m 2.12501,-3.500853 c 0,-0.08884 0.20492,-0.651962 0.45537,-1.251369 0.25045,-0.59941 0.45536,-1.150662 0.45536,-1.225003 0,-0.07435 -0.27322,-0.04845 -0.60715,0.05753 -0.43087,0.136751 -0.60715,0.05455 -0.60715,-0.283117 0,-0.344098 0.30313,-0.475819 1.09499,-0.475819 0.75412,0 1.048,0.11813 0.94403,0.379468 -0.0831,0.208707 -0.38569,0.960053 -0.67259,1.669658 -0.28689,0.709605 -0.64341,1.29019 -0.79224,1.29019 -0.14884,0 -0.27062,-0.0727 -0.27062,-0.161538 z M 16.984272,83.388501 c -0.118353,-0.118353 -0.215189,-0.338235 -0.215189,-0.488623 0,-0.15039 0.273217,-0.186723 0.607149,-0.08074 0.467163,0.148271 0.607148,0.05455 0.607148,-0.406483 0,-0.449726 -0.151445,-0.559581 -0.607148,-0.440413 -0.511238,0.133691 -0.607149,0.0093 -0.607149,-0.787355 0,-0.848873 0.09362,-0.946129 0.910723,-0.946129 0.500898,0 0.910723,0.136609 0.910723,0.303575 0,0.166965 -0.273217,0.303574 -0.607149,0.303574 -0.333931,0 -0.607148,0.136608 -0.607148,0.303574 0,0.166966 0.102455,0.287396 0.227681,0.267625 0.125224,-0.01976 0.407096,-0.01976 0.626382,0 0.261918,0.02362 0.366066,0.374431 0.303574,1.022565 -0.06967,0.722639 -0.260916,1.010349 -0.714768,1.075314 -0.340803,0.04878 -0.716475,-0.0081 -0.834829,-0.126488 z M 2.1975231,61.39925 c 0,-0.744169 -0.1202364,-1.157902 -0.3035743,-1.044593 -0.1669658,0.103195 -0.3035742,-0.01075 -0.3035742,-0.253177 0,-0.242441 0.2160854,-0.523721 0.4801898,-0.625065 0.2641046,-0.101346 0.5373213,-0.184267 0.6071483,-0.184267 0.069827,0 0.1269587,0.751346 0.1269587,1.669657 0,0.918312 -0.1366084,1.669659 -0.3035742,1.669659 -0.1669657,0 -0.3035741,-0.554497 -0.3035741,-1.232214 z m 128.1082969,0 c 0,-0.744169 -0.12023,-1.157902 -0.30357,-1.044593 -0.16696,0.103195 -0.30357,0.07028 -0.30357,-0.07315 0,-0.143427 0.16393,-0.424706 0.36428,-0.625065 0.20036,-0.200359 0.47358,-0.364289 0.60716,-0.364289 0.13357,0 0.24285,0.751346 0.24285,1.669658 0,0.918311 -0.1366,1.669658 -0.30357,1.669658 -0.16697,0 -0.30358,-0.554496 -0.30358,-1.232214 z M 5.7392218,51.196837 c -0.1113107,-0.111309 -0.202383,-0.401252 -0.202383,-0.644318 0,-0.352504 0.089458,-0.367692 0.4420632,-0.07505 0.2431347,0.201782 0.5912893,0.274652 0.7736764,0.161929 0.2352934,-0.145418 0.2376342,-0.318185 0.00806,-0.594805 C 6.5826845,49.830172 6.5284118,49.416744 6.6400327,49.125866 6.8084307,48.687024 6.7256907,48.634221 6.1539923,48.81567 5.6450116,48.977214 5.500826,48.926882 5.6021129,48.623022 c 0.07541,-0.226229 0.4649278,-0.411325 0.8655962,-0.411325 0.6140158,0 0.7600751,0.190809 0.9295095,1.214297 0.1146686,0.692671 0.068311,1.377304 -0.1079158,1.593764 -0.1699141,0.208708 -0.5426573,0.379467 -0.8283172,0.379467 -0.28566,0 -0.610454,-0.09107 -0.7217643,-0.202383 z M 110.87708,28.327587 c 0,-0.166965 -0.27322,-0.303574 -0.60715,-0.303574 -0.33394,0 -0.60715,-0.131973 -0.60715,-0.293275 0,-0.161301 0.23021,-0.776038 0.51159,-1.366083 0.28137,-0.590045 0.63751,-1.072809 0.79141,-1.072809 0.15391,0 0.18142,0.239065 0.0611,0.531255 -0.12029,0.29219 -0.27303,0.804471 -0.33942,1.138402 -0.0664,0.333932 -0.0395,0.436388 0.0597,0.227682 0.0992,-0.208708 0.29106,-0.379469 0.42624,-0.379469 0.1352,0 0.32444,0.204913 0.42054,0.455362 0.0961,0.250448 0.0961,0.660274 0,0.910722 -0.0961,0.250449 -0.29672,0.455362 -0.44584,0.455362 -0.14909,0 -0.27108,-0.136609 -0.27108,-0.303575 z m -5.76791,-15.196621 c 0,-0.744172 -0.12024,-1.157903 -0.30358,-1.044594 -0.16697,0.103195 -0.30357,0.07027 -0.30357,-0.07315 0,-0.143426 0.16393,-0.424705 0.36429,-0.625064 0.20035,-0.200359 0.47357,-0.364289 0.60714,-0.364289 0.13358,0 0.24286,0.751346 0.24286,1.669657 0,0.918312 -0.1366,1.669658 -0.30357,1.669658 -0.16696,0 -0.30357,-0.554496 -0.30357,-1.232212 z"
       id="path45" />
  </g>
</svg>
