<?xml version="1.0" encoding="UTF-8" standalone="no"?>
<svg
   xmlns:dc="http://purl.org/dc/elements/1.1/"
   xmlns:cc="http://creativecommons.org/ns#"
   xmlns:rdf="http://www.w3.org/1999/02/22-rdf-syntax-ns#"
   xmlns:svg="http://www.w3.org/2000/svg"
   xmlns="http://www.w3.org/2000/svg"
   xmlns:sodipodi="http://sodipodi.sourceforge.net/DTD/sodipodi-0.dtd"
   xmlns:inkscape="http://www.inkscape.org/namespaces/inkscape"
   width="150mm"
   height="150mm"
   viewBox="0 0 150 150"
   version="1.1"
   id="svg8"
   inkscape:version="1.0.2 (e86c870879, 2021-01-15, custom)"
   sodipodi:docname="201022a.svg">
  <defs
     id="defs2" />
  <sodipodi:namedview
     id="base"
     pagecolor="#ffffff"
     bordercolor="#666666"
     borderopacity="1.0"
     inkscape:pageopacity="0.0"
     inkscape:pageshadow="2"
     inkscape:zoom="0.7"
     inkscape:cx="428.91141"
     inkscape:cy="340.83946"
     inkscape:document-units="mm"
     inkscape:current-layer="layer1"
     inkscape:document-rotation="0"
     showgrid="false"
     inkscape:window-width="1368"
     inkscape:window-height="850"
     inkscape:window-x="-6"
     inkscape:window-y="-6"
     inkscape:window-maximized="1" />
  <metadata
     id="metadata5">
    <rdf:RDF>
      <cc:Work
         rdf:about="">
        <dc:format>image/svg+xml</dc:format>
        <dc:type
           rdf:resource="http://purl.org/dc/dcmitype/StillImage" />
        <dc:title></dc:title>
      </cc:Work>
    </rdf:RDF>
  </metadata>
  <g
     inkscape:label="Ebene 1"
     inkscape:groupmode="layer"
     id="layer1">
    <path
       id="path24"
       style="fill:#000000;stroke:none;stroke-width:0.288103"
       d="M 76.193359,7.2558594 C 65.970186,7.6189345 56.255672,12.631897 49.275391,19.982422 42.985958,26.662954 38.777987,35.133536 36.53125,43.986328 c -3.240006,13.167261 -1.662689,27.350196 3.920755,39.666707 1.524659,3.333766 2.611233,6.941205 4.948544,9.834531 4.917671,6.106719 11.744757,10.705364 19.316248,12.787824 0.695685,0.17575 1.395583,0.3361 2.103515,0.45313 0,0.98502 10e-7,1.97005 0,2.95507 -2.407684,0.0712 -5.076286,0.0978 -7.065247,1.64836 -1.384705,1.2683 -1.09361,3.30749 -1.039611,4.99086 0.089,3.87217 0.01708,7.8349 0.03064,11.65375 -5.777747,1.11267 -11.387811,3.2788 -16.298603,6.53218 -1.73746,1.29917 -3.422063,3.25435 -3.2346,5.56353 0.279473,1.87451 2.122253,3.00721 3.856323,3.31987 5.12941,1.2041 10.375517,1.95249 15.648067,2.06966 4.539572,0.069 9.079773,0.12147 13.617754,0.2821 11.86401,0.33504 23.906108,0.6379 35.548555,-2.04404 1.80683,-0.46617 3.67184,-0.84766 5.35976,-1.65757 2.00409,-1.09608 3.32615,-3.73941 2.23712,-5.90752 -1.10138,-2.19803 -3.35414,-3.48855 -5.46948,-4.55606 -3.17271,-1.49178 -6.58677,-2.38719 -9.97779,-3.22129 -1.213318,-0.24204 -2.600886,-0.26927 -3.591794,-1.08203 -0.433502,-1.0685 0.0048,-2.2437 -0.140793,-3.35896 -0.03413,-3.37018 -0.357296,-6.73834 -0.208271,-10.1084 0.03333,-1.31157 -0.653006,-2.66844 -1.941191,-3.12675 -2.206824,-1.06928 -4.792726,-0.76564 -7.114042,-0.76917 0.01105,-1.09262 -0.372684,-2.37214 0.350572,-3.30729 1.731147,-1.2312 3.996732,-1.16343 5.848483,-2.15072 5.96034,-2.551 11.711986,-6.251601 15.310156,-11.77332 2.38683,-3.641189 4.12985,-7.649774 6.00104,-11.567729 2.38381,-5.26876 3.95852,-10.949423 4.1588,-16.749069 0.63897,-12.17649 -2.21081,-24.50241 -8.03947,-35.203814 C 106.44381,21.499587 100.26491,14.69917 92.35251,10.779739 87.366166,8.2974387 81.764314,7.0459162 76.193359,7.2558594 Z m 1.996094,2.7968746 c 5.186923,0.08637 10.236671,1.870673 14.638174,4.454383 7.534093,4.292618 13.181393,11.318363 16.916903,19.048734 4.12712,8.542553 6.18262,18.069071 6.06997,27.549152 -0.10157,4.810849 -0.68456,9.610443 -1.97546,14.276428 -0.85954,2.903065 -2.01203,5.832574 -4.03399,8.129927 -2.26337,2.169652 -5.28995,3.207076 -8.00633,4.659946 -7.916467,3.847093 -16.644285,6.269887 -25.49207,6.147829 C 68.213082,94.318536 60.059124,92.52133 52.620224,89.243661 50.009645,88.150036 47.089802,87.171835 45.066406,85.214844 41.871843,81.784765 40.186011,77.248842 39.128714,72.753932 37.867284,67.102478 37.62136,61.328712 37.986881,55.542206 38.331213,50.522889 39.265162,45.507295 40.754722,40.788481 43.570008,31.8306 48.624375,23.357914 56.116048,17.550908 c 4.340291,-3.411089 9.472425,-5.908615 14.958247,-6.741608 2.351868,-0.387372 4.73196,-0.683318 7.115158,-0.756566 z m -2.582031,7.041016 c -7.780643,0.346523 -15.290998,4.225811 -20.137196,10.312596 -5.651651,6.901337 -8.326823,15.876687 -8.565297,24.706852 -0.259429,8.768546 2.132469,17.754103 7.485354,24.787932 4.582797,6.11425 11.446001,10.733244 19.109426,11.735955 8.512164,1.194085 17.565563,-1.938197 23.332485,-8.357707 5.540546,-6.010191 8.425766,-14.066206 9.288536,-22.103001 0.88766,-8.387753 -0.26817,-17.146213 -4.16633,-24.690129 C 97.895445,25.791658 90.647676,19.583114 82.064144,17.669316 79.949588,17.192153 77.772625,17.008623 75.607422,17.09375 Z m 0.867187,2.996094 c 6.604094,-0.137091 12.946861,3.018736 17.520103,7.659637 3.409048,3.415054 5.984239,7.750645 7.434978,12.272003 1.1152,3.544988 1.80096,7.452445 1.92259,11.229427 0.25828,7.577518 -1.27946,15.377736 -5.166142,22.008674 -2.450093,4.142262 -5.902708,7.724247 -10.240793,9.920587 C 81.63874,86.44338 73.820192,86.822099 67.35971,83.76518 61.068796,80.891671 56.155173,75.384431 53.295031,69.237458 49.51278,61.049713 49.056368,51.549339 51.21812,42.857688 c 1.917087,-7.615566 6.202129,-14.897641 12.978046,-19.086056 3.669941,-2.289195 7.960947,-3.539789 12.278443,-3.681788 z m 31.693361,67.970703 c -1.73984,3.523019 -4.33262,6.404866 -7.40685,8.830737 -4.258843,3.328176 -9.232228,5.798216 -14.567761,6.833326 -0.691499,0.13171 -1.389245,0.22503 -2.085937,0.32422 0,5.71354 0,11.42708 0,17.14062 -4.672526,0 -9.345052,0 -14.017578,0 0.03171,-3.98317 -0.102308,-7.96717 -0.253698,-11.94468 0.109522,-1.5859 0.339021,-3.6883 -1.126829,-4.82459 -2.566052,-1.953 -6.002179,-1.89455 -8.793266,-3.38597 -4.943573,-2.553791 -9.860963,-5.670878 -13.056372,-10.342739 -0.369589,-0.55055 -0.712938,-1.118778 -1.008117,-1.712955 6.075041,2.568139 11.907022,5.933376 18.45727,7.173096 9.256773,2.032755 18.996141,1.253476 27.99572,-1.597995 5.518081,-1.705268 10.820578,-4.043541 15.951308,-6.68057 -0.0293,0.0625 -0.0586,0.125 -0.0879,0.1875 z M 66.820312,121.95898 c 0.149544,1.6936 0.30779,3.38683 0.462891,5.08008 1.971396,0.24537 4.021918,0.65989 5.966797,0.60547 -2.999415,2.73545 -2.927819,8.05293 0.07617,10.75586 -9.77755,-0.14853 -19.516882,-0.74854 -29.265625,-1.49609 2.377846,-2.01466 5.423917,-2.97385 8.329454,-3.95622 2.219141,-0.74801 4.526404,-1.1857 6.764179,-1.86015 1.268606,-0.4177 2.442497,-1.41024 2.588537,-2.80779 0.265633,-1.66943 -0.127104,-3.29253 -0.0083,-4.96061 0,-3.225 0,-6.45 0,-9.675 1.695313,-0.27148 3.390625,-0.54297 5.085937,-0.81445 0,3.04297 0,6.08594 0,9.1289 z m 22.09961,-9.125 c 1.347891,0.0503 2.869004,-0.11898 4.011719,0.74805 0.412967,1.22065 -0.05249,2.52759 0.165934,3.78243 0.171852,3.3565 0.259499,6.71898 0.18239,10.07809 0.08133,1.39055 1.08174,2.62715 2.431029,2.98272 2.07205,0.73874 4.304496,0.83174 6.391656,1.52917 3.18868,0.86541 6.47404,1.83313 9.0868,3.94595 -6.78536,2.07814 -13.908278,1.96695 -20.920435,2.2885 -3.190491,0.12607 -6.382684,0.21948 -9.575656,0.2447 2.555365,-2.16464 2.861685,-6.11063 1.472186,-9.00707 -0.320491,-0.6685 -0.747599,-1.28902 -1.280779,-1.80543 1.978862,0.0457 3.892494,-0.53036 5.839843,-0.79101 0.283069,-3.08589 0.446289,-6.18167 0.363282,-9.28086 0,-1.54896 0,-3.09792 0,-4.64688 0.61066,-0.0231 1.22132,-0.0472 1.832031,-0.0684 z m -4.828125,11.33594 c 0.326822,0.83173 -0.798936,0.35193 -1.253125,0.47656 -4.244401,0 -8.488802,0 -12.733203,0 -0.326822,-0.83173 0.798936,-0.35193 1.253125,-0.47656 4.244401,0 8.488802,0 12.733203,0 z m -6.628906,5.09766 c 1.849402,0.2485 2.654763,2.35215 2.509765,4.01172 -0.04749,1.605 -1.136895,3.44603 -2.920285,3.42029 -1.605784,0.0524 -2.793465,-1.46713 -2.897183,-2.9726 -0.28997,-1.73213 0.412869,-3.98296 2.307703,-4.42426 0.33001,-0.066 0.666081,-0.0579 1,-0.0351 z m 34.712889,9.42773 c -1.27807,1.62223 -3.48293,1.96341 -5.39486,2.31977 -3.58798,0.53438 -7.225443,0.59087 -10.827902,0.99991 -11.893947,1.03348 -23.905481,1.65047 -35.800491,0.61554 -3.949636,-0.40124 -7.902631,-0.79282 -11.839253,-1.30864 -1.721489,-0.29111 -3.491995,-0.50349 -5.12968,-1.12267 -0.817565,-0.46083 -0.06799,-0.44407 0.463718,-0.36296 6.38729,0.44529 12.709268,1.68174 19.125835,1.72394 16.522972,0.60555 33.192621,0.19852 49.463183,-2.96254 l -0.0527,0.085 z" />
  </g>
</svg>
