<?xml version="1.0" encoding="UTF-8" standalone="no"?>
<svg
   xmlns:dc="http://purl.org/dc/elements/1.1/"
   xmlns:cc="http://creativecommons.org/ns#"
   xmlns:rdf="http://www.w3.org/1999/02/22-rdf-syntax-ns#"
   xmlns:svg="http://www.w3.org/2000/svg"
   xmlns="http://www.w3.org/2000/svg"
   xmlns:sodipodi="http://sodipodi.sourceforge.net/DTD/sodipodi-0.dtd"
   xmlns:inkscape="http://www.inkscape.org/namespaces/inkscape"
   width="500"
   height="500"
   viewBox="0 0 132.29166 132.29167"
   version="1.1"
   id="svg8"
   inkscape:version="1.0.2 (e86c870879, 2021-01-15, custom)"
   sodipodi:docname="icon.svg">
  <defs
     id="defs2" />
  <sodipodi:namedview
     id="base"
     pagecolor="#ffffff"
     bordercolor="#666666"
     borderopacity="1.0"
     inkscape:pageopacity="0.0"
     inkscape:pageshadow="2"
     inkscape:zoom="0.98994949"
     inkscape:cx="228.41506"
     inkscape:cy="231.17066"
     inkscape:document-units="mm"
     inkscape:current-layer="layer1"
     inkscape:document-rotation="0"
     showgrid="false"
     units="px"
     inkscape:window-width="1368"
     inkscape:window-height="850"
     inkscape:window-x="-6"
     inkscape:window-y="-6"
     inkscape:window-maximized="1" />
  <metadata
     id="metadata5">
    <rdf:RDF>
      <cc:Work
         rdf:about="">
        <dc:format>image/svg+xml</dc:format>
        <dc:type
           rdf:resource="http://purl.org/dc/dcmitype/StillImage" />
        <dc:title></dc:title>
      </cc:Work>
    </rdf:RDF>
  </metadata>
  <g
     inkscape:label="Ebene 1"
     inkscape:groupmode="layer"
     id="layer1">
    <path
       id="path750"
       style="fill:#000000;stroke-width:0.178696"
       d="m 38.715921,2.5512059 c 0.02127,41.4406171 -0.0579,82.8814801 0.08919,124.3219141 8.18e-4,0.94801 0.02187,1.89582 0.03964,2.84362 7.934857,0.17018 15.87414,0.10058 23.810849,0.13596 11.489172,-0.0187 22.979532,0.0695 34.46788,-0.0811 0.819092,-0.12885 1.96322,0.18282 2.48464,-0.64701 0.146218,-8.51686 0.102052,-17.03726 0.144565,-25.55559 0.05305,-32.616765 0.108244,-65.233889 -0.01322,-97.8505338 -0.0091,-1.0626137 -0.0047,-2.1258789 -0.05451,-3.1876164 C 98.893595,1.8029469 97.689154,2.1692487 96.715265,2.0178371 79.582344,1.8730502 62.448207,1.9663959 45.314779,1.9387357 h -6.598858 z m 30.363605,1.5051855 h 28.426752 c -0.02063,29.1476516 0.04982,58.2955846 -0.06142,87.4430366 -0.02167,1.757631 -0.01698,3.517473 -0.114858,5.272744 -1.199225,0.0746 -2.401682,0.04877 -3.6025,0.05424 -0.02193,-19.578954 0.04882,-39.15826 -0.04947,-58.736979 -0.106049,-1.406819 0.130327,-2.891983 -0.314396,-4.245747 -0.327381,-0.447509 -0.69099,-0.994985 -1.323479,-0.813613 -14.505565,0.02402 -29.011781,-0.05347 -43.516918,0.056 -1.080753,0.1179 -2.3042,-0.157341 -3.282584,0.398277 -0.741913,0.767096 -0.431275,1.976493 -0.548686,2.948818 -0.144396,13.043728 -0.04472,26.089128 -0.08701,39.133531 -0.01905,7.070715 -0.0018,14.142126 -0.08978,21.212263 -1.229565,0.06226 -2.468629,0.08108 -3.695161,-0.0339 -0.201965,-9.485495 -0.115147,-18.975161 -0.155941,-28.46246 -0.01487,-21.408731 -0.0072,-42.817468 -0.009,-64.2262009 h 28.42447 z M 67.167533,14.484204 c -2.415056,-0.06075 -4.114015,2.641851 -3.448976,4.855169 0.413823,1.867913 2.271752,3.154569 4.154701,3.062449 1.930868,0.03 4.214234,0.303002 5.720024,-1.178647 1.283282,-1.314565 1.425262,-3.556137 0.510307,-5.107225 -0.690423,-1.033547 -1.871049,-1.694755 -3.128292,-1.599062 -1.26849,-0.03399 -2.539241,-0.09363 -3.807764,-0.03267 z m 2.002395,2.974209 c 0.839248,0.03402 2.04126,-0.233399 2.384339,0.797794 0.06386,0.758907 -0.778602,1.051301 -1.406932,0.944171 -1.021676,-0.05129 -2.184144,0.261397 -3.106364,-0.26164 -0.72161,-0.635617 0.246518,-1.65848 1.012497,-1.471285 0.372154,-0.003 0.744306,-0.0061 1.11646,-0.009 z m 0,18.227206 h 22.082826 c -0.03013,20.112827 -0.06027,40.225656 -0.09041,60.338483 -14.658532,0.0087 -29.317588,0.113562 -43.975811,-0.0068 -0.161031,-20.109984 -0.07688,-40.221173 -0.09944,-60.331688 h 22.082828 z m 0,63.34659 h 28.424491 v 28.618861 c -18.979795,0.0301 -37.959591,0.0603 -56.939386,0.0904 0.02821,-9.56975 0.05759,-19.13951 0.08814,-28.709263 h 28.426754 z"
       sodipodi:nodetypes="cccccccccccccccccccccccccccccccscccccsssccccsscccccccccccccc" />
  </g>
</svg>
