<?xml version="1.0" encoding="UTF-8" standalone="no"?>
<svg
   xmlns:dc="http://purl.org/dc/elements/1.1/"
   xmlns:cc="http://creativecommons.org/ns#"
   xmlns:rdf="http://www.w3.org/1999/02/22-rdf-syntax-ns#"
   xmlns:svg="http://www.w3.org/2000/svg"
   xmlns="http://www.w3.org/2000/svg"
   xmlns:sodipodi="http://sodipodi.sourceforge.net/DTD/sodipodi-0.dtd"
   xmlns:inkscape="http://www.inkscape.org/namespaces/inkscape"
   width="500"
   height="500"
   viewBox="0 0 132.29166 132.29167"
   version="1.1"
   id="svg8"
   inkscape:version="1.0.2 (e86c870879, 2021-01-15, custom)"
   sodipodi:docname="learnmode.svg">
  <defs
     id="defs2" />
  <sodipodi:namedview
     id="base"
     pagecolor="#ffffff"
     bordercolor="#666666"
     borderopacity="1.0"
     inkscape:pageopacity="0.0"
     inkscape:pageshadow="2"
     inkscape:zoom="0.7"
     inkscape:cx="168.16728"
     inkscape:cy="340.41052"
     inkscape:document-units="mm"
     inkscape:current-layer="layer1"
     inkscape:document-rotation="0"
     showgrid="false"
     units="px"
     inkscape:window-width="1368"
     inkscape:window-height="850"
     inkscape:window-x="-6"
     inkscape:window-y="-6"
     inkscape:window-maximized="1" />
  <metadata
     id="metadata5">
    <rdf:RDF>
      <cc:Work
         rdf:about="">
        <dc:format>image/svg+xml</dc:format>
        <dc:type
           rdf:resource="http://purl.org/dc/dcmitype/StillImage" />
        <dc:title></dc:title>
      </cc:Work>
    </rdf:RDF>
  </metadata>
  <g
     inkscape:label="Ebene 1"
     inkscape:groupmode="layer"
     id="layer1">
    <path
       style="fill:#000000;stroke-width:0.237753"
       d="M 40.597049,110.84795 V 93.135339 h -9.034621 c -7.872271,0 -9.03462,-0.04588 -9.03462,-0.356629 0,-0.310748 1.162349,-0.35663 9.03462,-0.35663 h 9.034621 V 78.632397 64.842714 h -9.034621 c -5.864578,0 -9.03462,-0.08342 -9.03462,-0.237753 0,-0.15433 3.170042,-0.237753 9.03462,-0.237753 h 9.034621 V 49.626512 34.885816 h -9.034621 c -7.563874,0 -9.03462,-0.05391 -9.03462,-0.331192 0,-0.182157 0.169234,-0.396135 0.376075,-0.475506 0.206841,-0.07937 4.27242,-0.144314 9.03462,-0.144314 h 8.658546 V 19.312985 4.6911658 H 69.602935 98.608821 V 27.872098 51.053031 h 8.321359 c 7.23826,0 8.32136,0.04642 8.32136,0.35663 0,0.310211 -1.0831,0.356629 -8.32136,0.356629 H 98.608821 V 90.163425 128.56056 H 69.602935 40.597049 Z m 8.630901,16.82237 c -1.202777,-0.0431 -3.235566,-0.0433 -4.51731,-4.7e-4 -1.281744,0.0428 -0.297653,0.0781 2.186867,0.0783 2.484521,2.3e-4 3.533219,-0.0348 2.330443,-0.0779 z m 29.23129,-0.001 c -4.870968,-0.0359 -12.841643,-0.0359 -17.712611,0 -4.870968,0.0359 -0.88563,0.0653 8.856306,0.0653 9.741936,0 13.727273,-0.0294 8.856305,-0.0653 z m 16.167216,0.001 c -1.209569,-0.0431 -3.188865,-0.0431 -4.398434,0 -1.209569,0.0431 -0.219922,0.0785 2.199217,0.0785 2.419138,0 3.408786,-0.0353 2.199217,-0.0785 z m 3.2104,-38.339031 -0.06017,-37.446122 -1.248204,-0.07186 -1.248204,-0.07186 -0.0085,7.442211 c -0.03163,27.608005 -0.301077,55.827852 -0.540347,56.592312 l -0.264415,0.84479 -3.119274,0.0911 c -2.522573,0.0737 -3.252071,0.17555 -3.813475,0.53236 -1.321327,0.83979 -2.014525,1.67316 -2.360328,2.8376 -0.191018,0.64323 -0.469077,1.31623 -0.617906,1.49556 -0.372783,0.44918 -29.435913,0.48881 -29.88397,0.0408 -0.156918,-0.15692 -0.285304,-0.53351 -0.285304,-0.83686 0,-0.67252 -1.046221,-2.3785 -1.860552,-3.03384 -0.91844,-0.73912 -2.117499,-1.03632 -4.261592,-1.0563 -1.576901,-0.0147 -1.961464,-0.0882 -1.961464,-0.3749 0,-0.19614 -0.143291,-0.35663 -0.318428,-0.35663 -0.175136,0 -0.656586,-0.37161 -1.069889,-0.8258 l -0.751452,-0.8258 V 103.72169 93.135339 h -1.426519 -1.426519 v 16.821041 16.82103 H 69.603667 97.897026 Z M 47.733847,124.48777 c -1.039281,-0.63355 -1.358434,-1.04707 -1.673963,-2.1689 -0.51805,-1.84188 0.513687,-3.52405 2.579615,-4.20587 0.923371,-0.30474 1.083531,-0.28947 2.124736,0.20253 1.425171,0.67344 2.006123,1.45797 2.144265,2.89564 0.13763,1.43233 -0.541723,2.63999 -1.864798,3.31498 -1.185542,0.60481 -2.275491,0.59218 -3.309855,-0.0384 z m 1.95726,-0.36423 c -0.163455,-0.066 -0.430927,-0.066 -0.594383,0 -0.163455,0.066 -0.02972,0.11992 0.297192,0.11992 0.32691,0 0.460646,-0.054 0.297191,-0.11992 z m -2.325259,-1.18336 c -0.973321,-1.43427 -0.602122,-2.9962 0.886398,-3.72978 0.465466,-0.2294 0.617193,-0.3891 0.372724,-0.39231 -0.226776,-0.003 -0.761721,0.30678 -1.188766,0.68835 -0.680794,0.60829 -0.77645,0.84025 -0.77645,1.88287 0,0.93127 0.124982,1.32215 0.576388,1.80265 0.78798,0.83876 0.823275,0.77025 0.129706,-0.25178 z m 4.360888,0.16168 c 0.982783,-1.32928 0.579238,-3.25639 -0.841076,-4.01652 -0.866565,-0.46377 -0.940873,-0.29251 -0.105222,0.24251 1.364605,0.87367 1.635879,2.53081 0.613246,3.74614 -0.338537,0.40233 -0.519139,0.73151 -0.401342,0.73151 0.117797,0 0.448274,-0.31664 0.734394,-0.70364 z m -1.28338,-1.25063 c 0.179603,-0.51375 0.134342,-0.74796 -0.220259,-1.13979 -0.577753,-0.63841 -1.314609,-0.51972 -1.764362,0.28421 -0.326426,0.58347 -0.318064,0.68025 0.09853,1.14058 0.634696,0.70133 1.591843,0.5567 1.886096,-0.285 z m 37.777713,2.68017 c -1.134541,-0.51508 -1.975412,-1.8592 -1.975412,-3.15765 0,-1.15056 1.01998,-2.50562 2.298562,-3.05368 1.325169,-0.56804 1.349287,-0.56773 2.680262,0.0338 2.743753,1.24002 2.878264,4.82495 0.231698,6.17512 -1.137896,0.58051 -1.960437,0.58113 -3.23511,0.002 z m 2.130354,-0.40635 c -0.160966,-0.0651 -0.481933,-0.0691 -0.713259,-0.009 -0.231327,0.0603 -0.09963,0.11357 0.292667,0.11841 0.392292,0.005 0.581558,-0.0445 0.420592,-0.1096 z m -1.609358,-0.35218 c -0.261529,-0.14076 -0.721329,-0.53871 -1.021778,-0.88434 l -0.546268,-0.62843 0.276202,0.62959 c 0.15191,0.34628 0.504722,0.74024 0.784022,0.87549 0.676004,0.32732 1.114035,0.33396 0.507822,0.008 z m 3.046457,-0.30374 c 0.683479,-0.63343 0.97219,-1.4586 0.809676,-2.31417 -0.06937,-0.36524 -0.117431,-0.24171 -0.138582,0.35622 -0.02473,0.69919 -0.223267,1.10624 -0.840738,1.72371 -0.917435,0.91743 -0.776906,1.11147 0.169644,0.23424 z m -1.073106,-1.1377 c 0.67083,-0.67083 0.07995,-2.06308 -0.884741,-2.08467 -0.45894,-0.0103 -1.207487,0.69638 -1.207487,1.1399 0,0.94381 1.442021,1.59497 2.092228,0.94477 z m -3.591739,-1.07726 c -0.06028,-0.23132 -0.113565,-0.0996 -0.118411,0.29267 -0.0049,0.39229 0.04447,0.58156 0.109602,0.42059 0.06512,-0.16096 0.06909,-0.48193 0.0088,-0.71326 z m 1.611417,-2.07516 c 0.493916,-0.24379 0.583743,-0.3572 0.285874,-0.36092 -0.502073,-0.006 -1.827337,1.23302 -1.817972,1.70001 0.0035,0.17351 0.187573,0.0232 0.409097,-0.33405 0.221524,-0.35725 0.726873,-0.80952 1.123001,-1.00504 z m 3.42424,0.62475 c -0.165467,-0.26495 -0.552377,-0.59634 -0.859796,-0.73641 -0.898546,-0.4094 -0.957663,-0.29219 -0.112519,0.22309 0.429375,0.26178 0.8438,0.64046 0.920946,0.8415 0.07715,0.20103 0.187953,0.31783 0.246243,0.25954 0.05829,-0.0583 -0.0294,-0.32276 -0.194874,-0.58772 z m -9.127323,0.6747 c 0.37464,-0.14243 0.764985,-0.57998 0.983079,-1.10195 0.558789,-1.33737 1.272937,-2.17429 2.56019,-3.00031 1.117623,-0.71718 1.332495,-0.76408 4.051036,-0.88415 1.578947,-0.0697 3.004548,-0.21335 3.168004,-0.31914 0.233247,-0.15096 0.297191,-3.89804 0.297191,-17.415416 V 80.534422 H 77.594004 c -15.361191,0 -16.532259,-0.02866 -17.002071,-0.416068 l -0.504565,-0.416068 -0.05672,-29.243638 -0.05672,-29.243638 -7.31091,-0.06287 -7.31091,-0.06287 0.04743,6.48221 c 0.03306,4.518623 0.08707,5.65398 0.178314,3.748048 l 0.130891,-2.734161 h 7.013718 7.013718 l 0.06314,6.866026 c 0.04476,4.867399 -0.01562,6.960925 -0.207428,7.192033 -0.389604,0.469446 -13.339862,0.480756 -13.728902,0.01198 -0.157547,-0.189834 -0.289158,-1.811748 -0.332793,-4.101242 -0.0397,-2.082974 -0.09601,-0.06936 -0.125129,4.474698 l -0.05295,8.261929 h 5.390164 c 4.681959,0 5.447289,0.0517 5.824952,0.393479 0.410234,0.371254 0.434789,1.068541 0.434789,12.346182 0,10.549088 -0.04387,11.996577 -0.373612,12.326314 -0.317922,0.317921 -1.186194,0.373613 -5.824953,0.373613 h -5.45134 v 4.51731 4.51731 h 9.258893 9.25889 l 0.370113,0.528408 c 0.551457,0.787315 0.551457,12.658811 0,13.446125 L 63.8699,100.26794 h -9.25889 -9.258893 l 0.0036,7.19204 c 0.0021,4.10781 0.100158,7.34497 0.228709,7.54866 0.170851,0.27072 0.900181,0.38803 3.02771,0.48699 2.482084,0.11545 2.926673,0.2034 3.886986,0.76892 1.381615,0.81363 1.947729,1.4345 2.613538,2.86633 0.2942,0.63268 0.759412,1.24108 1.0338,1.35201 0.721398,0.29164 26.117811,0.28746 26.885516,-0.004 z M 48.20515,96.107254 v -2.971915 h -1.783149 -1.783149 v 2.971915 2.971914 h 1.783149 1.783149 z m 0.951013,0 c 0,-1.822775 -0.09193,-2.971915 -0.237754,-2.971915 -0.145821,0 -0.237753,1.14914 -0.237753,2.971915 0,1.822775 0.09193,2.971914 0.237753,2.971914 0.145822,0 0.237754,-1.149139 0.237754,-2.971914 z M 62.47034,93.016463 v -6.062706 h -6.427122 -6.427122 l 0.06723,2.674723 0.06722,2.674723 1.961464,0.06905 1.961464,0.06905 V 91.117526 89.79374 l 3.387982,0.06597 3.387983,0.06597 0.0587,2.734161 c 0.08856,4.124768 0.352835,3.804051 -3.134579,3.804051 -1.621367,0 -3.117174,-0.06494 -3.324015,-0.144314 C 53.76088,96.208806 53.67347,95.821984 53.67347,94.655306 v -1.519959 h -2.020902 -2.020902 v 2.971915 2.971914 h 6.419335 6.419336 z m 1.141215,5.777402 c 0.205576,-0.205576 0.285304,-1.833341 0.285304,-5.824953 0,-4.576534 -0.05758,-5.539648 -0.331193,-5.539648 -0.182157,0 -0.396134,0.169232 -0.475506,0.376075 -0.217166,0.565927 -0.173581,11.273829 0.04589,11.273829 0.104611,0 0.318589,-0.128386 0.475506,-0.285303 z m -5.183019,-3.632526 c 0,-0.546597 -0.04427,-0.569115 -0.611142,-0.310832 -0.43073,0.196254 -0.799203,0.207471 -1.248204,0.03799 -0.573506,-0.216472 -0.640483,-0.185461 -0.671349,0.310832 -0.03189,0.512657 0.05559,0.551292 1.248205,0.551292 1.20653,0 1.28249,-0.0349 1.28249,-0.589285 z m -3.090791,0.0089 c 0,-0.250943 -0.456275,-0.35637 -0.591986,-0.136786 -0.08214,0.132897 0.01745,0.241631 0.221324,0.241631 0.203864,0 0.370662,-0.04718 0.370662,-0.104845 z m 4.279557,0 c 0,-0.250943 -0.456275,-0.35637 -0.591986,-0.136786 -0.08213,0.132897 0.01745,0.241631 0.221324,0.241631 0.203864,0 0.370662,-0.04718 0.370662,-0.104845 z M 55.234974,92.94051 c 0.01448,-1.000363 -0.03958,-1.116272 -0.534945,-1.147095 -0.510679,-0.03178 -0.55105,0.05725 -0.55105,1.215228 0,1.167649 0.03505,1.242812 0.534945,1.147097 0.460982,-0.08826 0.537172,-0.256286 0.55105,-1.215234 z m 2.862788,0.545373 c 0.368432,-0.562301 0.366439,-0.630317 -0.03137,-1.069889 -0.765306,-0.84566 -2.015389,-0.473205 -2.015389,0.600469 0,1.150121 1.391617,1.469283 2.046758,0.469415 z m 1.757293,-0.57352 c 0,-0.971524 -0.07176,-1.168586 -0.416068,-1.142649 -0.334193,0.02517 -0.416068,0.256196 -0.416068,1.173989 0,0.929734 0.07753,1.142649 0.416068,1.142649 0.340082,0 0.416068,-0.214406 0.416068,-1.173989 z M 44.163346,78.632397 V 64.842714 h -1.426519 -1.426519 v 13.63118 c 0,7.497151 0.07133,13.702509 0.158503,13.789683 0.08717,0.08718 0.729108,0.158503 1.426519,0.158503 h 1.268016 z m 4.041804,11.055522 v -2.734162 h -1.783149 -1.783149 v 2.734162 2.734161 h 1.783149 1.783149 z m 0.951013,-0.132909 c 0,-1.575666 -0.09374,-2.601253 -0.237754,-2.601253 -0.144789,0 -0.237753,1.074566 -0.237753,2.748194 0,1.771584 0.08449,2.695976 0.237753,2.601252 0.135063,-0.08347 0.237754,-1.270486 0.237754,-2.748193 z m 9.272373,1.14336 c 0,-0.345246 -0.220067,-0.416068 -1.292866,-0.416068 -1.084739,0 -1.287821,0.06698 -1.261525,0.416068 0.02562,0.340041 0.261856,0.416068 1.292866,0.416068 1.042951,0 1.261525,-0.07209 1.261525,-0.416068 z m 1.057338,0.03913 c -0.07655,-0.123862 -0.240523,-0.16257 -0.364385,-0.08602 -0.123862,0.07655 -0.162571,0.240523 -0.08602,0.364386 0.07655,0.123862 0.240523,0.16257 0.364385,0.08602 0.123863,-0.07655 0.162571,-0.240523 0.08602,-0.364386 z m -4.148129,0.153216 c 0,-0.250944 -0.456275,-0.356371 -0.591986,-0.136787 -0.08214,0.132897 0.01745,0.241631 0.221324,0.241631 0.203864,0 0.370662,-0.04718 0.370662,-0.104844 z m 38.853197,-11.45162 c 0.337871,-0.129652 0.370331,-1.548667 0.319538,-13.967998 l -0.05654,-13.823684 -0.121777,13.73034 c -0.07852,8.853383 -0.206227,13.751419 -0.35953,13.789683 -0.130765,0.03264 -0.271279,-0.288371 -0.312256,-0.713355 l -0.0745,-0.772698 H 77.671479 61.75708 v 0.951013 0.951013 h 16.028893 c 8.815893,0 16.198128,-0.06494 16.404969,-0.144314 z M 62.405949,76.824482 c -0.07901,-0.079 -0.284067,-0.08745 -0.455694,-0.01876 -0.189663,0.0759 -0.133327,0.132233 0.143643,0.143641 0.25063,0.01032 0.391054,-0.04587 0.312051,-0.124873 z m 4.046756,-0.03111 c -0.62113,-0.04898 -1.637524,-0.04898 -2.258655,0 -0.62113,0.04898 -0.112932,0.08905 1.129328,0.08905 1.24226,0 1.750458,-0.04007 1.129327,-0.08905 z m 9.398424,9.51e-4 c -0.551802,-0.04986 -1.514702,-0.05046 -2.139779,-0.0014 -0.625074,0.04914 -0.1736,0.08993 1.003278,0.09066 1.176878,7.13e-4 1.688304,-0.03948 1.136501,-0.08934 z m 2.073167,-0.434608 c 0,-0.345066 -0.102909,-0.544812 -0.237753,-0.461474 -0.130765,0.08082 -0.237754,0.354604 -0.237754,0.608415 0,0.253811 0.106989,0.461474 0.237754,0.461474 0.130764,0 0.237753,-0.273787 0.237753,-0.608415 z m 2.957918,0.259346 c -0.630764,-0.477085 -2.244659,-0.482523 -2.244659,-0.0076 0,0.275228 0.308844,0.35663 1.353084,0.35663 1.240772,0 1.314778,-0.02898 0.891575,-0.349069 z m 11.307272,-0.0076 c 0,-0.268012 -0.280623,-0.354751 -1.129328,-0.349069 -1.044678,0.007 -1.094734,0.03373 -0.667817,0.35663 0.616474,0.466279 1.797145,0.461312 1.797145,-0.0076 z m 1.362128,0.212987 c -0.079,-0.079 -0.284067,-0.08745 -0.455694,-0.01876 -0.189663,0.0759 -0.133327,0.132233 0.143643,0.143641 0.25063,0.01032 0.391054,-0.04587 0.312051,-0.124873 z M 45.589865,70.19216 c 0,-5.190943 -0.0141,-5.349446 -0.475506,-5.349446 -0.461417,0 -0.475507,0.158503 -0.475507,5.349446 0,5.190943 0.0141,5.349446 0.475507,5.349446 0.461417,0 0.475506,-0.158503 0.475506,-5.349446 z m 31.383418,-2.134954 v -7.484401 l -4.913733,-0.06426 c -3.672937,-0.04804 -4.938703,-0.139307 -5.012628,-0.361454 -0.07703,-0.231483 1.009386,-0.297191 4.913733,-0.297191 h 5.012628 V 44.277066 28.704234 h -4.939978 c -4.645761,0 -4.964227,-0.02832 -5.347119,-0.475506 -0.354162,-0.413631 -0.701357,-0.475506 -2.668123,-0.475506 H 61.75708 v 7.608101 7.608101 h 2.139779 c 1.268016,0 2.139778,0.09686 2.139778,0.237753 0,0.132086 -0.634009,0.237753 -1.426519,0.237753 h -1.426519 v 7.608101 7.608101 h 1.446331 c 1.051064,0 1.419432,0.08122 1.347894,0.297191 -0.0662,0.19988 -0.773342,0.319686 -2.15959,0.365886 l -2.061154,0.0687 v 7.479967 7.479968 h 2.159591 c 1.621457,0 2.135164,0.07406 2.061558,0.297192 -0.05909,0.179121 -0.633696,0.325519 -1.446331,0.368493 -0.741564,0.03922 -1.348299,0.172954 -1.348299,0.297192 0,0.13749 2.698218,0.225889 6.894842,0.225889 h 6.894842 z M 62.405949,75.16021 c -0.07901,-0.079 -0.284067,-0.08745 -0.455694,-0.01876 -0.189663,0.0759 -0.133327,0.132233 0.143643,0.143641 0.25063,0.01032 0.391054,-0.04587 0.312051,-0.124873 z m 28.556459,-0.03142 c -0.896745,-0.05674 -1.39019,-0.200431 -1.478496,-0.43055 -0.109826,-0.286202 0.232889,-0.345396 1.999775,-0.345396 h 2.132318 v -7.479968 -7.479967 l -2.08034,-0.0687 c -2.341743,-0.07733 -2.837033,-0.504733 -0.71326,-0.615503 l 1.367081,-0.0713 V 55.201847 51.76629 h -2.753974 c -2.097277,0 -2.730457,-0.07087 -2.655351,-0.297191 0.0692,-0.208536 0.890738,-0.317246 2.753974,-0.364416 l 2.655351,-0.06723 V 47.597824 44.15819 h -6.894842 -6.894842 v 15.572831 15.572832 l 6.95428,-0.04496 c 3.824854,-0.02473 6.348602,-0.08328 5.608326,-0.130112 z m 2.589206,0.03142 c -0.079,-0.079 -0.284067,-0.08745 -0.455694,-0.01876 -0.189663,0.0759 -0.133327,0.132233 0.143643,0.143641 0.25063,0.01032 0.391054,-0.04587 0.312051,-0.124873 z M 55.813251,64.010578 c 0,-9.212419 -0.04577,-10.580015 -0.354105,-10.580015 -0.307222,0 -0.362307,1.361369 -0.416068,10.282824 L 54.981118,73.99621 H 50.939314 46.89751 l 0.02685,-4.576748 c 0.02532,-4.3156 0.0017,-4.576748 -0.416068,-4.576748 -0.41765,0 -0.442916,0.278045 -0.442916,4.87394 v 4.873939 h 4.87394 4.87394 z m -2.615285,8.083607 c 0,-0.249075 -0.250962,-0.356629 -0.832136,-0.356629 -0.581173,0 -0.832136,0.107554 -0.832136,0.356629 0,0.249075 0.250963,0.35663 0.832136,0.35663 0.581174,0 0.832136,-0.107555 0.832136,-0.35663 z m -0.05794,-2.199216 c 0.06586,-0.200614 -0.179299,-0.297192 -0.754389,-0.297192 -0.61413,0 -0.851948,0.103756 -0.851948,0.371694 0,0.456864 1.454042,0.389425 1.606337,-0.0745 z m 0.05794,-2.43697 c 0,-0.130765 -0.374461,-0.237753 -0.832136,-0.237753 -0.457675,0 -0.832136,0.106988 -0.832136,0.237753 0,0.130764 0.374461,0.237753 0.832136,0.237753 0.457675,0 0.832136,-0.106989 0.832136,-0.237753 z m 0,-2.258655 c 0,-0.249075 -0.250962,-0.35663 -0.832136,-0.35663 -0.581173,0 -0.832136,0.107555 -0.832136,0.35663 0,0.249075 0.250963,0.356629 0.832136,0.356629 0.581174,0 0.832136,-0.107554 0.832136,-0.356629 z m -9.092244,-15.63227 0.06125,-14.681258 h -1.428333 -1.428333 v 14.582193 c 0,8.020208 0.07613,14.658326 0.169183,14.751376 0.09305,0.09305 0.708236,0.13763 1.367081,0.09906 l 1.197897,-0.07012 z m 1.484143,8.856305 c 0,-5.785326 -0.01267,-5.943829 -0.475506,-5.943829 -0.46248,0 -0.475507,0.158503 -0.475507,5.785326 0,3.181931 0.07133,5.856654 0.158503,5.943829 0.08717,0.08718 0.301153,0.158503 0.475507,0.158503 0.255715,0 0.317003,-1.14914 0.317003,-5.943829 z m 1.282205,5.567753 c 0.07937,-0.20684 0.144314,-2.675431 0.144314,-5.485754 0,-4.738328 -0.03024,-5.103869 -0.416068,-5.029704 -0.378422,0.07274 -0.421888,0.541678 -0.48039,5.182686 -0.03538,2.806488 -0.01198,5.239088 0.05197,5.405777 0.16042,0.418043 0.526379,0.379884 0.700169,-0.07301 z m 6.325896,-1.16932 c 0,-0.249075 -0.250962,-0.35663 -0.832136,-0.35663 -0.581173,0 -0.832136,0.107555 -0.832136,0.35663 0,0.249075 0.250963,0.35663 0.832136,0.35663 0.581174,0 0.832136,-0.107555 0.832136,-0.35663 z m 0,-2.377531 c 0,-0.249075 -0.250962,-0.35663 -0.832136,-0.35663 -0.581173,0 -0.832136,0.107555 -0.832136,0.35663 0,0.249075 0.250963,0.356629 0.832136,0.356629 0.581174,0 0.832136,-0.107554 0.832136,-0.356629 z m 0,-2.377532 c 0,-0.249075 -0.250962,-0.35663 -0.832136,-0.35663 -0.581173,0 -0.832136,0.107555 -0.832136,0.35663 0,0.249075 0.250963,0.35663 0.832136,0.35663 0.581174,0 0.832136,-0.107555 0.832136,-0.35663 z m 9.272374,-7.152407 c 0,-5.140696 -0.06423,-6.536637 -0.297192,-6.459066 -0.225924,0.07523 -0.31236,1.647865 -0.36045,6.558026 -0.05525,5.641139 -0.01762,6.459064 0.297191,6.459064 0.313388,0 0.360451,-0.856273 0.360451,-6.558024 z m 31.093773,3.783825 c -0.04729,-1.958572 -0.154361,-2.803205 -0.364176,-2.872852 -0.2268,-0.07528 -0.297192,0.581808 -0.297192,2.774201 0,2.421597 0.0572,2.87285 0.364176,2.87285 0.310083,0 0.354224,-0.412047 0.297192,-2.774199 z M 53.43572,55.926971 c 0,-0.257565 -0.26417,-0.35663 -0.951013,-0.35663 -0.686843,0 -0.951013,0.09907 -0.951013,0.35663 0,0.257565 0.26417,0.356629 0.951013,0.356629 0.686843,0 0.951013,-0.09906 0.951013,-0.356629 z m 40.127556,-8.12356 c -0.04763,-2.339774 -0.149357,-3.277263 -0.363339,-3.348356 -0.22836,-0.07587 -0.297192,0.676774 -0.297192,3.24962 0,2.845294 0.05459,3.348356 0.363339,3.348356 0.311455,0 0.353894,-0.464044 0.297192,-3.24962 z m 0.942522,-1.802635 c -0.04513,-0.94804 -0.08205,-0.172371 -0.08205,1.723711 0,1.896081 0.03692,2.671751 0.08205,1.72371 0.04513,-0.94804 0.04513,-2.49938 0,-3.447421 z m 3.389764,-17.35598 V 6.2365613 H 69.602935 41.310308 V 20.085683 33.934804 h 1.426519 1.426519 v -6.631651 c 0,-5.827874 0.04558,-6.649143 0.376076,-6.775965 0.20684,-0.07937 4.004947,-0.144314 8.440237,-0.144314 h 8.064162 l 0.02637,0.653821 c 0.0145,0.359602 0.0061,1.349249 -0.01873,2.199217 l -0.04511,1.545395 8.007465,-0.06863 c 5.603196,-0.04803 8.102778,0.01046 8.324901,0.194812 0.227311,0.18865 0.452321,0.191261 0.792512,0.0092 0.705395,-0.377514 15.533106,-0.34858 15.912739,0.03105 0.206172,0.206173 0.285304,1.880014 0.285304,6.034977 0,5.549719 0.01652,5.753997 0.475506,5.874019 0.562954,0.147215 0.64905,1.068206 0.118877,1.271652 -0.283386,0.108746 -0.35663,0.614694 -0.35663,2.46351 0,1.848816 0.07324,2.354764 0.35663,2.46351 0.297103,0.114008 0.356629,0.792886 0.356629,4.067241 l -2e-6,3.930383 h 1.307642 1.307643 z M 47.967397,14.747243 c -0.758861,-0.27613 -1.626617,-1.34544 -1.908312,-2.351551 -0.582027,-2.078797 0.875124,-4.0656165 3.153998,-4.30046 1.250974,-0.1289162 2.44415,0.4662796 3.233362,1.6129084 1.086827,1.5790246 0.268873,4.3553536 -1.460805,4.9583226 -0.743583,0.259214 -2.405625,0.303697 -3.018243,0.08078 z m 2.618715,-0.665255 c 0.825515,-0.195926 1.660842,-1.492791 1.660842,-2.578496 0,-1.055586 -0.536875,-1.9538405 -1.450019,-2.4260449 -0.73383,-0.3794783 -2.252186,-0.4638635 -2.454559,-0.1364163 -0.07072,0.1144339 0.348028,0.1543398 0.930561,0.08868 0.967668,-0.10907 1.131577,-0.046953 1.897706,0.7191759 0.677599,0.6775983 0.838558,1.0195113 0.838558,1.7812823 0,1.219315 -0.699542,2.109575 -1.914774,2.436803 -0.516046,0.138956 -0.938264,0.309228 -0.938264,0.378382 0,0.06915 0.18723,0.07011 0.416068,0.0021 0.228837,-0.06798 0.685085,-0.187456 1.013881,-0.265492 z m -2.352677,-0.328944 c -1.50711,-0.803038 -1.846655,-2.236518 -0.870483,-3.674985 0.50334,-0.741713 0.519738,-0.8207126 0.118327,-0.5700267 -0.618995,0.3865686 -1.023584,1.6789067 -0.836993,2.6735227 0.161582,0.861298 1.318539,2.026721 1.995175,2.009771 0.232021,-0.0058 0.0628,-0.188477 -0.406026,-0.438282 z m 2.100633,-1.559567 c 0.369414,-0.445118 0.234546,-1.325383 -0.249532,-1.62865 -0.2086,-0.130683 -0.65617,-0.168108 -0.994604,-0.08317 -1.243169,0.312015 -1.002926,2.05536 0.283237,2.05536 0.37168,0 0.804084,-0.154595 0.960899,-0.343543 z m 38.051367,2.56586 C 87.81721,14.531394 86.942461,13.662117 86.579697,12.964895 85.864876,11.591032 86.37343,9.731273 87.74066,8.719291 c 1.074699,-0.7954588 3.098126,-0.8094584 4.092141,-0.028313 1.09434,0.8599855 1.542151,1.708071 1.543884,2.92389 0.0014,0.937123 -0.131941,1.249194 -0.906013,2.121466 -0.853741,0.962045 -0.991257,1.026968 -2.318094,1.09439 -0.775784,0.03942 -1.570997,0.0073 -1.767143,-0.07139 z m 0.703162,-0.824479 c -0.59399,-0.256135 -1.259825,-0.755672 -1.47963,-1.110084 -0.219806,-0.354411 -0.402493,-0.525076 -0.405971,-0.379256 -0.01236,0.517748 0.985874,1.515438 1.732341,1.73141 1.239856,0.35872 1.305624,0.25484 0.15326,-0.24207 z m 2.741884,-0.444345 c 0.374532,-0.390929 0.617195,-0.774554 0.53925,-0.852499 -0.07794,-0.07795 -0.261982,0.08299 -0.408971,0.357644 -0.146988,0.27465 -0.61036,0.649547 -1.029714,0.833104 -0.593315,0.259703 -0.653657,0.338044 -0.271999,0.353136 0.269755,0.01067 0.796899,-0.300457 1.171434,-0.691385 z M 91.00072,11.556209 c 0,-1.265989 -1.971043,-1.5574142 -2.277416,-0.336723 -0.174475,0.695162 0.01538,1.049877 0.696911,1.302004 0.798468,0.295391 1.580505,-0.182232 1.580505,-0.965281 z m 1.55486,-0.849276 C 92.473727,10.380807 92.066556,9.8032495 91.650751,9.4234728 91.066589,8.8899217 90.666793,8.7329694 89.891877,8.7329694 c -0.55158,0 -1.052464,0.080242 -1.113077,0.1783149 -0.06061,0.098073 0.423298,0.1783149 1.07536,0.1783149 1.038613,0 1.271559,0.096242 1.879322,0.7764487 0.480093,0.5373171 0.703728,1.0498811 0.726134,1.6642721 0.02183,0.598711 0.06696,0.705748 0.138582,0.328696 0.05841,-0.30752 0.03923,-0.825957 -0.04262,-1.152083 z M 87.976364,9.7190276 c 0.524895,-0.5717612 0.525,-0.5735541 0.01802,-0.3100846 -0.53828,0.2797318 -1.051699,1.432859 -1.011576,2.271981 0.01315,0.274706 0.123273,0.07505 0.244753,-0.443672 0.121478,-0.518726 0.458443,-1.201927 0.748813,-1.5182244 z M 62.47034,43.682683 c 0,-0.130764 -0.160483,-0.237753 -0.35663,-0.237753 -0.196146,0 -0.35663,0.106989 -0.35663,0.237753 0,0.130764 0.160484,0.237753 0.35663,0.237753 0.196147,0 0.35663,-0.106989 0.35663,-0.237753 z m 31.145665,0 c 0,-0.130764 -0.160484,-0.237753 -0.35663,-0.237753 -0.196146,0 -0.35663,0.106989 -0.35663,0.237753 0,0.130764 0.160484,0.237753 0.35663,0.237753 0.196146,0 0.35663,-0.106989 0.35663,-0.237753 z m -4.279557,-0.475506 c 0,-0.14089 0.871762,-0.237753 2.139778,-0.237753 h 2.139779 v -7.608101 -7.608101 h -2.496408 c -1.50577,0 -2.496409,0.09435 -2.496409,0.237753 0,0.15113 -1.862399,0.237753 -5.111693,0.237753 h -5.111693 v 7.608101 7.608101 h 5.468323 c 3.487047,0 5.468323,-0.08614 5.468323,-0.237753 z M 77.862815,38.401993 c -0.04656,-0.822402 -0.08504,-0.211408 -0.08551,1.357763 -4.75e-4,1.569171 0.03763,2.242043 0.08466,1.495275 0.04703,-0.746771 0.04741,-2.030638 9.51e-4,-2.853038 z m -18.880894,3.55692 c 0.367117,-0.268442 0.400324,-0.848334 0.342633,-5.983586 -0.04821,-4.291427 -0.136786,-5.710604 -0.361073,-5.785268 -0.230939,-0.07688 -0.297192,0.929041 -0.297192,4.512238 0,6.209704 0.565356,5.698836 -6.202928,5.605109 l -5.209716,-0.07214 2.38e-4,0.851948 c 1.35e-4,0.468574 0.07157,0.923277 0.15875,1.010451 0.08718,0.08718 2.634467,0.158503 5.660641,0.158503 4.027023,0 5.611118,-0.07969 5.908647,-0.297251 z M 46.540878,38.214361 c 0,-2.231009 -0.08492,-3.328545 -0.257539,-3.328545 -0.175151,0 -0.23704,1.007791 -0.193458,3.15023 0.06124,3.010606 0.110227,3.506859 0.346152,3.506859 0.05767,0 0.104845,-1.497845 0.104845,-3.328544 z m 10.88234,-3.625736 -0.06457,-4.576748 -4.695625,-0.06446 -4.695625,-0.06446 v 2.025928 2.025928 h 0.808651 c 0.66378,0 0.892076,-0.141394 1.274309,-0.789229 0.485316,-0.822547 1.773593,-1.588303 2.672103,-1.588303 0.880319,0 2.107073,0.723091 2.611538,1.539333 1.012764,1.638685 0.26592,3.629485 -1.601087,4.267878 -0.883721,0.302175 -1.137181,0.302175 -2.020902,0 -0.964681,-0.329856 -2.08034,-1.507645 -2.08034,-2.196187 0,-0.16433 -0.348045,-0.28248 -0.832136,-0.28248 h -0.832136 v 2.139779 2.139778 h 4.760196 4.760199 z m -3.68267,2.111669 c 0.448469,-0.190688 0.950718,-0.678883 1.213711,-1.179746 0.388203,-0.739324 0.407891,-0.95284 0.146132,-1.584781 -0.925145,-2.233496 -3.835134,-2.222833 -4.76309,0.01745 -0.271074,0.654432 -0.253212,0.852768 0.143083,1.58864 0.413676,0.76815 1.428304,1.451169 2.190274,1.474431 0.167654,0.0051 0.649105,-0.137079 1.06989,-0.315995 z m -1.850224,-0.316447 c -1.418098,-0.765373 -1.711647,-1.952845 -0.757085,-3.062589 0.710851,-0.826413 2.314304,-0.90739 3.017687,-0.152397 1.02687,1.102216 0.813316,2.322774 -0.552065,3.155307 -0.897109,0.547006 -0.811161,0.544006 -1.708537,0.05968 z m 1.783149,-1.260277 c 0.582611,-1.088622 -0.855638,-2.10307 -1.734971,-1.223735 -0.417827,0.417828 -0.4496,0.579683 -0.214907,1.09478 0.351913,0.772362 1.562682,0.852437 1.949878,0.128955 z m 24.18336,-0.653822 c -0.05447,-0.359601 -0.09904,-0.06538 -0.09904,0.653822 0,0.719203 0.04457,1.013422 0.09904,0.653821 0.05448,-0.359602 0.05448,-0.948041 0,-1.307643 z M 46.540878,32.018746 c 0,-1.216827 -0.08676,-1.862432 -0.237753,-1.769116 -0.130765,0.08082 -0.237754,0.943043 -0.237754,1.916057 0,1.02091 0.100553,1.769117 0.237754,1.769117 0.138833,0 0.237753,-0.797189 0.237753,-1.916058 z m 33.820388,-4.690201 c 1.281758,-0.03763 2.318093,-0.170491 2.318093,-0.297192 0,-0.12603 0.267472,-0.229144 0.594383,-0.229144 0.594231,0 0.795819,-0.322949 0.367012,-0.587966 -0.125053,-0.07729 -0.1671,-0.297579 -0.09344,-0.489538 C 83.659878,25.431372 83.27891,25.37569 81.1594,25.37569 h -2.521846 v 0.846489 c 0,0.832778 -0.01443,0.845291 -0.891574,0.772698 -0.813967,-0.06737 -0.89806,-0.141052 -0.966077,-0.846489 l -0.0745,-0.772698 -2.421906,0.0036 c -1.651522,0.0025 -2.308467,0.07695 -2.065276,0.234113 0.196146,0.126761 0.645816,0.232111 0.999264,0.234113 0.809902,0.0046 1.853774,0.469934 1.853774,0.82639 0,0.149002 -0.128387,0.399301 -0.285304,0.556219 -0.221902,0.221902 -0.01434,0.285303 0.93403,0.285303 1.816848,0 1.957243,0.23723 2.015098,3.404965 l 0.04854,2.657741 0.129773,-3.090791 0.129775,-3.090791 2.318094,-0.06805 z m -21.804077,1.867013 c -0.0862,-0.139463 -0.270492,-0.25357 -0.409549,-0.25357 -0.157654,0 -0.139616,0.136418 0.04791,0.362376 0.326088,0.392911 0.617524,0.305227 0.361637,-0.108806 z m 3.913151,-2.155596 c 0,-0.130764 -0.160483,-0.237753 -0.35663,-0.237753 -0.196146,0 -0.35663,0.106989 -0.35663,0.237753 0,0.130765 0.160484,0.237754 0.35663,0.237754 0.196147,0 0.35663,-0.106989 0.35663,-0.237754 z m 5.349446,-0.112219 0.951013,-0.313428 -1.042305,-0.02493 c -1.321746,-0.03161 -2.894124,-0.49673 -3.049684,-0.902111 -0.06576,-0.17137 -0.429085,-0.311583 -0.807388,-0.311583 -0.643957,0 -0.687823,0.06065 -0.687823,0.951013 v 0.951013 l 1.842587,-0.01826 c 1.013423,-0.01006 2.270543,-0.159316 2.7936,-0.331701 z m 4.695625,0.192513 c -0.163455,-0.06596 -0.430927,-0.06596 -0.594383,0 -0.163455,0.06595 -0.02972,0.119921 0.297192,0.119921 0.32691,0 0.460647,-0.05397 0.297191,-0.119921 z M 92.189486,26.326703 V 25.37569 h -3.591735 c -3.060147,0 -3.571913,0.05166 -3.457804,0.349015 0.07366,0.191959 0.03161,0.412252 -0.09344,0.489538 -0.588943,0.363986 -0.0922,0.587966 1.303993,0.587966 0.84225,0 1.597487,0.106989 1.678304,0.237753 0.08082,0.130765 1.050032,0.237754 2.153811,0.237754 h 2.00687 z m 1.426519,0.713259 c 0,-0.130764 -0.160484,-0.237753 -0.35663,-0.237753 -0.196146,0 -0.35663,0.106989 -0.35663,0.237753 0,0.130765 0.160484,0.237754 0.35663,0.237754 0.196146,0 0.35663,-0.106989 0.35663,-0.237754 z M 77.924296,26.08895 c 0,-0.261529 -0.106989,-0.475507 -0.237753,-0.475507 -0.130765,0 -0.237754,0.213978 -0.237754,0.475507 0,0.261528 0.106989,0.475506 0.237754,0.475506 0.130764,0 0.237753,-0.213978 0.237753,-0.475506 z m -6.716527,0.07386 c -0.228838,-0.0598 -0.603299,-0.0598 -0.832136,0 -0.228838,0.0598 -0.04161,0.108731 0.416068,0.108731 0.457675,0 0.644905,-0.04893 0.416068,-0.108731 z m -8.80182,-0.69301 c -0.07901,-0.079 -0.284067,-0.08745 -0.455694,-0.01876 -0.189663,0.0759 -0.133327,0.132234 0.143643,0.143641 0.25063,0.01032 0.391054,-0.04587 0.312051,-0.124872 z m 7.845855,0 c -0.07901,-0.079 -0.284068,-0.08745 -0.455695,-0.01876 -0.189662,0.0759 -0.133327,0.132234 0.143644,0.143641 0.25063,0.01032 0.391054,-0.04587 0.312051,-0.124872 z m 23.29981,0 c -0.079,-0.079 -0.284067,-0.08745 -0.455694,-0.01876 -0.189663,0.0759 -0.133327,0.132234 0.143643,0.143641 0.25063,0.01032 0.391054,-0.04587 0.312051,-0.124872 z M 49.22795,5.2274463 c -1.202777,-0.04306 -3.235566,-0.043247 -4.51731,-4.042e-4 -1.281744,0.042832 -0.297653,0.078063 2.186867,0.078291 2.484521,2.285e-4 3.533219,-0.034816 2.330443,-0.077876 z m 29.23129,-0.00125 c -4.870968,-0.035923 -12.841643,-0.035923 -17.712611,0 -4.870968,0.035923 -0.88563,0.065315 8.856306,0.065315 9.741936,0 13.727273,-0.029392 8.856305,-0.065315 z m 16.167216,0.00109 c -1.209569,-0.04315 -3.188865,-0.04315 -4.398434,0 -1.209569,0.04315 -0.219922,0.078455 2.199217,0.078455 2.419138,0 3.408786,-0.035305 2.199217,-0.078455 z M 16.734918,94.782355 c -1.23981,-0.975234 -0.606912,-3.812302 1.044963,-4.684217 1.182383,-0.624102 3.083655,0.03053 3.083655,1.061741 0,0.394763 -1.229469,0.413137 -1.61842,0.02419 -0.224167,-0.224168 -0.377722,-0.190809 -0.701372,0.152367 -0.227903,0.241654 -0.292923,0.372086 -0.144489,0.289849 0.148435,-0.08224 0.605396,-0.03256 1.01547,0.110394 1.391844,0.485199 1.608019,1.788082 0.472654,2.84867 -0.913624,0.853453 -2.21457,0.934755 -3.152461,0.197009 z m 2.187022,-1.256202 c 0.04629,-0.242727 -0.02832,-0.55381 -0.16581,-0.691295 -0.336217,-0.336217 -0.983385,0.204503 -0.983385,0.821636 0,0.612747 1.029755,0.495956 1.149195,-0.130341 z M 16.346226,66.506986 c -0.744003,-0.744003 -0.610574,-1.188766 0.356629,-1.188766 0.457675,0 0.832136,0.114096 0.832136,0.253545 0,0.139449 0.29422,0.219691 0.653822,0.178315 0.475123,-0.05467 0.675208,-0.226191 0.732074,-0.627564 0.07469,-0.527158 0.0294,-0.545008 -0.993571,-0.391603 -0.589503,0.0884 -1.175551,0.09662 -1.302329,0.01826 -0.142298,-0.08794 -0.07538,-0.665941 0.174872,-1.510422 l 0.405378,-1.36796 1.847038,-0.06976 c 1.806548,-0.06823 1.845343,-0.05781 1.769711,0.475506 -0.06646,0.468618 -0.23608,0.555455 -1.206654,0.617732 -1.120172,0.07189 -1.627061,0.521928 -0.587847,0.521928 1.550214,0 2.171425,1.826018 1.014722,2.98272 -0.78084,0.780841 -2.959508,0.844545 -3.695981,0.108071 z M 116.67806,54.372103 c 0,-0.410381 0.97634,-2.201922 1.61445,-2.962442 l 0.59846,-0.71326 -1.10645,-0.07246 c -0.99535,-0.06519 -1.10646,-0.130843 -1.10646,-0.653822 0,-0.575843 0.0214,-0.581356 2.25866,-0.581356 2.03183,0 2.25865,0.04378 2.25865,0.435946 0,0.239772 -0.40147,0.870826 -0.89217,1.402345 -0.4907,0.531516 -1.15938,1.510555 -1.48596,2.175641 -0.53128,1.081967 -0.67511,1.209633 -1.36648,1.21294 -0.42498,0.0021 -0.7727,-0.107554 -0.7727,-0.243528 z M 18.723757,36.431212 c 0,-0.55381 -0.08019,-0.594383 -1.174734,-0.594383 -0.646104,0 -1.249414,-0.120833 -1.340688,-0.268518 -0.09759,-0.157902 0.639854,-1.039388 1.790115,-2.139779 1.526374,-1.460196 2.108138,-1.87126 2.64833,-1.87126 0.809597,0 0.864474,0.303224 0.358901,1.983116 -0.28598,0.950238 -0.28598,1.107675 0,1.107675 0.565037,0 0.381574,0.944451 -0.228522,1.17641 -0.309036,0.117495 -0.619987,0.435813 -0.691002,0.707375 -0.08884,0.339726 -0.321475,0.493747 -0.745758,0.493747 -0.499249,0 -0.616642,-0.113156 -0.616642,-0.594383 z m 0.35663,-2.020902 c 0.08082,-0.130764 0.03995,-0.237753 -0.09081,-0.237753 -0.130764,0 -0.303876,0.106989 -0.384692,0.237753 -0.08082,0.130764 -0.03995,0.237753 0.09081,0.237753 0.130764,0 0.303876,-0.106989 0.384692,-0.237753 z"
       id="path794" />
  </g>
</svg>
