<?xml version="1.0" encoding="UTF-8" standalone="no"?>
<svg
   xmlns:dc="http://purl.org/dc/elements/1.1/"
   xmlns:cc="http://creativecommons.org/ns#"
   xmlns:rdf="http://www.w3.org/1999/02/22-rdf-syntax-ns#"
   xmlns:svg="http://www.w3.org/2000/svg"
   xmlns="http://www.w3.org/2000/svg"
   xmlns:sodipodi="http://sodipodi.sourceforge.net/DTD/sodipodi-0.dtd"
   xmlns:inkscape="http://www.inkscape.org/namespaces/inkscape"
   width="500"
   height="500"
   viewBox="0 0 132.29166 132.29167"
   version="1.1"
   id="svg8"
   inkscape:version="1.0.2 (e86c870879, 2021-01-15, custom)"
   sodipodi:docname="201021a.svg">
  <defs
     id="defs2" />
  <sodipodi:namedview
     id="base"
     pagecolor="#ffffff"
     bordercolor="#666666"
     borderopacity="1.0"
     inkscape:pageopacity="0.0"
     inkscape:pageshadow="2"
     inkscape:zoom="0.49497475"
     inkscape:cx="306.78581"
     inkscape:cy="212.22685"
     inkscape:document-units="mm"
     inkscape:current-layer="layer1"
     inkscape:document-rotation="0"
     showgrid="false"
     inkscape:window-width="1368"
     inkscape:window-height="850"
     inkscape:window-x="-6"
     inkscape:window-y="-6"
     inkscape:window-maximized="1"
     units="px" />
  <metadata
     id="metadata5">
    <rdf:RDF>
      <cc:Work
         rdf:about="">
        <dc:format>image/svg+xml</dc:format>
        <dc:type
           rdf:resource="http://purl.org/dc/dcmitype/StillImage" />
        <dc:title />
      </cc:Work>
    </rdf:RDF>
  </metadata>
  <g
     inkscape:label="Ebene 1"
     inkscape:groupmode="layer"
     id="layer1"
     transform="translate(-10.339915,-26.030838)">
    <path
       id="path70"
       style="fill:#000000;stroke:none;stroke-width:0.264583"
       d="m 82.638672,30.074219 c -2.198546,0.06429 -4.42409,0.931866 -5.810547,2.693359 -1.372508,1.591288 -1.85502,3.723992 -1.841695,5.780872 -0.08199,3.681856 0.106371,7.364665 0.04287,11.047644 -0.009,26.882905 0.01811,53.766016 -0.0136,80.648796 -0.100427,3.97403 -0.221311,8.10686 1.378792,11.83767 2.633129,6.59855 9.286112,11.25246 16.34034,11.72565 6.683716,0.57397 13.51931,-2.80246 17.13762,-8.447 2.12465,-3.17491 3.12691,-7.00666 3.08635,-10.81011 -0.0344,-3.59656 -0.13749,-7.19291 -0.0936,-10.79055 -0.006,-28.616384 0.0129,-57.233421 -0.01,-85.849393 0.0231,-2.322537 -0.74443,-4.796061 -2.67731,-6.227343 -2.23989,-1.77015 -5.2503,-1.542396 -7.93347,-1.541236 -5.367528,-0.03289 -10.737171,0.06864 -16.103303,-0.05616 -1.167069,-0.04719 -2.335941,-0.07955 -3.502945,-0.0122 z m -39.667969,0.02539 c -1.339798,0.01564 -2.807373,0.693986 -3.176312,2.08368 -0.52161,1.783521 -0.100928,3.667294 -0.218219,5.493273 -0.01055,17.708716 0.02111,35.417987 -0.01582,53.126355 -0.07962,1.600727 -0.08579,3.586027 1.416206,4.575989 1.573431,0.96588 3.516087,0.540999 5.261329,0.644532 3.128308,-0.007 6.257774,-0.0048 9.38451,0.04236 1.463535,0.0098 3.080488,-0.705287 3.524083,-2.20838 0.547126,-1.835126 0.166667,-3.779852 0.273438,-5.66211 0.01129,-17.644004 -0.02258,-35.288554 0.01693,-52.932217 0.07974,-1.576658 0.04887,-3.518651 -1.415368,-4.49747 -1.544415,-0.950671 -3.452632,-0.517231 -5.165234,-0.623047 -3.246944,0.0039 -6.49536,0.0118 -9.740368,-0.04817 l -0.09994,0.0036 z m 0.976563,1.832032 c 4.005511,0.147576 8.018857,-0.0012 12.023778,0.08202 0.903995,0.0014 1.618276,0.763495 1.604922,1.662707 0.0463,2.058929 -0.04769,4.124381 -0.0096,6.186521 0.01174,16.80538 -0.02346,33.611466 0.01758,50.416406 -1.32e-4,1.173748 0.288952,2.6312 -0.660156,3.527344 -1.358437,0.751853 -2.979105,0.267192 -4.453515,0.365091 -3.139913,-0.0283 -6.284502,0.0496 -9.421525,-0.03277 -0.931279,0.0033 -1.656515,-0.790592 -1.638632,-1.711227 -6.72e-4,-2.805777 0.03437,-5.616499 0.01758,-8.424609 -0.01173,-16.040016 0.02345,-32.080737 -0.01758,-48.120313 -4.71e-4,-1.18116 -0.313328,-2.65951 0.650391,-3.560546 0.555084,-0.356597 1.247877,-0.377585 1.886719,-0.390625 z m 60.976564,0.02148 c 1.86657,-0.04166 3.91378,0.485018 5.02081,2.109822 0.93206,1.271426 1.03812,2.913853 1.06317,4.4351 -3.25234,-1.88383 -6.93342,-3.275235 -10.74868,-3.07828 -4.931523,0.06133 -9.782504,2.185307 -13.158562,5.783525 -4.093604,4.187533 -5.882547,10.393683 -4.827046,16.13338 1.002735,6.038961 5.09611,11.502931 10.724525,13.973875 4.26034,1.918439 9.300333,2.321799 13.681523,0.554026 1.48752,-0.559479 2.91343,-1.267925 4.3341,-1.975901 0.0101,20.642271 -0.0202,41.284788 0.0151,61.926908 0.0894,3.28445 0.15469,6.70331 -1.21681,9.76848 -3.02709,7.30502 -11.544108,11.80268 -19.282512,10.14864 -4.602637,-1.0212 -8.906897,-3.85311 -11.207179,-8.03495 -2.117369,-3.79214 -2.509334,-8.26038 -2.534038,-12.47938 0.02571,-4.54761 0.140534,-9.09469 0.09457,-13.64298 -0.0097,-24.100579 0.01947,-48.201444 -0.01461,-72.301846 -0.02632,-3.191383 -0.442468,-6.453489 0.329062,-9.58995 0.4825,-1.886059 2.263962,-3.100672 4.109796,-3.406234 2.988425,-0.537428 6.040667,-0.190489 9.057782,-0.283219 4.852895,-0.01729 9.706746,0.04059 14.558986,-0.04102 z m -55.839846,2.789063 c -2.18482,0.165432 -4.268275,1.72382 -4.701491,3.929776 -0.689471,2.830546 1.09599,6.208772 4.080398,6.718661 2.440931,0.457015 5.287587,-0.851761 6.006224,-3.344749 0.959148,-2.901481 -0.763411,-6.618754 -3.88599,-7.227107 -0.492033,-0.105888 -0.998716,-0.115953 -1.499141,-0.07658 z m 51.498046,2.550781 c 3.21821,0.107165 6.68689,0.475435 9.32422,2.498047 0.82901,0.621459 1.49151,1.542877 1.39161,2.627932 -0.0344,6.95322 -0.0316,13.909232 -0.003,20.862302 0.0186,1.405829 0.37632,2.945271 -0.35414,4.255804 -0.92692,1.10021 -2.3495,1.6117 -3.61166,2.230089 -2.1992,0.932142 -4.51022,1.321727 -6.89943,1.371529 0,-11.282552 0,-22.565104 0,-33.847656 l 0.1,0.0013 z m -2.003905,33.767578 c -1.578936,-0.298488 -3.434884,-0.327498 -4.623436,-1.553899 -0.697815,-1.029136 -0.292287,-2.360309 -0.403908,-3.523054 -0.01824,-7.01516 0.03653,-14.03195 -0.02734,-21.046094 -0.07661,-1.868128 -0.4567,-3.779664 0.103515,-5.625 0.506038,-1.279761 2.123127,-1.522492 3.25,-1.757812 0.564707,-0.08916 1.132163,-0.15624 1.701172,-0.210938 0,11.238932 0,22.477865 0,33.716797 z M 91.699219,68.484375 C 88.66742,66.917567 86.480904,64.040667 85.132783,60.96184 82.359146,54.504695 83.926807,46.342604 89.20697,41.618924 c 0.762414,-0.700767 1.604991,-1.311106 2.492249,-1.843533 0,9.569661 0,19.139323 0,28.708984 z m 4.537109,-27.310547 c -1.276943,0.03807 -2.284845,1.403942 -1.824868,2.628406 0.295895,1.295525 1.940286,1.968567 3.037571,1.197098 1.499505,-0.823502 1.057419,-3.325047 -0.544551,-3.751586 -0.214953,-0.06902 -0.443671,-0.08581 -0.668152,-0.07392 z M 49.349609,82.039062 c -2.270576,0.05789 -4.533673,1.614605 -4.977993,3.917666 -0.702996,2.863823 1.126946,6.286446 4.147915,6.78546 2.49846,0.430278 5.359471,-1.003847 6.016965,-3.559856 0.867415,-2.919197 -0.953145,-6.541102 -4.071652,-7.071004 -0.369957,-0.06274 -0.740428,-0.08256 -1.115235,-0.07227 z" />
  </g>
</svg>
