<?xml version="1.0" encoding="UTF-8" standalone="no"?>
<svg
   xmlns:dc="http://purl.org/dc/elements/1.1/"
   xmlns:cc="http://creativecommons.org/ns#"
   xmlns:rdf="http://www.w3.org/1999/02/22-rdf-syntax-ns#"
   xmlns:svg="http://www.w3.org/2000/svg"
   xmlns="http://www.w3.org/2000/svg"
   xmlns:sodipodi="http://sodipodi.sourceforge.net/DTD/sodipodi-0.dtd"
   xmlns:inkscape="http://www.inkscape.org/namespaces/inkscape"
   width="150mm"
   height="150mm"
   viewBox="0 0 150 150"
   version="1.1"
   id="svg8"
   inkscape:version="1.0.2 (e86c870879, 2021-01-15, custom)"
   sodipodi:docname="201014.svg">
  <defs
     id="defs2" />
  <sodipodi:namedview
     id="base"
     pagecolor="#ffffff"
     bordercolor="#666666"
     borderopacity="1.0"
     inkscape:pageopacity="0.0"
     inkscape:pageshadow="2"
     inkscape:zoom="0.49497475"
     inkscape:cx="489.54164"
     inkscape:cy="417.73758"
     inkscape:document-units="mm"
     inkscape:current-layer="layer1"
     inkscape:document-rotation="0"
     showgrid="false"
     inkscape:window-width="1368"
     inkscape:window-height="850"
     inkscape:window-x="-6"
     inkscape:window-y="-6"
     inkscape:window-maximized="1" />
  <metadata
     id="metadata5">
    <rdf:RDF>
      <cc:Work
         rdf:about="">
        <dc:format>image/svg+xml</dc:format>
        <dc:type
           rdf:resource="http://purl.org/dc/dcmitype/StillImage" />
        <dc:title></dc:title>
      </cc:Work>
    </rdf:RDF>
  </metadata>
  <g
     inkscape:label="Ebene 1"
     inkscape:groupmode="layer"
     id="layer1">
    <path
       id="path24"
       style="fill:#6f6f73;stroke:none;stroke-width:0.310926"
       d="m 33.20043,2.2068887 c -2.182573,0.083946 -4.559126,0.832148 -5.77333,2.7809853 -1.713296,2.7125138 -1.309826,6.063691 -1.369761,9.11674 -0.007,40.124055 0.01399,80.248471 -0.01048,120.372296 -0.03334,3.00183 -0.656817,6.2275 0.739893,9.03222 1.047973,2.14489 3.305962,3.4857 5.648239,3.69442 2.985223,0.29741 5.995155,0.0911 8.990543,0.15335 25.695689,0.009 51.391676,-0.0179 77.087176,0.0135 3.05652,0.0558 6.37637,0.55574 9.1755,-0.98844 2.45829,-1.37835 3.47075,-4.31423 3.57509,-6.99068 0.0811,-6.05967 0.0172,-12.12328 0.0365,-18.18444 0.002,-35.300593 -0.0156,-70.601464 0.009,-105.901898 0.0512,-3.245493 0.5268,-6.7799126 -1.19816,-9.7137528 C 129.037,3.6355714 126.85852,2.5722881 124.69204,2.4215793 121.4755,2.205109 118.24448,2.3702673 115.02221,2.3183426 89.558518,2.3094926 64.094772,2.3361126 38.631565,2.3050496 36.821612,2.2586026 35.011292,2.098762 33.200303,2.2069386 Z m 89.49956,2.1210407 c 1.93913,-0.038204 4.24445,0.1488444 5.44214,1.9088373 1.10098,1.5373623 1.25506,3.4703922 1.25857,5.2569363 -0.20673,5.578574 -0.0806,11.162826 -0.11474,16.744284 0.008,35.484178 -0.0156,70.968657 0.0117,106.452643 0.0238,2.80029 0.51258,5.86595 -1.01055,8.39036 -1.03208,1.75073 -3.17075,2.26504 -5.06758,2.24597 -5.39109,0.0426 -10.78318,0.006 -16.17466,0.0183 0,-47.00512 0,-94.010245 0,-141.0153709 5.21836,-0.0013 10.43674,0.00262 15.65511,-0.00199 z m -88.397255,0.00199 c 5.232298,0 10.464596,0 15.696894,0 0,47.0051256 0,94.0102496 0,141.0153706 -5.585104,-0.0271 -11.172327,0.0546 -16.756104,-0.0416 -1.642817,-0.0302 -3.524908,-0.71818 -4.458281,-2.23464 -1.277943,-2.11729 -0.852719,-4.71892 -0.779014,-7.05893 0.141176,-4.17369 0.02472,-8.35427 0.06271,-12.53065 -0.0068,-36.305916 0.01356,-72.612177 -0.01019,-108.917889 -0.0081,-2.581835 -0.598521,-5.3508688 0.583272,-7.7701723 0.773538,-1.5795913 2.530422,-2.3493456 4.216146,-2.4097558 0.393998,-0.03481 0.977136,-0.03907 1.444536,-0.051732 z m 71.353325,0 c 0,47.0051256 0,94.0102496 0,141.0153706 -18.089208,0 -36.178407,0 -54.267607,0 0,-47.00512 0,-94.010244 0,-141.0153706 18.0892,0 36.178399,0 54.267607,0 z m -9.234293,9.9744626 c -4.011545,0.271191 -8.03675,0.08408 -12.054515,0.139281 -7.513531,-0.01966 -15.028654,0.03939 -22.54119,-0.02964 -1.996681,-0.09494 -4.38209,-0.445789 -5.966709,1.096119 -1.79579,1.792126 -1.891143,4.525654 -1.908141,6.908306 0.180293,6.210999 0.05014,12.426338 0.08954,18.639289 -0.01096,25.117909 0.02201,50.235982 -0.01662,75.353783 -2.39e-4,4.51229 -0.240574,9.04267 0.179026,13.542 0.22828,1.9539 0.972091,4.23884 2.984263,4.99358 2.311522,0.832 4.793677,0.19847 7.138985,0.28246 10.265979,0.0154 20.532999,-0.0309 30.798328,0.0231 2.045161,0.0959 4.453959,0.41218 6.074356,-1.13939 1.81135,-1.7595 1.91425,-4.48634 1.90813,-6.8526 -0.20702,-5.66894 -0.0627,-11.34367 -0.10545,-17.01528 -0.007,-29.711598 0.0149,-59.423553 -0.0111,-89.134919 -0.0558,-2.156601 -0.34847,-4.69117 -2.22332,-6.069964 -1.286537,-0.808426 -2.883184,-0.77755 -4.34555,-0.736195 z" />
  </g>
</svg>
