<?xml version="1.0" encoding="UTF-8" standalone="no"?>
<svg
   xmlns:dc="http://purl.org/dc/elements/1.1/"
   xmlns:cc="http://creativecommons.org/ns#"
   xmlns:rdf="http://www.w3.org/1999/02/22-rdf-syntax-ns#"
   xmlns:svg="http://www.w3.org/2000/svg"
   xmlns="http://www.w3.org/2000/svg"
   xmlns:sodipodi="http://sodipodi.sourceforge.net/DTD/sodipodi-0.dtd"
   xmlns:inkscape="http://www.inkscape.org/namespaces/inkscape"
   width="150mm"
   height="150mm"
   viewBox="0 0 150 150"
   version="1.1"
   id="svg8"
   sodipodi:docname="201032 learnmode.svg"
   inkscape:version="1.0.2 (e86c870879, 2021-01-15, custom)">
  <defs
     id="defs2" />
  <sodipodi:namedview
     id="base"
     pagecolor="#ffffff"
     bordercolor="#666666"
     borderopacity="1.0"
     inkscape:pageopacity="0.0"
     inkscape:pageshadow="2"
     inkscape:zoom="0.7"
     inkscape:cx="387.5857"
     inkscape:cy="403.89806"
     inkscape:document-units="mm"
     inkscape:current-layer="layer1"
     inkscape:document-rotation="0"
     showgrid="false"
     inkscape:window-width="1920"
     inkscape:window-height="1018"
     inkscape:window-x="2729"
     inkscape:window-y="-6"
     inkscape:window-maximized="1" />
  <metadata
     id="metadata5">
    <rdf:RDF>
      <cc:Work
         rdf:about="">
        <dc:format>image/svg+xml</dc:format>
        <dc:type
           rdf:resource="http://purl.org/dc/dcmitype/StillImage" />
        <dc:title></dc:title>
      </cc:Work>
    </rdf:RDF>
  </metadata>
  <g
     inkscape:label="Ebene 1"
     inkscape:groupmode="layer"
     id="layer1">
    <path
       style="fill:#000000;stroke-width:0.433983"
       d="M 37.960836,125.94846 C 19.100905,125.99629 3.9812625,125.8642 3.4477564,125.64695 2.8625459,125.40864 2.3223903,124.6268 2.039732,123.60892 1.7452384,122.54841 1.5802832,114.00635 1.5787288,99.736294 1.5770537,84.370272 1.7249548,77.188849 2.0581477,76.457566 2.3231592,75.875934 3.0158715,75.183219 3.5975083,74.918207 4.3431014,74.578494 14.44747,74.436369 37.854034,74.436369 H 71.05304 l 1.065229,1.065233 1.065233,1.065228 v 23.62372 c 0,22.61202 -0.03555,23.66759 -0.829516,24.64826 l -0.829511,1.02454 z m -0.513126,-0.3021 h 33.171346 l 1.06523,-1.06524 1.065233,-1.06522 v -23.18974 c 0,-22.184697 -0.03593,-23.234141 -0.829512,-24.214278 L 71.090501,75.087343 38.2916,74.97082 C 10.509492,74.87212 5.2635148,74.950073 3.9943324,75.480354 2.8282841,75.96756 2.4373452,76.426537 2.2316578,77.549801 2.0862887,78.343665 2.0258351,89.11694 2.0973167,101.49041 l 0.1299664,22.49722 1.0245401,0.82936 c 0.9886669,0.80033 2.1859975,0.82937 34.1958868,0.82937 z m -25.884535,-0.86797 c -0.288611,0 -0.436557,-5.54378 -0.431417,-16.16586 l 0.0078,-16.16587 1.619614,-1.339822 c 0.890786,-0.736903 2.400782,-1.858619 3.355544,-2.492703 0.954762,-0.634082 3.200624,-2.222179 4.990804,-3.529101 1.79018,-1.306926 3.401342,-2.382249 3.580359,-2.38961 0.179019,-0.0074 0.325489,6.558437 0.325489,14.590654 V 111.8901 l -6.504488,6.44414 c -3.577468,3.54429 -6.702146,6.44415 -6.94373,6.44415 z M 12.75137,122.988 c 0.417708,-0.32709 3.249448,-3.06015 6.292753,-6.07345 l 5.533284,-5.47873 V 97.513098 83.59038 l -1.299206,0.739285 -1.299204,0.739287 -0.0025,12.585504 -0.0025,12.585514 -4.991063,4.83668 c -4.815671,4.66668 -4.991086,4.90116 -4.991086,6.67137 0,1.68457 0.06215,1.78604 0.75947,1.23998 z m 0.216992,-4.93295 c 0.537055,-0.36718 2.57938,-2.27579 4.538502,-4.24135 l 3.562042,-3.57373 0.305055,-12.35927 0.305056,-12.359262 -1.046207,0.73867 c -0.575414,0.406269 -2.315608,1.615679 -3.867097,2.687578 -1.551489,1.0719 -3.260296,2.328974 -3.797351,2.793505 -0.97231,0.841006 -0.976462,0.900154 -0.976462,13.913029 v 13.06841 z m -2.387094,-10.28061 -0.119062,16.35297 -0.10312,-16.58864 -0.103119,-16.588661 3.950872,-2.723589 c 2.172981,-1.497971 4.587508,-3.114171 5.365616,-3.591551 0.778109,-0.477383 2.466655,-1.669447 3.752326,-2.649038 l 2.337582,-1.78107 0.1136,16.371433 0.113597,16.371426 -5.303253,5.26437 c -2.916789,2.89539 -5.490193,5.26434 -5.718675,5.26434 -0.228483,0 2.058038,-2.46628 5.081158,-5.48064 l 5.496581,-5.48066 V 96.926761 81.338399 l -1.998073,1.431292 c -1.098939,0.787212 -2.514809,1.700159 -3.146376,2.028775 -0.631567,0.328612 -1.636534,1.029478 -2.23326,1.557474 -0.596727,0.527997 -2.498493,1.883738 -4.226146,3.012757 l -3.141186,2.052761 z m 17.205454,14.38537 c -1.049052,0.70799 -1.907367,1.10103 -1.907367,0.87341 0,-0.22763 0.78117,-0.90699 1.735933,-1.5097 l 1.735932,-1.09584 0.104186,-20.934239 0.104187,-20.934234 0.117014,20.722685 0.117012,20.722678 h 18.414456 c 11.80817,0 18.51068,0.1557 18.682673,0.43399 0.177229,0.28676 -6.086443,0.43398 -18.464222,0.43398 H 29.694087 Z M 44.968314,99.948272 c -2.502492,0.08391 -3.86821,-0.04916 -4.231335,-0.412283 -0.32669,-0.32669 -0.536185,-1.761885 -0.536185,-3.673262 0,-2.273246 0.18779,-3.32487 0.681973,-3.81905 0.478529,-0.478531 1.514244,-0.681974 3.471865,-0.681974 2.62187,0 2.78989,-0.06011 2.78989,-0.99816 0,-0.548988 0.23435,-1.232512 0.52078,-1.51894 0.286428,-0.28643 1.160744,-0.52078 1.94292,-0.52078 1.029799,0 1.614078,0.292942 2.11788,1.061834 0.598254,0.913053 0.614407,1.232304 0.115292,2.278411 -0.386999,0.81113 -0.971198,1.26177 -1.752927,1.352182 -1.147775,0.132751 -1.175139,0.205895 -1.298742,3.471863 l -0.126263,3.336257 z m -1.145142,-0.774876 c 2.391667,0 2.782304,-0.108647 2.730651,-0.75947 -0.03316,-0.417709 0.232663,-0.75947 0.590699,-0.75947 0.358036,0 0.624201,0.339662 0.591476,0.754801 -0.03273,0.415138 0.113746,0.647727 0.325487,0.516864 0.211744,-0.130863 0.384986,-1.471896 0.384986,-2.98007 0,-1.830219 -0.203495,-2.911027 -0.611912,-3.24998 -0.374111,-0.310485 -1.765495,-0.457627 -3.58036,-0.378624 l -2.968448,0.129213 -0.126749,3.363368 -0.126753,3.363368 z m -1.912058,-0.433983 c -0.224604,0 -0.408371,-0.195293 -0.408371,-0.433983 0,-0.23869 0.304465,-0.433983 0.676588,-0.433983 0.372121,0 0.555888,0.195293 0.40837,0.433983 -0.147519,0.23869 -0.451983,0.433983 -0.676587,0.433983 z m 5.233408,-0.433983 c 0.318253,0 0.448447,-0.130196 0.289324,-0.289324 -0.15913,-0.159123 -0.419519,-0.159123 -0.578648,0 -0.159123,0.159128 -0.02893,0.289324 0.289324,0.289324 z m 1.668777,-6.415947 c 0.196147,-0.309126 0.678394,-0.432521 1.083234,-0.277168 0.547375,0.210048 0.662115,0.103905 0.459229,-0.424808 -0.148753,-0.387656 -0.02943,-0.995275 0.265212,-1.350269 0.339829,-0.409471 0.366944,-0.64545 0.07416,-0.64545 -0.253827,0 -0.588068,0.204775 -0.742748,0.455058 -0.19226,0.311078 -0.474978,0.294267 -0.89358,-0.05314 -0.336784,-0.279507 -0.612337,-0.328047 -0.612337,-0.107867 0,0.220177 0.212309,0.612633 0.471796,0.872119 0.339744,0.339743 0.339744,0.553414 0,0.763385 -0.259487,0.160374 -0.468806,0.524177 -0.465151,0.808453 0.0048,0.367913 0.108529,0.356296 0.360183,-0.04032 z m -9.697462,-3.131677 c -0.505038,0 -0.669174,-0.315588 -0.571305,-1.09845 0.07553,-0.604148 0.332615,-1.09845 0.571305,-1.09845 0.23869,0 0.495778,0.494302 0.571304,1.09845 0.09787,0.782862 -0.06626,1.09845 -0.571304,1.09845 z m -3.386382,-2.275122 c -0.857349,0.857348 -1.17044,0.987911 -1.17044,0.488092 0,-0.37529 0.391782,-1.036902 0.870627,-1.47025 0.478845,-0.43335 1.005541,-0.652989 1.170439,-0.488092 0.164897,0.164896 -0.226885,0.826507 -0.870626,1.47025 z m 7.894466,0.468412 c -0.125143,0.375429 -0.441327,0.330209 -1.146975,-0.164046 -0.535811,-0.3753 -0.974203,-0.927673 -0.974203,-1.227503 0,-0.36396 -0.67685,-0.536078 -2.036547,-0.517868 -1.782211,0.02387 -2.120949,-0.121771 -2.712393,-1.166181 -0.608072,-1.073769 -0.60918,-1.313137 -0.01106,-2.386907 0.535765,-0.961813 1.020338,-1.219366 2.496633,-1.326963 1.655973,-0.12069 1.875696,-0.01814 2.288659,1.068019 0.25125,0.660839 0.343349,1.653631 0.204662,2.206201 -0.186309,0.742313 0.05026,1.264798 0.905916,2.000803 0.636938,0.547869 1.080326,1.22937 0.985299,1.514445 z m -9.498889,-3.835069 c -0.716072,0 -1.301949,-0.195291 -1.301949,-0.433982 0,-0.238691 0.585877,-0.433983 1.301949,-0.433983 0.716073,0 1.301949,0.195292 1.301949,0.433983 0,0.238691 -0.585876,0.433982 -1.301949,0.433982 z m 9.981608,0 c -0.71607,0 -1.301948,-0.195291 -1.301948,-0.433982 0,-0.238691 0.585878,-0.433983 1.301948,-0.433983 0.716073,0 1.30195,0.195292 1.30195,0.433983 0,0.238691 -0.585877,0.433982 -1.30195,0.433982 z m -7.941888,-3.037879 c -0.310298,0 -0.798528,-0.234352 -1.084957,-0.52078 -0.286428,-0.286429 -0.52078,-0.77466 -0.52078,-1.084958 0,-0.310297 0.165025,-0.564178 0.366722,-0.564178 0.201695,0 0.689927,0.357138 1.084956,0.793643 0.395031,0.436504 0.718238,0.924734 0.718238,1.084957 0,0.160222 -0.253881,0.291316 -0.564179,0.291316 z m 5.704712,0 c -0.201696,0 -0.366721,-0.165027 -0.366721,-0.366721 0,-0.201697 0.391782,-0.72128 0.870627,-1.154629 0.478845,-0.433349 0.998427,-0.660105 1.154628,-0.503906 0.1562,0.156204 -0.07056,0.675785 -0.503906,1.154629 -0.433349,0.478844 -0.952932,0.870627 -1.154628,0.870627 z m -2.485666,-1.179327 c -0.319343,0.319346 -0.536996,0.246727 -0.724421,-0.241695 -0.147356,-0.384005 -0.202582,-1.012855 -0.122723,-1.397442 0.07987,-0.384587 0.340493,-0.737754 0.579183,-0.784818 0.23869,-0.04707 0.49934,0.376357 0.579222,0.940943 0.07989,0.564582 -0.06018,1.231939 -0.311261,1.483012 z m 73.873082,47.042819 c -18.579343,0.043 -34.073564,-0.0293 -34.4316,-0.16077 -0.358036,-0.13147 -0.988393,-0.65494 -1.400793,-1.16325 -0.689525,-0.84987 -0.750599,-2.81134 -0.759471,-24.39211 l -0.0096,-23.467927 1.119785,-1.052113 1.119781,-1.052109 33.829338,-0.116295 33.82932,-0.116298 1.07148,1.156129 1.07147,1.156131 v 23.540622 c 0,22.53022 -0.0356,23.58459 -0.82953,24.56516 l -0.82951,1.02454 z m -0.23572,-0.3228 33.11094,0.0275 1.06522,-1.06523 1.06523,-1.06523 V 100.3262 c 0,-22.184717 -0.0359,-23.234136 -0.8295,-24.214273 l -0.82952,-1.024544 -33.12965,-0.114501 c -31.732964,-0.10968 -33.193694,-0.08007 -34.6486,0.702423 l -1.51894,0.816928 -0.112281,23.019935 c -0.07067,14.489562 0.0476,23.440452 0.319177,24.154752 0.237298,0.62415 0.873703,1.31248 1.41423,1.52964 0.558084,0.2242 15.291073,0.4067 34.093694,0.42232 z m -21.683291,-3.43793 c -0.914659,0.73503 -1.663015,1.16462 -1.663015,0.95463 0,-0.20999 0.7793,-1.00807 1.731775,-1.77349 l 1.731774,-1.3917 0.11692,-20.922557 0.116919,-20.922569 0.104229,20.939676 0.10423,20.93967 h 24.303059 c 16.16438,0 24.30304,0.14764 24.30304,0.44084 0,0.29351 -8.21859,0.43385 -24.59297,0.41995 l -24.592943,-0.0209 -1.663018,1.33644 z m 22.625571,-2.61031 c -8.74404,0 -16.028445,-0.1302 -16.187568,-0.28933 -0.159129,-0.15912 -0.289324,-5.13221 -0.289324,-11.0513 0,-10.195879 0.04415,-10.785596 0.839436,-11.211222 0.532866,-0.285178 6.397196,-0.44925 16.057376,-0.44925 14.37231,0 15.26375,0.04582 16.0425,0.824568 0.45351,0.453512 0.99056,0.660075 1.19344,0.459024 0.20289,-0.201047 1.18225,-0.25568 2.17635,-0.121408 1.33709,0.180598 1.86775,0.474692 2.03915,1.130079 0.12741,0.487268 0.03,1.262699 -0.2164,1.723179 -0.36856,0.68864 -0.82679,0.81098 -2.58189,0.68931 l -2.13381,-0.14794 2.7e-4,8.70137 c 1.9e-4,6.18939 -0.15006,8.85169 -0.52051,9.22214 -0.3861,0.3861 -4.63236,0.52078 -16.41902,0.52078 z m 0.23145,-0.62989 c 8.59286,1.5e-4 12.16964,-0.0577 7.94839,-0.12881 -4.22125,-0.0709 -11.25179,-0.071 -15.62339,-2.5e-4 -4.37161,0.0708 -0.91785,0.12892 7.675,0.12906 z m -0.21699,-0.67207 h 16.05737 V 108.07004 97.871447 H 113.9779 97.920531 v 10.198593 10.1986 z m -13.16791,-1.79283 c -0.32033,0.26585 -0.71092,0.35485 -0.867973,0.19779 -0.157047,-0.15705 -0.285558,-3.96355 -0.285558,-8.45889 0,-6.69688 0.109213,-8.17335 0.604551,-8.17335 0.3325,0 0.72308,0.30891 0.86797,0.68647 0.14488,0.37755 0.26342,3.96656 0.26342,7.97555 0,5.56835 -0.1375,7.40318 -0.58241,7.77243 z m -0.39674,-3.93548 c 0.0794,-2.07647 0.0797,-5.59175 8.7e-4,-7.8117 -0.0789,-2.21996 -0.14387,-0.52104 -0.14432,3.7754 -4.4e-4,4.29643 0.0641,6.11276 0.14349,4.0363 z m 2.68392,4.42637 c -0.20476,0 -0.57446,-0.37775 -0.82155,-0.83944 -0.25789,-0.48188 -0.44641,-3.85546 -0.44259,-7.92019 0.003,-3.89442 0.17923,-7.35332 0.39018,-7.68647 0.21095,-0.33314 0.69618,-0.48574 1.0783,-0.33911 0.60032,0.23037 0.69479,1.2962 0.69479,7.83944 0,4.16506 -0.11854,7.88174 -0.26343,8.2593 -0.14488,0.37756 -0.43095,0.68647 -0.6357,0.68647 z m -0.08,-4.42637 c 0.0793,-2.07647 0.0797,-5.59175 8.6e-4,-7.8117 -0.0789,-2.21996 -0.14387,-0.52104 -0.14432,3.7754 -4.4e-4,4.29643 0.0641,6.11276 0.14349,4.0363 z m 2.38981,4.31779 c -0.29824,0.0994 -0.64468,-0.0862 -0.76987,-0.41241 -0.12519,-0.32623 -0.17412,-4.10185 -0.10873,-8.39025 0.10039,-6.58859 0.21979,-7.79711 0.76987,-7.79711 0.5557,0 0.65099,1.2015 0.65099,8.20951 0,6.18 -0.13407,8.25419 -0.54226,8.39026 z m 0.21408,-4.31779 c 0.0793,-2.07647 0.0797,-5.59175 8.7e-4,-7.8117 -0.0789,-2.21996 -0.14387,-0.52104 -0.14432,3.7754 -4.4e-4,4.29643 0.0641,6.11276 0.14349,4.0363 z m 2.54876,3.95032 c -0.46463,0.38561 -0.66079,0.34056 -0.86797,-0.19935 -0.14721,-0.38365 -0.26767,-4.08766 -0.26767,-8.23113 0,-5.05932 0.15848,-7.63154 0.48251,-7.83181 0.26538,-0.16401 0.65297,-0.0291 0.86133,0.29987 0.20833,0.32896 0.38179,3.94297 0.38546,8.03116 0.005,5.80506 -0.12485,7.54218 -0.59366,7.93126 z m 2.4741,0.35775 c -0.28219,0.0941 -0.7216,-0.21857 -0.97646,-0.69477 -0.27148,-0.50725 -0.46091,-3.61836 -0.45745,-7.51257 0.003,-3.65573 0.12617,-7.09564 0.27312,-7.64425 0.16423,-0.61314 0.53819,-0.94528 0.97053,-0.86202 0.61891,0.11918 0.70336,1.12046 0.70336,8.33902 0,5.92654 -0.14241,8.25104 -0.5131,8.37459 z m -0.24905,-4.30807 c 0.0793,-2.07647 0.0797,-5.59175 8.7e-4,-7.8117 -0.0789,-2.21996 -0.14386,-0.52104 -0.14433,3.7754 -4.3e-4,4.29643 0.0641,6.11276 0.14351,4.0363 z m 2.38981,4.31815 c -0.29823,0.0992 -0.64468,-0.0865 -0.76986,-0.41277 -0.12519,-0.32623 -0.17412,-4.09935 -0.10872,-8.38468 0.10769,-7.05773 0.19131,-7.80544 0.88785,-7.93925 0.71768,-0.137865 0.76108,0.40915 0.65098,8.20428 -0.0876,6.20804 -0.25719,8.39831 -0.66025,8.53242 z m 0.21409,-4.31815 c 0.0793,-2.07647 0.0797,-5.59175 8.7e-4,-7.8117 -0.0789,-2.21996 -0.14387,-0.52104 -0.14433,3.7754 -4.3e-4,4.29643 0.0641,6.11276 0.14349,4.0363 z m 2.7928,3.88147 c -0.26585,0.41865 -0.45949,0.42352 -0.86131,0.0217 -0.36184,-0.36185 -0.51637,-2.75257 -0.51172,-7.91778 0.004,-4.11379 0.1964,-7.68845 0.43399,-8.05038 0.37985,-0.578639 0.47481,-0.578639 0.85467,0 0.23818,0.36282 0.42734,3.91675 0.42734,8.02869 0,4.05773 -0.15434,7.62073 -0.34297,7.91777 z m 2.20091,0.43632 c -0.29824,0.0994 -0.64468,-0.0862 -0.76987,-0.41241 -0.12518,-0.32623 -0.17411,-4.10185 -0.10872,-8.39025 0.10049,-6.58859 0.21979,-7.79711 0.76988,-7.79711 0.5557,0 0.65097,1.2015 0.65097,8.20951 0,6.18 -0.13406,8.25419 -0.54226,8.39026 z m -0.21989,-4.31779 c 0.0793,-2.07647 0.0797,-5.59175 8.7e-4,-7.8117 -0.0789,-2.21996 -0.14388,-0.52104 -0.14433,3.7754 -4.3e-4,4.29643 0.0641,6.11276 0.1435,4.0363 z m 2.31224,4.42637 c -0.20475,0 -0.49082,-0.30891 -0.6357,-0.68647 -0.14489,-0.37756 -0.26343,-4.09424 -0.26343,-8.2593 0,-6.54324 0.0945,-7.60907 0.69479,-7.83944 0.38212,-0.14663 0.86736,0.006 1.0783,0.33911 0.21095,0.33315 0.38653,3.79205 0.39018,7.68647 0.004,4.06473 -0.1847,7.43831 -0.44259,7.92019 -0.2471,0.46169 -0.61679,0.83944 -0.82155,0.83944 z m 0.29166,-4.42637 c 0.0793,-2.07647 0.0797,-5.59175 8.7e-4,-7.8117 -0.0789,-2.21996 -0.14388,-0.52104 -0.14433,3.7754 -4.4e-4,4.29643 0.0641,6.11276 0.1435,4.0363 z m 2.78454,4.16644 c -0.20048,0.1239 -0.59107,-0.001 -0.86797,-0.27818 -0.3418,-0.34181 -0.50346,-2.83311 -0.50346,-7.75887 0,-3.99048 0.11854,-7.56434 0.26343,-7.94189 0.14488,-0.37756 0.53546,-0.68647 0.86797,-0.68647 0.49545,0 0.60454,1.48325 0.60454,8.22007 0,4.52103 -0.16403,8.32143 -0.36451,8.44534 z m -0.18065,-4.16644 c 0.0793,-2.07647 0.0797,-5.59175 8.6e-4,-7.8117 -0.0789,-2.21996 -0.14386,-0.52104 -0.14431,3.7754 -4.4e-4,4.29643 0.0641,6.11276 0.1435,4.0363 z m 2.38981,4.31779 c -0.29823,0.0994 -0.64467,-0.0862 -0.76986,-0.41241 -0.12519,-0.32623 -0.17412,-4.10185 -0.10873,-8.39025 0.10049,-6.58859 0.2198,-7.79711 0.76987,-7.79711 0.5557,0 0.65097,1.2015 0.65097,8.20951 0,6.18 -0.13405,8.25419 -0.54225,8.39026 z m -0.10872,-0.97638 c 0.26168,-0.16174 0.43399,-3.18705 0.43399,-7.62031 0,-4.61209 -0.16174,-7.3521 -0.43399,-7.3521 -0.27284,0 -0.43398,2.82942 -0.43398,7.62031 0,4.9697 0.15096,7.52703 0.43398,7.3521 z m 2.88945,0.59407 c -0.32032,0.26585 -0.71091,0.35485 -0.86796,0.19779 -0.15706,-0.15705 -0.28556,-3.96355 -0.28556,-8.45889 0,-6.69688 0.10921,-8.17335 0.60455,-8.17335 0.3325,0 0.72308,0.30891 0.86796,0.68647 0.14489,0.37755 0.26342,3.96656 0.26342,7.97555 0,5.56835 -0.13748,7.40318 -0.58241,7.77243 z m -0.39673,-3.93548 c 0.0793,-2.07647 0.0797,-5.59175 8.7e-4,-7.8117 -0.0789,-2.21996 -0.14387,-0.52104 -0.14433,3.7754 -4.3e-4,4.29643 0.0641,6.11276 0.1435,4.0363 z m 4.31618,-12.17348 c 0.10916,-0.41771 0.10916,-1.101233 0,-1.51894 -0.10915,-0.41771 -0.19847,-0.07596 -0.19847,0.759469 0,0.835421 0.0893,1.177171 0.19847,0.759471 z m 1.28746,-0.20873 c 0.11887,-0.293824 0.12612,-0.8797 0.0161,-1.301952 -0.11002,-0.422253 -0.20729,-0.181852 -0.21612,0.534219 -0.009,0.716073 0.0812,1.061553 0.20005,0.767733 z M 126.3262,89.625771 c -2.72365,0 -3.27148,-0.125876 -3.65336,-0.839436 -0.24709,-0.461688 -0.44924,-2.036863 -0.44924,-3.500393 0,-1.46353 0.20215,-3.038704 0.44924,-3.500393 0.37815,-0.706572 0.92765,-0.839436 3.47186,-0.839436 2.69535,0 3.02262,-0.09056 3.02262,-0.836468 0,-0.460057 0.5007,-1.23032 1.11267,-1.711693 0.79795,-0.627674 1.38102,-0.777172 2.06142,-0.528561 0.5218,0.19067 1.23006,0.84078 1.5739,1.444694 0.55485,0.974531 0.54152,1.225681 -0.1185,2.232994 -0.47067,0.718338 -1.13826,1.134966 -1.81861,1.134966 -1.04702,0 -1.07495,0.08339 -1.07495,3.20844 0,2.525334 -0.14616,3.264527 -0.68647,3.471863 -0.37756,0.144885 -2.12831,0.263423 -3.89058,0.263423 z m -0.38815,-0.867965 c 1.6463,0 2.74123,-0.170343 2.59682,-0.403995 -0.13732,-0.222199 -0.0342,-0.53718 0.2292,-0.699958 0.26338,-0.162779 0.70598,-0.04998 0.98354,0.250672 0.39164,0.424206 0.36816,0.468758 -0.10487,0.198922 -0.42489,-0.242385 -0.50864,-0.184487 -0.27651,0.191133 0.20691,0.334781 0.48692,0.384974 0.73936,0.132531 0.22348,-0.223475 0.3479,-1.754007 0.2765,-3.401181 l -0.12982,-2.99486 -3.58036,-0.126045 -3.58035,-0.126047 v 3.489414 3.489414 z M 124.1404,88.28956 c -0.50556,-0.02083 -0.6084,-0.123659 -0.26221,-0.262195 0.31329,-0.125365 0.6876,-0.10995 0.83182,0.03424 0.1442,0.144209 -0.11213,0.246781 -0.56961,0.227937 z m 6.79492,-7.245554 c 0.52625,-0.393891 0.81483,-0.389086 1.25733,0.02092 0.46189,0.427971 0.52599,0.393821 0.32738,-0.174431 -0.13582,-0.388623 -0.0279,-0.925676 0.23992,-1.193453 0.35983,-0.359838 0.35766,-0.486869 -0.008,-0.486869 -0.27234,0 -0.62172,0.204775 -0.77641,0.455057 -0.18925,0.306207 -0.51702,0.270715 -1.00207,-0.108495 -0.62717,-0.490326 -0.65168,-0.474807 -0.18868,0.119445 0.42021,0.539332 0.42021,0.808793 0,1.281022 -0.4413,0.495908 -0.41554,0.510729 0.15084,0.0868 z M 37.338672,70.957862 3.4467645,70.964505 2.6200322,70.051062 C 1.8281888,69.17617 1.7933,68.132763 1.7933,45.32618 V 21.514737 L 2.7816436,20.526133 3.7699871,19.537529 36.415324,19.406095 c 21.775311,-0.08768 33.163432,0.01938 34.201293,0.321492 0.985042,0.286737 1.741423,0.859978 2.061419,1.562299 0.364324,0.799605 0.505466,7.534159 0.505466,24.118579 0,16.497844 -0.141197,23.277457 -0.498951,23.957135 -0.274425,0.521361 -0.713833,1.091411 -0.976462,1.266775 -0.262633,0.175364 -15.728871,0.321832 -34.369417,0.325487 z m 0.02555,-0.427339 c 28.232924,0 33.615572,-0.09659 34.325888,-0.615992 0.816275,-0.596873 0.842418,-1.358874 0.842418,-24.555017 0,-23.196144 -0.02614,-23.958145 -0.842418,-24.555021 -0.710212,-0.519321 -6.065992,-0.61599 -34.128081,-0.61599 -32.1262418,0 -33.321351,0.0289 -34.3102038,0.829622 l -1.0245401,0.829622 v 23.42786 c 0,22.429348 0.035237,23.466793 0.8267322,24.341386 l 0.8267321,0.91353 z M 12.642875,69.228575 c -0.470148,0 -0.650975,-0.482204 -0.650975,-1.735933 0,-1.558785 -0.109873,-1.735932 -1.076689,-1.735932 -0.77721,0 -1.1500496,-0.292291 -1.3404333,-1.050841 -0.1450594,-0.577961 -0.099954,-2.775 0.1002276,-4.882309 l 0.3639717,-3.831466 1.792568,-0.398016 c 1.761924,-0.391212 1.7971,-0.435725 2.057647,-2.603896 0.145795,-1.213236 0.266777,-3.590714 0.268852,-5.283286 0.002,-1.69257 0.277598,-3.987256 0.612274,-5.099298 L 15.378819,40.5857 h -1.476467 -1.476468 v -8.896649 -8.89665 h 9.113642 9.113643 v 7.408708 c 0,5.842237 0.131086,7.539795 0.619976,8.028684 0.501453,0.501454 2.532532,0.619976 10.624315,0.619976 h 10.004341 l 0.223944,-0.976461 c 0.123168,-0.537054 0.273357,-2.441154 0.333754,-4.231334 l 0.109812,-3.254871 3.507788,-0.124875 3.507793,-0.124875 0.716524,-1.502562 c 0.570826,-1.19704 0.969002,-1.502561 1.958226,-1.502561 0.682941,0 1.564917,0.357139 1.959946,0.793643 0.395033,0.436502 0.718237,1.301368 0.718237,1.921924 0,0.620554 -0.306886,1.43517 -0.681973,1.810255 -0.375084,0.375086 -1.253899,0.681973 -1.952924,0.681973 -1.262361,0 -1.270949,0.01738 -1.270949,2.5729 0,1.807956 -0.212001,2.784898 -0.713068,3.285968 -0.567977,0.567972 -1.407109,0.684665 -4.12386,0.573477 -2.078213,-0.08505 -3.410234,0.02996 -3.40937,0.29439 8.69e-4,0.281029 -3.727683,0.388262 -10.579335,0.304257 -9.092323,-0.111479 -10.675311,-0.03516 -11.252956,0.542478 -0.514347,0.514346 -1.658585,0.672205 -4.872474,0.672205 -3.779522,0 -4.17183,0.07411 -3.916362,0.739849 0.156148,0.406918 0.397434,1.568121 0.536189,2.580454 0.216651,1.580646 0.411728,1.859239 1.381211,1.972544 0.990343,0.115744 1.215703,0.46491 1.835791,2.844334 l 0.70686,2.712393 h -4.325521 -4.325518 l 0.289628,-1.193453 c 0.159296,-0.656399 0.637847,-1.876976 1.063448,-2.712393 0.438531,-0.860801 1.160294,-1.576499 1.66578,-1.651781 0.781552,-0.116397 0.863323,-0.358134 0.660604,-1.952923 -0.127248,-1.001046 -0.407005,-2.161845 -0.621682,-2.579553 -0.270934,-0.527167 -0.909106,-0.759471 -2.08638,-0.759471 -1.260682,0 -1.869473,0.247593 -2.371637,0.964531 -0.510001,0.72813 -0.675582,2.11089 -0.675582,5.641777 v 4.677249 l 9.43913,0.0269 c 5.191522,0.01479 14.345085,0.0036 20.341252,-0.0248 9.730956,-0.04614 10.93144,0.02471 11.175061,0.659574 0.150118,0.391199 0.27294,1.161795 0.27294,1.712437 0,0.798658 0.304157,1.058224 1.503717,1.283262 0.827045,0.155155 1.599982,0.437863 1.717644,0.628239 0.117661,0.190378 0.348566,2.428676 0.513123,4.973994 l 0.299198,4.627855 h -1.148876 c -1.051032,0 -1.148873,0.147841 -1.148873,1.735932 0,1.365237 -0.16218,1.735207 -0.75947,1.732547 -0.417709,-0.0017 -1.003586,-0.52903 -1.30195,-1.17148 -0.298363,-0.642452 -0.542479,-1.422097 -0.542479,-1.732543 0,-0.455526 -4.061925,-0.564456 -21.048174,-0.564456 H 14.161815 v 1.110571 c 0,0.629866 -0.187846,0.994472 -0.433983,0.842353 -0.23869,-0.147519 -0.433983,0.133892 -0.433983,0.625361 0,0.50497 -0.283103,0.89358 -0.650974,0.89358 z m 9.645141,-4.441443 12.054009,-0.115379 v -2.386906 -2.386906 l -9.128141,-0.116853 c -5.020477,-0.06428 -10.488662,0.03338 -12.151524,0.216991 l -3.023384,0.333845 -0.1374134,1.673073 c -0.075581,0.920191 -0.031687,1.948576 0.097513,2.285294 0.1959084,0.510534 2.2370934,0.59306 12.2889354,0.496841 z m 26.289631,0.06736 12.065707,0.03428 -0.131175,-2.278409 -0.131177,-2.278412 -2.603897,-0.278385 c -1.432143,-0.153112 -6.73789,-0.299581 -11.79054,-0.325487 -5.052656,-0.02592 -9.495557,0.07142 -9.873115,0.216299 -0.494306,0.189681 -0.686469,0.847725 -0.686469,2.350743 0,1.263789 0.214029,2.173677 0.54248,2.306212 0.298363,0.12039 5.972046,0.234312 12.608186,0.253156 z M 11.774909,59.680949 c 1.44661,0 1.51894,-0.07233 1.51894,-1.51894 0,-1.446609 -0.07233,-1.518939 -1.51894,-1.518939 -1.446611,0 -1.518941,0.07233 -1.518941,1.518939 0,1.44661 0.07233,1.51894 1.518941,1.51894 z m 26.564719,-0.495935 c 1.620367,-0.180103 6.21727,-0.337488 10.21534,-0.349744 6.623764,-0.02031 7.269547,-0.08972 7.272986,-0.781757 0.0022,-0.417708 0.127352,-1.788355 0.278391,-3.045879 l 0.274616,-2.286409 -10.368496,0.116494 -10.368492,0.116496 -0.125234,3.279128 -0.125235,3.27913 z M 56.56539,58.16764 c 0.10528,-0.951665 0.420985,-1.89417 0.701568,-2.094458 0.350589,-0.25026 0.30654,-0.30934 -0.140828,-0.188893 -0.443448,0.11939 -0.667101,0.787093 -0.701563,2.094459 -0.05021,1.90466 -0.04915,1.906091 0.140823,0.188892 z m 1.862689,1.513309 c 1.198618,0 1.30195,-0.12055 1.30195,-1.51894 0,-1.39839 -0.103337,-1.518939 -1.30195,-1.518939 -1.198617,0 -1.301949,0.120549 -1.301949,1.518939 0,1.39839 0.103338,1.51894 1.301949,1.51894 z M 32.497596,59.14889 34.559015,59.24697 V 55.992097 52.737225 H 24.360416 c -9.425068,0 -10.198314,0.0576 -10.194829,0.759471 0.002,0.417708 0.126414,1.780452 0.27631,3.02832 l 0.272536,2.268849 7.860872,0.128475 c 4.323481,0.07066 8.78851,0.17261 9.922291,0.226553 z m -18.40082,-2.303727 c 0.08357,-0.07939 0.02323,-0.352632 -0.134108,-0.607203 -0.157333,-0.254572 -0.477527,-0.462857 -0.711542,-0.462857 -0.234014,0 -0.173666,0.273242 0.134109,0.607203 0.307774,0.333962 0.627968,0.542248 0.711541,0.462857 z m 8.270087,-6.277855 c 3.035748,0 3.413919,-0.08753 3.281011,-0.75947 -0.08262,-0.417709 -0.263353,-1.296524 -0.401622,-1.952922 -0.236486,-1.122655 -0.38971,-1.193454 -2.582915,-1.193454 -2.316973,0 -2.335871,0.01088 -3.029613,1.744713 -0.383953,0.959593 -0.698095,1.83841 -0.698095,1.952924 0,0.114515 1.544055,0.208209 3.431234,0.208209 z m -7.796677,-10.41559 c 0.940676,0 1.831016,-0.195292 1.978535,-0.433983 0.159621,-0.25827 -0.357146,-0.433983 -1.276336,-0.433983 H 13.727832 V 31.689051 24.09435 h 7.793439 7.793439 l 0.14791,3.363368 0.14791,3.363368 0.08734,-3.797351 0.08733,-3.797351 h -8.462669 -8.462668 v 8.462667 8.462667 z m 4.365443,-0.06852 c 0.596726,0 0.840841,-0.09851 0.542477,-0.218894 -0.298363,-0.120392 -0.786593,-0.120392 -1.084957,0 -0.298363,0.120392 -0.05425,0.218894 0.54248,0.218894 z m 6.752347,0.06852 h 4.097227 l -0.08361,-3.146376 -0.08361,-3.146377 -0.15408,2.712394 -0.15408,2.712393 h -4.127742 c -2.641318,0 -4.031157,0.15628 -3.859526,0.433983 0.148165,0.239737 2.10209,0.433983 4.365442,0.433983 z m -4.365441,-1.301949 h 7.160719 v -6.943727 -6.943726 h -7.160719 -7.16072 v 6.943726 6.943727 z m 35.135279,-0.867966 c 1.771544,0 3.340305,-0.193056 3.486133,-0.429012 0.148067,-0.239574 -0.0129,-0.322325 -0.364471,-0.187404 -0.346288,0.132883 -0.758542,0.03299 -0.916122,-0.221963 -0.157574,-0.254964 -0.159939,-0.668345 -0.0053,-0.918626 0.191121,-0.309245 0.48432,-0.286514 0.915022,0.07094 0.547153,0.454096 0.616021,0.11588 0.503845,-2.474328 l -0.129918,-3.00032 h -3.471864 -3.471863 l -0.132852,2.585813 c -0.07307,1.422198 -0.02053,3.03336 0.116764,3.58036 0.232154,0.924983 0.474903,0.994545 3.470609,0.994545 z m -2.62272,-0.902227 c -0.505568,-0.02082 -0.6084,-0.12366 -0.2622,-0.262199 0.313279,-0.125365 0.68759,-0.109946 0.831803,0.03426 0.144209,0.14421 -0.112115,0.246781 -0.569603,0.227937 z m 3.074046,-2.135653 c -0.119347,0 -0.216993,-0.09764 -0.216993,-0.216992 0,-0.119345 0.09764,-0.216991 0.216993,-0.216991 0.119345,0 0.21699,0.09764 0.21699,0.216991 0,0.119346 -0.09764,0.216992 -0.21699,0.216992 z m 2.169914,2.169915 c 0.119345,0 0.216992,-0.09764 0.216992,-0.216992 0,-0.119345 -0.09764,-0.216991 -0.216992,-0.216991 -0.119345,0 -0.216991,0.09764 -0.216991,0.216991 0,0.119345 0.09764,0.216992 0.216991,0.216992 z m 2.703836,-6.075762 c 0.384825,0 1.056822,-0.323206 1.493326,-0.718236 0.436505,-0.39503 0.793642,-0.917302 0.793642,-1.160607 0,-0.243303 -0.478292,0.007 -1.062875,0.556151 -0.634436,0.596019 -1.34327,0.890923 -1.758474,0.731594 -0.403622,-0.154885 -0.584302,-0.08686 -0.43045,0.162086 0.145826,0.235957 0.58,0.429012 0.964831,0.429012 z m 5.541841,36.020583 c -0.119346,0 -0.216992,-0.09764 -0.216992,-0.216991 0,-0.119346 0.09764,-0.216992 0.216992,-0.216992 0.119346,0 0.216991,0.09764 0.216991,0.216992 0,0.119345 -0.09764,0.216991 -0.216991,0.216991 z m -3.33338,-0.601374 c -0.162527,0.09985 -0.35782,0.0319 -0.433983,-0.151018 -0.07617,-0.18291 -0.03754,-2.773719 0.08583,-5.757352 l 0.224316,-5.424786 0.209666,5.575803 c 0.115318,3.066693 0.07669,5.657502 -0.08584,5.757353 z M 62.117629,54.732176 c -0.597108,0.06366 -1.085651,-0.06622 -1.085651,-0.288627 0,-0.222407 0.244115,-0.427516 0.542477,-0.455798 0.298364,-0.02827 0.786596,-0.01972 1.084959,0.01902 0.298364,0.03875 0.542478,-0.13341 0.542478,-0.382564 0,-0.249155 -0.292938,-0.453009 -0.650974,-0.453009 -0.358036,0 -0.650974,-0.292938 -0.650974,-0.650973 0,-0.467167 0.477042,-0.650975 1.6895,-0.650975 1.136028,0 1.775284,0.223556 1.951369,0.682412 0.144025,0.375328 0.05365,1.07146 -0.200825,1.546962 -0.340959,0.637085 -0.607963,0.743985 -1.014839,0.406309 -0.30368,-0.252031 -0.68033,-0.330051 -0.837006,-0.173376 -0.156672,0.156675 -0.773406,0.336949 -1.370514,0.400611 z m 2.675536,-1.271648 c 0.159124,-0.159127 0.159124,-0.419517 0,-0.578645 -0.159128,-0.159126 -0.289324,-0.02893 -0.289324,0.289322 0,0.318254 0.130196,0.44845 0.289324,0.289323 z M 63.38272,52.702961 c 0.457487,0.01885 0.713811,-0.08374 0.569604,-0.227936 -0.144214,-0.14421 -0.518523,-0.159627 -0.831803,-0.03426 -0.346201,0.138539 -0.24337,0.241374 0.262199,0.262199 z m -3.001718,1.770193 c -0.119344,0 -0.21699,-0.374309 -0.21699,-0.831799 0,-0.457491 -0.234242,-0.909882 -0.520537,-1.005314 -0.325588,-0.108529 -0.24432,-0.279506 0.216991,-0.456527 0.591979,-0.227163 0.737529,-0.02876 0.737529,1.005312 0,0.70858 -0.09764,1.288328 -0.216993,1.288328 z m 6.726737,-0.650974 c -0.327773,0.762771 -0.376676,0.719829 -0.403478,-0.354313 -0.02705,-1.083189 0.105306,-1.206653 1.162948,-1.084957 0.854517,0.09832 1.232838,0.414634 1.332133,1.113783 0.105488,0.742751 -0.07628,0.976461 -0.759471,0.976461 -0.554439,0 -0.909823,-0.29064 -0.928654,-0.759469 -0.02608,-0.64943 -0.08454,-0.633709 -0.403478,0.108495 z m -3.046729,-7.811693 -0.225845,4.339829 -0.208138,-4.491045 c -0.114481,-2.470077 -0.07517,-4.572655 0.08735,-4.672397 0.162527,-0.09974 0.357818,-0.03169 0.433982,0.151217 0.07617,0.182912 0.03685,2.28549 -0.08735,4.672396 z m 48.67574,24.954018 H 78.785827 l -1.06523,-1.065233 -1.065233,-1.065228 V 45.359514 21.884982 l 1.036469,-1.036469 c 0.570059,-0.570058 1.69299,-1.155117 2.495403,-1.300132 0.802413,-0.145014 16.074,-0.206779 33.936854,-0.137256 l 32.47792,0.126404 1.04728,1.217654 1.04726,1.217653 v 23.55222 23.552218 l -1.00444,0.943618 -1.00444,0.943613 z m 0.10497,-0.433982 h 33.62191 l 0.89946,-1.143485 c 0.88399,-1.123807 0.89946,-1.535006 0.89946,-23.897591 0,-16.305638 -0.14139,-23.022749 -0.49894,-23.702038 -0.27443,-0.521363 -0.71383,-1.09141 -0.97647,-1.266772 -0.26263,-0.175364 -15.57272,-0.321834 -34.02241,-0.325488 l -33.54492,-0.0067 -1.06523,1.065231 -1.065232,1.065231 v 23.040595 23.040548 l 1.065232,1.065227 1.06523,1.065235 z M 89.914869,65.75671 c -0.132009,0 -0.240015,-0.16454 -0.240015,-0.365642 0,-0.201104 0.683524,-0.733745 1.51894,-1.183646 l 1.518942,-0.818005 V 42.656926 c 0,-13.532339 0.150718,-20.732491 0.433983,-20.732491 0.28323,0 0.433982,7.160719 0.433982,20.61419 v 20.614188 h 3.037881 3.037877 V 44.917227 26.681642 l 9.656131,0.116799 9.65611,0.116797 0.11326,18.118789 c 0.11094,17.747349 0.13093,18.118786 0.97494,18.118786 0.81302,0 0.85935,-0.287891 0.82045,-5.0993 -0.0226,-2.804614 0.0268,-5.880468 0.11003,-6.83523 0.1326,-1.522008 0.28495,-1.735932 1.2362,-1.735932 0.79473,0 1.12205,0.261205 1.22364,0.976462 0.0763,0.537053 -0.0539,0.976461 -0.28933,0.976461 -0.23539,0 -0.5265,-0.244116 -0.64689,-0.542479 -0.13938,-0.345415 -0.23134,-0.285893 -0.25315,0.163853 -0.0188,0.388483 0.25867,0.949449 0.61671,1.246592 0.35803,0.297143 0.65097,1.090995 0.65097,1.764117 0,1.129577 0.14209,1.234138 1.84443,1.357306 l 1.84443,0.133449 -0.15725,3.788578 -0.15725,3.788577 9.27088,0.126371 9.2709,0.126377 -9.16901,0.0994 c -7.53441,0.08167 -9.2653,0.215442 -9.70925,0.750366 -0.34598,0.416866 -1.30641,0.650974 -2.67066,0.650974 -1.49334,0 -2.2051,-0.194664 -2.3802,-0.650974 -0.21488,-0.559973 -2.20096,-0.650975 -14.20707,-0.650975 H 93.348203 l -1.596658,1.084958 C 90.87338,65.26849 90.046877,65.75672 89.914869,65.75672 Z m 33.982821,-1.735931 h 2.10809 l 0.27882,-2.667559 c 0.15333,-1.467158 0.27881,-3.224788 0.27881,-3.905846 0,-1.227379 -0.0234,-1.238288 -2.66666,-1.238288 h -2.66666 l 0.27668,2.929386 c 0.15216,1.61116 0.27804,3.368791 0.27974,3.905845 0.003,0.878191 0.21525,0.976462 2.11118,0.976462 z M 109.42108,62.71883 h 9.33064 v -9.139254 c 0,-7.209333 -0.11455,-9.065112 -0.54248,-8.788154 -0.29837,0.193105 -0.83542,0.371008 -1.19345,0.39534 -0.35804,0.02433 -3.83423,0.07315 -7.72487,0.108495 l -7.07387,0.06427 0.13015,2.495402 0.13016,2.4954 6.83523,0.119516 6.83523,0.119517 v -2.640531 c 0,-1.649842 0.16282,-2.539899 0.43398,-2.372314 0.23869,0.147519 0.43399,1.20924 0.43399,2.35938 0,1.251309 -0.24119,2.291331 -0.60054,2.589562 -0.4107,0.34085 -2.77715,0.460537 -7.4862,0.378625 l -6.88568,-0.119771 -0.13124,-2.532019 c -0.0774,-1.493378 0.0779,-2.784028 0.37862,-3.146375 0.39251,-0.472946 1.82623,-0.614359 6.2287,-0.614359 3.55964,0 5.898,-0.179161 6.19335,-0.474522 0.26101,-0.260987 1.27543,-0.505103 2.25427,-0.542479 l 1.77973,-0.06795 0.002,-8.137181 0.002,-8.137179 h -9.33064 -9.33064 v 17.7933 17.793299 z m -0.27286,-0.867966 c -4.30601,0 -6.444,-0.163711 -6.80106,-0.52078 -0.32431,-0.324311 -0.52079,-1.928812 -0.52079,-4.253031 0,-2.324221 0.19648,-3.928724 0.52079,-4.253034 0.3579,-0.357906 2.51985,-0.520779 6.91273,-0.520779 5.23222,0 6.51569,0.123735 7.07393,0.681974 0.503,0.503002 0.68197,1.567306 0.68197,4.055575 0,2.717136 -0.15445,3.513365 -0.79366,4.091838 -0.66152,0.598678 -1.83906,0.718237 -7.07391,0.718237 z m 0.0559,-0.867966 h 6.94373 v -3.905845 -3.905848 h -6.94373 -6.94373 v 3.905848 3.905845 z m -0.10049,-17.7933 c -5.22613,0 -6.92223,-0.134616 -7.08638,-0.562435 -0.11872,-0.30934 -0.16141,-3.385193 -0.0949,-6.835231 l 0.12095,-6.272795 6.88567,-0.119773 c 4.70906,-0.08191 7.07551,0.03777 7.48621,0.378626 0.45783,0.379961 0.60053,1.908963 0.60053,6.434224 0,4.03811 -0.1665,6.102322 -0.52078,6.456605 -0.36119,0.36119 -2.62621,0.520779 -7.39133,0.520779 z m 0.20891,-0.531175 6.61824,-0.119798 V 36.245872 29.95312 l -6.61824,-0.1198 -6.61825,-0.119799 v 6.532351 6.53235 z m 18.71396,0.531175 c -2.27325,0 -3.32486,-0.187789 -3.81905,-0.681973 -0.49419,-0.494183 -0.68197,-1.545806 -0.68197,-3.819049 0,-1.861305 0.21179,-3.348866 0.52077,-3.657857 0.30994,-0.309931 1.80345,-0.520779 3.68886,-0.520779 3.0614,0 3.16808,-0.03534 3.16808,-1.049464 0,-0.577203 0.11853,-1.358373 0.26342,-1.735932 0.17682,-0.460799 0.8104,-0.686468 1.92731,-0.686468 0.91514,0 1.79277,0.208527 1.95028,0.463392 0.15751,0.254866 0.30577,1.146827 0.32944,1.982138 0.0253,0.894477 -0.21562,1.682391 -0.58626,1.916869 -0.34613,0.218967 -1.06874,0.401113 -1.60578,0.404768 -0.92285,0.0063 -0.97646,0.1806 -0.97646,3.174721 0,1.885414 -0.21085,3.378925 -0.52078,3.688855 -0.309,0.308991 -1.79656,0.520779 -3.65786,0.520779 z m 0.21108,-0.867966 c 2.9339,0 3.17994,-0.06296 2.42307,-0.619979 -0.78509,-0.577783 -0.79073,-0.640018 -0.083,-0.914397 0.60407,-0.234179 0.75947,-0.817683 0.75947,-2.851884 v -2.557466 h -3.47186 -3.47187 v 3.182541 c 0,1.750398 0.13019,3.312737 0.28933,3.471863 0.15912,0.159128 1.75879,0.289322 3.55481,0.289322 z m -2.54219,-0.936489 c -0.59672,0 -0.84085,-0.09851 -0.54248,-0.218895 0.29837,-0.120392 0.7866,-0.120392 1.08497,0 0.29836,0.120393 0.0543,0.218895 -0.54249,0.218895 z m 4.99081,0.06852 c 0.11934,0 0.21699,-0.09764 0.21699,-0.21699 0,-0.119347 -0.0977,-0.216993 -0.21699,-0.216993 -0.11934,0 -0.21699,0.09764 -0.21699,0.216993 0,0.119344 0.0977,0.21699 0.21699,0.21699 z m 1.44019,-6.509743 c 0.25383,0 0.58807,-0.204776 0.74274,-0.455057 0.18907,-0.305911 0.50857,-0.270352 0.97483,0.108496 0.59831,0.486127 0.65159,0.451652 0.38787,-0.250925 -0.16816,-0.447961 -0.0832,-1.082662 0.18887,-1.410444 0.33219,-0.400259 0.34306,-0.595968 0.0331,-0.595968 -0.25383,0 -0.59272,0.212309 -0.7531,0.471797 -0.20996,0.339741 -0.42364,0.339741 -0.76337,0 -0.2595,-0.259488 -0.65196,-0.471797 -0.87213,-0.471797 -0.22017,0 -0.15721,0.292938 0.13994,0.650974 0.43102,0.519355 0.43102,0.782595 0,1.301949 -0.34069,0.410499 -0.36978,0.650975 -0.0787,0.650975 z"
       id="path109" />
  </g>
</svg>
