<?xml version="1.0" encoding="UTF-8" standalone="no"?>
<svg
   xmlns:dc="http://purl.org/dc/elements/1.1/"
   xmlns:cc="http://creativecommons.org/ns#"
   xmlns:rdf="http://www.w3.org/1999/02/22-rdf-syntax-ns#"
   xmlns:svg="http://www.w3.org/2000/svg"
   xmlns="http://www.w3.org/2000/svg"
   xmlns:sodipodi="http://sodipodi.sourceforge.net/DTD/sodipodi-0.dtd"
   xmlns:inkscape="http://www.inkscape.org/namespaces/inkscape"
   width="500"
   height="500"
   viewBox="0 0 132.29166 132.29167"
   version="1.1"
   id="svg8"
   inkscape:version="1.0.2 (e86c870879, 2021-01-15, custom)"
   sodipodi:docname="201034.svg">
  <defs
     id="defs2" />
  <sodipodi:namedview
     id="base"
     pagecolor="#ffffff"
     bordercolor="#666666"
     borderopacity="1.0"
     inkscape:pageopacity="0.0"
     inkscape:pageshadow="2"
     inkscape:zoom="0.49497475"
     inkscape:cx="194.65888"
     inkscape:cy="212.22685"
     inkscape:document-units="mm"
     inkscape:current-layer="layer1"
     inkscape:document-rotation="0"
     showgrid="false"
     inkscape:window-width="1368"
     inkscape:window-height="850"
     inkscape:window-x="-6"
     inkscape:window-y="-6"
     inkscape:window-maximized="1"
     units="px" />
  <metadata
     id="metadata5">
    <rdf:RDF>
      <cc:Work
         rdf:about="">
        <dc:format>image/svg+xml</dc:format>
        <dc:type
           rdf:resource="http://purl.org/dc/dcmitype/StillImage" />
        <dc:title />
      </cc:Work>
    </rdf:RDF>
  </metadata>
  <g
     inkscape:label="Ebene 1"
     inkscape:groupmode="layer"
     id="layer1"
     transform="translate(-10.339915,-26.030838)">
    <path
       id="path966"
       style="fill:#000000;stroke:none;stroke-width:0.264583"
       d="m 131.71484,31.199219 c -2.34302,0.122175 -4.62027,0.349268 -6.96836,0.265625 -36.326298,0 -72.6526,0 -108.978902,0 0,40.569661 0,81.139326 0,121.708986 37.27926,0.007 74.558815,-0.013 111.837892,0.01 2.6552,0.0788 5.51511,0.70207 8.11518,-0.25462 1.49406,-0.52675 1.87954,-2.26623 1.896,-3.67399 0.0154,-2.05947 -0.22782,-4.11196 -0.14009,-6.17451 0.007,-35.0121 -0.0148,-70.024755 0.0111,-105.036514 0.0272,-1.805536 0.46271,-3.953218 -0.68298,-5.56544 -1.14012,-1.236496 -2.99712,-1.251223 -4.56093,-1.28751 -0.1763,0.0027 -0.35261,0.0055 -0.52892,0.0082 z m 3.91016,2.117187 c 0,39.334636 0,78.669274 0,118.003904 -39.334635,0 -78.669271,0 -118.003906,0 0,-39.33463 0,-78.669268 0,-118.003904 39.334635,0 78.669271,0 118.003906,0 z M 36.488281,48.533203 c -1.40832,0.01453 -3.134474,0.477285 -3.577509,1.998724 -0.572574,1.858387 -0.08329,3.825171 -0.2096,5.729792 -0.0078,24.80855 0.01564,49.617451 -0.01172,74.425781 -0.04462,1.56656 -0.264918,3.49806 1.065401,4.62958 1.443093,1.04236 3.333884,0.55598 4.98538,0.65753 23.8782,0.008 47.756842,-0.0156 71.634766,0.0117 2.65415,0.10788 5.41214,0.62942 8.0015,-0.19615 1.46922,-0.43238 1.98723,-2.06424 2.03472,-3.44262 0.0772,-2.17685 -0.23365,-4.34836 -0.13192,-6.52803 0,-25.71914 0,-51.43828 0,-77.157421 -26.856503,-0.0087 -53.713565,0.0173 -80.569715,-0.01297 -1.073731,-0.04553 -2.144676,-0.151146 -3.221304,-0.115934 z m 81.939449,1.982422 c 0,27.869141 0,55.738285 0,83.607425 -27.869787,0 -55.739579,0 -83.609371,0 0,-27.86914 0,-55.738284 0,-83.607425 27.869792,0 55.739584,0 83.609371,0 z M 89.271484,70.238281 c -1.139265,0.06769 -1.534223,1.711642 -0.591796,2.316407 0.922366,0.683332 2.283889,-0.438859 1.829867,-1.48422 -0.161293,-0.516294 -0.687612,-0.910587 -1.238071,-0.832187 z m -32.236328,0.02539 c -1.161887,0.05943 -1.525538,1.717447 -0.597293,2.339308 0.895359,0.733313 2.370413,-0.268955 1.980106,-1.376418 -0.144852,-0.608629 -0.752454,-1.065094 -1.382813,-0.96289 z m 38.617188,0 c -1.159099,0.0678 -1.510993,1.718817 -0.587528,2.341261 0.895789,0.730719 2.359233,-0.275825 1.966434,-1.378371 -0.14553,-0.605068 -0.749629,-1.066373 -1.378906,-0.96289 z m -38.875,41.937498 c -1.066837,-0.0487 -1.693063,1.3711 -0.931641,2.12305 0.697311,0.92852 2.331505,0.25565 2.207031,-0.88672 -0.0516,-0.64874 -0.609675,-1.23649 -1.27539,-1.23633 z m 34.11914,0 c -1.112839,-0.0475 -1.691435,1.4676 -0.859375,2.19141 0.772845,0.90182 2.405402,0.0356 2.104198,-1.10638 -0.105343,-0.58537 -0.638347,-1.08515 -1.244823,-1.08503 z m -3.164062,0.0176 c -1.096362,-0.0345 -1.661581,1.44078 -0.873047,2.17383 0.804041,0.94303 2.499734,-0.0304 2.097656,-1.20313 -0.135629,-0.55109 -0.644755,-0.99516 -1.224609,-0.9707 z m 9.285156,0 c -1.105841,-0.0413 -1.678514,1.44496 -0.867187,2.17383 0.809197,0.93782 2.538525,-0.0282 2.113281,-1.21289 -0.143341,-0.55067 -0.668047,-0.98566 -1.246094,-0.96094 z m -36.833984,0.002 c -1.057488,-0.0692 -1.728646,1.33075 -0.963057,2.08637 0.687348,0.9429 2.370755,0.30224 2.238447,-0.86176 -0.05279,-0.64496 -0.619399,-1.2174 -1.27539,-1.22461 z m -6.902344,0.0762 c -1.050518,0.0723 -1.495407,1.52391 -0.669922,2.17187 0.891528,0.87453 2.509153,-0.29562 1.951172,-1.41602 -0.199821,-0.49905 -0.743179,-0.84208 -1.28125,-0.75585 z m 40.515625,0.002 c -1.01935,0.0761 -1.421066,1.46318 -0.642578,2.09961 0.731952,0.83826 2.30773,0.12971 2.097656,-0.98242 -0.100871,-0.67238 -0.770044,-1.22001 -1.455078,-1.11719 z" />
  </g>
</svg>
