<svg width="436.8" height="852.5" xmlns="http://www.w3.org/2000/svg">
 <style type="text/css">.st0{fill:#010101;}</style>

 <g>
  <title>background</title>
  <rect height="402" width="582" y="-1" x="-1" fill="none" id="canvas_background"/>
 </g>
 <g>
  <title>Layer 1</title>
  <g id="svg_13">
   <path d="m353.5,-1.2l-270.199997,0c-45.400002,0 -82.400003,36.999999 -82.400003,82.399997l0,686.200027c0,45.400024 37.000002,82.400024 82.400003,82.400024l270.200027,0c45.399994,0 82.399994,-37 82.399994,-82.400024l0,-686.200027c-0.000031,-45.499996 -36.900024,-82.399997 -82.400024,-82.399997zm75.399994,768.499988c0,41.599976 -33.800018,75.400024 -75.399994,75.400024l-270.199997,0c-41.600002,0 -75.400003,-33.800049 -75.400003,-75.400024l0,-686.099991c0,-41.599998 33.800001,-75.399997 75.400003,-75.399997l270.200027,0c41.599976,0 75.399994,33.799991 75.399994,75.399997l0,686.099991l-0.000031,0z" id="svg_2" class="st0"/>
   <path d="m218.399994,70.400002c-37.400009,0 -72.5,14.5 -98.800003,40.900002c-7.200005,7.199997 -13.300003,14.800003 -18.900002,23.399994l0,-0.199997l-2.5,4.199997c-0.099998,0.300003 -0.199997,0.5 -0.5,0.699997l-0.400002,0.800003c-0.099998,0.199997 -0.199997,0.5 -0.299995,0.600006l-0.400002,0.899994l-0.5,0.699997l-0.300003,0.800003c-0.099998,0.100006 -0.199997,0.300003 -0.299995,0.5c-0.100006,0.199997 -0.200005,0.400009 -0.300003,0.5l-0.699997,1.300003l-0.100006,0.100006l-0.099998,0.299988l-0.099998,0l-0.099998,0.300003c-0.099998,0.400009 -0.300003,0.699997 -0.400002,0.900009l-0.300003,0.599991c-0.099998,0.400009 -0.299995,0.600006 -0.399994,0.900009l-0.400002,0.699997l-1.099998,2.399994l-0.300003,0.400009l0,0.099991c-0.099998,0.400009 -0.300003,0.800003 -0.400002,1l-0.299995,0.400009l0,0.099991c-0.100006,0.199997 -0.100006,0.400009 -0.200005,0.5c-0.099998,0.199997 -0.099998,0.400009 -0.199997,0.600006l-0.300003,0.699997l-0.400002,0.899994l-0.699997,1.700012l-0.099998,0.399994l0,0.199997c0,0.100006 -0.099998,0.100006 -0.099998,0.199997c-0.100006,0.200012 -0.200005,0.5 -0.400002,0.800003l-0.200005,0.5c-0.099998,0.199997 -0.099998,0.400009 -0.199997,0.5c-0.099998,0.199997 -0.099998,0.400009 -0.199997,0.600006l-0.100006,0.399994l0,0.199997c-0.099998,0.200012 -0.099998,0.300003 -0.199997,0.5c-0.099998,0.200012 -0.099998,0.300003 -0.199997,0.5l-0.100006,0.100006l-0.599998,1.800003l-0.099998,0.099991l-0.099998,0.100006c-0.099998,0.199997 -0.099998,0.399994 -0.099998,0.600006c0,0.199997 -0.100006,0.299988 -0.100006,0.399994l-0.199997,0.199997l-0.699997,2.400009c-0.100006,0.199997 -0.100006,0.299988 -0.200005,0.5c0,0.099991 -0.099998,0.199997 -0.099998,0.399994l-0.599998,1.800003l-0.099998,0.5c-0.100006,0.199997 -0.300003,0.699997 -0.300003,1.199997l-0.099998,0.399994c-0.099998,0.400009 -0.300003,0.800003 -0.300003,1.300003l-0.099998,0.400009c-2.099998,7.699997 -3.400002,15.299988 -4.099998,23.299988l0,0.100006c-0.300003,4 -0.400002,8.100006 -0.400002,12.100006c0,5.699997 0.199997,10 0.699997,14l0,1.299988l0.100006,0.100006c0,0.399994 0,0.699997 0.099998,1.100006l0,0.5l0,0.299988c0.099998,0.400009 0.099998,0.700012 0.099998,1.100006l0.099998,0.5l0,0.100006c0,0.199997 0,0.5 0.099998,0.699997c0,0.199997 0.100006,0.399994 0.100006,0.599991l0.099998,0.600006l0.099998,0.899994l0,0.400009l0,0.300003c0.099998,0.199997 0.099998,0.399994 0.099998,0.599991c0,0.199997 0.099998,0.400009 0.099998,0.600006l0,0.399994c2.400002,14.100006 7,27.699997 13.600006,40.500015l0.099998,0.199982l0.099998,0c0.099998,0.100006 0.099998,0.300018 0.199997,0.399994c0.100006,0.200012 0.200005,0.400024 0.300003,0.600006l0.300003,0.399994l0,0.200012c0.099998,0.100006 0.099998,0.200012 0.199997,0.399994c0.099998,0.200012 0.199997,0.300018 0.300003,0.600006l0.299995,0.600006l0.400002,0.699982l0.300003,0.5l0.099998,0.100006c0.099998,0.200012 0.199997,0.399994 0.299995,0.5c0.100006,0.200012 0.200005,0.300018 0.200005,0.5l0.299995,0.399994l0,0.200012l0.100006,0.100006c0.199997,0.199982 0.299995,0.5 0.5,0.699982l2.5,4.200012l0,-0.200012c5.5,8.600006 11.699997,16.300018 18.899994,23.400024c26.500008,26.5 61.599998,41 98.800011,41c37.299988,0 72.400009,-14.600006 98.800003,-41c26.399994,-26.400024 40.899994,-61.500015 40.899994,-98.800018c0,-37.399994 -14.5,-72.5 -40.899994,-98.799995c-26.100006,-27.199997 -61.199997,-41.699997 -98.600006,-41.699997zm-120.499992,74.499992l0,50.900009l-15.700005,0c1.900002,-17.900009 7.100006,-35 15.700005,-50.900009zm-15.5,81.700012l15.5,0l0,48.800018c-8.300003,-15.300018 -13.599998,-31.700027 -15.5,-48.800018zm265.999992,27l0,0c-2.600006,7.800018 -5.899994,15.100006 -9.600006,21.899994l0,-48.799988l15.700012,0c-1.100006,9.199982 -3.200012,18.299988 -6.100006,26.899994zm0.200012,-85.900009c3,9.199997 5,18.600006 6,28.100006l-15.799988,0l0,-50.900009c3.999969,7.400009 7.299988,15 9.799988,22.800003zm6.399994,30.699997c0.299988,3.599991 0.5,7.699997 0.5,11.699997c0,4.199997 -0.200012,8.399994 -0.700012,13.600006l-18.699982,0l0,56.699997c-5.800018,9.5 -12.800018,18.5 -20.800018,26.600006c-26,25.899994 -60.399994,40.099976 -96.899994,40.099976c-36.599991,0 -71.099991,-14.199982 -96.899994,-40.099976c-7.900002,-8 -14.800003,-17 -20.800003,-26.799988l0,-56.600006l-18.699997,0c-0.5,-5.200012 -0.699997,-9.400009 -0.699997,-13.600006c0,-4 0.299995,-8.100006 0.5,-11.699997l18.799995,0l0,-58.300003c6,-9.899994 13,-18.800003 20.800003,-26.599998c25.799995,-26 60.200005,-40.300003 96.900002,-40.300003c36.599991,0 70.999985,14.300003 96.900009,40.300003c8,8 15,16.900002 20.799988,26.599998l0,58.5l19,0l0,-0.100006z" id="svg_3" class="st0"/>
   <path d="m218.399994,55.599998c-41.199997,0 -80.099991,16.099998 -109.400002,45.300003c-29.200005,29.200005 -45.300003,67.999992 -45.300003,109.299995c0,41.400009 16.099998,80.199997 45.300003,109.400009c29.400002,29.199982 68.200005,45.299988 109.400002,45.299988c41.199982,0 80.100006,-16.100006 109.399994,-45.299988c29.200012,-29.200012 45.299988,-68.100006 45.299988,-109.400009c0,-41.300003 -16.099976,-80.099991 -45.299988,-109.299995c-29.299988,-29.300003 -68.199982,-45.300003 -109.399994,-45.300003zm104.600006,259.199989c-27.899994,27.900024 -65,43.200012 -104.600006,43.200012s-76.699997,-15.399994 -104.599991,-43.299988c-27.900002,-28 -43.300003,-65.200012 -43.300003,-104.600006s15.400002,-76.600006 43.300003,-104.600006c28,-27.900002 65.199982,-43.300003 104.599991,-43.300003c39.399994,0 76.600006,15.400002 104.600006,43.300003c27.899994,28 43.299988,65.199997 43.299988,104.600006s-15.399994,76.600006 -43.299988,104.699982z" id="svg_4" class="st0"/>
   <circle r="19.9" cy="210.2" cx="148" id="svg_5" class="st0"/>
   <circle r="19.9" cy="210.2" cx="288.9" id="svg_6" class="st0"/>
   <rect height="69" width="30" y="667" x="47.5" stroke-width="4" stroke="#000000" fill="none" id="svg_12"/>
  </g>
 </g>
</svg>