<?xml version="1.0" standalone="no"?>
<!DOCTYPE svg PUBLIC "-//W3C//DTD SVG 20010904//EN"
 "http://www.w3.org/TR/2001/REC-SVG-20010904/DTD/svg10.dtd">
<svg version="1.0" xmlns="http://www.w3.org/2000/svg"
 width="500.000000pt" height="350.000000pt" viewBox="0 0 500.000000 350.000000"
 preserveAspectRatio="xMidYMid meet">

<g transform="translate(0.000000,350.000000) scale(0.100000,-0.100000)"
fill="#000000" stroke="none">
<path d="M2550 2305 c0 -3 0 -195 0 -427 l-1 -423 80 -3 80 -3 3 230 c3 210 5
231 22 250 27 30 76 25 93 -9 9 -18 13 -89 13 -248 l0 -223 83 3 82 3 -1 246
c-1 271 -4 286 -67 333 -44 32 -132 29 -186 -7 l-41 -27 0 155 0 155 -80 0
c-44 0 -80 -2 -80 -5z"/>
<path d="M200 1875 l0 -425 80 0 80 0 0 31 0 32 25 -27 c30 -33 64 -46 118
-46 62 0 108 29 137 86 24 46 25 56 25 224 0 159 -2 179 -22 222 -27 60 -71
88 -136 88 -51 0 -78 -10 -114 -43 l-23 -20 0 151 0 152 -85 0 -85 0 0 -425z
m287 45 c8 -16 13 -72 13 -163 0 -166 -12 -207 -59 -207 -48 0 -62 32 -68 153
-7 123 3 211 24 233 24 23 75 14 90 -16z"/>
<path d="M700 2235 l0 -65 85 0 85 0 0 65 0 65 -85 0 -85 0 0 -65z"/>
<path d="M1023 2178 l-83 -38 0 -45 0 -45 -120 0 -120 0 0 -300 0 -300 85 0
85 0 0 245 0 245 35 0 35 0 0 -191 c0 -206 7 -242 55 -273 36 -24 107 -36 156
-28 l44 8 0 49 c0 48 -1 50 -30 53 -51 5 -55 20 -55 209 l0 173 55 0 55 0 0
-245 0 -246 83 3 82 3 5 203 c5 198 6 204 28 223 21 17 89 36 96 28 2 -2 -1
-37 -6 -78 -13 -92 3 -234 31 -289 35 -69 103 -102 211 -102 80 0 130 17 171
59 50 50 69 117 69 247 0 148 -13 200 -64 250 -47 47 -93 64 -180 64 -82 0
-134 -18 -178 -62 l-38 -38 0 50 c0 47 -2 50 -25 50 -33 0 -85 -26 -107 -54
-18 -21 -18 -21 -18 12 l0 32 -135 0 -134 0 -3 83 -3 83 -82 -38z m773 -249
c17 -19 19 -38 19 -173 0 -129 -3 -156 -18 -179 -20 -31 -66 -37 -91 -12 -43
43 -43 341 0 372 27 19 69 16 90 -8z"/>
<path d="M2265 2048 c-11 -6 -30 -20 -42 -31 l-23 -20 0 26 0 27 -85 0 -85 0
0 -300 0 -300 85 0 85 0 0 233 c0 261 2 271 60 265 56 -5 60 -23 60 -275 l0
-223 85 0 85 0 0 253 c0 234 -2 254 -20 285 -29 47 -76 72 -135 72 -27 0 -59
-6 -70 -12z"/>
<path d="M3178 2046 c-107 -38 -131 -84 -136 -261 -5 -162 7 -223 55 -275 43
-49 88 -64 183 -64 124 0 187 40 221 139 22 62 19 287 -4 347 -22 56 -72 103
-124 117 -52 15 -150 13 -195 -3z m158 -128 c13 -25 15 -59 12 -178 -3 -129
-6 -151 -22 -169 -20 -23 -56 -27 -86 -11 -11 6 -23 30 -29 60 -14 67 -13 236
2 280 22 63 94 74 123 18z"/>
<path d="M3780 2044 c-19 -8 -45 -25 -58 -37 l-24 -22 4 30 3 30 -77 3 -78 3
0 -301 0 -300 84 0 85 0 3 236 c3 220 4 237 22 250 11 8 32 14 47 14 51 0 54
-14 57 -267 l3 -233 79 0 79 0 3 229 c3 209 5 231 22 250 24 26 67 27 89 3 15
-16 17 -49 17 -250 l0 -232 86 0 86 0 -4 253 c-4 274 -8 295 -62 331 -61 39
-178 28 -225 -23 l-26 -27 -23 27 c-38 47 -126 62 -192 33z"/>
<path d="M4475 2045 c-49 -17 -98 -71 -114 -126 -18 -61 -17 -265 3 -331 17
-58 59 -106 113 -128 18 -7 66 -12 108 -12 59 0 85 5 122 23 63 32 104 85 110
143 l6 46 -81 0 -80 0 -11 -45 c-12 -47 -37 -69 -73 -63 -34 5 -57 47 -64 116
l-7 62 163 0 163 0 -6 85 c-13 178 -81 245 -247 245 -36 -1 -83 -7 -105 -15z
m160 -110 c19 -18 25 -35 25 -70 l0 -45 -75 0 -75 0 0 29 c0 95 69 143 125 86z"/>
<path d="M4056 1278 c-9 -36 -7 -182 4 -198 7 -10 10 23 10 103 0 64 -2 117
-4 117 -2 0 -6 -10 -10 -22z"/>
<path d="M3280 1207 c0 -78 17 -107 64 -107 50 0 66 25 66 103 0 60 -2 67 -20
67 -17 0 -19 -8 -22 -67 -3 -60 -5 -68 -23 -68 -18 0 -20 8 -23 68 -3 59 -5
67 -22 67 -18 0 -20 -7 -20 -63z"/>
<path d="M3440 1185 c0 -78 2 -85 20 -85 16 0 20 7 20 30 0 17 4 30 10 30 5 0
16 -13 25 -30 9 -18 23 -30 36 -30 19 0 19 1 3 32 -13 24 -14 36 -5 50 30 48
1 88 -65 88 l-44 0 0 -85z m83 30 c1 -6 -8 -11 -20 -13 -18 -3 -23 2 -23 17 0
16 4 19 21 13 11 -5 21 -12 22 -17z"/>
<path d="M3590 1185 c0 -78 2 -85 20 -85 17 0 20 7 20 43 l1 42 15 -27 c8 -16
19 -28 24 -28 5 0 16 12 24 28 l15 27 1 -42 c0 -36 3 -43 20 -43 20 0 21 5 18
82 -3 70 -6 83 -21 86 -13 3 -23 -8 -35 -37 -9 -22 -20 -41 -23 -41 -3 0 -14
18 -24 40 -12 26 -25 40 -37 40 -16 0 -18 -9 -18 -85z"/>
<path d="M3780 1185 l0 -85 55 0 c42 0 55 3 55 15 0 10 -11 15 -35 15 -28 0
-35 4 -35 20 0 16 7 20 30 20 20 0 30 5 30 15 0 10 -10 15 -30 15 -22 0 -30 5
-30 18 0 15 6 17 35 14 30 -4 35 -1 35 17 0 19 -6 21 -55 21 l-55 0 0 -85z"/>
<path d="M3910 1250 c0 -13 7 -20 20 -20 18 0 20 -7 20 -65 0 -58 2 -65 20
-65 18 0 20 7 20 69 0 64 1 69 20 64 15 -4 20 0 20 16 0 19 -6 21 -60 21 -53
0 -60 -2 -60 -20z"/>
<path d="M4120 1250 c-27 -27 -28 -110 -2 -133 41 -37 102 -9 102 46 0 23 -4
27 -30 27 -34 0 -40 -15 -10 -23 23 -6 18 -32 -7 -41 -28 -11 -44 14 -41 63 2
38 7 47 24 49 11 2 27 -4 34 -13 16 -19 30 -19 30 -1 0 18 -38 46 -62 46 -10
0 -27 -9 -38 -20z"/>
<path d="M4260 1185 c0 -50 4 -85 10 -85 6 0 10 16 10 35 0 27 4 35 18 35 11
0 25 -14 35 -35 9 -19 24 -35 33 -35 14 0 13 4 -4 34 -18 30 -19 36 -6 47 8 6
14 24 14 40 0 34 -23 49 -74 49 l-36 0 0 -85z m85 45 c10 -17 -16 -41 -39 -38
-13 2 -22 12 -24 26 -3 19 1 22 27 22 16 0 33 -5 36 -10z"/>
<path d="M4426 1257 c-11 -8 -20 -31 -23 -60 -7 -60 15 -97 56 -97 42 0 61 28
61 88 0 41 -4 54 -22 66 -27 19 -48 20 -72 3z m65 -38 c14 -26 3 -88 -17 -96
-25 -9 -44 17 -44 62 0 23 3 45 7 48 13 14 43 6 54 -14z"/>
<path d="M4559 1263 c0 -5 0 -37 0 -73 -1 -50 3 -67 17 -77 26 -19 61 -16 84
7 17 17 20 31 18 82 -2 38 -8 63 -15 66 -10 3 -13 -14 -13 -61 0 -72 -17 -100
-48 -80 -13 7 -18 28 -20 77 -2 36 -7 66 -12 66 -6 0 -10 -3 -11 -7z"/>
<path d="M4717 1263 c-4 -3 -7 -42 -7 -85 0 -63 3 -78 15 -78 10 0 15 10 15
30 0 25 4 30 23 30 56 0 87 59 49 93 -18 17 -82 23 -95 10z m86 -37 c7 -19
-12 -36 -40 -36 -18 0 -23 6 -23 25 0 21 5 25 29 25 16 0 31 -6 34 -14z"/>
</g>
</svg>
