<?xml version="1.0" standalone="no"?>
<!DOCTYPE svg PUBLIC "-//W3C//DTD SVG 20010904//EN"
 "http://www.w3.org/TR/2001/REC-SVG-20010904/DTD/svg10.dtd">
<svg version="1.0" xmlns="http://www.w3.org/2000/svg"
 width="250.000000pt" height="254.000000pt" viewBox="0 0 250.000000 254.000000"
 preserveAspectRatio="xMidYMid meet">

<g transform="translate(0.000000,254.000000) scale(0.100000,-0.100000)"
fill="#000000" stroke="none">
<path d="M42 1293 l3 -1188 1193 -3 1192 -2 0 1190 0 1190 -1195 0 -1195 0 2
-1187z m2368 2 l0 -1175 -1175 0 -1175 0 0 1175 0 1175 1175 0 1175 0 0 -1175z"/>
<path d="M448 1909 c-2 -204 -1 -373 1 -375 2 -2 357 -4 788 -4 l783 0 0 375
0 375 -785 0 -785 0 -2 -371z m1552 -4 l0 -355 -767 0 -768 0 0 355 0 355 768
0 767 0 0 -355z"/>
<path d="M840 2172 l-24 -20 24 -36 c24 -35 27 -36 88 -36 l62 0 1 -52 c0 -29
2 -61 4 -70 3 -16 -5 -18 -63 -18 -63 -1 -69 -3 -112 -40 l-45 -39 -3 -78 c-5
-89 9 -124 61 -160 44 -31 167 -33 210 -4 l28 18 -31 32 c-29 28 -37 31 -96
31 l-64 0 0 70 0 70 63 0 c51 0 68 4 82 20 10 11 25 22 34 25 32 10 51 59 51
130 0 126 -41 168 -165 173 -68 3 -84 1 -105 -16z"/>
<path d="M1201 2172 c-61 -30 -76 -62 -76 -156 0 -93 4 -100 72 -146 37 -25
54 -30 104 -30 l59 0 0 -70 0 -70 -62 0 c-50 0 -67 -5 -95 -26 -18 -14 -33
-30 -33 -35 0 -36 164 -52 226 -23 55 26 67 61 60 168 -7 107 -7 108 0 211 8
106 -5 145 -55 173 -50 28 -150 30 -200 4z m159 -162 l0 -70 -60 0 -60 0 0 63
c0 35 3 67 7 70 3 4 30 7 60 7 l53 0 0 -70z"/>
<path d="M640 2132 c0 -10 -7 -27 -15 -38 -22 -29 -19 -81 5 -94 40 -21 90 9
90 55 0 22 -36 72 -61 85 -16 9 -19 7 -19 -8z"/>
<path d="M1934 1898 l-29 -33 33 29 c30 28 37 36 29 36 -2 0 -16 -15 -33 -32z"/>
<path d="M1531 1891 c-21 -13 22 -51 59 -51 27 0 30 -3 30 -30 0 -27 -3 -30
-32 -30 -31 -1 -68 -19 -68 -33 0 -13 63 -39 81 -34 15 4 19 0 19 -23 0 -24
-3 -27 -26 -22 -17 3 -33 -3 -50 -19 -23 -22 -24 -24 -8 -36 26 -19 88 -16
115 6 23 18 26 41 19 121 -1 14 1 43 5 65 6 33 3 45 -15 68 -18 23 -29 27 -68
27 -26 0 -53 -4 -61 -9z"/>
<path d="M1749 1813 c-13 -16 -12 -17 4 -4 9 7 17 15 17 17 0 8 -8 3 -21 -13z"/>
<path d="M1769 1783 l-24 -28 28 24 c25 23 32 31 24 31 -2 0 -14 -12 -28 -27z"/>
<path d="M1736 1693 c-6 -14 -5 -15 5 -6 7 7 10 15 7 18 -3 3 -9 -2 -12 -12z"/>
<path d="M1774 1688 l-19 -23 23 19 c12 11 22 21 22 23 0 8 -8 2 -26 -19z"/>
<path d="M1454 1645 c-4 -9 -2 -21 4 -27 15 -15 44 -1 40 19 -4 23 -36 29 -44
8z"/>
<path d="M2103 2263 c-10 -25 10 -33 83 -33 66 0 74 2 74 19 0 17 -9 20 -76
23 -53 2 -78 -1 -81 -9z"/>
<path d="M2102 2143 c3 -15 16 -18 81 -21 72 -3 77 -1 77 18 0 18 -6 20 -81
20 -71 0 -80 -2 -77 -17z"/>
<path d="M1638 934 l-3 -67 -65 -1 -65 -1 0 -45 0 -45 68 -3 67 -3 0 -64 0
-65 45 0 45 0 0 65 0 65 66 0 65 0 -3 48 -3 47 -60 1 -60 1 -3 67 -3 66 -44 0
-44 0 -3 -66z"/>
<path d="M610 820 l0 -50 175 0 175 0 0 50 0 50 -175 0 -175 0 0 -50z"/>
</g>
</svg>
