<?xml version="1.0" encoding="UTF-8" standalone="no"?>
<svg
   xmlns:dc="http://purl.org/dc/elements/1.1/"
   xmlns:cc="http://creativecommons.org/ns#"
   xmlns:rdf="http://www.w3.org/1999/02/22-rdf-syntax-ns#"
   xmlns:svg="http://www.w3.org/2000/svg"
   xmlns="http://www.w3.org/2000/svg"
   xmlns:sodipodi="http://sodipodi.sourceforge.net/DTD/sodipodi-0.dtd"
   xmlns:inkscape="http://www.inkscape.org/namespaces/inkscape"
   width="150mm"
   height="150mm"
   viewBox="0 0 150 150"
   version="1.1"
   id="svg8"
   inkscape:version="1.0.2 (e86c870879, 2021-01-15, custom)"
   sodipodi:docname="icon.svg">
  <defs
     id="defs2" />
  <sodipodi:namedview
     id="base"
     pagecolor="#ffffff"
     bordercolor="#666666"
     borderopacity="1.0"
     inkscape:pageopacity="0.0"
     inkscape:pageshadow="2"
     inkscape:zoom="0.7"
     inkscape:cx="377.69174"
     inkscape:cy="406.97905"
     inkscape:document-units="mm"
     inkscape:current-layer="layer1"
     inkscape:document-rotation="0"
     showgrid="false"
     inkscape:window-width="1254"
     inkscape:window-height="872"
     inkscape:window-x="101"
     inkscape:window-y="0"
     inkscape:window-maximized="0" />
  <metadata
     id="metadata5">
    <rdf:RDF>
      <cc:Work
         rdf:about="">
        <dc:format>image/svg+xml</dc:format>
        <dc:type
           rdf:resource="http://purl.org/dc/dcmitype/StillImage" />
        <dc:title></dc:title>
      </cc:Work>
    </rdf:RDF>
  </metadata>
  <g
     inkscape:label="Ebene 1"
     inkscape:groupmode="layer"
     id="layer1">
    <path
       id="path35"
       style="fill:#000000;stroke-width:0.705556"
       d="m 53.960193,14.512742 c -0.728662,0.606925 -1.453506,1.204234 -2.183593,1.810546 0.0587,8.658849 0.116046,17.317708 0.173828,25.976563 -6.975909,0.235759 -13.951854,0.470448 -20.927735,0.707031 -0.12569,15.520187 -0.253603,31.040357 -0.378906,46.560544 29.640628,-0.1218 59.281244,-0.24533 88.921873,-0.36718 0,-11.400395 0,-22.800786 0,-34.201176 -8.46933,-0.238798 -16.93882,-0.472006 -25.408199,-0.708985 -0.23549,-13.172529 -0.46987,-26.345079 -0.70703,-39.517578 -13.11393,-0.128993 -26.227882,-0.25509 -39.3418,-0.384765 l -0.07649,0.06441 z m 19.033208,3.240234 c 5.99934,0.06055 11.99869,0.121094 17.99804,0.181641 0,12.124349 0,24.248698 0,36.373047 -2.45902,0.140544 -4.91787,0.284326 -7.37695,0.423828 -0.12635,10.677733 -0.25262,21.355468 -0.37891,32.033204 -2.11268,0.12084 -4.22531,0.24255 -6.33789,0.36523 -0.12571,-14.710272 -0.25091,-29.420551 -0.37304,-44.130856 -7.171861,-0.131185 -14.343753,-0.260482 -21.515629,-0.390625 0,-8.345703 0,-16.691407 0,-25.03711 5.994791,0.06055 11.989583,0.121094 17.984379,0.181641 z M 42.848865,45.260788 c 3.009766,0.0625 6.019532,0.125 9.029297,0.1875 0,13.764974 0,27.529948 0,41.294918 -6.012374,0.12347 -12.024744,0.24717 -18.037109,0.3711 0,-14.012372 0,-28.024741 0,-42.037111 3.002604,0.0612 6.005208,0.122396 9.007812,0.183593 z m 45.849606,12.191407 c 0.76433,0 1.52865,0 2.29297,0 0,9.774739 0,19.549479 0,29.324221 -1.47397,0.12086 -2.94793,0.24197 -4.42187,0.36328 -0.31317,-0.78194 -0.68889,-1.55373 -0.53172,-2.41984 0.12012,-9.089215 0.24005,-18.178437 0.35984,-27.267661 0.76693,0 1.53386,0 2.30078,0 z m 16.580079,0.353515 c 3.82162,0 7.64323,0 11.46485,0 0,9.52474 0,19.04948 0,28.574216 -7.64323,0 -15.28646,0 -22.929689,0 0,-9.524736 0,-19.049476 0,-28.574216 3.82161,0 7.643229,0 11.464839,0 z M 13.841053,95.620166 c -1.829235,1.02833 -3.658184,2.05718 -5.4882811,3.08398 -0.539303,1.26904 -1.212727,2.508144 -1.675782,3.792974 0,1.44987 0,2.89974 0,4.34961 1.378839,1.51064 2.754354,3.02434 4.1308601,4.53711 3.459624,0.8109 6.950454,1.51163 10.390149,2.39325 1.417986,0.52546 2.929261,0.92388 4.288822,1.53063 0.843918,1.12975 1.687254,2.25995 2.530013,3.39057 -0.39067,1.36197 -0.781291,2.72395 -1.171875,4.08594 -1.167838,0.83008 -2.284156,1.78657 -3.483872,2.53873 -1.768331,0.21246 -3.543645,0.52843 -5.308004,0.67356 -1.926264,-0.51824 -3.852406,-1.03693 -5.778436,-1.55604 -1.04256,-1.12347 -2.084889,-2.24716 -3.1269541,-3.37109 1e-6,-1.44987 0,-2.89974 0,-4.34961 -1.058593,0 -2.117187,0 -3.175781,0 0.03647,1.48698 -0.07247,3.01599 0.05335,4.47715 0.971244,1.57065 1.940586,3.14144 2.911493,4.7123 1.8757311,0.79345 3.7345561,1.65206 5.6210941,2.4043 1.517186,0.12413 3.035833,0.41072 4.552103,0.43721 1.640682,-0.22422 3.317622,-0.34056 4.936178,-0.63057 1.440456,-0.84762 2.979982,-1.59407 4.359236,-2.5042 0.930725,-1.59345 1.862137,-3.18651 2.791155,-4.78096 -0.340688,-1.80688 -0.679417,-3.61415 -1.015625,-5.42187 -1.24346,-1.10615 -2.421724,-2.3295 -3.70191,-3.36824 -2.706536,-0.75312 -5.375833,-1.65846 -8.156998,-2.10472 -1.805717,-0.36077 -3.611001,-0.7237 -5.416483,-1.08564 -1.017578,-1.01758 -2.035156,-2.03515 -3.0527341,-3.05273 0,-1.08659 0,-2.17318 0,-3.25977 1.2721351,-1.27213 2.5442701,-2.544274 3.8164061,-3.816404 2.617838,0.003 5.235676,0.005 7.853515,0.006 1.382077,0.84323 2.764235,1.686344 4.146485,2.529294 0.599729,1.81507 1.198831,3.63034 1.798828,5.44531 0.847183,-0.29143 1.694167,-0.58248 2.542969,-0.86914 -0.206259,-1.3387 -0.284109,-2.72724 -0.565656,-4.03665 -0.905984,-1.22227 -1.710959,-2.545124 -2.668318,-3.707294 -1.697851,-0.82789 -3.364793,-1.78343 -5.078917,-2.53926 -2.578646,4.4e-4 -5.157292,-4.3e-4 -7.735937,-0.002 l -0.08708,0.0492 z m 76.796878,1.05273 c 0,10.562504 0,21.125004 0,31.687504 4.47917,-0.0104 8.96348,0.0208 13.439449,-0.0156 2.12613,-0.53647 4.25313,-1.06955 6.37891,-1.60742 1.24962,-1.24793 2.49708,-2.49558 3.74609,-3.74415 0.32832,-1.75671 0.65627,-3.51351 0.98828,-5.26953 -0.81722,-1.71216 -1.63285,-3.42509 -2.45117,-5.13672 -0.97709,-0.44391 -1.95362,-0.88817 -2.92969,-1.33398 1.25229,-1.17161 2.5055,-2.34223 3.75977,-3.51172 0,-2.06445 0,-4.1289 0,-6.19336 -1.46726,-1.644054 -2.93549,-3.287234 -4.40235,-4.931644 -6.17641,-0.16268 -12.352799,-0.32638 -18.529289,-0.48633 0,0.18099 0,0.36198 0,0.54297 z m -56.443362,0.11328 c 0,10.632164 -1e-6,21.264334 0,31.896494 0.937296,-0.31281 1.874655,-0.62451 2.8125,-0.93555 0.216892,-8.14126 0.43391,-16.28251 0.648437,-24.42383 3.182894,7.67738 6.366107,15.35462 9.550781,23.03125 0.773141,0.84805 1.545273,1.69701 2.316406,2.54688 0.7464,-0.89437 1.816665,-1.57868 2.120958,-2.75956 3.249794,-7.86736 6.499765,-15.73465 9.750136,-23.60177 0.11912,8.70898 0.238479,17.41797 0.357422,26.12695 0.926366,-0.30587 1.852301,-0.61213 2.777344,-0.92187 0.129398,-10.4961 0.263278,-20.99216 0.390625,-31.488284 -1.38086,0 -2.761719,0 -4.142578,0 -3.719314,9.009954 -7.442129,18.018474 -11.164063,27.027344 -0.559125,0.4456 -0.566172,-0.85855 -0.877266,-1.19905 -3.655895,-8.60899 -7.310554,-17.2185 -10.964531,-25.828294 -1.192057,0 -2.384114,0 -3.576171,0 0,0.17643 -1e-6,0.35286 0,0.52929 z m 83.960931,0 c 1e-5,1.58789 0,3.17578 0,4.763684 0.82292,-10e-6 1.64584,0 2.46876,0 -1e-5,-1.764334 0,-3.528654 0,-5.292974 -0.82292,0 -1.64584,0 -2.46876,0 1e-5,0.17643 0,0.35286 0,0.52929 z m 4.39454,-0.27734 c -0.45459,0.7415 -0.91463,1.47954 -1.37305,2.21875 3.93164,0 7.86328,0 11.79492,0 0,9.642584 0,19.285164 0,28.927734 0.82292,0 1.64583,0 2.46875,0 0,-9.64257 0,-19.28515 0,-28.927734 3.528,0 7.05599,0 10.58399,0 0,-0.82357 0,-1.64714 0,-2.4707 -7.77279,0 -15.54558,0 -23.31836,0 -0.0521,0.084 -0.10417,0.16796 -0.15625,0.25195 z m -22.30469,2.92383 c 2.25911,0 4.51823,0 6.77734,0 1.12324,0.885344 2.24691,1.770154 3.3711,2.654294 0,1.47461 0,2.94922 0,4.42383 -1.05272,1.05053 -2.10185,2.09966 -3.15235,3.15235 -4.47591,0 -8.951819,0 -13.427729,0 0,-3.41016 0,-6.82032 0,-10.230474 2.14388,0 4.28776,0 6.431639,0 z M 73.253161,104.8604 c -1.19598,1.13363 -2.51386,2.19232 -3.632768,3.37355 -0.374103,1.30004 -0.747509,2.60028 -1.12309,3.89989 0.833984,0 1.667968,0 2.501958,0 0.36157,-1.00875 0.58814,-2.11079 1.02983,-3.0637 1.09551,-0.86015 2.19115,-1.71806 3.28462,-2.58083 1.70508,0 3.41015,0 5.11523,0 1.05136,1.05235 2.10396,2.10096 3.1543,3.15429 0,0.98308 0,1.96615 0,2.94922 -0.63669,0.41372 -1.12093,1.17235 -1.86538,1.34297 -3.38065,0.48058 -6.76147,0.95992 -10.14243,1.43828 -1.17211,1.09998 -2.342997,2.20125 -3.513675,3.30274 0,1.8431 0,3.6862 0,5.52929 0.69919,0.89298 1.303445,1.92379 2.066605,2.72756 1.51527,0.42057 3.01047,0.95599 4.53721,1.30989 0.97208,-0.0444 2.02914,0.34433 2.89488,-0.25068 1.88932,-0.85829 3.77915,-1.71543 5.66927,-2.57192 0.13552,-0.4042 -0.32435,-1.40378 0.32618,-1.29297 0.14605,1.03931 0.29559,2.07812 0.44336,3.11719 1.94526,0.2569 3.89066,0.51269 5.83593,0.76953 -1.23277,-0.97257 -2.46661,-1.94377 -3.70117,-2.91406 -0.14771,-5.80336 -0.29469,-11.60673 -0.43945,-17.41016 -1.22313,-0.98835 -2.4455,-1.97764 -3.66797,-2.9668 -2.87435,0 -5.7487,0 -8.62305,0 -0.0501,0.0456 -0.10026,0.0912 -0.15039,0.13672 z m 44.902339,0.39258 c 1e-5,7.46745 0,14.9349 0,22.40234 0.82292,0 1.64584,0 2.46876,0 0,-7.64388 -1e-5,-15.28776 0,-22.93164 -0.82292,0 -1.64584,0 -2.46876,0 1e-5,0.17644 1e-5,0.35287 0,0.5293 z m -18.343739,7.58594 c 2.160289,0.0309 4.349119,-0.0589 6.491779,0.0467 1.50538,0.75325 3.01137,1.50528 4.51798,2.25606 0.38882,1.57825 0.77815,3.15638 1.16797,4.73438 -0.7907,1.13405 -1.47562,2.39187 -2.32664,3.45264 -1.51746,0.60648 -3.01434,1.31593 -4.54484,1.8579 -3.7681,0 -7.536199,0 -11.304299,0 0,-4.11588 0,-8.23177 0,-12.34765 1.99935,0 3.9987,0 5.99805,0 z m -16.22852,4.76562 c -0.0631,0.8534 0.12533,1.76798 -0.0918,2.58392 -0.68217,1.23327 -1.24778,2.58301 -2.0009,3.7452 -1.30024,0.63607 -2.56991,1.39694 -3.88811,1.95799 -1.54089,0 -3.08177,0 -4.62266,0 -1.05338,-1.05032 -2.10199,-2.10292 -3.154293,-3.15429 0.04911,-0.85023 -0.09626,-1.78102 0.07071,-2.58243 1.000053,-0.99919 1.996523,-1.9995 2.997653,-2.99765 3.5683,-0.45492 7.14019,-0.88308 10.68945,-1.47266 0,0.63997 0,1.27995 0,1.91992 z" />
  </g>
</svg>
