<?xml version="1.0" standalone="no"?>
<!DOCTYPE svg PUBLIC "-//W3C//DTD SVG 20010904//EN"
 "http://www.w3.org/TR/2001/REC-SVG-20010904/DTD/svg10.dtd">
<svg version="1.0" xmlns="http://www.w3.org/2000/svg"
 width="1600.000000pt" height="472.000000pt" viewBox="0 0 1600.000000 472.000000"
 preserveAspectRatio="xMidYMid meet">

<g transform="translate(0.000000,472.000000) scale(0.100000,-0.100000)"
fill="#000000" stroke="none">
<path d="M8144 2780 l1 -1370 268 0 268 0 -7 583 c-8 763 1 865 90 953 31 32
53 44 95 53 120 25 193 -35 220 -184 7 -39 11 -288 11 -732 l0 -673 265 0 265
0 0 707 c-1 748 -5 814 -49 937 -50 141 -166 242 -317 276 -71 16 -203 13
-276 -5 -98 -26 -211 -88 -267 -149 -14 -14 -29 -26 -34 -26 -7 0 -8 174 -3
500 l7 500 -269 0 -269 0 1 -1370z"/>
<path d="M650 2765 l0 -1355 255 0 255 0 0 102 0 103 35 -53 c90 -133 268
-205 460 -188 283 27 413 180 471 555 20 131 23 704 5 846 -51 388 -197 560
-486 570 -192 8 -327 -47 -426 -171 l-29 -37 0 492 0 491 -270 0 -270 0 0
-1355z m851 219 c19 -11 43 -39 56 -64 43 -85 55 -174 57 -455 4 -395 -10
-549 -62 -655 -36 -73 -77 -100 -152 -100 -104 0 -153 57 -187 216 -14 66 -17
141 -18 464 0 344 2 392 18 450 32 111 71 157 145 170 48 8 102 -2 143 -26z"/>
<path d="M2230 3910 l0 -210 270 0 270 0 0 210 0 210 -270 0 -270 0 0 -210z"/>
<path d="M3465 3810 c-100 -47 -358 -163 -407 -184 l-38 -15 0 -150 0 -151
-395 0 -395 0 0 -950 0 -950 270 0 270 0 0 779 0 780 125 3 125 3 0 -591 c0
-354 4 -613 10 -645 31 -168 156 -291 335 -330 68 -15 286 -18 388 -6 l67 9 0
164 0 164 -82 0 c-66 0 -90 4 -116 20 -63 38 -62 32 -62 649 l0 560 165 3 165
3 2 -780 3 -780 268 -3 267 -2 0 552 c0 339 4 578 11 618 13 81 41 145 82 189
55 58 178 101 289 101 49 0 50 -1 44 -26 -28 -109 -39 -246 -38 -469 0 -404
46 -616 165 -769 80 -102 172 -161 303 -196 248 -65 566 -43 745 51 93 49 187
146 232 240 78 164 102 324 102 684 -1 265 -16 417 -54 527 -64 186 -179 313
-341 376 -207 80 -586 76 -776 -8 -109 -48 -241 -172 -271 -253 -5 -13 -10 44
-13 148 l-5 170 -27 3 c-46 5 -194 -25 -253 -52 -69 -31 -166 -122 -191 -178
l-19 -43 -5 115 -5 115 -422 3 -423 2 0 265 c0 145 -3 266 -7 268 -5 2 -44
-13 -88 -33z m2212 -821 c37 -14 81 -56 103 -99 41 -81 45 -130 45 -505 0
-310 -3 -372 -18 -444 -36 -168 -88 -221 -216 -221 -81 0 -138 31 -169 92 -46
91 -61 212 -66 538 -7 508 43 648 231 650 34 0 74 -5 90 -11z"/>
<path d="M14551 3349 c-194 -17 -335 -75 -441 -179 -81 -80 -129 -172 -165
-315 -64 -252 -56 -761 15 -1015 87 -308 313 -451 713 -452 267 0 461 71 595
217 91 100 146 231 166 398 l7 57 -270 0 -271 0 0 -37 c0 -54 -27 -160 -51
-202 -39 -71 -139 -113 -218 -91 -80 21 -135 89 -165 206 -16 62 -37 256 -33
311 2 30 5 32 52 39 28 4 255 5 505 3 l455 -4 3 145 c9 413 -92 690 -296 814
-141 86 -369 126 -601 105z m235 -347 c49 -25 68 -46 93 -102 24 -55 44 -185
39 -260 l-3 -55 -237 -3 -238 -2 -2 37 c-7 162 30 300 95 361 56 53 175 64
253 24z"/>
<path d="M7336 3335 c-120 -25 -205 -78 -279 -175 l-27 -35 0 93 0 92 -270 0
-270 0 0 -950 0 -950 270 0 270 0 0 688 c0 395 4 712 10 746 18 112 80 167
186 167 81 0 122 -25 159 -96 l30 -59 3 -723 3 -723 270 0 270 0 -1 773 c-1
424 -6 795 -11 822 -22 119 -108 234 -214 285 -107 52 -276 71 -399 45z"/>
<path d="M10325 3344 c-365 -58 -534 -232 -590 -609 -21 -146 -22 -544 0 -707
35 -272 130 -449 290 -543 234 -139 701 -138 925 1 225 139 310 384 310 894 0
598 -130 846 -495 941 -62 16 -118 22 -245 24 -91 2 -178 1 -195 -1z m247
-346 c81 -24 127 -107 148 -268 12 -98 12 -548 0 -670 -19 -181 -55 -276 -117
-313 -41 -24 -127 -32 -180 -18 -127 35 -166 155 -178 561 -11 333 14 556 70
641 45 69 155 98 257 67z"/>
<path d="M12264 3339 c-76 -7 -170 -31 -219 -56 -51 -26 -132 -92 -157 -128
l-23 -35 -5 95 c-3 52 -8 95 -12 95 -5 0 -114 0 -243 0 l-235 0 0 -950 0 -950
265 0 264 0 3 703 3 702 23 57 c30 73 75 113 144 127 102 22 189 -24 220 -117
9 -28 13 -211 16 -754 l3 -718 264 0 264 0 3 703 c4 741 4 738 51 808 78 116
283 108 332 -13 31 -77 36 -205 33 -856 l-3 -642 263 0 263 0 -3 768 c-4 710
-5 772 -22 832 -66 231 -208 330 -476 331 -217 1 -362 -63 -456 -202 l-33 -49
-36 55 c-100 150 -265 215 -491 194z"/>
<path d="M12987 850 c-14 -291 -4 -771 14 -725 10 26 10 824 0 850 -5 11 -10
-41 -14 -125z"/>
<path d="M10510 628 c0 -166 3 -199 19 -233 75 -163 323 -147 371 23 5 20 10
119 10 220 l0 182 -55 0 -55 0 0 -191 0 -191 -30 -30 c-27 -26 -36 -30 -67
-25 -71 12 -72 17 -75 236 l-3 196 -57 3 -58 3 0 -193z"/>
<path d="M11020 549 l0 -270 53 3 52 3 3 103 3 102 32 0 c31 0 34 -4 85 -105
l52 -105 60 0 c33 0 60 4 60 9 0 6 -25 57 -56 115 l-55 105 34 31 c45 39 61
79 54 136 -6 58 -31 93 -87 122 -39 19 -59 22 -167 22 l-123 0 0 -271z m250
151 c11 -11 20 -31 20 -45 0 -44 -32 -65 -100 -65 l-60 0 0 65 0 65 60 0 c47
0 64 -4 80 -20z"/>
<path d="M11502 553 l3 -268 53 -3 52 -3 1 148 0 148 47 -92 c46 -91 47 -93
83 -93 35 0 37 2 80 88 l44 87 5 -140 5 -140 44 -3 c24 -2 47 0 52 5 4 4 9
125 11 268 l3 260 -55 3 -55 3 -64 -136 c-35 -74 -67 -135 -71 -135 -4 0 -15
18 -24 39 -8 22 -37 83 -63 135 l-47 96 -53 0 -53 0 2 -267z"/>
<path d="M12102 553 l3 -268 175 0 175 0 0 50 0 50 -122 3 -123 3 0 54 0 54
103 3 102 3 0 50 0 50 -103 0 -102 0 0 57 0 57 123 3 122 3 3 48 3 47 -181 0
-180 0 2 -267z"/>
<path d="M12510 770 l0 -50 70 0 70 0 0 -221 0 -220 53 3 52 3 3 217 2 217 68
3 67 3 0 45 0 45 -192 3 -193 2 0 -50z"/>
<path d="M13235 805 c-90 -42 -110 -86 -110 -245 0 -138 11 -183 53 -223 28
-27 99 -57 136 -57 79 0 165 62 185 132 7 24 11 70 9 103 l-3 60 -95 0 -95 0
-3 -32 -3 -32 58 -3 58 -3 -2 -37 c-5 -85 -80 -132 -157 -97 -46 21 -58 67
-54 199 3 109 5 120 27 144 50 54 126 42 170 -27 20 -30 30 -37 57 -37 18 0
35 4 39 10 7 12 -20 78 -43 104 -45 50 -162 71 -227 41z"/>
<path d="M13628 814 c-5 -4 -8 -124 -8 -266 l0 -258 45 0 45 0 0 110 0 110 48
0 48 0 53 -110 52 -110 50 0 51 0 -61 115 -61 115 29 15 c70 35 95 141 51 212
-33 55 -70 67 -210 71 -69 2 -128 0 -132 -4z m261 -100 c26 -33 27 -75 2 -105
-17 -21 -30 -24 -100 -27 l-81 -4 0 81 0 81 79 0 c74 0 81 -2 100 -26z"/>
<path d="M14195 801 c-81 -37 -104 -90 -105 -241 0 -122 12 -174 48 -214 32
-34 96 -65 136 -66 82 0 166 58 185 128 14 49 14 236 0 287 -28 104 -157 155
-264 106z m151 -76 c30 -20 44 -73 44 -170 0 -99 -13 -148 -47 -175 -34 -26
-92 -26 -126 0 -32 26 -40 60 -40 188 0 88 3 107 20 130 39 53 95 63 149 27z"/>
<path d="M14580 620 c0 -180 2 -205 20 -240 21 -42 57 -71 109 -88 53 -18 93
-14 152 16 42 21 59 37 77 72 21 41 22 57 22 242 l0 198 -39 0 -40 0 -3 -201
-3 -201 -33 -29 c-45 -40 -99 -40 -144 0 l-33 29 -3 201 -4 201 -39 0 -39 0 0
-200z"/>
<path d="M15090 555 l0 -265 40 0 40 0 0 99 c0 115 -4 111 103 111 128 0 182
47 182 155 0 76 -20 109 -85 143 -39 19 -60 22 -162 22 l-118 0 0 -265z m260
165 c27 -27 34 -64 18 -96 -18 -40 -53 -54 -130 -54 l-68 0 0 85 0 85 80 0
c66 0 83 -3 100 -20z"/>
</g>
</svg>
