<?xml version="1.0" encoding="UTF-8" standalone="no"?>
<svg
   xmlns:dc="http://purl.org/dc/elements/1.1/"
   xmlns:cc="http://creativecommons.org/ns#"
   xmlns:rdf="http://www.w3.org/1999/02/22-rdf-syntax-ns#"
   xmlns:svg="http://www.w3.org/2000/svg"
   xmlns="http://www.w3.org/2000/svg"
   xmlns:sodipodi="http://sodipodi.sourceforge.net/DTD/sodipodi-0.dtd"
   xmlns:inkscape="http://www.inkscape.org/namespaces/inkscape"
   sodipodi:docname="icon.svg"
   inkscape:version="1.0 (4035a4fb49, 2020-05-01)"
   id="svg8"
   version="1.1"
   viewBox="0 0 264.58334 264.58334"
   height="1000"
   width="1000">
  <defs
     id="defs2" />
  <sodipodi:namedview
     inkscape:window-maximized="1"
     inkscape:window-y="-8"
     inkscape:window-x="1912"
     inkscape:window-height="1017"
     inkscape:window-width="1920"
     units="px"
     showgrid="false"
     inkscape:document-rotation="0"
     inkscape:current-layer="layer1"
     inkscape:document-units="mm"
     inkscape:cy="416.25654"
     inkscape:cx="417.14604"
     inkscape:zoom="0.7"
     inkscape:pageshadow="2"
     inkscape:pageopacity="0.0"
     borderopacity="1.0"
     bordercolor="#666666"
     pagecolor="#ffffff"
     id="base" />
  <metadata
     id="metadata5">
    <rdf:RDF>
      <cc:Work
         rdf:about="">
        <dc:format>image/svg+xml</dc:format>
        <dc:type
           rdf:resource="http://purl.org/dc/dcmitype/StillImage" />
        <dc:title></dc:title>
      </cc:Work>
    </rdf:RDF>
  </metadata>
  <g
     id="layer1"
     inkscape:groupmode="layer"
     inkscape:label="Ebene 1">
    <path
       id="path40"
       d="m 109.33541,189.27869 c -11.992228,-1.37843 -23.534972,-4.06532 -28.71731,-6.68474 -3.959744,-2.00145 -4.887004,-2.91789 -5.136814,-5.07682 -0.167661,-1.44897 -1.26641,-3.62243 -2.441666,-4.8299 -4.461826,-4.58416 -7.771534,-9.71414 -7.319382,-11.34491 0.312638,-1.12758 -0.145218,-1.83935 -1.430725,-2.22417 -2.313881,-0.69264 -19.694614,-20.06834 -19.694614,-21.95515 0,-2.46793 6.406964,-8.09184 12.323983,-10.81777 8.086145,-3.72521 16.051053,-6.05651 29.109135,-8.52013 41.457183,-7.82156 95.843983,-4.05876 123.148333,8.52013 5.91703,2.72593 12.32399,8.34984 12.32399,10.81777 0,1.88681 -17.38073,21.26251 -19.69461,21.95515 -1.28551,0.38482 -1.74337,1.09659 -1.43073,2.22417 0.45215,1.63077 -2.85755,6.76075 -7.31938,11.34491 -1.17525,1.20747 -2.27401,3.37102 -2.44167,4.80787 -0.51266,4.39355 -8.31354,7.6466 -25.44403,10.61041 -10.02797,1.73498 -44.62297,2.46188 -55.83451,1.17318 z M 91.776881,171.50955 c 0.611819,-0.57705 -3.092237,-8.48214 -3.974441,-8.48214 -2.077825,0 -7.368843,4.06376 -7.646657,5.873 -0.462108,3.00944 2.873278,4.62054 7.524929,3.63478 2.13436,-0.45231 3.977636,-0.91384 4.096169,-1.02564 z m 93.876829,-2.40712 c 0,-1.35492 -1.07607,-2.73726 -3.1637,-4.06417 -4.29521,-2.73003 -5.19953,-2.55233 -6.52577,1.28227 -0.62642,1.81122 -1.34627,3.75916 -1.59966,4.32877 -0.28612,0.64318 1.05996,1.34358 3.55205,1.84825 4.81054,0.97417 7.73708,-0.31003 7.73708,-3.39512 z m -65.64123,-0.48034 7.44865,-0.55247 v -5.2876 -5.28759 l -9.45717,0.58454 c -9.24603,0.57149 -22.031597,2.14302 -23.304216,2.86445 -0.351498,0.19925 0.247839,2.37517 1.331861,4.83536 l 1.970948,4.47309 7.280637,-0.53865 c 4.00435,-0.29626 10.63253,-0.78727 14.72929,-1.09113 z m 48.79425,-2.67754 c 0.81628,-2.2595 1.48414,-4.38491 1.48414,-4.72315 0,-0.85966 -12.46175,-2.51469 -23.90842,-3.17526 l -9.61051,-0.5546 v 5.28368 5.28371 l 11.40575,0.85576 c 20.51464,1.53921 18.91685,1.76925 20.62904,-2.97014 z M 84.344488,151.94118 c 0.14115,-0.42294 -0.09994,-1.30021 -0.535754,-1.94949 -0.6516,-0.97077 -1.352001,-0.91295 -3.94196,0.32543 -3.52093,1.68352 -6.408354,3.86785 -6.408354,4.84789 0,0.87546 10.561856,-2.25236 10.886068,-3.22383 z M 192.63682,155.202 c 0,-1.12218 -5.17443,-5.10534 -7.55987,-5.81942 -1.98207,-0.59333 -3.87956,0.90378 -3.30803,2.61002 0.15116,0.45123 2.34402,1.50733 4.87305,2.3469 5.50296,1.82683 5.99485,1.8976 5.99485,0.8625 z m -74.25373,-6.68806 9.07804,-0.57922 v -2.55254 c 0,-2.99322 0.40142,-2.94682 -14.43176,-1.66827 -15.696818,1.35298 -23.742568,2.70654 -23.742568,3.99429 0,3.43154 0.596217,3.57105 10.497998,2.45654 5.23613,-0.58937 13.60537,-1.33222 18.59829,-1.6508 z m 56.92911,0.83011 c 0.31084,-0.76399 0.56516,-1.70484 0.56516,-2.09077 0,-0.93351 -17.62259,-3.3764 -29.56183,-4.09796 l -9.54359,-0.57676 v 2.67553 2.67552 l 10.00913,0.62223 c 5.50502,0.34222 12.52304,0.9229 15.59561,1.2904 9.48519,1.13447 12.31561,1.02547 12.93552,-0.49819 z M 40.83053,132.99854 c -0.916143,-1.89644 -0.533875,-5.1263 2.258733,-19.08449 1.84883,-9.24094 4.022598,-17.753322 4.830594,-18.916396 9.998846,-14.392877 62.295603,-23.912995 108.607233,-19.770893 30.49346,2.72733 55.34477,10.697258 61.6483,19.770893 0.80799,1.163074 2.98176,9.675456 4.83059,18.916396 2.72926,13.64158 3.16204,17.21462 2.30097,18.99706 l -1.06054,2.19534 -2.06332,-2.5051 c -3.4577,-4.19802 -5.4719,-5.54602 -14.18343,-9.49224 -9.46718,-4.28853 -21.98492,-7.56378 -37.70879,-9.86645 -15.43381,-2.2602 -59.24929,-2.25986 -74.486499,5.8e-4 -27.13166,4.02497 -46.628682,11.24962 -52.015889,19.27456 l -1.855173,2.76352 z"
       style="fill:#000000;stroke-width:0.904236" />
  </g>
</svg>
