<?xml version="1.0" encoding="UTF-8" standalone="no"?>
<svg
   xmlns:dc="http://purl.org/dc/elements/1.1/"
   xmlns:cc="http://creativecommons.org/ns#"
   xmlns:rdf="http://www.w3.org/1999/02/22-rdf-syntax-ns#"
   xmlns:svg="http://www.w3.org/2000/svg"
   xmlns="http://www.w3.org/2000/svg"
   xmlns:sodipodi="http://sodipodi.sourceforge.net/DTD/sodipodi-0.dtd"
   xmlns:inkscape="http://www.inkscape.org/namespaces/inkscape"
   width="150mm"
   height="150mm"
   viewBox="0 0 150 150"
   version="1.1"
   id="svg8"
   sodipodi:docname="201024 learnmode.svg"
   inkscape:version="1.0.2 (e86c870879, 2021-01-15, custom)">
  <defs
     id="defs2" />
  <sodipodi:namedview
     id="base"
     pagecolor="#ffffff"
     bordercolor="#666666"
     borderopacity="1.0"
     inkscape:pageopacity="0.0"
     inkscape:pageshadow="2"
     inkscape:zoom="0.35"
     inkscape:cx="400"
     inkscape:cy="331.42857"
     inkscape:document-units="mm"
     inkscape:current-layer="layer1"
     inkscape:document-rotation="0"
     showgrid="false"
     inkscape:window-width="1920"
     inkscape:window-height="1018"
     inkscape:window-x="2729"
     inkscape:window-y="-6"
     inkscape:window-maximized="1" />
  <metadata
     id="metadata5">
    <rdf:RDF>
      <cc:Work
         rdf:about="">
        <dc:format>image/svg+xml</dc:format>
        <dc:type
           rdf:resource="http://purl.org/dc/dcmitype/StillImage" />
        <dc:title></dc:title>
      </cc:Work>
    </rdf:RDF>
  </metadata>
  <g
     inkscape:label="Ebene 1"
     inkscape:groupmode="layer"
     id="layer1">
    <path
       id="path69"
       style="fill:#444444;stroke:none;stroke-width:0.585271"
       d="m 5.8794693,14.618105 c 2.4061079,2.958877 4.8122157,5.917754 7.2183237,8.876631 -1.465517,1.869156 -2.692167,4.646976 0.621389,3.125075 1.30271,-2.678293 2.852111,-2.914101 4.668641,-0.50508 2.658711,2.215592 5.317422,4.431184 7.976133,6.646776 4.916487,-0.800363 11.877635,7.119847 10.597805,9.287949 C 31.59474,41.551256 26.049794,41.553245 20.79417,40.741882 15.993218,37.09735 10.054421,35.450165 4.7089283,32.761507 c 3.3135095,6.897629 11.6739397,9.093055 18.5554157,10.679782 8.523114,-0.92134 -0.449881,7.506419 -2.273002,9.825157 -2.667503,7.555061 -3.397889,15.613014 -2.495692,23.578339 0.695973,8.538584 2.351859,16.987716 2.600866,25.563985 5.605796,4.39161 8.195287,13.11054 14.667519,17.64512 8.988406,8.8271 21.918328,10.76794 33.680537,13.52073 16.435478,2.91894 34.202248,2.02748 49.047678,-6.24073 5.81928,-2.8023 13.51797,-5.51307 14.97631,-12.63444 2.20559,1.48345 2.28495,-3.14334 3.52195,-4.44335 1.57935,-4.03168 4.56158,-7.69949 4.24829,-12.222067 0.63387,-11.360837 1.87936,-22.707266 2.69643,-34.031634 -0.56253,-3.000198 -1.12507,-6.000395 -1.6876,-9.000593 7.63423,-1.012907 -4.45647,-1.754219 -2.92637,-5.657815 3.85373,-2.442701 5.22051,-5.552915 0.53829,-2.314786 -2.01308,2.048788 -3.8681,0.300156 -4.96006,-1.651521 -0.98994,-1.760328 4.93719,-5.961271 1.34964,-6.423308 -0.20742,5.21059 -6.29788,3.998031 -6.24324,-0.881892 0.0808,-1.903297 -3.29439,2.229419 -5.30946,-0.933425 C 109.07853,30.228191 93.241683,20.770212 75.490772,22.346768 64.897042,23.416506 54.599633,27.149369 45.247278,32.117258 40.122624,37.121031 34.751898,32.77004 29.917777,30.026988 21.83577,28.198004 16.842598,21.317842 10.398935,16.795255 8.9914891,15.885043 7.4772916,15.131309 5.8794693,14.618105 Z M 110.05771,62.025058 c 2.19981,-0.630629 5.46573,-2.146048 2.93836,1.146541 2.60163,0.222223 13.46003,-3.402107 7.62393,-5.349244 -2.46835,2.896664 -11.46715,3.23304 -7.15396,-1.615547 2.20129,-3.304418 1.66901,0.998847 0.74075,2.709272 1.4968,-0.443944 3.95007,-2.076551 5.81306,-2.975586 3.38745,-0.327462 0.0283,-3.930242 0.94283,-5.035585 2.82553,1.29084 2.80506,-3.866844 0.17584,-3.375145 -2.7362,0.103265 -3.627,-1.849789 -4.16641,-4.194395 -0.93917,-2.549169 -1.87833,-5.098338 -2.8175,-7.647507 2.24151,-0.291827 4.31725,0.599998 6.43799,1.170542 -0.95485,3.357119 3.15553,11.500959 4.84041,8.924764 -0.19006,-1.750961 -3.86944,-6.318483 -1.19635,-5.758313 4.30132,1.530493 3.60055,6.373684 8.43956,6.193689 3.89868,3.587101 4.08681,8.754794 7.209,12.038863 0.0926,1.967296 -6.58358,-1.994212 -2.32283,1.034006 3.99948,1.727164 4.06351,5.461192 3.57947,9.388645 0.0288,10.132932 -1.74397,20.142265 -2.29481,30.235239 -1.75779,12.077273 -12.65703,19.759033 -23.27906,23.819723 -20.38448,8.75869 -43.921645,7.7416 -64.712669,0.94883 -8.316745,-3.48011 -16.230896,-8.63006 -21.484191,-16.06823 -2.713519,-3.40298 -5.193737,-9.019842 -7.689343,-12.539902 0,-11.992338 0,-23.984677 0,-35.977015 3.168107,1.071168 2.556326,-2.319671 3.071178,-4.380564 0.05335,-3.474078 3.614322,-3.789073 3.561874,-7.617492 3.140037,-4.321051 12.357944,-0.767868 13.266163,-5.069402 0.410522,-2.087368 -1.187756,-5.416242 1.655059,-6.00037 2.179579,-1.08979 4.359157,-2.179579 6.538736,-3.269368 -0.469424,5.691991 5.086824,-5.20956 9.191523,-2.989914 13.235449,-4.698389 28.54444,-7.098076 41.68265,-0.789825 7.30121,1.239753 16.48376,7.185952 13.05171,15.751299 -3.07761,4.061147 -8.71343,7.438273 -4.16265,13.117186 0.48832,1.321772 0.79198,2.765517 0.51968,4.174805 z M 48.604254,35.687862 c -1.082379,4.553549 2.764944,0.107899 0.0603,0 z m -11.120148,1.170542 c 0.732539,1.719099 3.164029,6.39544 -0.3358,2.455337 l -0.197732,-1.177597 z m 9.949607,2.926356 c -0.539694,4.846797 -0.166054,9.841813 -1.658249,14.534035 1.489748,1.149059 2.403376,5.441238 4.337843,4.164054 4.339338,-1.379259 8.939325,4.013318 13.503759,5.139235 3.424646,1.044133 12.553335,5.610246 10.566433,-1.196921 C 74.078549,60.178381 73.9736,57.9316 73.86865,55.684818 66.8586,54.604924 60.590071,51.035054 53.951843,48.706608 c -2.743048,-2.134439 -2.28024,2.24288 -3.157665,3.897906 0.199596,6.146069 -6.318516,1.613103 -2.14169,-2.246571 3.329892,-2.734406 2.038641,-9.401515 -1.218775,-10.573183 z m -5.26744,4.096897 c 0.350866,2.245336 1.456438,5.048078 -1.973605,4.50093 -2.853758,0.450594 -5.707516,0.901187 -8.561274,1.351781 -0.807821,4.324757 7.194568,4.018545 9.788401,2.259474 3.046011,-1.634152 3.935926,-6.077339 0.746478,-8.112185 z m 2.341084,0 c -0.464801,3.248046 3.2314,-0.482446 0,0 z m -14.046504,4.096897 c -0.464801,3.248048 3.231398,-0.482445 0,0 z m 92.472827,2.926355 c -0.80071,3.827392 3.34449,7.349932 6.43798,4.096897 0.57304,6.16284 9.76904,-0.337166 4.05615,-3.786983 -3.07164,-2.164464 -7.10409,-0.4792 -10.49413,-0.309914 z m -93.643369,0 c -0.464801,3.248048 3.2314,-0.482445 0,0 z m 74.329419,1.170542 c -5.551637,4.609492 -13.818468,4.02724 -20.699085,3.892886 -8.672485,-2.701255 -2.973936,8.347925 -6.22338,10.738889 1.548923,0.07186 5.424188,-3.083915 5.267439,-0.645566 6.861113,-1.532677 14.478506,0.274748 21.217706,-2.334566 1.74621,1.716092 5.91634,0.690209 6.8753,-1.271659 -0.91001,-0.885566 -4.65301,2.415206 -3.85794,-1.453157 -0.46983,-2.975609 -0.93967,-5.951218 -1.4095,-8.926827 -0.39018,0 -0.78036,0 -1.17054,0 z m 24.58138,0 c 0.84716,3.157222 -1.92594,3.946179 -1.17053,0.335778 -0.26833,-0.715785 0.87397,-0.158375 1.17053,-0.335778 z M 26.949226,53.831264 c 0.63413,0.63413 0.846204,0.846204 0,0 z m 7.998724,0.194895 c 0.59621,0.298733 0.351864,0.176303 0,0 z m -6.828181,0.975647 c -0.464801,3.248048 3.2314,-0.482445 0,0 z m 3.511625,0 c -0.464801,3.248048 3.231402,-0.482446 0,0 z m 92.472826,5.85271 c -1.17054,2.731265 -2.34108,5.46253 -3.51162,8.193795 2.53711,-0.109547 7.67773,-8.004056 3.51162,-8.193795 z m 8.19379,1.170542 c 1.17054,1.950904 2.34109,3.901807 3.51163,5.852711 3.8211,0.110527 1.03365,-2.516297 0.0562,-4.393389 -0.93155,-2.125878 -1.40073,-2.275952 -3.56784,-1.459322 z m -4.0969,0 c 0,2.731265 0,5.46253 0,8.193795 4.4774,1.661629 2.80431,-7.684562 0,-8.193795 z m -65.55035,4.096898 c 1.714482,4.110183 11.396866,2.35254 3.717636,1.143888 -1.239212,-0.381296 -2.478424,-0.762592 -3.717636,-1.143888 z m -2.341084,2.926355 c -0.217715,2.427374 3.848931,1.179114 5.486685,2.014647 3.827202,0.920242 1.426656,-1.862928 -1.170173,-1.350568 -1.438837,-0.22136 -2.877675,-0.442719 -4.316512,-0.664079 z m 16.387589,0 c -0.220276,2.460869 3.894214,0.586971 5.551236,1.170542 2.441576,0 4.883151,0 7.324727,0 0.220276,-2.460869 -3.894214,-0.586971 -5.551236,-1.170542 -2.441576,0 -4.883151,0 -7.324727,0 z m -19.313944,2.926355 c 0.926577,1.532613 4.29056,1.06703 6.169226,1.819116 3.171792,1.489607 3.326294,-1.372905 0.04199,-0.990954 -2.070404,-0.276054 -4.140809,-0.552108 -6.211213,-0.828162 z m 21.655028,0 c 0.943748,1.394485 4.370071,0.427422 6.283551,0.899449 3.025191,0.50794 8.213115,0.123645 2.040318,-1.257441 -2.781946,-0.199909 -5.548339,0.271666 -8.323869,0.357992 z m -8.388689,0.194895 c 0.59604,0.298917 0.351492,0.176275 0,0 z m 5.462334,-0.194895 c 0.158413,1.329405 4.582001,0.427099 0,0 z m -20.484487,2.926355 c 0.926577,1.532613 4.29056,1.06703 6.169226,1.819116 2.82085,0.56417 5.6417,1.12834 8.46255,1.69251 0.21751,-2.426067 -3.845305,-1.20222 -5.481516,-2.047584 -3.050087,-0.488014 -6.100173,-0.976028 -9.15026,-1.464042 z m 28.678281,1.170543 c 2.536175,-0.390181 5.072349,-0.780362 7.608524,-1.170543 -2.344464,-0.700124 -6.047695,-1.203452 -7.608524,1.170543 z M 67.918199,74.901021 c 0.979174,1.354184 5.59309,0.318056 0.956297,0.159383 -0.318766,-0.05313 -0.637531,-0.106255 -0.956297,-0.159383 z m -15.802318,2.341084 c 2.456164,3.902369 11.687393,5.398802 14.046505,2.98665 -4.557556,-1.089628 -9.392816,-1.977323 -14.046505,-2.98665 z m 24.581384,1.755814 c 0.944927,1.347297 4.37553,0.208918 6.291401,0.585271 2.975215,0 5.950431,0 8.925646,0 1.078786,-3.471111 -2.336167,-1.900157 -4.411718,-1.83204 -3.601776,0.415589 -7.203553,0.831179 -10.805329,1.246769 z m -2.341085,2.926355 c 0.944927,1.347297 4.37553,0.208918 6.291401,0.585271 4.340847,0 8.681695,0 13.022543,0 C 88.080713,79.310684 80.422706,81.011743 74.35618,81.924274 Z" />
  </g>
</svg>
