<?xml version="1.0" encoding="UTF-8" standalone="no"?>
<svg
   xmlns:dc="http://purl.org/dc/elements/1.1/"
   xmlns:cc="http://creativecommons.org/ns#"
   xmlns:rdf="http://www.w3.org/1999/02/22-rdf-syntax-ns#"
   xmlns:svg="http://www.w3.org/2000/svg"
   xmlns="http://www.w3.org/2000/svg"
   xmlns:sodipodi="http://sodipodi.sourceforge.net/DTD/sodipodi-0.dtd"
   xmlns:inkscape="http://www.inkscape.org/namespaces/inkscape"
   width="150mm"
   height="150mm"
   viewBox="0 0 150 150"
   version="1.1"
   id="svg8"
   inkscape:version="1.0.2 (e86c870879, 2021-01-15, custom)"
   sodipodi:docname="201023.svg">
  <defs
     id="defs2" />
  <sodipodi:namedview
     id="base"
     pagecolor="#ffffff"
     bordercolor="#666666"
     borderopacity="1.0"
     inkscape:pageopacity="0.0"
     inkscape:pageshadow="2"
     inkscape:zoom="0.49497475"
     inkscape:cx="489.54164"
     inkscape:cy="417.73758"
     inkscape:document-units="mm"
     inkscape:current-layer="layer1"
     inkscape:document-rotation="0"
     showgrid="false"
     inkscape:window-width="1368"
     inkscape:window-height="850"
     inkscape:window-x="-6"
     inkscape:window-y="-6"
     inkscape:window-maximized="1" />
  <metadata
     id="metadata5">
    <rdf:RDF>
      <cc:Work
         rdf:about="">
        <dc:format>image/svg+xml</dc:format>
        <dc:type
           rdf:resource="http://purl.org/dc/dcmitype/StillImage" />
        <dc:title></dc:title>
      </cc:Work>
    </rdf:RDF>
  </metadata>
  <g
     inkscape:label="Ebene 1"
     inkscape:groupmode="layer"
     id="layer1">
    <path
       id="path41"
       style="fill:#a1a1a3;stroke:none;stroke-width:0.299863"
       d="m 130.43092,41.156351 c -5.58619,0.387374 -11.20904,2.428448 -15.3091,6.324143 -2.37604,2.253242 -4.05175,5.305663 -4.39598,8.582107 -1.56012,0.318433 -2.77471,1.59941 -3.17969,3.115235 -1.63585,-0.238481 -3.25373,0.63829 -4.88022,0.127509 -3.368038,-0.588919 -6.573493,-1.906286 -9.957664,-2.39704 -1.521044,-0.102848 -3.184301,0.6651 -4.561081,-0.305791 -1.151098,-0.80703 -2.358782,-1.635641 -3.804535,-1.761907 -1.471683,-0.205201 -3.015849,-0.2913 -4.304821,-1.119515 -5.32985,-2.654741 -10.536078,-6.061059 -16.571961,-6.854336 -4.275614,-0.577542 -8.747559,0.296261 -12.424863,2.57729 -3.601991,2.140136 -6.774892,4.912782 -10.319231,7.143964 -11.083426,7.436029 -21.979941,15.147856 -33.0458625,22.609373 -1.6651796,1.284936 -3.8004834,2.217633 -4.7969403,4.176588 -1.1990096,2.935415 -0.6041001,6.245232 0.3328424,9.16825 1.6680087,4.851141 4.2071718,9.378879 7.1886034,13.540329 4.9009,6.73998 11.287983,12.38278 18.519528,16.51172 2.255665,1.24475 5.063034,1.41548 7.41761,0.33927 3.085732,-1.36461 5.609583,-3.67028 8.398506,-5.52187 8.041562,-5.60265 16.005251,-11.31287 24.059094,-16.90078 3.832954,-2.630153 7.56749,-5.400327 11.425142,-7.994858 3.261096,-2.145786 6.861473,-4.300702 8.687187,-7.904603 2.381959,-4.788339 2.170342,-10.411936 0.94919,-15.492005 -0.468666,-2.013823 -1.102879,-3.987075 -1.839814,-5.918151 1.190839,0.957209 2.633914,1.703736 4.205078,1.595703 1.429717,-0.05012 2.944877,-0.222115 4.248878,0.511566 1.287767,0.650537 2.731186,1.166115 4.188854,0.825823 1.18071,-0.288816 2.39625,-0.08904 3.48903,0.41466 1.44133,0.623764 3.20935,0.966129 4.60861,0.0431 1.33981,-0.697307 2.25637,-2.094852 3.73025,-2.527571 1.55063,0.110275 2.64621,1.400447 3.8811,2.202732 1.78812,1.312307 4.05276,1.725995 6.19842,2.058639 4.40343,0.516415 8.96541,-0.104457 13.04414,-1.852166 4.21934,-1.886322 8.16467,-4.917664 10.20162,-9.159007 1.75095,-3.54645 1.31868,-8.043633 -1.12759,-11.15771 -2.48959,-3.156968 -6.58271,-4.462698 -10.43928,-4.904915 -1.26518,-0.149376 -2.54362,-0.168557 -3.81505,-0.09578 z m 1.35352,1.857422 c 3.47546,-0.05626 7.01281,0.796085 9.79882,2.986328 2.29772,1.759808 3.6065,4.713817 3.25084,7.599861 -0.33553,3.960138 -3.12005,7.259775 -6.36692,9.324459 -4.17822,2.643053 -9.20283,4.026493 -14.14954,3.70654 -1.56078,-0.160244 -3.3356,-0.433741 -4.91545,-0.935903 -1.58447,-0.509213 -3.22118,-1.285123 -4.16658,-2.716441 0.54562,-0.55003 1.07999,-0.407713 1.60872,0.08183 2.18151,1.466475 4.57003,2.848967 7.26186,2.987326 4.4918,0.351826 9.07708,-0.773605 12.97799,-3.004579 3.15237,-1.797313 5.96105,-4.768759 6.44364,-8.496078 0.47638,-3.556942 -0.97454,-7.518562 -4.1594,-9.386862 -3.39641,-2.013462 -7.59063,-1.945745 -11.34861,-1.18922 -3.76875,0.828713 -7.53571,2.334176 -10.35565,5.040418 -2.1233,2.048045 -3.87522,4.849956 -3.64517,7.906041 0.1637,1.403146 0.90733,2.750267 0.74201,4.178308 -0.14208,0.407645 -0.64165,0.752773 -0.85156,0.175781 -0.79926,-1.484563 -1.15209,-3.200505 -1.24549,-4.873228 0.13431,-3.439825 2.20856,-6.586746 4.93542,-8.662097 4.03472,-3.066849 9.151,-4.59809 14.18507,-4.722488 z m -0.19141,2.320313 c 3.26207,0.05369 6.85231,1.003024 8.91601,3.708984 1.64593,2.10589 1.55792,5.115169 0.34432,7.40293 -2.04631,4.060042 -6.4253,6.520275 -10.67845,7.46749 -3.70999,0.802241 -7.81858,0.550984 -11.13914,-1.409138 -1.16414,-0.632065 -1.57593,-1.980834 -1.5873,-3.227329 0.0266,-1.244521 -0.65776,-2.415447 -1.73825,-3.026922 0.90865,-4.327469 4.32595,-7.774949 8.33671,-9.423829 2.37407,-1.018471 4.96505,-1.511147 7.5461,-1.492186 z m -70.646483,3.390625 c 5.207842,0.0049 10.502231,1.308379 14.90874,4.136491 0.91895,0.60782 1.788102,1.297056 2.552197,2.092024 -2.482848,0.154676 -4.471773,-2.153445 -6.99311,-1.682423 -1.455798,0.111365 -2.502075,1.745037 -1.920573,3.100115 0.576732,1.417276 2.130446,2.043574 3.397962,2.706181 1.671052,0.708054 3.512176,1.459918 5.357518,1.100737 1.126344,-0.207969 1.629017,-1.486987 1.283702,-2.50115 -0.119848,-0.483742 -0.521642,-1.094485 0.32958,-0.899241 1.947157,0.184367 3.225227,1.91746 4.261397,3.394622 2.849663,4.386373 4.86445,9.626218 4.249457,14.932505 -0.374787,3.743183 -2.465634,7.254348 -5.607117,9.332758 -10.561676,7.493392 -21.228255,14.834234 -31.764854,22.36161 -4.528408,3.20107 -9.145563,6.27578 -13.550198,9.64588 -1.595451,1.18672 -3.653608,2.17153 -5.665704,1.50992 -2.698197,-0.80794 -4.745388,-2.72609 -7.066265,-4.23007 C 17.289397,108.57962 11.408497,101.40176 7.2725274,93.403615 6.0052788,90.944689 4.557843,88.406636 4.4250625,85.580179 4.3492741,83.737582 6.0050153,82.536109 7.408524,81.675964 11.46081,79.165054 15.340128,76.383967 19.282868,73.709387 27.732452,67.773388 36.335139,62.06044 44.814252,56.16813 c 3.770072,-2.680106 7.416261,-5.915205 12.03652,-6.990735 1.410804,-0.312693 2.657134,-0.424184 4.095775,-0.452684 z m 11.607422,6.453125 c 1.661359,0.315946 2.882605,1.735269 3.623047,3.175781 -1.635948,-0.697557 -3.408706,-1.260962 -4.765625,-2.451172 -0.579256,-0.383039 0.104848,-0.650474 0.472889,-0.702079 0.219316,-0.04554 0.447643,-0.0468 0.669689,-0.02253 z m 11.130859,1.55664 c 1.332173,0.454669 2.819652,1.006396 3.609375,2.246094 0.357203,0.678057 -0.311764,1.290307 -0.83789,1.621094 -1.022787,-1.315755 -2.045573,-2.631511 -3.06836,-3.947266 0.09896,0.02669 0.197917,0.05339 0.296875,0.08008 z m 28.367182,5.38086 c -0.63899,0.264455 -0.94846,-0.666528 -1.43175,-0.96691 -0.35903,-0.447809 -0.99207,-0.819361 -1.19071,-1.311804 0.17726,-0.764741 0.68858,-1.466686 1.43692,-1.752536 0.39518,1.34375 0.79036,2.6875 1.18554,4.03125 z M 92.091078,58.629008 c 0.9542,0.119055 2.378123,0.40145 2.439012,1.59204 0.0061,1.040231 -0.32604,2.36324 -1.357665,2.823265 -1.859044,0.432361 -4.059911,-1.295519 -3.671062,-3.257552 0.326199,-1.052798 1.648063,-1.245983 2.589715,-1.157753 z m 6.906254,1.285156 c 0.98935,0.117699 2.233508,0.423525 2.675778,1.414062 0.1486,0.940928 -0.17047,1.873497 -0.25586,2.806641 -1.550548,0.28761 -3.245962,0.0061 -4.583984,-0.765625 0.253665,-1.052562 0.1229,-2.307353 0.83789,-3.183594 0.380381,-0.266573 0.877099,-0.293177 1.326176,-0.271484 z m 10.957028,3.535156 c -1.04716,1.27609 -2.80078,2.230421 -4.47852,1.847656 -0.88418,-0.2302 -1.40135,-1.140102 -1.22114,-2.024464 0.0126,-0.520061 0.0752,-1.038807 0.0493,-1.55952 1.14192,-0.244792 2.28385,-0.489583 3.42578,-0.734375 0.74153,0.823568 1.48307,1.647135 2.22461,2.470703 z M 73.616469,62.996195 c -2.974895,0.03757 -6.096744,1.401323 -7.567493,4.097514 -2.058744,3.554571 -0.865114,8.575855 2.62804,10.765767 2.788377,1.776574 6.520791,1.759602 9.445453,0.319749 2.872301,-1.422082 4.465274,-4.776022 4.055151,-7.909281 -0.296254,-3.279705 -2.751722,-6.283988 -6.001384,-7.007359 -0.834934,-0.211006 -1.699879,-0.288393 -2.559767,-0.26639 z m -0.01758,2.091797 c 2.893099,-0.04731 5.694625,1.959437 6.432314,4.781862 0.717553,2.237974 -0.166746,4.88938 -2.196381,6.124 -2.515202,1.592771 -6.129356,1.823662 -8.477468,-0.20968 -2.377641,-1.952294 -3.291958,-5.83841 -1.34245,-8.387588 1.298256,-1.688875 3.537346,-2.310821 5.583985,-2.308594 z m -2.824219,1.644531 c -1.137162,0.03899 -1.597328,1.606847 -0.726562,2.296875 0.310193,0.320774 0.840979,0.385595 1.21875,0.28125 -0.494483,1.072545 0.772194,2.406455 1.847656,1.773438 1.203414,-0.570604 0.575729,-2.596125 -0.707032,-2.513672 -0.615295,0.230815 -0.03954,-0.464488 -0.266821,-0.810285 -0.13662,-0.6044 -0.732453,-1.103541 -1.365991,-1.027606 z m 3.529297,3.826172 c -1.067386,-0.03309 -1.649188,1.413444 -0.814453,2.105469 0.721222,0.853602 2.348927,0.327682 2.277344,-0.833985 -0.05467,-0.720342 -0.753323,-1.295007 -1.462891,-1.271484 z m 1.867187,1.871094 c -1.093491,0.04033 -1.585606,1.516469 -0.789062,2.236328 0.780165,0.919308 2.457821,0.06752 2.179687,-1.105469 -0.102355,-0.652866 -0.712443,-1.207652 -1.390625,-1.130859 z m -17.373046,2.265625 c -2.534897,0.06537 -5.257776,1.306506 -6.279445,3.758266 -1.429086,3.1131 0.242128,7.086001 3.333299,8.451328 2.37084,1.06231 5.341291,0.985898 7.535989,-0.465453 2.511663,-1.6925 3.056707,-5.303658 1.762034,-7.918446 -1.086144,-2.454482 -3.683291,-3.990723 -6.351877,-3.825695 z m 0.214843,2.099609 c 2.902556,0.113531 5.516883,3.129502 4.70777,6.02934 -0.664981,2.114152 -3.136774,2.986169 -5.170386,2.821228 -2.953845,-0.195108 -5.452959,-3.474484 -4.398206,-6.346703 0.743076,-1.888974 2.997762,-2.591782 4.860822,-2.503865 z m -2.060547,1.201172 c -1.046668,0.0433 -1.612316,1.472406 -0.791015,2.169922 0.373273,0.37159 0.966975,0.532359 1.46289,0.328125 -0.641538,0.998722 0.498374,2.532293 1.628907,1.958984 1.225032,-0.466306 0.889196,-2.461927 -0.367188,-2.603515 -0.634584,0.111211 -0.54884,0.04071 -0.396484,-0.527344 -0.01696,-0.772469 -0.775934,-1.413519 -1.53711,-1.326172 z m 3.746094,3.804688 c -1.204762,-0.10272 -1.845345,1.589845 -0.929912,2.336798 0.882632,0.804503 2.431846,-0.166116 2.14085,-1.313361 -0.09338,-0.581965 -0.616935,-1.037332 -1.210938,-1.023437 z m 26.97461,0.507812 c -1.204675,3.408656 -4.333736,5.535408 -7.166061,7.519404 -8.270475,5.887274 -16.607699,11.686931 -24.935108,17.495661 -4.247216,3.01371 -8.545409,5.96299 -12.730966,9.06286 -2.61027,1.99447 -5.071794,4.4258 -8.29034,5.39332 -2.531567,0.64863 -4.994357,-0.74618 -7.031026,-2.10059 -3.717837,-2.67896 -7.328384,-5.45382 -10.557028,-8.71879 -4.083054,-4.10821 -7.6985411,-8.76517 -10.154706,-14.034677 4.194608,7.504357 10.485566,13.615047 17.350692,18.689947 2.501498,1.88694 5.083909,4.03218 8.276302,4.52874 2.399067,0.36838 4.500044,-1.13839 6.315752,-2.49334 9.723303,-6.92647 19.568206,-13.67789 29.285126,-20.611937 4.554159,-3.290178 9.245956,-6.385279 13.736546,-9.760392 2.120005,-1.623438 4.159457,-3.360994 6.010191,-5.288565 -0.03646,0.10612 -0.07292,0.212239 -0.109374,0.318359 z m -41.166016,1.384766 c -2.507644,0.03198 -5.210203,1.213755 -6.273682,3.613435 -1.466922,3.071906 0.09846,7.041995 3.124843,8.495739 2.293338,1.124169 5.19497,1.1192 7.416417,-0.179487 2.505421,-1.485402 3.275648,-4.882678 2.251494,-7.498917 -0.924926,-2.730507 -3.639201,-4.58116 -6.519072,-4.43077 z m 0.199219,2.099609 c 2.867746,0.125166 5.42918,3.059129 4.727642,5.933827 -0.583454,2.144585 -3.045373,3.050463 -5.073258,2.927496 -2.97524,-0.114988 -5.604616,-3.320596 -4.625087,-6.249995 0.731655,-1.952583 3.060339,-2.699577 4.970703,-2.611328 z m -1.121094,1.929688 c -1.093492,0.04033 -1.585606,1.516468 -0.789063,2.236328 0.434685,0.487731 1.231863,0.506639 1.726563,0.09766 -0.962763,0.746243 -0.08134,2.425063 1.072265,2.150391 1.041002,-0.172878 1.327514,-1.644242 0.460938,-2.21875 -0.423206,-0.338548 -1.065569,-0.325056 -1.480469,0.02148 0.923026,-0.778229 0.198769,-2.416303 -0.990234,-2.287109 z m -13.255859,3.125 c -3.818198,0.178761 -7.802395,2.196609 -9.394532,5.816406 -1.2108,2.582865 -0.706003,5.642886 0.679816,8.049466 1.654492,2.94831 4.504389,5.52631 7.96855,5.93188 3.842011,0.27455 7.73167,-1.95761 9.414452,-5.43124 1.96076,-3.83171 1.534294,-9.024483 -1.683502,-12.057029 -1.845504,-1.765919 -4.478822,-2.463017 -6.984784,-2.309483 z m -12.734376,2.001953 c -1.313735,0.260838 -2.277134,1.348075 -3.164062,2.279297 -0.505549,0.588915 -1.220306,1.626581 -0.455078,2.289062 1.090737,0.624471 2.368866,-0.127122 3.285156,-0.75 0.860811,-0.690673 2.077372,-1.591397 1.806641,-2.853515 -0.168588,-0.640115 -0.828761,-1.035939 -1.472657,-0.964844 z m 12.484376,0.125 c 3.040336,-0.101126 6.370374,1.20863 7.797749,4.044422 1.41262,2.592429 0.462721,5.792297 -1.24592,7.999317 -1.540717,1.98426 -3.84847,3.70431 -6.458089,3.67606 -1.964754,-0.22323 -3.610428,-1.519 -5.024068,-2.81171 -2.429229,-2.39368 -3.553696,-6.407959 -1.823579,-9.507699 1.340296,-2.387378 4.148815,-3.364063 6.753907,-3.40039 z m 0.238281,5.169922 c -1.066348,-0.02739 -1.644528,1.424785 -0.804688,2.109377 0.719972,0.85082 2.33864,0.32354 2.273438,-0.832034 -0.05183,-0.725912 -0.756414,-1.299187 -1.46875,-1.277343 z" />
  </g>
</svg>
