<?xml version="1.0" encoding="UTF-8" standalone="no"?>
<svg
   xmlns:dc="http://purl.org/dc/elements/1.1/"
   xmlns:cc="http://creativecommons.org/ns#"
   xmlns:rdf="http://www.w3.org/1999/02/22-rdf-syntax-ns#"
   xmlns:svg="http://www.w3.org/2000/svg"
   xmlns="http://www.w3.org/2000/svg"
   xmlns:sodipodi="http://sodipodi.sourceforge.net/DTD/sodipodi-0.dtd"
   xmlns:inkscape="http://www.inkscape.org/namespaces/inkscape"
   width="500"
   height="500"
   viewBox="0 0 132.29166 132.29167"
   version="1.1"
   id="svg8"
   inkscape:version="1.0.2 (e86c870879, 2021-01-15, custom)"
   sodipodi:docname="201037.svg">
  <defs
     id="defs2" />
  <sodipodi:namedview
     id="base"
     pagecolor="#ffffff"
     bordercolor="#666666"
     borderopacity="1.0"
     inkscape:pageopacity="0.0"
     inkscape:pageshadow="2"
     inkscape:zoom="0.49497475"
     inkscape:cx="295.7538"
     inkscape:cy="439.64291"
     inkscape:document-units="mm"
     inkscape:current-layer="layer1"
     inkscape:document-rotation="0"
     showgrid="false"
     inkscape:window-width="1368"
     inkscape:window-height="850"
     inkscape:window-x="-6"
     inkscape:window-y="-6"
     inkscape:window-maximized="1"
     units="px" />
  <metadata
     id="metadata5">
    <rdf:RDF>
      <cc:Work
         rdf:about="">
        <dc:format>image/svg+xml</dc:format>
        <dc:type
           rdf:resource="http://purl.org/dc/dcmitype/StillImage" />
        <dc:title />
      </cc:Work>
    </rdf:RDF>
  </metadata>
  <g
     inkscape:label="Ebene 1"
     inkscape:groupmode="layer"
     id="layer1"
     transform="translate(-10.339915,-26.030838)">
    <path
       id="path982"
       style="fill:#000000;stroke:none;stroke-width:0.264583"
       d="M 76.288543,38.308594 C 61.205579,38.90286 46.265491,44.768723 35.192496,55.100793 26.4892,63.135557 20.355282,73.875622 17.824761,85.44496 c -2.127714,9.26369 -1.457727,18.94355 0.462742,28.17985 1.59418,7.32172 4.231923,14.64237 9.093865,20.45721 2.989324,3.65161 7.065299,6.39652 11.6079,7.69876 6.65275,1.96777 13.673201,1.53169 20.525838,1.60203 11.144571,0.019 22.28962,-0.0388 33.433883,0.0305 5.855106,0.0668 11.763441,0.44598 17.572511,-0.48115 6.04356,-1.01231 11.6248,-4.24469 15.65589,-8.83954 5.45788,-6.15664 8.46383,-14.09558 10.04671,-22.07311 1.63101,-8.59346 1.79434,-17.525024 0.0606,-26.117186 C 133.24153,71.195927 124.13998,58.035642 111.94285,49.386719 101.63743,42.029289 88.992385,37.868234 76.288543,38.308594 Z m 1.615234,1.832031 c 8.290922,-0.01959 16.667611,1.982768 24.136353,5.579576 10.43237,4.987982 19.3815,13.037025 25.4203,22.900893 3.9843,6.515911 6.70809,13.947197 7.68021,21.574558 1.02886,8.475752 0.50612,17.060468 -1.61771,25.308258 -1.89506,7.16538 -5.15287,14.27073 -10.71361,19.39443 -3.19037,2.95421 -7.16152,5.04596 -11.36343,5.96873 -4.41821,0.94477 -8.92243,0.82625 -13.423197,0.79352 -9.233486,-0.23289 -18.470719,-0.0902 -27.706025,-0.12934 -6.79247,-0.0326 -13.586667,0.0712 -20.377973,-0.0654 -5.640214,-0.16828 -11.541207,-0.98162 -16.332355,-4.1863 -5.084731,-3.4218 -8.40879,-8.86097 -10.657183,-14.4509 -2.887597,-7.30281 -4.177249,-15.201 -4.544525,-22.985254 -0.209245,-5.008228 0.225699,-10.013442 1.45196,-14.900544 2.762146,-11.555262 9.230083,-22.177688 18.234685,-29.92919 7.162869,-6.230468 16.008559,-10.72441 25.186783,-12.988651 4.779374,-1.185382 9.698707,-1.859064 14.625717,-1.884396 z M 48.710418,62.148438 c -1.054416,0.0035 -1.340377,1.588829 -0.414062,2.021484 0.847596,0.490251 1.890784,-0.544222 1.423828,-1.402344 -0.161641,-0.395932 -0.584092,-0.656844 -1.009766,-0.61914 z m 5.146484,0.777343 c -1.021075,-0.01323 -1.355197,1.477889 -0.515625,1.978516 0.803183,0.587897 1.985377,-0.371034 1.5625,-1.28125 -0.150849,-0.430453 -0.585145,-0.741459 -1.046875,-0.697266 z M 43.44284,63.794922 c -0.942241,0.02516 -1.325094,1.352324 -0.558594,1.886719 0.758951,0.725324 2.114642,-0.242936 1.646484,-1.19336 -0.17036,-0.427434 -0.624277,-0.734123 -1.08789,-0.693359 z m 14.46875,1.646484 c -0.975917,0.02385 -1.326422,1.407689 -0.53125,1.933594 0.799831,0.687449 2.07639,-0.372372 1.564453,-1.287109 -0.173692,-0.397444 -0.591128,-0.686923 -1.033203,-0.646485 z m -8.126953,0.984375 c -0.939085,0.04242 -1.310216,1.361336 -0.550781,1.900391 0.762078,0.724812 2.105099,-0.251174 1.65039,-1.199219 -0.16766,-0.434073 -0.630017,-0.749743 -1.099609,-0.701172 z m -10.142578,0.640625 c -0.967866,0.0013 -1.346559,1.374594 -0.566407,1.908203 0.775882,0.678873 2.093041,-0.287665 1.619141,-1.232421 -0.157449,-0.421743 -0.601181,-0.717136 -1.052734,-0.675782 z m 6.064453,0.511719 c -0.985598,0.01584 -1.331224,1.422413 -0.519532,1.9375 0.803014,0.673998 2.086149,-0.377635 1.560547,-1.296875 -0.176802,-0.394351 -0.60306,-0.67868 -1.041015,-0.640625 z m 8.208984,0.242187 c -0.972503,0.01972 -1.347402,1.411727 -0.529297,1.927735 0.798318,0.663 2.078802,-0.374168 1.566407,-1.291016 -0.174294,-0.395182 -0.600652,-0.674896 -1.03711,-0.636719 z m 7.330078,2.269532 c -1.091953,-0.0044 -1.351325,1.719273 -0.335937,2.074218 0.884294,0.405598 1.789133,-0.681531 1.328125,-1.5 -0.167526,-0.374214 -0.586339,-0.609294 -0.992188,-0.574218 z m -4.236328,0.529297 c -1.094127,-5.8e-4 -1.344948,1.722116 -0.332031,2.074218 0.891684,0.408744 1.796606,-0.697285 1.320312,-1.513671 -0.172864,-0.368912 -0.585344,-0.595257 -0.988281,-0.560547 z m -14.464844,0.07422 c -1.089191,-0.007 -1.328831,1.747031 -0.267578,2.017579 0.969343,0.337443 1.785799,-1.027249 1.042969,-1.732422 -0.195283,-0.209637 -0.491813,-0.310042 -0.775391,-0.285157 z m 9.259766,0.572266 c -0.985392,0.02296 -1.345706,1.429331 -0.529297,1.951172 0.807266,0.676504 2.091984,-0.383369 1.576172,-1.304688 -0.174496,-0.402405 -0.604391,-0.685207 -1.046875,-0.646484 z m -3.847656,0.128906 c -1.093031,0.0099 -1.334227,1.668837 -0.369141,2.080078 0.861186,0.421766 1.81417,-0.600491 1.384766,-1.4375 -0.153984,-0.406439 -0.578662,-0.687323 -1.015625,-0.642578 z m -10.373047,0.416016 c -0.962185,0.01329 -1.267596,1.398426 -0.457031,1.875 0.767108,0.607303 1.956636,-0.334526 1.492187,-1.216797 -0.162912,-0.409682 -0.589748,-0.70077 -1.035156,-0.658203 z m 20.394531,2.996094 c -1.020749,0.01143 -1.337672,1.559534 -0.398437,1.966797 0.889892,0.469878 1.892078,-0.717651 1.28125,-1.519532 -0.183366,-0.295409 -0.53447,-0.482701 -0.882813,-0.447265 z m 4.06836,0.0039 c -1.078547,0.0031 -1.351555,1.655846 -0.367188,2.048828 0.854048,0.412957 1.830403,-0.597492 1.380859,-1.435547 -0.165296,-0.392153 -0.586579,-0.659406 -1.013671,-0.613281 z m -12.251954,0.08008 c -0.94346,0.03494 -1.324289,1.360822 -0.560546,1.902344 0.761748,0.723564 2.105351,-0.251134 1.65039,-1.199219 -0.166467,-0.429592 -0.623385,-0.747328 -1.089844,-0.703125 z m -4.054687,0.07617 c -0.976468,0.02318 -1.324175,1.409111 -0.529297,1.933594 0.795944,0.682046 2.068429,-0.364614 1.566406,-1.279297 -0.168159,-0.402189 -0.594966,-0.69395 -1.037109,-0.654297 z m 8.542969,0 c -0.98126,-0.06548 -1.475695,1.301532 -0.701765,1.893954 0.768872,0.773831 2.161251,-0.246483 1.668561,-1.214267 -0.164749,-0.381722 -0.54297,-0.677278 -0.966796,-0.679687 z m -12.925782,0.08789 c -0.978746,0.01502 -1.32819,1.406316 -0.529296,1.925781 0.755221,0.641441 2.035169,-0.260892 1.617187,-1.189453 -0.155745,-0.446249 -0.606031,-0.788285 -1.087891,-0.736328 z m -3.703125,1.888671 c -1.005505,-0.0031 -1.355061,1.467863 -0.501953,1.957032 0.83525,0.591349 2.034669,-0.446835 1.517578,-1.355469 -0.171752,-0.387293 -0.592968,-0.641205 -1.015625,-0.601563 z m 10.207032,0.970703 c -1.04004,0.0046 -1.351024,1.533691 -0.451172,2 0.893542,0.549214 2.026462,-0.613942 1.414062,-1.488281 -0.190391,-0.333134 -0.577969,-0.547862 -0.96289,-0.511719 z m 4.042968,0.222657 c -0.926542,-0.06263 -1.449569,1.197618 -0.75,1.810547 0.677299,0.796882 2.124451,-0.01894 1.761719,-1.009766 -0.125118,-0.443307 -0.54578,-0.79583 -1.011719,-0.800781 z m -9.359375,0.537109 c -0.986444,0.02023 -1.346793,1.429942 -0.529296,1.951172 0.807415,0.6781 2.091706,-0.384488 1.576171,-1.304688 -0.17538,-0.400079 -0.605312,-0.685555 -1.046875,-0.646484 z m 14.535157,0.01563 c -0.978437,0.02093 -1.32467,1.409658 -0.53125,1.935547 0.8024,0.684183 2.073296,-0.375186 1.564453,-1.289062 -0.175373,-0.394726 -0.592532,-0.687461 -1.033203,-0.646485 z m 4.158203,1.167969 c -1.080194,0.01189 -1.328336,1.644506 -0.373047,2.060547 0.861258,0.437149 1.839982,-0.59666 1.386719,-1.4375 -0.164241,-0.393199 -0.584177,-0.66765 -1.013672,-0.623047 z m -7.222656,1.757812 c -0.988644,-0.07941 -1.463943,1.291065 -0.705079,1.886719 0.734594,0.692774 2.051854,-0.172852 1.671875,-1.125 -0.122373,-0.423582 -0.519273,-0.75972 -0.966796,-0.761719 z m -8.382813,0.117188 c -1.10081,-0.0038 -1.343124,1.736003 -0.322266,2.076172 0.912558,0.408698 1.801618,-0.748259 1.291016,-1.558594 -0.18931,-0.343718 -0.578865,-0.550504 -0.96875,-0.517578 z m -5.984375,0.34375 c -1.098259,0.0044 -1.228588,1.772445 -0.175781,1.980469 1.001729,0.305093 1.675314,-1.157311 0.857422,-1.767579 -0.185408,-0.159357 -0.43953,-0.231449 -0.681641,-0.21289 z m 69.761732,0.478516 c -7.33515,0.200448 -14.568223,4.698901 -17.446762,11.541435 -3.852693,8.930417 -0.197975,20.349867 8.108472,25.401357 4.77006,2.98382 10.86018,3.32506 16.12908,1.55867 5.77401,-1.88657 10.71434,-6.52433 12.44435,-12.41352 2.74675,-8.948719 -1.52173,-19.529769 -9.81314,-23.9341 -2.87339,-1.549108 -6.16444,-2.269353 -9.422,-2.153842 z m -59.621107,0.441406 c -0.979315,0.05913 -1.183636,1.529214 -0.289063,1.896484 0.882234,0.465603 1.851651,-0.776789 1.160884,-1.513729 -0.185351,-0.275745 -0.543792,-0.430954 -0.871821,-0.382755 z m 8.189453,1.070312 c -1.026238,0.01231 -1.337376,1.573577 -0.388672,1.972656 0.888007,0.452071 1.874204,-0.718275 1.275391,-1.517578 -0.181411,-0.300505 -0.53551,-0.490719 -0.886719,-0.455078 z m 52.167984,0.361326 c 4.87314,-0.07888 9.69942,2.146251 12.80414,5.901418 2.17471,2.562644 3.59198,5.670364 4.20953,8.930614 0.67297,3.649306 0.33503,7.393106 -1.18303,10.801506 -2.68269,6.05969 -9.17944,10.12336 -15.78662,10.03958 -2.91425,0.0712 -5.79402,-0.523 -8.35239,-1.86097 -4.564573,-2.21589 -7.96634,-6.59953 -9.011304,-11.56101 -1.602842,-7.012186 1.100416,-14.992409 7.090407,-19.133303 2.968767,-2.092766 6.616237,-3.100449 10.229267,-3.117835 z m -66.787124,1.121094 c -0.975399,0.02267 -1.325563,1.412793 -0.529297,1.935547 0.800875,0.683982 2.070705,-0.371046 1.564453,-1.285156 -0.170797,-0.398295 -0.595292,-0.688518 -1.035156,-0.650391 z m 10.394531,0.794922 c -0.98126,-0.06548 -1.475695,1.301532 -0.701765,1.893954 0.748816,0.755466 2.124196,-0.20302 1.68614,-1.167392 -0.150542,-0.405456 -0.543847,-0.723269 -0.984375,-0.726562 z M 48.645965,86.875 c -0.981376,0.02426 -1.343916,1.425238 -0.537109,1.953125 0.812469,0.679599 2.075974,-0.389625 1.572265,-1.304687 C 49.506568,87.122303 49.09113,86.835699 48.645965,86.875 Z m 60.550755,9.767578 c -3.23737,0.190096 -6.49108,1.86825 -8.05258,4.792052 -2.646474,4.76087 -1.00141,11.57564 3.81929,14.28149 3.27048,1.812 7.52109,1.3736 10.58218,-0.67081 3.13241,-2.10409 4.45634,-6.17678 3.84104,-9.80684 -0.52775,-3.68356 -3.06386,-7.210753 -6.74145,-8.241227 -1.11368,-0.334559 -2.29087,-0.432515 -3.44848,-0.354665 z"
       sodipodi:nodetypes="ccccccccccccccscccccccccccccccssccccccccccccccccccccccccccccccccccccccccccccccccccccccccccccccccccccccccccccccccccccccccccccccccccccccccccccccccccccccccccccccccccccccccccccccccccccccccccccccc" />
  </g>
</svg>
