<?xml version="1.0" encoding="UTF-8" standalone="no"?>
<svg
   xmlns:dc="http://purl.org/dc/elements/1.1/"
   xmlns:cc="http://creativecommons.org/ns#"
   xmlns:rdf="http://www.w3.org/1999/02/22-rdf-syntax-ns#"
   xmlns:svg="http://www.w3.org/2000/svg"
   xmlns="http://www.w3.org/2000/svg"
   xmlns:sodipodi="http://sodipodi.sourceforge.net/DTD/sodipodi-0.dtd"
   xmlns:inkscape="http://www.inkscape.org/namespaces/inkscape"
   width="100mm"
   height="100mm"
   viewBox="0 0 100 100"
   version="1.1"
   id="svg8"
   inkscape:version="1.0.2 (e86c870879, 2021-01-15, custom)"
   sodipodi:docname="201037 learnmode.svg">
  <defs
     id="defs2" />
  <sodipodi:namedview
     id="base"
     pagecolor="#ffffff"
     bordercolor="#666666"
     borderopacity="1.0"
     inkscape:pageopacity="0.0"
     inkscape:pageshadow="2"
     inkscape:zoom="1.4"
     inkscape:cx="228.70207"
     inkscape:cy="201.87972"
     inkscape:document-units="mm"
     inkscape:current-layer="layer1"
     inkscape:document-rotation="0"
     showgrid="false"
     inkscape:window-width="1368"
     inkscape:window-height="850"
     inkscape:window-x="-6"
     inkscape:window-y="-6"
     inkscape:window-maximized="1" />
  <metadata
     id="metadata5">
    <rdf:RDF>
      <cc:Work
         rdf:about="">
        <dc:format>image/svg+xml</dc:format>
        <dc:type
           rdf:resource="http://purl.org/dc/dcmitype/StillImage" />
        <dc:title></dc:title>
      </cc:Work>
    </rdf:RDF>
  </metadata>
  <g
     inkscape:label="Ebene 1"
     inkscape:groupmode="layer"
     id="layer1">
    <path
       id="path102"
       style="fill:#383839;stroke:none;stroke-width:0.269968"
       d="m 44.022926,1.9469858 c -1.209818,0.018533 -2.754306,0.2538974 -3.196747,1.5798894 -0.579372,1.6901858 -0.129188,3.5044417 -0.235657,5.2478638 0.03679,3.290879 0.23264,6.578062 0.580042,9.850586 12.020389,0 24.040779,0 36.061168,0 0.168159,-1.688647 0.05327,-3.502975 1.012899,-4.99243 0.912163,-1.481846 0.72492,-3.328812 0.07795,-4.8708944 C 77.757747,7.5085394 77.710089,6.1788983 77.666682,4.8441708 77.635222,3.7360315 77.178295,2.283296 75.870138,2.1914589 c -5.03707,-0.026702 -10.08266,0.00107 -15.122956,-0.00905 -4.281884,-0.024566 -8.566298,0.049254 -12.8466,-0.037067 -1.290587,-0.095831 -2.581764,-0.2314393 -3.877656,-0.1983561 z m 22.194332,1.828936 c 3.084666,0.018188 6.170737,-0.054133 9.253637,0.077827 0.31366,1.2019515 0.880467,2.3669304 0.72605,3.6372455 -0.02469,2.4107285 0.06765,4.8342927 -0.03024,7.2369937 -0.159947,0.714112 -0.319894,1.428224 -0.479841,2.142338 -3.085027,0.305597 -6.191156,0.09976 -9.286325,0.159545 -7.784781,0 -15.569563,0 -23.354344,0 0.177682,-0.492481 -0.08564,-1.478327 0.384076,-1.644097 0.2611,-0.31426 -0.0045,-1.136074 0.05872,-1.639942 -0.11489,-2.616193 -0.135768,-5.2575983 -0.295443,-7.8226707 0.02563,-1.0243062 -0.17189,-0.821726 -0.483948,0.010516 -0.282336,-0.5469893 -0.837141,-1.2583227 0.189407,-1.0158369 0.62667,0.029466 -0.371463,-1.4280238 0.526213,-1.1419183 7.597347,0 15.194695,0 22.792044,0 z m -24.24313,3.5100004 c 0.512368,0.094813 0.09011,1.1242583 0.227644,1.5938982 0,1.3579526 0,2.7159056 0,4.0738576 -0.156098,-1.981856 -0.329386,-3.9176068 -0.249046,-5.9129111 0.0072,0.081718 0.01427,0.1634368 0.0214,0.2451553 z M 59.448249,21.707277 c -1.350503,0.75276 -1.132053,2.574136 -1.105144,3.803798 -4.831629,-0.995151 -9.788322,-0.261067 -14.629881,0.268347 -3.526704,0.455969 -7.04145,1.0922 -10.445998,2.132617 -0.126153,-0.394682 0.282514,-1.683097 -0.263367,-1.376373 -0.512464,0.181758 -0.940217,0.648221 -1.439879,0.753757 -0.251922,0.127343 -0.2102,0.800038 -0.378628,1.161569 0.02736,0.64228 -0.961359,0.439967 -1.370521,0.719046 -0.656614,0.291146 -0.179658,-0.942628 -0.326109,-1.337771 -1.112457,0.335989 -2.051691,1.039861 -2.763838,1.945896 -1.06206,1.384884 -2.825425,1.830989 -4.232891,2.755081 C 14.26991,37.294562 7.1562324,44.38418 3.398146,53.201168 0.30204278,60.418524 -0.16087797,68.805194 2.53347,76.220155 c 1.7485882,5.144534 4.7007573,9.752189 7.625136,14.290557 1.923271,2.85762 4.283748,5.742898 7.676058,6.851552 3.761271,1.262887 7.789459,0.806955 11.685189,0.903492 13.710679,0.01347 27.421816,-0.02699 41.132207,0.02031 4.237168,0.08404 8.721355,0.62491 12.702264,-1.186446 3.314421,-1.465613 5.399831,-4.589412 7.298025,-7.526437 5.015374,-7.576625 8.209292,-16.424522 8.82317,-25.509508 0.329067,-7.253097 -2.700037,-14.267381 -7.022487,-19.954569 -3.445975,-4.555048 -7.7405,-8.485008 -12.694028,-11.347281 -1.314979,-0.851521 -2.750355,-1.488614 -4.099379,-2.273713 -0.690354,-0.422598 -0.851302,-1.261342 -0.848314,-2.009884 -0.700536,-0.177965 -1.401995,-0.352279 -2.103276,-0.527278 0.07704,0.748743 0.03874,1.273304 -0.64846,0.536798 -0.38083,-0.420642 -1.269026,-0.580215 -1.266086,-1.198328 -0.743449,0.06586 -1.217131,-0.710207 -1.839383,-1.021405 -0.05757,0.457141 -0.008,1.122856 -0.02457,1.659587 -2.754125,-0.801079 -5.541462,-1.494733 -8.243832,-2.463226 -0.176386,-1.408025 -0.353302,-2.815982 -0.529224,-4.224065 -0.236075,0.155654 -0.472151,0.311309 -0.708226,0.466963 z m -4.177368,4.906997 c 0.704356,-0.068 0.345197,1.106494 -0.272628,0.332448 -0.666551,-0.19397 -0.04,-0.338277 0.272628,-0.332448 z m -6.329285,0.108957 c -0.19925,0.658171 0.356184,0.561656 0.835862,0.540898 1.254167,-0.0039 2.51155,0.0079 3.763717,-0.0059 0.05239,0.53134 1.050201,0.168827 1.492733,0.329821 1.121874,0.06258 2.243748,0.125153 3.365622,0.187729 -0.0236,2.580702 0.04724,5.169882 -0.03549,7.745276 -0.15031,0.83031 -0.30062,1.660619 -0.450929,2.490928 -0.655693,0.0201 -1.311386,0.04021 -1.967079,0.06032 0,-2.149973 0,-4.299945 0,-6.449919 -3.708807,-0.07328 -7.420284,-0.244615 -11.127462,-0.257349 -2.221902,0.185185 -4.443925,0.368933 -6.665749,0.555038 0.01241,0.497217 -0.876876,0.136693 -1.231613,0.309362 -1.258536,0.14082 -2.958569,0.414002 -3.327192,1.856555 -0.300139,0.876089 0.153014,1.859044 -0.225614,2.70022 -0.233683,-0.123842 -0.03551,-1.142652 -0.101175,-1.613744 0,-1.695722 0,-3.391444 0,-5.087165 2.793906,-0.930376 5.646195,-1.67235 8.45591,-2.552728 0.488881,0.13072 1.24854,-0.206155 1.558487,-0.05409 0.731308,0.126605 1.69807,0.01775 2.519651,0.05409 1.041585,0 2.083171,0 3.124756,0 0.01154,-0.261068 -0.02136,-0.574396 0.01557,-0.809401 z m 17.513034,1.817262 c -0.457104,0.471582 -0.933544,-0.498455 -0.413282,-0.749922 0.241349,-0.120217 0.28194,0.620427 0.413282,0.749922 z m 1.140166,0.305471 c -0.532405,0.497417 -0.944191,-0.744704 -0.36067,-0.814502 0.218345,0.0552 0.231995,0.599075 0.36067,0.814502 z m -1.490388,0.04669 c -0.122986,0.277941 0.928888,0.09827 1.305549,0.179003 0.592782,-0.03821 1.027825,0.405304 1.519574,0.663475 0,0.811996 0,1.623991 0,2.435988 -2.94351,0.221269 -5.7775,1.449307 -8.060938,3.301813 -0.359693,-1.137505 -0.370002,-2.313458 -0.334656,-3.494436 0,-1.276364 0,-2.552727 0,-3.829091 1.856823,0.247749 3.713647,0.495499 5.570471,0.743248 z m 5.389524,1.850339 c 0.558476,0.134622 1.121016,0.511217 1.171297,1.134329 -0.468808,-0.131368 -1.465278,0.264926 -1.601291,-0.199237 0.112788,-0.396544 -0.317123,-1.366737 0.429994,-0.935092 z m -41.184134,0.02919 c 0.846645,-0.240243 0.932145,0.280659 0.823021,0.996187 0,1.746568 0,3.493137 0,5.239706 -0.499504,-0.122058 -1.481473,0.251446 -1.661106,-0.199166 -0.01869,-1.999028 -0.495621,-4.345137 0.838085,-6.036727 z m -3.068332,1.97097 c 0.497134,1.376358 0.08851,2.858747 0.09729,4.280488 -1.259927,-0.04746 -2.666036,0.503845 -3.093518,1.789747 -0.210933,0.05 -0.372685,0.375192 -0.55406,1.00216 -0.249393,1.121225 -1.14845,2.021999 -2.294866,2.201378 -1.705139,0.365888 -3.783992,0.455597 -4.863843,2.050065 -1.104538,1.969177 -0.348054,4.347089 -1.013697,6.424624 -0.365342,0.993923 -1.031189,1.813619 -1.831854,2.486456 -1.176044,1.23363 -2.114085,2.6746 -2.994123,4.125068 -0.594708,1.074018 -0.7327495,2.481398 -1.7465185,3.26862 -0.8489512,0.310847 -1.7736869,0.08162 -2.6539028,0.101176 -0.017594,6.589317 0.2069969,13.368115 2.7031934,19.560917 0.067702,0.289973 0.6300728,1.372164 0.4021063,1.10995 C 4.9767288,75.072249 3.5454803,67.110111 4.9523941,59.7893 5.8921423,54.624996 8.1896719,49.560217 11.257733,45.323899 c 4.024525,-5.561561 9.53652,-10.115366 15.935091,-12.6683 l 0.04838,0.08709 z m 27.048795,0.352168 c 0.285604,1.364876 0.39237,2.744122 0.330765,4.136897 -0.02933,8.365251 0.247961,16.727693 0.364921,25.091604 0.05477,2.989673 0.109534,5.979347 0.164303,8.96902 -5.195809,-0.01166 -10.456205,0.02334 -15.612109,-0.01751 -1.558868,-0.03941 -3.280404,-0.378422 -4.710854,0.41055 -1.041295,0.734294 -0.863609,2.20365 -0.832691,3.320528 0.228096,3.080956 0.05567,6.177097 0.109271,9.264484 0,0.986978 0,1.973954 0,2.960931 -2.535978,0.01777 -5.062708,0.319224 -7.599813,0.260721 -0.261325,0.16151 -1.145415,0.125293 -1.442525,0 -2.246263,0.02192 -4.517691,0.07548 -6.709241,-0.506937 C 15.548861,86.374253 12.810876,84.736336 11.567796,82.056504 11.480286,81.484412 11.020348,81.41832 10.915028,80.958722 10.122131,78.524368 8.8355978,76.183883 8.454816,73.674405 7.6744849,69.766657 7.6304351,65.818291 7.6212637,61.819344 c 2.2200659,-0.01836 4.4452473,0.02244 6.6614543,0.0117 1.132138,-0.02282 1.574686,-1.23796 1.625407,-2.195546 0.102061,-1.534305 0.246124,-3.049321 0.52473,-4.574946 0.358636,-2.932082 0.859827,-5.85044 1.033532,-8.80079 0.04838,-0.767304 0.389354,-1.564301 1.206319,-1.762784 1.817705,-0.756595 3.952533,-0.844868 5.529612,-2.111058 0.453158,-0.400553 0.716295,-1.019922 0.612889,-1.62464 0.532287,-0.028 0.305464,-0.959526 0.63448,-1.331517 0.460497,-1.223155 1.962107,-1.159181 3.016499,-0.939693 1.856923,0.312489 4.017687,0.951887 5.69414,-0.259993 1.11817,-0.855645 0.65272,-2.38665 0.692632,-3.562739 0.03662,-0.909026 1.203998,-0.91954 1.876072,-1.061235 0.820325,-0.119292 1.651109,-0.126713 2.478346,-0.145001 0.03998,-0.583143 1.114493,-0.15823 1.593363,-0.313715 3.652536,-0.06776 7.307753,-0.243418 10.958615,-0.243782 0.843635,0.06391 1.687271,0.127806 2.530907,0.19171 z m 17.48774,1.074013 c 4.107834,0.07207 8.449958,1.489727 11.145452,4.727032 2.063477,2.444734 2.316119,6.106043 0.818208,8.896889 -1.487874,3.026026 -4.584349,4.903173 -7.779414,5.670384 -3.97319,1.095331 -8.353809,0.707393 -12.044779,-1.135306 -1.313416,-0.865481 -3.023957,-1.785985 -3.197978,-3.532353 -0.155276,-1.814787 0.249475,-3.600952 -0.01038,-5.437305 -0.06469,-1.687258 -0.457222,-3.552287 0.417432,-5.097856 0.695899,-1.085638 1.874772,-1.741962 2.963204,-2.369242 2.38969,-1.12824 5.04393,-1.735001 7.688258,-1.722243 z m -14.810489,5.731963 c -0.542881,1.774409 -0.808493,3.623952 -0.916414,5.473188 -0.03113,-1.925571 -0.06226,-3.851143 -0.09339,-5.776713 0.336601,0.101174 0.673203,0.20235 1.009806,0.303525 z m 29.636544,0.708227 c 0.605387,0.545224 1.18475,1.100532 1.478714,1.875631 1.463286,2.572308 3.578293,4.728699 4.727997,7.432322 1.70059,3.622144 2.680392,7.546612 2.829011,11.576937 -0.0271,0.576805 -1.102347,-0.01765 -1.574144,0.06222 -0.560659,-0.138318 -1.309788,-0.04879 -1.757138,-0.32409 -0.548359,-1.366699 -0.547632,-2.883674 -1.197747,-4.221403 -0.831306,-1.92968 -1.947092,-3.812759 -3.586388,-5.163397 -0.115687,-3.030265 -0.157339,-6.074401 -0.319091,-9.096038 -0.296392,-0.802267 -0.592783,-1.604535 -0.889174,-2.406801 0.09598,0.0882 0.191973,0.176407 0.28796,0.264612 z M 58.269169,50.621976 c 0.03048,1.101253 0.06097,2.202506 0.09145,3.303758 -0.326934,-1.098795 -0.905168,-2.154026 -1.066232,-3.281577 10e-7,-0.656602 0,-1.313203 0,-1.969803 0.324929,0.649207 0.649857,1.298414 0.974785,1.947622 z m 27.200558,1.996263 c -0.969126,2.476532 -2.773511,4.607864 -5.11559,5.885155 -4.285071,2.356139 -9.537461,2.651303 -14.190868,1.305067 -1.774663,-0.550708 -3.431352,-1.714777 -5.104,-2.615936 -0.07134,-1.429424 -0.142683,-2.858848 -0.214024,-4.28827 2.362617,1.094754 4.534269,2.750041 7.186715,3.085467 4.483729,0.726723 9.263392,0.116911 13.286308,-2.047726 1.77715,-0.988876 3.379869,-2.37516 4.396613,-4.154716 -0.08172,0.943654 -0.163436,1.887307 -0.245154,2.830959 z M 56.368243,51.559791 c 0.360941,1.260052 0.718789,2.520993 1.081796,3.78045 0.565158,0.04431 0.361606,1.045353 0.575393,1.492678 0.86116,4.796646 0.408177,9.668094 0.383826,14.529968 -0.6504,-0.216936 -1.30092,-0.433504 -1.951514,-0.649856 -0.102472,-6.384413 -0.204944,-12.768827 -0.307417,-19.15324 0.07264,0 0.145277,0 0.217916,0 z M 14.57122,58.476672 c -0.156302,0.613536 -0.312605,1.227073 -0.468907,1.84061 -1.136924,0.04929 -2.273848,0.09858 -3.410772,0.147871 0.502715,-2.084169 1.490689,-4.077881 2.997373,-5.619069 0.562172,-0.633087 1.114258,-1.280225 1.639174,-1.941829 -0.252289,1.857472 -0.504578,3.714944 -0.756868,5.572417 z m 76.017582,1.445638 c 0.39101,0.421666 0.339436,1.060607 0.472636,1.654215 0.0779,0.555989 0.392905,0.703877 0.210295,1.355746 -0.388121,3.369262 -1.643619,6.673932 -1.210078,10.107435 0.123947,2.420258 0.600712,4.872045 -0.1266,7.251891 -0.843563,2.066659 -2.80076,3.348328 -4.562613,4.57234 0,-4.163749 0,-8.327496 0,-12.491244 -1.415804,0 -2.831608,0 -4.247411,0 -0.176359,1.395512 -0.163984,2.838198 -0.453343,4.204608 -1.118326,2.93603 -0.733686,6.132759 -0.767425,9.197153 -0.19106,0.471574 0.220109,1.59243 -0.529908,1.461375 -5.937642,0.06938 -11.875943,0.215834 -17.813177,0.237345 -2.400939,-0.07785 -4.801879,-0.155711 -7.202819,-0.233567 0.01364,-1.980005 -1.868993,-3.447457 -3.734561,-3.569956 -0.615841,-0.199359 -0.170912,0.843663 -0.377189,1.202754 -0.05468,0.877741 -1.002286,1.829763 -1.877042,1.267895 -0.934348,-0.648654 -0.771381,-1.909392 -0.830804,-2.899057 -0.889742,0.586919 -1.728618,1.33281 -2.650011,1.821153 -0.643008,-0.144065 -0.534147,0.757037 -0.739533,1.184026 -0.120612,0.609503 -0.356293,1.389587 -1.134154,1.318113 -0.586407,0.05408 -1.518651,-0.04299 -1.443692,-0.838586 0.0049,-1.543648 0.133167,-3.090489 -0.02327,-4.634734 -0.0831,-1.363779 -0.172529,-2.681925 -0.196588,-4.04882 -0.634435,0.169136 -0.186685,-0.622473 -0.293797,-0.982567 -0.05072,-1.413859 -0.108324,-2.952859 -0.902794,-4.171531 5.445949,0 10.891898,0 16.337846,0 -0.0099,-0.705 -0.02202,-1.409967 -0.03307,-2.114949 0.887914,2.410679 1.776421,4.82114 2.663631,7.232079 1.146004,-2.292007 2.292007,-4.584014 3.43801,-6.87602 -0.675689,0.113504 -1.351484,0.226371 -2.027394,0.338546 0.02917,-2.626956 -0.05815,-5.266728 0.04331,-7.885729 0.127838,-0.525665 0.145271,-1.410338 0.621539,-0.596075 2.467809,2.640926 6.238988,3.399494 9.70989,3.49496 1.581633,0.05919 3.16313,-0.02897 4.743159,-0.09331 0.01178,-0.623445 1.092781,-0.282954 1.539578,-0.573771 0.389437,-0.239582 0.804932,-0.410819 1.244685,-0.529427 -0.05516,-0.373268 0.762168,-0.34573 1.033842,-0.413874 3.216333,-1.435161 5.2019,-4.734452 5.823666,-8.103799 0.03029,-1.031115 0.94195,-1.759323 0.995242,-2.77698 0.526089,-0.01966 0.644051,-1.385177 0.970993,-0.282514 1.109651,2.071627 2.219302,4.143254 3.328953,6.214883 z m -6.716476,-2.360106 c -0.818692,3.286477 -3.775212,5.550309 -6.790411,6.753443 -0.367469,0.411824 -0.562344,0.641807 -1.319169,0.498093 -0.800758,-0.209938 -0.818236,0.354966 -1.492556,0.290413 -2.446763,0.05066 -4.859043,0.191725 -7.160301,-0.469312 -2.078178,-0.504294 -3.769797,-1.852929 -5.395669,-3.169261 -0.475543,-0.313712 -0.942502,-0.626921 -1.014901,-1.245582 -0.168128,-0.603316 -0.351984,-1.253688 -0.173165,-1.875632 1.923804,2.083303 4.816712,2.802595 7.486896,3.39427 5.567649,1.109787 11.597431,-0.457651 15.867058,-4.2134 z m 7.148415,1.153786 c -0.656083,-0.452326 -0.477451,-1.075503 0.133611,-0.81034 -0.04454,0.270114 -0.08907,0.540227 -0.133611,0.81034 z m 6.44019,1.105144 c -0.138009,0.99523 -0.453234,0.257187 -0.687255,-0.275893 0.09431,-0.144529 0.862523,-0.234037 0.687255,0.275893 z M 2.4807864,62.953673 c -0.1258423,-0.664705 0.5344111,-1.181243 0.1017827,-0.26351 -0.033927,0.08783 -0.067855,0.175673 -0.1017827,0.26351 z M 2.2978928,62.348568 c -0.012553,1.088691 -0.4644633,-0.850762 0,0 z m 93.3477212,0.821075 c -0.04966,4.258099 -1.359495,8.523135 -2.893043,12.488558 -0.197929,0.47929 -0.04203,-1.004371 -0.09162,-1.348003 0,-3.713518 0,-7.427036 0,-11.140555 0.99489,0 1.989778,0 2.984667,0 z m -92.4702211,1.3503 c 0.050006,0.938891 -0.1938153,0.566472 -0.01323,0 z m 32.8177261,8.368354 c 0,4.229253 0,8.458505 0,12.687757 0.65721,-0.05915 0.252449,1.043943 0.449667,1.488217 0.406924,0.641097 -1.185934,0.619806 -1.000996,0.129463 0.08196,-4.768479 0.163905,-9.536958 0.245857,-14.305437 0.101824,0 0.203647,0 0.305472,0 z m 2.969102,0.809402 c 0,3.338132 0,6.676264 0,10.014397 -0.490444,-0.124 -1.483198,0.254309 -1.644097,-0.199237 0,-3.27172 0,-6.54344 0,-9.81516 0.548032,0 1.096065,10e-7 1.644097,0 z m 45.085216,0 c 0,3.338132 0,6.676264 0,10.014397 -0.491413,-0.12368 -1.484029,0.253842 -1.646042,-0.199237 -10e-7,-3.27172 0,-6.54344 0,-9.81516 0.548681,10e-7 1.097361,10e-7 1.646042,0 z m 10.710949,4.632656 c -0.513265,1.599911 -1.925378,2.831098 -2.062417,4.55872 -0.860323,0.674385 -1.79977,1.244444 -2.603315,1.990427 2.049066,-2.165456 3.717113,-4.680735 4.988714,-7.374114 -0.107661,0.274989 -0.215321,0.549977 -0.322982,0.824967 z m -54.782467,2.323137 c -0.09805,0.02857 0.05102,-0.167041 0,0 z m -29.568447,4.167639 c 0.764438,0.742352 1.738416,1.261805 2.647538,1.745353 0.291827,0.579455 1.120386,0.405334 1.652492,0.647967 2.032556,0.490265 4.065111,0.98053 6.097666,1.470794 -0.03287,0.80261 -0.865086,1.090807 -1.544708,0.935155 -0.552626,-0.04504 -1.098536,-0.145691 -1.650093,-0.197743 -0.0725,-0.471576 -0.932244,-0.290326 -1.32074,-0.535396 -2.500044,-0.771567 -4.599185,-2.484763 -6.279072,-4.447482 0.132305,0.127118 0.264612,0.254235 0.396917,0.381352 z m 70.670862,0.241265 c -0.08073,-0.425118 0.04458,-0.708306 0,0 z m 2.869874,-0.02529 c -0.151368,0.881668 -0.975815,1.433633 -1.815317,1.55265 -0.18681,-0.766233 0.440847,-0.717998 0.268504,-1.469765 0.340232,-0.191535 1.065488,-0.02883 1.546813,-0.08288 z m 3.204529,0.517549 c -3.032557,2.585292 -6.912867,4.411927 -10.967778,4.238755 -2.898125,-0.0693 -5.795284,-0.194851 -8.695618,-0.141159 -4.321219,0 -8.642436,-1e-6 -12.963653,0 -0.352156,-0.836691 0.125433,-0.954694 0.875554,-0.836641 7.05368,-0.02335 14.108481,0.04641 21.161461,-0.03377 3.566825,-0.08194 7.228496,-0.864149 10.161985,-2.991756 0.215847,-0.115823 1.269424,-0.969847 0.760281,-0.528163 -0.110744,0.09758 -0.221488,0.195158 -0.332232,0.292734 z m -47.916176,1.443693 c 0.09484,0.616294 -1.081071,0.815066 -1.350299,0.260721 -0.28485,-0.563974 -0.274616,-1.215768 -0.293797,-1.832828 0.480281,0.05533 1.536066,-0.675433 1.481813,0.110028 0.05409,0.487359 0.108189,0.974719 0.162283,1.462079 z M 9.0532816,85.379542 c 0.7514318,0.90094 1.5856094,1.732885 2.4846294,2.486575 -0.582553,-0.187871 -1.225647,-0.289523 -1.466581,-0.93091 -0.4102433,-0.588912 -0.8115212,-1.184328 -1.2028876,-1.785256 0.061613,0.07653 0.1232262,0.15306 0.1848392,0.229591 z m 42.9002214,0.173165 c 0.662983,0.315303 0.478787,0.910884 -0.03336,0.255987 -0.186448,-0.204637 -0.396476,-0.690606 0.03336,-0.255987 z m -5.932368,0.225699 c -0.566745,0.776694 -0.605444,0.07813 0,0 z m 6.516071,0.352167 c 0.627411,0.632825 -0.296109,0.365639 -0.04378,-0.03892 l 0.0068,-0.0078 z m 38.304534,0.607051 c -1.843466,3.372426 -4.149008,6.73391 -7.557326,8.677949 -3.295854,1.739618 -7.165623,1.525915 -10.775559,1.394626 -5.158341,-0.265044 -10.325861,-0.08922 -15.488421,-0.139897 -11.22931,-0.01533 -22.459189,0.03079 -33.688145,-0.02335 -2.983294,-0.03497 -6.298086,-0.664127 -8.513967,-2.89516 -1.147755,-1.095591 -2.077041,-2.567592 -2.924352,-3.976963 1.864495,0.954897 3.906169,1.628717 6.010194,1.72776 0.113494,0.485355 1.077368,0.250437 1.522645,0.455949 0.535692,0.159352 1.346597,0.08545 1.716906,0.384973 0.186407,0.454631 1.152974,0.21085 1.656997,0.380879 0.60926,0.06792 1.218601,0.135113 1.82771,0.204381 -0.20707,-0.61859 0.398238,-0.811629 0.867772,-0.968947 0.646407,-0.216386 1.315287,0.06827 1.858121,0.412483 -0.265991,0.887806 0.677786,0.406045 1.186511,0.416042 0.788175,-0.09732 1.597347,-0.12326 2.287718,-0.536127 1.16737,-0.04708 0.130574,-0.208816 0.95686,-0.53564 0.466401,-0.254726 0.380624,0.703275 1.253103,0.196489 1.817538,-0.267243 3.671182,-0.06205 5.504226,-0.126412 2.16917,0 4.33834,0 6.50751,0 0.173836,-0.861021 0.34491,-1.722598 0.51755,-2.583859 0.611686,1.567416 2.575965,2.067047 4.098106,1.854717 1.434024,-0.173928 2.75057,-1.326618 2.877144,-2.806152 0.719621,1.035371 0.527308,2.35868 0.406646,3.535294 8.078484,0.01657 16.157718,-0.04861 24.235347,0.06616 3.315237,0.01023 6.663015,-0.629405 9.602044,-2.206947 1.479091,-0.753706 2.921656,-1.754247 4.05466,-2.908237 z m -3.801852,0.881392 c -0.487118,0.377326 -0.993199,0.735256 -1.540977,1.019534 0.6131,-0.369717 1.198186,-0.783176 1.772512,-1.210211 -0.07717,0.06356 -0.154358,0.127118 -0.231535,0.190677 z m -40.365006,-0.03697 c 1.026755,1.356315 3.258697,1.437606 4.385555,0.165383 0.128596,1.354881 -1.295942,2.454709 -2.582008,2.08811 -0.964704,-0.180099 -1.894036,-0.916221 -1.866782,-1.976494 0.03747,-0.06932 -0.143443,-0.38494 0.06324,-0.276999 z m -17.411858,0.965056 c 0.02694,0.687712 -0.970478,0.566887 -1.064286,0.01167 0.354295,-0.02235 0.709504,-0.0074 1.064286,-0.01167 z m -6.224219,0.08172 c 0.337619,-0.05478 1.465816,0.05792 0.633123,0.212078 -0.390908,0.14297 -1.857061,-0.19638 -0.633123,-0.212078 z m 3.504163,0.186785 c 0.234914,0.845856 -0.269913,0.951972 -0.996186,0.836641 -0.06425,-0.175573 -0.370291,-1.043285 0.389135,-0.836641 0.20235,0 0.404701,0 0.607051,0 z m 17.279553,0 c 0.182351,0.741469 -0.147256,0.975546 -0.848083,0.809781 -3.784683,-0.109141 -7.624841,-0.576418 -11.372711,0.178622 0.09692,0.740854 -0.623535,-0.22006 -1.01759,0.245155 -0.613757,0.123985 -1.258553,0.528601 -1.791968,0.597323 0.211204,0.98554 -1.022047,0.489276 -0.08769,0.05302 0.0037,-0.06835 -1.311199,-0.613306 -0.350467,-0.533603 0.811976,-0.168959 0.226682,0.847449 0.990738,0 0.317193,-0.09871 1.739893,-0.308286 1.163768,-0.5616 -0.790486,-0.16676 0.166985,-1.059235 0.661666,-0.788698 4.217449,0 8.434896,0 12.652345,0 z M 23.65753,90.712639 c -0.48919,-0.06237 -1.196903,-0.06011 -1.447584,-0.542843 0.441535,0.07017 1.481706,-0.437217 1.539017,-4.3e-5 -0.03047,0.180962 -0.06096,0.361924 -0.09143,0.542886 z" />
  </g>
</svg>
