<?xml version="1.0" encoding="UTF-8" standalone="no"?>
<svg
   xmlns:dc="http://purl.org/dc/elements/1.1/"
   xmlns:cc="http://creativecommons.org/ns#"
   xmlns:rdf="http://www.w3.org/1999/02/22-rdf-syntax-ns#"
   xmlns:svg="http://www.w3.org/2000/svg"
   xmlns="http://www.w3.org/2000/svg"
   xmlns:sodipodi="http://sodipodi.sourceforge.net/DTD/sodipodi-0.dtd"
   xmlns:inkscape="http://www.inkscape.org/namespaces/inkscape"
   width="500"
   height="500"
   viewBox="0 0 132.29166 132.29167"
   version="1.1"
   id="svg8"
   inkscape:version="1.0.2 (e86c870879, 2021-01-15, custom)"
   sodipodi:docname="201026.svg">
  <defs
     id="defs2" />
  <sodipodi:namedview
     id="base"
     pagecolor="#ffffff"
     bordercolor="#666666"
     borderopacity="1.0"
     inkscape:pageopacity="0.0"
     inkscape:pageshadow="2"
     inkscape:zoom="0.49497475"
     inkscape:cx="194.65888"
     inkscape:cy="212.22685"
     inkscape:document-units="mm"
     inkscape:current-layer="layer1"
     inkscape:document-rotation="0"
     showgrid="false"
     inkscape:window-width="1368"
     inkscape:window-height="850"
     inkscape:window-x="-6"
     inkscape:window-y="-6"
     inkscape:window-maximized="1"
     units="px" />
  <metadata
     id="metadata5">
    <rdf:RDF>
      <cc:Work
         rdf:about="">
        <dc:format>image/svg+xml</dc:format>
        <dc:type
           rdf:resource="http://purl.org/dc/dcmitype/StillImage" />
        <dc:title />
      </cc:Work>
    </rdf:RDF>
  </metadata>
  <g
     inkscape:label="Ebene 1"
     inkscape:groupmode="layer"
     id="layer1"
     transform="translate(-10.339915,-26.030838)">
    <path
       id="path914"
       style="fill:#000000;stroke:none;stroke-width:0.264583"
       d="m 69.654297,35.244141 c -5.279294,0.09971 -10.452898,1.257809 -15.661144,2.007923 -4.546943,0.749886 -9.118039,1.366977 -13.649168,2.200239 -2.16084,0.420261 -4.496619,1.421973 -5.424063,3.571135 -0.352303,0.780195 -0.534191,1.627956 -0.601563,2.478515 -4.239091,0.182337 -8.267497,2.340139 -10.932817,5.614003 -3.643502,4.372493 -5.252623,10.036541 -6.059356,15.572162 -1.298045,9.666965 0.272973,19.754634 4.667544,28.479474 2.201286,4.231436 4.94501,8.460198 9.096641,11.001788 1.384729,0.83333 2.921773,1.42605 4.520957,1.67632 -0.02191,6.67643 0.0441,13.3543 -0.0335,20.02983 -0.0848,2.49219 -0.44276,5.242 0.957327,7.46236 1.448901,2.05307 4.103402,2.47334 6.292277,3.33731 8.767978,3.135 17.556485,6.21344 26.317443,9.36669 2.996796,1.17969 6.078532,2.37745 9.347378,2.40055 6.049009,0.25926 11.9784,-1.27548 17.994074,-1.57525 3.679532,-0.14176 7.504742,0.10175 11.013062,-1.21287 1.66318,-0.5918 2.97955,-2.0007 3.38461,-3.7285 1.0232,-3.90812 0.11951,-7.97255 0.1334,-11.91019 -0.0179,-12.21363 -0.77715,-24.48002 0.0588,-36.655658 0.291,-1.981782 2.20082,-3.085775 3.72232,-4.099042 1.85157,-1.168729 3.82837,-2.37685 4.88374,-4.379117 1.38525,-2.260021 1.49454,-4.995629 1.33269,-7.567528 -0.0761,-1.632867 0.10983,-3.541187 1.56365,-4.56747 2.13002,-1.581651 4.93409,-1.485227 7.38582,-2.222176 1.9007,-0.473497 3.85565,-1.632014 4.40208,-3.639309 0.58835,-1.684818 0.35575,-4.001019 -1.36282,-4.934505 -1.69435,-0.8 -3.65659,-0.36407 -5.40588,0.0175 -2.24085,0.556077 -4.37434,1.444693 -6.54894,2.203547 -0.16919,-4.864494 -0.84957,-9.99797 -3.72266,-14.074219 -1.24972,-2.01164 -3.47564,-3.014454 -5.16601,-4.574218 -2.08377,-1.957266 -1.8472,-5.296987 -4.03907,-7.179688 -2.25641,-1.934056 -5.35739,-2.330042 -8.208904,-2.61243 C 96.900762,37.52374 93.882625,37.389815 90.892033,36.952812 83.840998,36.101039 76.776977,35.05383 69.654297,35.244141 Z m 2.126953,1.416015 c 6.740189,0.09933 13.406205,1.661883 20.149118,2.253119 4.068898,0.291271 8.188112,0.129216 12.135952,1.350095 2.12297,0.607316 4.11121,2.130617 4.66442,4.352103 0.69377,2.616491 0.34543,5.358109 0.43528,8.031793 0.009,28.682065 -0.0176,57.364514 0.0132,86.046344 0.0116,2.02456 0.44222,4.30422 -0.78229,6.08009 -1.29682,1.47628 -3.45105,1.47169 -5.26137,1.61119 -6.05079,0.46838 -12.09517,1.05669 -18.140547,1.59504 -2.317836,0.21005 -4.706293,0.99051 -7.008555,0.30832 -0.961471,-0.64585 -0.931407,-1.99227 -1.037142,-3.03107 -0.08784,-2.5238 0.322011,-4.99209 0.203068,-7.52359 0.0088,-24.63533 -0.01761,-49.270996 0.0132,-73.906122 0.125272,-4.505869 0.930047,-9.208494 -0.351096,-13.655593 -0.623953,-2.254352 -2.290223,-4.191733 -4.49619,-5.01648 -3.110235,-1.244642 -6.529275,-1.127287 -9.780888,-1.744471 -6.295851,-0.936658 -12.569869,-2.053767 -18.902609,-2.711705 4.469784,-1.053405 9.064159,-1.197559 13.560694,-2.144846 4.824861,-0.888187 9.689633,-1.991272 14.58579,-1.894217 z m -32.146484,5.427735 c 3.729198,0.105292 7.347546,1.136786 11.045701,1.535238 6.322211,0.915091 12.65984,1.73213 18.972264,2.709311 1.880335,0.345682 4.082785,1.215949 4.945983,3.155286 1.328517,3.042854 0.732523,6.44394 0.712907,9.65511 -0.02986,29.688448 -0.0043,59.377474 -0.01279,89.066144 -9.3194,-2.90712 -18.391865,-6.53193 -27.605482,-9.7435 -2.960981,-0.94124 -6.192418,-1.42874 -8.749987,-3.30923 -1.715003,-1.34544 -1.816114,-3.734 -1.894196,-5.73229 -0.06428,-3.53788 0.554088,-7.07221 0.413023,-10.64115 0.01357,-3.00076 -0.03363,-6.00481 0.02805,-9.00351 -0.007,-0.91881 0.636913,-1.70246 1.521982,-1.90969 2.147019,-0.66867 4.51523,-0.45057 6.80025,-0.4727 3.292785,-0.11478 6.591782,-0.23487 9.871128,-0.56879 4.057221,-0.43885 8.2222,-1.69306 11.209902,-4.60339 3.980277,-3.907046 5.968524,-9.403938 6.761542,-14.827361 1.097795,-7.804209 0.09688,-15.790289 -2.05812,-23.330094 -1.676921,-5.669839 -4.024733,-11.421965 -8.419184,-15.545791 -2.193985,-2.083522 -4.989458,-3.528921 -7.994618,-3.9628 -6.31884,-1.004358 -12.658859,0.479679 -18.981944,0.640535 0.122712,-1.361058 0.871814,-2.940097 2.402918,-3.06546 0.340622,-0.05595 0.686792,-0.04384 1.030676,-0.04587 z m 12.746093,4.414062 c 3.034652,-0.07811 6.268913,0.442977 8.655889,2.461232 4.060109,3.218351 6.294426,8.152859 7.970252,12.892435 2.531611,7.505528 3.340747,15.450456 2.683431,23.389702 -0.364094,4.482204 -1.268065,8.967253 -3.672593,12.840911 -1.60803,2.634367 -4.034069,4.794907 -6.971482,5.818487 -3.775881,1.40927 -7.898199,1.56855 -11.893346,1.68396 -1.708484,0.0462 -3.417854,0.0586 -5.125666,0.12812 4.734916,-3.18787 7.836648,-8.353311 9.247459,-13.813259 C 55.227684,84.41139 54.723084,76.472349 53.008861,68.985479 51.70699,63.663819 49.88775,58.358455 46.753522,53.818266 44.880451,51.13113 42.495721,48.768179 39.660156,47.107422 43.32591,46.754517 47.019768,46.863045 50.6875,46.560547 c 0.531953,-0.02237 1.135701,-0.0475 1.693359,-0.05859 z m -18.55664,0.894531 c 3.577105,-0.101912 6.831648,1.940687 9.15625,4.517578 -2.462187,-2.596764 -5.9603,-4.503302 -9.626836,-4.152942 -3.881175,0.267983 -7.283818,2.74668 -9.423165,5.892144 -3.035587,4.397562 -4.351387,9.736137 -4.965959,14.977388 -0.0716,0.642572 -0.120585,1.286962 -0.165681,1.931848 0.242287,-4.147603 0.990313,-8.11472 2.444595,-12.005145 1.585407,-4.076428 4.144516,-8.11829 8.188218,-10.10423 1.368063,-0.661655 2.873772,-1.020946 4.392578,-1.056641 z m 77.951171,2.248047 c 3.34725,2.210865 5.60222,5.806325 6.51816,9.67682 0.68384,2.704034 0.87892,5.43968 0.91934,8.227477 -2.64323,0.622396 -5.28646,1.244792 -7.92969,1.867188 0,-6.697266 0,-13.394532 0,-20.091797 0.16407,0.106771 0.32813,0.213541 0.49219,0.320312 z m -77.568359,0.03711 c 2.352212,0.01393 4.73914,0.965585 6.383018,2.657165 1.401299,1.602289 0.887328,4.395494 -0.80294,5.610413 -2.320054,1.545786 -5.227801,1.568739 -7.903945,1.885837 -2.431667,0.28876 -5.078572,0.342572 -7.16832,1.778225 -1.444506,1.210374 -1.495328,3.283601 -1.549858,5.021778 -0.0207,2.07954 0.281365,4.125775 0.290092,6.1833 4.901235,-0.785905 9.802052,-1.574416 14.703125,-2.361328 -0.17513,1.182943 -0.35026,2.365886 -0.525391,3.548828 -1.735051,0.578564 -3.418884,1.355147 -5.259111,1.52708 -2.973552,0.503185 -5.946889,1.007643 -8.920576,1.51003 -0.01093,3.01143 -0.761123,6.134527 0.04883,9.128906 0.279378,1.134252 1.297036,2.031672 2.494141,1.990234 1.859542,-0.04161 3.660342,-0.610576 5.498813,-0.853678 2.826062,-0.500479 5.620595,-1.045907 8.491421,-1.306478 1.051154,3.823162 2.547688,7.535344 4.609375,10.927735 0.666611,1.115714 0.732362,2.572884 -0.06661,3.644772 -1.505246,2.11354 -4.226371,2.88539 -6.693341,3.11946 -1.843163,0.12598 -3.638188,-0.0391 -5.199139,-1.0698 -4.139236,-2.50614 -6.731283,-6.856126 -8.541081,-11.220376 -2.156328,-5.272519 -3.248809,-11.041858 -3.487554,-16.720938 -0.191688,-5.602147 0.431857,-11.37647 2.832566,-16.529349 1.602168,-3.446243 4.186047,-6.745301 7.909064,-7.991348 0.921369,-0.304549 1.885462,-0.480263 2.857422,-0.480468 z m 9.414063,5.958984 c 3.131388,4.833707 5.115909,10.355846 6.101562,16.015625 -0.4884,-1.366264 -1.969484,-2.42356 -3.4384,-1.98197 -1.892005,0.472315 -2.662832,2.629346 -2.610428,4.396032 0.02026,1.685584 0.757055,3.734738 2.570456,4.179067 1.593355,0.403752 3.18554,-0.778063 3.611758,-2.295252 0.15101,-0.418467 0.2365,-0.858393 0.286536,-1.29983 0.567525,5.103111 0.319603,10.393288 -0.765625,15.353515 -0.56114,2.523526 -1.373756,5.122851 -2.417969,7.470704 -2.695688,-4.58234 -5.275469,-9.407199 -5.557108,-14.815136 -0.170984,-2.907809 0.04838,-5.818391 0.03758,-8.727833 -0.428219,-0.06273 -1.504505,0.663136 -1.328125,-0.136328 0,-1.238412 0,-2.476823 0,-3.715235 0.487996,-0.119846 1.574317,0.354264 1.322509,-0.499986 C 41.430668,66.053604 41.23777,62.334713 42,58.949219 c 0.291118,-1.28018 0.758825,-2.612239 1.333984,-3.726563 0.0957,0.139323 0.191407,0.278646 0.28711,0.417969 z m -4.041016,12.673828 c -4.76237,0.820964 -9.524739,1.641927 -14.287109,2.462891 0,-2.640625 0,-5.28125 0,-7.921875 4.76237,-0.820964 9.524739,-1.641927 14.287109,-2.462891 0,2.640625 0,5.28125 0,7.921875 z m 10.369141,-3.583984 c 0.376402,1.210787 -0.14762,-0.443521 0,0 z m 0.332031,1.0625 c 2.158389,7.255948 2.922362,14.922089 1.779229,22.466308 -0.435266,2.6921 -1.07438,5.26186 -2.18763,7.803003 -1.843123,4.17566 -5.081111,8.07754 -9.578653,9.44636 -2.856598,0.93357 -6.093327,0.49528 -8.589637,-1.18203 -0.232986,-0.13292 -1.316396,-0.92688 -0.677215,-0.477 2.466813,1.71417 5.666127,2.31214 8.568386,1.4956 4.448978,-1.08049 7.857249,-4.67195 9.780339,-8.697168 2.086906,-4.41058 2.801882,-9.338559 3.01065,-14.173433 0.173094,-5.838912 -0.61639,-11.701079 -2.298828,-17.292968 0.06445,0.203776 0.128906,0.407552 0.193359,0.611328 z m 80.71289,-0.304688 c 1.14316,-0.139809 1.96373,1.032442 1.77539,2.09375 -0.13215,1.55355 -1.51574,2.552565 -2.86807,3.053188 -2.2382,0.923304 -4.65887,1.229244 -7.01279,1.72025 -0.0798,-1.504592 -0.55626,-3.004675 -1.5,-4.19336 2.88825,-1.222059 5.95536,-1.962443 9.01142,-2.623088 0.19755,-0.02477 0.39453,-0.05098 0.59405,-0.05074 z m -12.4707,3.97461 c 0.96032,-0.07052 2.18333,0.285921 2.3164,1.40625 0.27082,1.453389 -0.58576,2.948747 -1.93899,3.516415 -2.38713,1.211183 -5.01932,1.48838 -7.61765,1.952335 0,-1.679037 0,-3.358073 0,-5.03711 2.41311,-0.598866 4.72773,-1.704925 7.24024,-1.83789 z m -71.416018,2.220703 c 1.061839,0.320875 1.162897,1.711055 1.091096,2.642613 -0.04993,0.822992 -0.476549,2.095362 -1.516877,1.908168 -1.104173,-0.423721 -1.190976,-1.885024 -1.055981,-2.889681 0.115691,-0.751222 0.556751,-1.786037 1.481762,-1.6611 z M 39.611328,76.5625 c 0.08045,2.183837 0.542439,4.482255 -0.257812,6.585938 -0.609634,1.300542 -2.248012,1.318965 -3.471381,1.546385 -3.533697,0.58845 -7.046493,1.324162 -10.608697,1.730958 -0.04617,-2.296031 -0.589436,-4.702704 0.246093,-6.917969 0.608144,-1.296434 2.254135,-1.28584 3.468068,-1.509191 3.544783,-0.576659 7.064627,-1.332733 10.61201,-1.762293 0.0039,0.108724 0.0078,0.217448 0.01172,0.326172 z m 79.597652,0.494141 c -0.0681,2.72337 -0.19396,5.396756 -1.18554,8 -1.04857,2.895609 -3.58427,5.014599 -6.42954,6.042645 -0.77002,0.534313 -0.35625,-0.459477 -0.40194,-0.901058 0.23437,-3.320652 0.009,-6.655139 0.11177,-9.977104 -0.004,-1.129027 0.78042,-2.072769 1.8045,-2.471332 1.91718,-0.889016 4.04989,-1.103185 6.10661,-1.478308 -0.002,0.261719 -0.004,0.523438 -0.006,0.785157 z M 43.792969,123.91016 c -1.194201,0.009 -2.77004,0.6088 -2.792834,2.00623 0.04656,1.76303 1.753689,2.86216 3.24636,3.40407 1.593137,0.56801 3.61008,0.8078 5.005458,-0.33804 1.036182,-0.9696 0.397302,-2.58898 -0.552734,-3.36523 -1.353482,-1.11154 -3.156028,-1.73562 -4.90625,-1.70703 z m 0.58789,1.91601 c 1.194024,0.13683 2.577603,0.51917 3.267579,1.58008 0.100426,0.43864 -0.679312,0.41902 -0.966797,0.46875 -1.25377,-0.0354 -2.612316,-0.46735 -3.457032,-1.42773 -0.401442,-0.47069 0.455352,-0.58671 0.765726,-0.61308 0.129714,-0.0164 0.260272,-0.007 0.390524,-0.008 z" />
  </g>
</svg>
