<?xml version="1.0" encoding="UTF-8" standalone="no"?>
<svg
   xmlns:dc="http://purl.org/dc/elements/1.1/"
   xmlns:cc="http://creativecommons.org/ns#"
   xmlns:rdf="http://www.w3.org/1999/02/22-rdf-syntax-ns#"
   xmlns:svg="http://www.w3.org/2000/svg"
   xmlns="http://www.w3.org/2000/svg"
   xmlns:sodipodi="http://sodipodi.sourceforge.net/DTD/sodipodi-0.dtd"
   xmlns:inkscape="http://www.inkscape.org/namespaces/inkscape"
   width="500"
   height="500"
   viewBox="0 0 132.29166 132.29167"
   version="1.1"
   id="svg8"
   inkscape:version="1.0.2 (e86c870879, 2021-01-15, custom)"
   sodipodi:docname="201033.svg">
  <defs
     id="defs2" />
  <sodipodi:namedview
     id="base"
     pagecolor="#ffffff"
     bordercolor="#666666"
     borderopacity="1.0"
     inkscape:pageopacity="0.0"
     inkscape:pageshadow="2"
     inkscape:zoom="0.49497475"
     inkscape:cx="194.65888"
     inkscape:cy="212.22685"
     inkscape:document-units="mm"
     inkscape:current-layer="layer1"
     inkscape:document-rotation="0"
     showgrid="false"
     inkscape:window-width="1368"
     inkscape:window-height="850"
     inkscape:window-x="-6"
     inkscape:window-y="-6"
     inkscape:window-maximized="1"
     units="px" />
  <metadata
     id="metadata5">
    <rdf:RDF>
      <cc:Work
         rdf:about="">
        <dc:format>image/svg+xml</dc:format>
        <dc:type
           rdf:resource="http://purl.org/dc/dcmitype/StillImage" />
        <dc:title />
      </cc:Work>
    </rdf:RDF>
  </metadata>
  <g
     inkscape:label="Ebene 1"
     inkscape:groupmode="layer"
     id="layer1"
     transform="translate(-10.339915,-26.030838)">
    <path
       id="path950"
       style="fill:#000000;stroke:none;stroke-width:0.264583"
       d="M 74.654297,31.960938 C 63.222099,32.351126 51.88413,35.970822 42.481366,42.516416 32.34271,49.465754 24.364207,59.567909 20.185929,71.146053 15.503094,83.966437 15.540963,98.351908 19.905715,111.2525 c 4.324408,12.96087 13.03197,24.48346 24.572683,31.85545 9.21586,5.95541 20.127013,9.1902 31.092348,9.32721 14.315743,0.29942 28.696604,-4.66866 39.675224,-13.88198 9.18669,-7.61121 16.06913,-18.01318 19.22496,-29.53753 4.23576,-15.108469 2.17268,-31.763222 -5.23046,-45.556793 C 123.38655,52.422882 114.03521,43.22744 102.74502,37.82953 94.041488,33.637681 84.303596,31.649331 74.654297,31.960938 Z m 1.839844,1.820312 c 11.074559,-0.07247 22.275879,3.060625 31.642419,9.181596 11.64389,7.51673 20.23599,19.42387 24.13625,32.684869 3.40101,11.387386 3.42653,23.717741 -0.22228,35.038575 -4.10158,12.89238 -13.03949,24.04018 -24.51342,31.15746 -8.36011,5.06053 -18.008405,8.25607 -27.753907,8.67969 -9.798499,0.47304 -19.791208,-1.3482 -28.642264,-5.72025 C 38.867478,138.83941 28.963511,128.32841 23.457991,115.86964 19.431586,106.83548 17.687279,96.886769 18.48928,87.105198 19.526039,73.97971 25.328187,61.091391 34.584403,51.596541 42.903616,42.942768 53.954954,36.963159 65.765637,34.793409 69.317757,34.126132 72.90458,33.797754 76.494141,33.78125 Z m -0.136719,8.220703 c -1.639413,0.06762 -2.896685,1.661694 -2.733796,3.261902 0.0088,1.649071 1.482498,3.187882 3.179683,2.986829 1.642586,-0.0079 2.964167,-1.550237 2.860753,-3.16084 0.03842,-1.654902 -1.390526,-3.25565 -3.103773,-3.098361 -0.06762,0.0035 -0.135245,0.007 -0.202867,0.01047 z m 0.242187,10.990235 C 68.14543,53.233642 59.602046,55.220714 52.349373,59.689456 42.930369,65.316683 35.49031,74.274328 31.99361,84.701685 c -4.515646,13.134168 -2.84139,28.163105 4.244418,40.081935 5.999897,10.2561 16.071324,18.11059 27.589857,21.13591 6.432424,1.70658 13.206801,2.13253 19.808834,1.31094 12.441624,-1.7508 24.078951,-8.75813 31.299671,-19.06315 7.65874,-10.78893 10.4352,-24.8044 7.74984,-37.732986 -2.02765,-10.080616 -7.47068,-19.442151 -15.29578,-26.123627 -7.68542,-6.65964 -17.623306,-10.559193 -27.742285,-11.255023 -1.015133,-0.05938 -2.031832,-0.07933 -3.048556,-0.0635 z m -0.148437,1.99414 c 4.632098,-0.02958 9.408996,0.679902 13.769531,2.042969 9.196377,2.844211 17.357117,8.817092 22.911847,16.671418 2.4734,3.467227 4.46858,7.292908 5.89002,11.223083 3.30001,9.028958 3.79402,19.140622 1.11768,28.433242 -3.09656,10.98289 -10.71913,20.51351 -20.560172,26.2328 -6.461114,3.79349 -14.052156,5.8831 -21.529512,6.15119 -9.337707,0.29134 -18.850691,-2.2936 -26.627352,-7.576 C 43.892225,133.09539 38.090737,125.57849 34.808439,117.18089 30.332193,105.89412 30.330591,92.805917 35.285945,81.671898 39.978579,71.010011 49.169678,62.264692 60.109143,58.082976 65.312359,56.06019 70.910154,55.019888 76.451172,54.986328 Z M 76.5,132.9375 c -2.435556,0.0908 -4.849044,1.71689 -5.429688,4.16016 -0.841524,3.08701 0.986598,6.85901 4.223519,7.5791 2.763575,0.64128 6.055642,-0.90381 6.843327,-3.74215 1.014032,-3.17159 -0.87104,-7.18578 -4.25469,-7.8881 -0.453451,-0.0966 -0.919649,-0.12804 -1.382468,-0.10901 z" />
  </g>
</svg>
