<?xml version="1.0" encoding="UTF-8" standalone="no"?>
<svg
   xmlns:dc="http://purl.org/dc/elements/1.1/"
   xmlns:cc="http://creativecommons.org/ns#"
   xmlns:rdf="http://www.w3.org/1999/02/22-rdf-syntax-ns#"
   xmlns:svg="http://www.w3.org/2000/svg"
   xmlns="http://www.w3.org/2000/svg"
   xmlns:sodipodi="http://sodipodi.sourceforge.net/DTD/sodipodi-0.dtd"
   xmlns:inkscape="http://www.inkscape.org/namespaces/inkscape"
   width="150mm"
   height="150mm"
   viewBox="0 0 150 150"
   version="1.1"
   id="svg8"
   inkscape:version="1.0.2 (e86c870879, 2021-01-15, custom)"
   sodipodi:docname="201022.svg">
  <defs
     id="defs2" />
  <sodipodi:namedview
     id="base"
     pagecolor="#ffffff"
     bordercolor="#666666"
     borderopacity="1.0"
     inkscape:pageopacity="0.0"
     inkscape:pageshadow="2"
     inkscape:zoom="0.7"
     inkscape:cx="266.10647"
     inkscape:cy="279.25799"
     inkscape:document-units="mm"
     inkscape:current-layer="layer1"
     inkscape:document-rotation="0"
     showgrid="false"
     inkscape:window-width="1368"
     inkscape:window-height="850"
     inkscape:window-x="-6"
     inkscape:window-y="-6"
     inkscape:window-maximized="1" />
  <metadata
     id="metadata5">
    <rdf:RDF>
      <cc:Work
         rdf:about="">
        <dc:format>image/svg+xml</dc:format>
        <dc:type
           rdf:resource="http://purl.org/dc/dcmitype/StillImage" />
        <dc:title></dc:title>
      </cc:Work>
    </rdf:RDF>
  </metadata>
  <g
     inkscape:label="Ebene 1"
     inkscape:groupmode="layer"
     id="layer1">
    <path
       id="path38"
       style="fill:#000000;stroke:none;stroke-width:0.313667"
       d="M 78.343438,0.77943457 C 73.418573,0.87107783 68.562131,1.7844795 63.672149,2.289173 55.110305,3.2930019 46.540457,4.4520815 38.19586,6.6736498 34.5297,7.5978351 30.597041,8.3925664 27.633217,10.901942 c -1.914918,1.577563 -2.622378,4.135728 -2.566941,6.535415 -0.01809,7.835647 0.387967,15.665567 0.351822,23.501713 0.175903,17.271929 1.769601,34.480327 2.806661,51.711379 0.400305,7.558181 0.80105,15.130941 1.720676,22.651331 0.645832,6.62834 0.784718,13.29626 1.383561,19.92656 0.294557,2.70704 1.376819,5.5361 3.743171,7.08033 3.405816,2.26953 7.541601,2.95931 11.472669,3.78529 5.748324,1.24194 11.540052,2.32249 17.401367,2.86183 10.764603,1.04845 21.668729,0.82963 32.366219,-0.77787 6.435778,-1.01723 12.758328,-2.73716 18.856578,-5.02095 2.3303,-0.89 4.44885,-2.6359 5.20775,-5.08344 1.00695,-2.98234 0.67985,-6.18984 1.00128,-9.25439 0.45536,-7.49482 1.04173,-14.98051 1.77843,-22.45299 2.09542,-22.894152 3.55472,-45.868643 3.41101,-68.868335 0.003,-6.618321 -0.0154,-13.237702 0.0304,-19.855129 -0.0169,-2.572756 -0.81173,-5.251326 -2.76331,-7.024668 C 120.87264,7.7926928 116.69974,6.9536249 112.85178,6.0382551 101.55295,3.2534216 90.056647,0.57351449 78.343438,0.77943457 Z m 1.37128,2.05896693 c 10.35968,0.054697 20.584732,2.1776182 30.594012,4.6660068 3.81139,0.9830866 7.94669,1.4491847 11.22512,3.8035747 1.90619,1.324729 2.90148,3.613395 2.98694,5.889973 0.11149,2.866857 -0.0682,5.737653 -0.004,8.606727 -0.005,12.453231 0.10426,24.912055 -0.44743,37.356871 -0.67847,17.423319 -2.15501,34.817615 -3.78998,52.185376 -0.43657,5.56901 -0.83761,11.1433 -1.13011,16.7211 -0.0819,2.00258 -0.0199,3.86873 -0.82204,5.74385 -1.02025,2.37844 -3.61094,3.3559 -5.89023,4.11254 -6.05726,2.22224 -12.27118,3.71673 -18.689602,4.56143 -8.208151,1.07726 -16.484131,1.30452 -24.763361,0.79338 -6.384538,-0.40547 -12.78207,-1.27913 -19.080767,-2.58171 -4.410969,-0.91535 -9.049121,-1.43393 -13.035842,-3.68115 -1.899859,-1.02815 -3.070246,-3.02883 -3.378584,-5.12991 -0.427862,-2.73181 -0.417492,-5.49897 -0.643713,-8.28917 -0.314458,-5.60417 -0.64797,-11.24341 -1.33145,-16.79552 C 30.556346,101.25748 30.357472,91.677391 29.588899,82.113953 28.502986,66.805353 27.378844,51.495906 27.436195,36.138854 27.353782,29.69421 27.0557,23.249902 27.126393,16.804846 27.160772,14.847354 28.056379,12.887067 29.73872,11.815169 32.13882,10.20453 34.943465,9.5342039 37.628942,8.8741787 42.930391,7.5413993 48.28069,6.3845319 53.672593,5.602332 60.63539,4.5769591 67.632966,3.7957389 74.62895,3.03848 76.318044,2.9004645 77.998851,2.8430455 79.714718,2.8384015 Z M 77.872699,42.298523 c -2.553349,0.114352 -5.109082,0.279761 -7.663198,0.09929 -1.425137,-0.05499 -3.221403,0.269155 -3.763453,1.797992 -0.625467,1.460398 0.192233,3.374382 1.794461,3.726208 3.374275,0.965594 6.913816,0.274645 10.3486,0.114812 1.684485,-0.220105 3.507361,0.369402 5.196783,-0.246934 1.821788,-0.7298 1.861691,-3.386086 0.52211,-4.595052 -1.01375,-0.922879 -2.510599,-0.755396 -3.782796,-0.902452 -0.884618,-0.02392 -1.767985,-0.02127 -2.652507,0.0062 z m 1.385608,2.245216 c 1.088838,0.05595 2.177675,0.111885 3.266513,0.167827 0.100522,0.543707 0.790769,1.520371 -0.241919,1.232106 -4.514854,0 -9.029709,0 -13.544564,0 0.237352,-0.54198 0.160411,-1.503545 1.009324,-1.229083 3.170216,-0.0569 6.340427,-0.114268 9.510646,-0.17085 z M 61.077588,64.449814 c -3.970869,0.335867 -7.952267,0.601189 -11.916565,0.985063 -1.422883,0.287678 -2.845727,0.575541 -4.268634,0.863096 -0.214688,2.249998 -0.452187,4.498932 -0.360217,6.762662 0,14.34714 0,28.694275 0,43.041415 9.840618,-0.73804 19.680918,-1.51826 29.521578,-2.23197 10.917638,0.74286 21.835405,1.48383 32.75296,2.22787 0,-16.783508 0,-33.567023 0,-50.350536 -6.844524,-0.526815 -13.687385,-1.106887 -20.533164,-1.59801 -8.398653,0.100134 -16.797305,0.200274 -25.195958,0.30041 z m 43.678342,3.264466 c 0,15.395179 0,30.790357 0,46.18553 -15.775214,-2.80592 -31.963953,-3.20937 -47.883698,-1.45554 -3.340844,0.37444 -6.668173,0.8577 -9.976137,1.45554 0,-15.389033 -1e-6,-30.778072 0,-46.167111 12.501136,-0.508437 25.002808,-1.04922 37.503608,-1.537448 6.78541,0.506342 13.57082,1.012686 20.356227,1.519029 z" />
  </g>
</svg>
