<?xml version="1.0" encoding="UTF-8" standalone="no"?>
<svg
   xmlns:dc="http://purl.org/dc/elements/1.1/"
   xmlns:cc="http://creativecommons.org/ns#"
   xmlns:rdf="http://www.w3.org/1999/02/22-rdf-syntax-ns#"
   xmlns:svg="http://www.w3.org/2000/svg"
   xmlns="http://www.w3.org/2000/svg"
   xmlns:sodipodi="http://sodipodi.sourceforge.net/DTD/sodipodi-0.dtd"
   xmlns:inkscape="http://www.inkscape.org/namespaces/inkscape"
   version="1.0"
   width="300.000000pt"
   height="421.000000pt"
   viewBox="0 0 300.000000 421.000000"
   preserveAspectRatio="xMidYMid meet"
   id="svg76"
   sodipodi:docname="SVG-afbeelding 1.svg"
   inkscape:version="1.0.1 (3bc2e813f5, 2020-09-07)">
  <defs
     id="defs80" />
  <sodipodi:namedview
     pagecolor="#ffffff"
     bordercolor="#666666"
     borderopacity="1"
     objecttolerance="10"
     gridtolerance="10"
     guidetolerance="10"
     inkscape:pageopacity="0"
     inkscape:pageshadow="2"
     inkscape:window-width="1440"
     inkscape:window-height="837"
     id="namedview78"
     showgrid="false"
     inkscape:zoom="1.1187648"
     inkscape:cx="200"
     inkscape:cy="280.66667"
     inkscape:window-x="-8"
     inkscape:window-y="-8"
     inkscape:window-maximized="1"
     inkscape:current-layer="svg76" />
  <metadata
     id="metadata46">
Created by potrace 1.10, written by Peter Selinger 2001-2011
<rdf:RDF>
  <cc:Work
     rdf:about="">
    <dc:format>image/svg+xml</dc:format>
    <dc:type
       rdf:resource="http://purl.org/dc/dcmitype/StillImage" />
  </cc:Work>
</rdf:RDF>
</metadata>
  <g
     transform="translate(0.000000,421.000000) scale(0.100000,-0.100000)"
     fill="#000000"
     stroke="none"
     id="g74">
    <path
       d="M1145 4165 c-334 -38 -539 -75 -760 -136 -262 -71 -316 -95 -356 -156 -27 -41 -23 -49 7 -14 14 17 34 31 44 31 10 0 22 5 26 12 4 7 3 8 -4 4 -7 -4 -12 -4 -12 -1 0 3 14 11 30 16 17 6 30 15 30 21 0 5 4 7 8 4 5 -3 43 6 86 20 42 13 86 24 96 24 11 0 20 5 20 11 0 6 6 9 14 6 7 -3 17 -2 22 3 5 5 29 11 53 15 25 4 65 13 89 21 24 9 46 13 49 10 3 -3 13 -1 22 4 10 5 64 16 122 25 57 9 122 20 144 25 22 5 52 6 68 3 15 -3 27 -1 27 5 0 5 33 13 73 17 41 3 87 9 103 12 16 3 151 7 300 10 247 4 418 -4 624 -31 79 -11 303 -51 368 -66 23 -5 63 -15 90 -21 44 -10 66 -16 182 -49 57 -17 170 -69 170 -79 0 -4 8 -16 18 -27 48 -55 47 -40 47 -729 0 -481 -8 -806 -20 -855 -4 -14 -30 -336 -39 -480 -3 -41 0 -70 7 -79 8 -10 9 -13 1 -8 -7 4 -14 -5 -18 -24 -8 -43 -6 -70 4 -39 6 20 8 14 8 -25 0 -27 -2 -42 -6 -33 -4 9 -8 -34 -8 -95 -1 -62 -9 -209 -18 -327 -9 -118 -23 -327 -31 -465 -13 -216 -28 -426 -40 -557 -2 -20 -11 -48 -21 -63 -19 -30 -93 -83 -132 -96 -23 -8 -22 -8 10 -5 53 6 87 25 120 67 24 30 31 53 43 135 8 54 15 131 15 170 0 102 90 1359 141 1984 16 201 24 1329 9 1405 -22 115 -92 188 -218 228 -225 72 -503 130 -782 163 -190 22 -669 27 -825 9z"
       id="path48" />
    <path
       d="M1208 2929 c-21 -12 -25 -82 -5 -95 6 -5 120 -7 252 -4 l240 5 3 40 c5 63 -3 65 -235 65 -129 0 -203 -4 -203 -10 0 -5 19 -11 43 -12 l42 -1 -45 -6 c-28 -4 -40 -9 -32 -14 7 -5 21 -5 32 -2 14 4 20 2 20 -8 0 -14 -28 -27 -57 -27 -8 0 -13 15 -13 40 0 42 -10 48 -42 29z m242 -36 c0 -15 -10 -18 -60 -18 -37 -1 -60 4 -60 10 0 7 19 10 50 9 27 -2 52 2 55 7 9 14 15 11 15 -8z m100 7 c0 -5 9 -6 20 -3 16 4 19 2 14 -12 -4 -10 -14 -15 -25 -12 -11 3 -19 1 -19 -3 0 -5 -13 -4 -30 1 -23 9 -27 13 -17 24 13 14 57 17 57 5z"
       id="path50" />
    <path
       d="M6 2350 c2 -90 11 -243 19 -340 30 -359 45 -564 65 -860 6 -85 15 -184 20 -220 8 -54 8 -45 4 55 -3 66 -7 143 -10 170 -4 53 -18 232 -34 450 -5 72 -10 164 -11 205 0 41 -10 170 -21 285 -11 116 -24 257 -29 315 -6 88 -7 79 -3 -60z"
       id="path52" />
    <path
       d="M1303 2283 c9 -2 25 -2 35 0 9 3 1 5 -18 5 -19 0 -27 -2 -17 -5z"
       id="path54" />
    <path
       d="M1505 2283 c120 -7 345 -7 345 0 0 4 -89 6 -197 5 -109 -1 -175 -3 -148 -5z"
       id="path56" />
    <path
       d="M1883 2273 c15 -2 37 -2 50 0 12 2 0 4 -28 4 -27 0 -38 -2 -22 -4z"
       id="path58" />
    <path
       d="M2051 2266 c2 -2 36 -6 74 -9 44 -4 61 -3 45 2 -24 9 -127 15 -119 7z"
       id="path60" />
    <path
       d="M539 2242 c8 -14 11 -166 11 -485 0 -541 10 -977 22 -977 4 0 8 325 8 723 l-1 722 -25 19 c-26 18 -26 18 -15 -2z"
       id="path62" />
    <path
       d="M2363 2248 c-5 -8 -5 -221 -1 -518 5 -278 7 -599 6 -714 l-3 -209 34 -36 c30 -32 32 -33 26 -11 -5 14 -14 29 -20 35 -10 8 -14 171 -16 737 -2 401 -7 728 -10 728 -4 0 -11 -6 -16 -12z"
       id="path64" />
    <path
       d="M121 819 c0 -26 3 -91 8 -145 5 -55 12 -142 16 -194 11 -177 24 -322 30 -328 7 -8 7 -4 -15 293 -25 326 -37 442 -39 374z"
       id="path66" />
    <path
       d="M1038 820 c-70 -4 -131 -10 -135 -14 -7 -6 267 3 275 9 10 9 -27 10 -140 5z"
       id="path68" />
    <path
       d="M1232 824 c7 -7 390 -6 397 1 2 3 -87 5 -199 5 -112 0 -201 -3 -198 -6z"
       id="path70" />
    <path
       d="M190 94 c0 -14 41 -67 47 -60 3 2 0 11 -6 18 -7 7 -18 22 -26 33 -8 11 -15 15 -15 9z"
       id="path72" />
  </g>
  <path
     style="fill:none;stroke:#000000;stroke-width:0.75px;stroke-linecap:butt;stroke-linejoin:miter;stroke-opacity:1"
     d="M 53.899999,196.8 C 89.831214,192.39969 130.3,192.7 130.3,192.7 L 160.22134,192.39969 236.3,196.2 l 0.2,144.1 -73.6,-1.8 -39.7,0.1 -5.4,0.9 -27.499999,0.9 -33.317516,2.16529 v -0.67038"
     id="path84" />
  <path
     style="fill:#a0a0a0;stroke:none;stroke-width:0.893843"
     d=""
     id="path86"
     transform="scale(0.75000001)" />
  <path
     style="fill:#a0a0a0;stroke:none;stroke-width:0.893843"
     d=""
     id="path88"
     transform="scale(0.75000001)" />
  <path
     style="fill:#000000;stroke-width:0.893843"
     d="m 160.40276,182.6121 c -1.52704,-1.52704 -1.32768,-7.99772 0.31884,-10.34846 1.61676,-2.30825 4.43214,-2.61733 5.21674,-0.5727 0.2984,0.77763 0.54255,2.8014 0.54255,4.49727 0,3.68367 1.52183,4.52355 6.13218,3.38427 2.38647,-0.58973 3.32927,-1.33971 3.5388,-2.81505 0.25137,-1.76995 -0.12382,-2.02388 -3.12845,-2.11733 -3.17144,-0.0986 -3.0647,-0.17386 1.50206,-1.05837 l 4.91613,-0.95218 -4.75113,-0.63881 c -2.61313,-0.35134 -4.93492,-0.82258 -5.15953,-1.04719 -0.82463,-0.82464 29.50412,-1.66821 39.6595,-1.10311 16.15623,0.89902 17.75933,1.7591 16.68107,8.94951 l -0.55985,3.73329 -11.31507,0.57711 c -19.8211,1.01095 -52.39136,0.71423 -53.59384,-0.48825 z m 50.72423,-4.70891 c 1.92768,-1.19137 0.95461,-3.15691 -1.56287,-3.15691 -1.37652,0 -2.94568,-0.44292 -3.48703,-0.98426 -1.25464,-1.25464 -6.01968,-0.25351 -7.54581,1.58537 -1.92561,2.32021 1.44195,4.02118 7.00698,3.53926 2.55686,-0.22141 5.07179,-0.66397 5.58873,-0.98346 z m -17.92484,-0.80901 c 1.05409,-1.2701 0.4702,-4.13558 -0.84269,-4.13558 -0.41001,0 -0.99405,0.40223 -1.29789,0.89384 -0.30383,0.49162 -3.04262,0.9 -6.08619,0.90753 -5.82755,0.0144 -8.40692,0.91153 -7.38321,2.56791 0.92866,1.50261 14.33556,1.3019 15.60998,-0.2337 z"
     id="path94"
     transform="scale(0.75000001)" />
  <path
     style="fill:#000000;stroke-width:0.893843"
     d="m 200.44692,177.40918 c -1.16154,-0.78765 -1.10883,-1.08613 0.3943,-2.23296 1.99729,-1.52384 4.61135,-1.73136 5.41568,-0.42994 0.30383,0.49162 1.61471,0.89385 2.91305,0.89385 3.6139,0 1.24807,1.49873 -3.35997,2.12851 -2.24154,0.30635 -4.61588,0.14721 -5.36306,-0.35946 z"
     id="path96"
     transform="scale(0.75000001)" />
  <path
     style="fill:#000000;stroke-width:0.893843"
     d=""
     id="path98"
     transform="scale(0.75000001)" />
  <path
     style="fill:#000000;stroke-width:0.893843"
     d="m 160.40276,182.6121 c -1.52704,-1.52704 -1.32768,-7.99772 0.31884,-10.34846 0.76529,-1.09261 2.16543,-1.98657 3.11142,-1.98657 1.74855,0 2.37074,1.46368 2.8497,6.70382 0.18675,2.04325 0.74401,2.75217 2.34111,2.97828 3.1289,0.44298 7.28933,-1.57386 7.28933,-3.53364 0,-1.32569 -0.70572,-1.7016 -3.35191,-1.78543 -3.05865,-0.0969 -2.92179,-0.18949 1.56423,-1.05837 l 4.91613,-0.95218 -4.75113,-0.63881 c -2.61313,-0.35134 -4.93492,-0.82258 -5.15953,-1.04719 -0.82463,-0.82464 29.50412,-1.66821 39.6595,-1.10311 16.15623,0.89902 17.75933,1.7591 16.68107,8.94951 l -0.55985,3.73329 -11.31507,0.57711 c -19.8211,1.01095 -52.39136,0.71423 -53.59384,-0.48825 z m 50.99374,-4.87944 c 1.70377,-1.0429 0.51129,-2.98638 -1.83238,-2.98638 -1.37652,0 -2.94568,-0.44292 -3.48703,-0.98426 -1.25464,-1.25464 -6.01968,-0.25351 -7.54581,1.58537 -0.95295,1.14823 -0.85073,1.59915 0.60862,2.68457 1.30492,0.97057 3.01251,1.15177 6.67008,0.70779 2.70387,-0.3282 5.21781,-0.7814 5.58652,-1.00709 z m -18.26441,-2.31599 c 0.27636,-2.40188 -0.9706,-3.34393 -2.07052,-1.56423 -0.30383,0.49162 -3.04262,0.9 -6.08619,0.90753 -5.86716,0.0145 -8.40642,0.91232 -7.36162,2.60286 0.4179,0.67617 3.13752,0.94016 7.93564,0.77031 7.22616,-0.2558 7.30271,-0.28322 7.58269,-2.71647 z"
     id="path100"
     transform="scale(0.75000001)" />
  <path
     style="fill:#000000;stroke-width:0.893843"
     d="m 179.44266,176.64994 c 1.2281,-1.1901 13.04981,-1.71543 12.6668,-0.56289 -0.16338,0.49161 -3.28112,1.01404 -6.92832,1.16095 -4.28807,0.17272 -6.3158,-0.0386 -5.73848,-0.59806 z"
     id="path102"
     transform="scale(0.75000001)" />
</svg>
