<?xml version="1.0" encoding="UTF-8" standalone="no"?>
<svg
   xmlns:dc="http://purl.org/dc/elements/1.1/"
   xmlns:cc="http://creativecommons.org/ns#"
   xmlns:rdf="http://www.w3.org/1999/02/22-rdf-syntax-ns#"
   xmlns:svg="http://www.w3.org/2000/svg"
   xmlns="http://www.w3.org/2000/svg"
   xmlns:sodipodi="http://sodipodi.sourceforge.net/DTD/sodipodi-0.dtd"
   xmlns:inkscape="http://www.inkscape.org/namespaces/inkscape"
   width="150mm"
   height="150mm"
   viewBox="0 0 150 150"
   version="1.1"
   id="svg8"
   sodipodi:docname="201022 learnmode.svg"
   inkscape:version="1.0.2 (e86c870879, 2021-01-15, custom)">
  <defs
     id="defs2" />
  <sodipodi:namedview
     id="base"
     pagecolor="#ffffff"
     bordercolor="#666666"
     borderopacity="1.0"
     inkscape:pageopacity="0.0"
     inkscape:pageshadow="2"
     inkscape:zoom="0.35"
     inkscape:cx="400"
     inkscape:cy="331.42857"
     inkscape:document-units="mm"
     inkscape:current-layer="layer1"
     inkscape:document-rotation="0"
     showgrid="false"
     inkscape:window-width="1920"
     inkscape:window-height="1018"
     inkscape:window-x="2729"
     inkscape:window-y="-6"
     inkscape:window-maximized="1" />
  <metadata
     id="metadata5">
    <rdf:RDF>
      <cc:Work
         rdf:about="">
        <dc:format>image/svg+xml</dc:format>
        <dc:type
           rdf:resource="http://purl.org/dc/dcmitype/StillImage" />
        <dc:title></dc:title>
      </cc:Work>
    </rdf:RDF>
  </metadata>
  <g
     inkscape:label="Ebene 1"
     inkscape:groupmode="layer"
     id="layer1">
    <path
       id="path30"
       style="fill:#464646;stroke:none;stroke-width:0.747553"
       d="M 89.079054,8.7579055 C 80.181747,8.996054 71.105635,10.36939 63.082961,14.406343 c -2.391132,1.041879 -4.20144,3.119921 -5.159947,5.517606 -1.770648,4.406953 -1.803834,9.259768 -1.682335,13.939062 0.130998,3.97258 0.508392,7.899884 0.596237,11.861782 0.149082,1.833032 0.776043,3.669961 0.460888,5.513581 -0.614694,1.29626 -2.192854,1.657307 -3.439253,2.07249 -3.497759,0.967417 -7.170043,1.052763 -10.658508,2.065828 -10.233149,2.512521 -20.663955,4.490488 -30.47615,8.438179 -0.751716,0.09527 -0.89893,0.596101 -0.779604,1.275456 -0.223307,0.694304 0.590307,0.669821 1.033204,0.905859 3.528629,1.202157 7.29697,0.17063 10.652082,-1.09604 2.8318,-1.043691 5.672671,-2.340533 8.592057,-2.831694 1.410219,-0.257251 2.918872,-0.255517 4.19336,0.484375 1.567566,0.829106 3.174268,1.730543 4.99414,1.794922 0,-0.569662 0,-1.139323 0,-1.708985 -1.244834,-0.502473 -2.492372,-0.998238 -3.738281,-1.498046 -0.164831,-0.828747 0.904117,0.05373 1.328294,0.04192 0.978011,0.372512 2.076628,0.597705 2.97914,1.062481 0.528264,0.924903 1.057607,1.849191 1.585144,2.774508 0.577474,0 1.154948,0 1.732422,0 -0.511507,-2.050346 -1.024852,-4.100232 -1.537109,-6.150391 4.984627,-1.45556 10.020025,-3.343979 15.230469,-3.388672 1.743847,-0.02841 3.46566,0.305757 5.130859,0.800782 -0.291622,-0.872194 -0.582202,-1.744735 -0.873047,-2.617188 5.013021,-1.139974 10.026042,-2.279948 15.039062,-3.419922 -0.689129,2.587581 -2.360114,4.986576 -4.257011,6.930111 -2.334014,2.346037 -4.852343,4.50656 -7.400895,6.614438 -7.8961,6.257344 -17.111894,10.47599 -26.185396,14.682594 -4.021248,1.829377 -7.995997,3.755056 -11.978836,5.664237 -4.377528,2.003941 -9.235117,3.643632 -12.667879,7.219242 -1.055555,1.072166 -1.761278,2.412423 -2.529513,3.690159 3.413671,-1.868404 6.736262,-3.897798 10.109374,-5.83789 1.37401,4.570163 2.700226,9.359657 2.070109,14.172113 -0.394855,3.30849 -2.296781,6.35742 -5.063006,8.2057 -1.616337,1.13536 -3.537825,1.97579 -5.448508,2.61828 -0.09785,0.34305 0.248638,1.75886 -0.282843,1.05504 -0.225118,-0.70111 -1.303597,0.41843 -0.846822,0.65318 0.450194,0.88041 0.830604,0.14531 1.323827,-0.12929 3.672418,0.98138 7.345901,1.95879 11.018728,2.93864 0.115719,0.64165 -0.07474,1.17345 -0.572137,1.59513 -2.880902,3.49824 -5.761804,6.99648 -8.642706,10.49472 0.206002,-1.84958 0.409351,-3.69946 0.617187,-5.54883 -0.598958,0 -1.197917,0 -1.796875,0 -0.551447,3.86867 -1.106338,7.73685 -1.658203,11.60547 4.640538,-0.40902 8.861147,-2.85304 12.290479,-5.89065 2.476663,-2.28407 4.795454,-5.11811 5.305223,-8.55076 0.359153,-2.29354 -0.76632,-4.63758 -2.65216,-5.9466 -1.542652,-1.13302 -3.376335,-1.78694 -5.218933,-2.2448 2.623527,-3.81722 5.58035,-7.72362 6.295416,-12.42657 0.321916,-1.957827 0.09713,-3.991697 -0.7423,-5.797752 -0.722193,-1.935672 -1.73878,-3.685128 -1.846085,-5.797162 -0.03121,-1.566846 1.528386,-2.419499 2.685218,-3.136969 2.45315,-1.389961 5.128379,-2.343318 7.52593,-3.838354 7.136533,-3.965912 14.501167,-7.653729 22.107211,-10.524677 0.704548,9.210731 1.38386,18.424381 2.230469,27.623044 0.10683,3.3545 -0.812964,6.84513 0.320313,10.13281 1.079584,2.7591 3.705828,4.5211 6.263326,5.78172 5.523708,2.63757 11.664138,3.40095 17.601521,4.60394 8.717276,1.6144 17.690212,2.94312 26.537492,1.587 4.42428,-0.68539 8.7328,-2.1823 12.53906,-4.55469 2.18208,-1.12143 5.11731,-1.50961 6.68164,-3.70898 1.15856,-1.43657 1.37415,-3.47884 0.61883,-5.15133 -1.05541,-2.72646 -3.54398,-4.79115 -3.94299,-7.78385 -0.48288,-2.75156 -0.16056,-5.637219 0.2495,-8.385224 0.60243,-3.713301 1.37184,-7.403011 1.66349,-11.160069 1.50027,-13.247873 4.56825,-26.318654 5.82729,-39.623049 0.68622,-5.751103 2.24194,-11.584818 1.70027,-17.454607 -0.23289,-2.850829 -1.37599,-5.728696 -3.65363,-7.554051 -3.23228,-2.684412 -7.49139,-3.514221 -11.49492,-4.35123 C 117.0802,11.440863 111.14433,10.240934 105.13114,9.5745594 99.80669,8.9498138 94.440921,8.6404423 89.079054,8.7579055 Z m 5.207031,2.7070305 c 8.343905,0.01272 16.597285,0.992469 24.765895,2.713242 4.0107,0.781712 8.35551,1.398195 11.5641,4.156984 2.22827,1.792315 2.67539,4.859922 2.57611,7.549183 -0.1606,4.633162 -1.55569,9.111742 -1.84936,13.732481 -1.86291,18.986295 -4.335,37.937865 -7.9669,56.680142 -0.76494,5.900452 -0.46206,11.945262 -1.90314,17.753252 -0.43143,1.69713 -1.17712,3.49443 -2.82262,4.33828 -3.39138,2.00542 -7.45981,2.28669 -11.31057,2.34848 -6.48159,0.0223 -12.882272,-1.06992 -19.353669,-1.70083 -5.723989,-0.72527 -11.524488,-1.7124 -16.858811,-4.09997 -2.530266,-1.19341 -5.167702,-2.79306 -6.38205,-5.43023 -0.801759,-2.45335 0.161572,-5.06025 -0.375376,-7.55693 -1.287875,-8.951985 -1.197585,-18.035783 -2.093387,-27.048755 -0.118663,-1.629737 -0.120564,-3.702011 1.447115,-4.673457 0.401812,-0.267597 0.858689,-0.434498 1.31657,-0.578278 0.24806,8.175781 0.496011,16.351565 0.74414,24.527344 0.633472,-0.174747 0.673529,0.132668 0.54604,0.646739 -0.243062,2.298942 1.098188,4.515978 3.038985,5.681747 3.232619,1.99138 7.130829,2.45911 10.8509,2.62431 0.919495,-0.32452 0.07071,1.07027 0.998882,0.76385 6.314276,0.32107 12.628208,0.70404 18.942701,0.98666 3.53495,-0.17038 7.07006,-0.33752 10.60491,-0.50995 0.0893,-0.53374 0.24945,-0.86757 0.15571,-1.51552 0.18248,-3.238113 0.6027,-6.46733 0.7564,-9.707133 0,-9.722005 0,-19.44401 0,-29.166016 -12.580754,-0.492106 -25.16145,-0.985799 -37.742184,-1.478515 1.91079,-3.028093 3.865918,-6.093339 6.442291,-8.606532 0.663638,-0.782514 1.693091,-1.019473 2.677969,-0.928877 1.429834,0.07774 3.229707,0.140489 4.121928,-1.216544 0.719385,-0.952423 0.866974,-2.522174 -0.234375,-3.257813 -1.553803,-1.021386 -3.52278,-0.941295 -5.308594,-0.976562 -0.541738,-1.828278 -2.121506,-3.359041 -4.063687,-3.54035 -2.894751,-0.306462 -5.669197,0.929837 -8.239061,2.109624 -3.224565,1.518987 -6.195843,3.472117 -9.412096,4.98346 -1.126325,-4.396754 -1.660996,-9.007772 -1.874936,-13.549774 -0.179115,-4.767582 -0.04453,-9.547245 1.22277,-14.184455 0.755566,-2.736 2.152426,-5.521122 4.718806,-6.959089 3.181311,-1.871268 6.91637,-2.239009 10.528759,-2.894149 4.132999,-0.842504 8.288664,-1.507133 12.514921,-1.773101 2.407531,-0.172868 4.822705,-0.243681 7.254914,-0.242948 z M 134.95991,23.55478 c 0.83946,5.751262 -0.0821,11.566766 -0.78014,17.308641 -0.54024,4.872633 -1.05078,9.772867 -1.839,14.599562 -2.07354,13.101085 -4.97217,26.109423 -5.72227,39.384239 -0.50714,6.750188 -0.89459,13.692768 -3.54726,20.012248 3.18775,-22.385741 6.41419,-44.766998 9.5778,-67.155536 0.7272,-6.930594 1.51737,-13.857956 2.2054,-20.79056 0,-1.33112 0,-2.66224 0,-3.99336 0.0352,0.211589 0.0703,0.423178 0.10547,0.634766 z M 77.819289,47.611421 c -0.518188,0.533879 -1.296115,0.674425 -2.009766,0.701172 0.69401,-0.259766 1.388021,-0.519532 2.082031,-0.779297 l -0.0679,0.07341 z m 31.316401,18.904297 c 0.2346,12.049378 0.49703,24.099653 0.71423,36.148472 -0.29085,0.34954 -1.18628,0.0241 -1.7125,0.11085 -8.786382,-0.22447 -17.572764,-0.44893 -26.359147,-0.67339 0.252676,-0.79101 -0.592658,-0.77183 -1.13785,-0.97296 -1.04257,-0.32275 -2.157194,-0.6563 -3.155119,-0.97235 10.654321,0.50599 21.30845,1.01614 31.962886,1.51953 -0.24867,-11.720062 -0.49881,-23.440098 -0.74805,-35.160152 0.14519,0 0.29037,0 0.43555,0 z m -2.24023,0.738281 c 0.24089,10.854167 0.48177,21.708333 0.72265,32.5625 -9.859368,-0.480469 -19.718743,-0.960938 -29.578118,-1.441406 0.2201,-0.76653 -0.259251,-0.859808 -0.90947,-0.788811 -2.056517,-0.123875 -4.437633,-0.359362 -5.859019,-2.038122 -1.294345,-1.72123 -0.952312,-4.04419 -0.85499,-6.026226 0.227241,-2.937714 0.437879,-6.206458 -1.345235,-8.743332 -0.0055,-1.657929 -4.5e-5,-3.544317 -0.002,-5.289056 0,-2.988021 0,-5.976042 0,-8.964063 12.608724,0.242839 25.217448,0.485677 37.826172,0.728516 z m -39.632812,1.503906 c 0,3.986979 0,7.973958 0,11.960938 0.774071,-0.215828 0.851717,0.251976 0.736451,0.910841 0.0033,3.939519 -0.670604,7.944016 0.195698,11.836137 0.477711,2.269399 2.049382,4.313496 4.256543,5.121172 0.849253,0.312418 -0.490843,-0.132931 -0.775312,-0.210533 -0.868913,-0.266732 -1.737826,-0.533464 -2.606739,-0.800196 -0.489008,-1.379276 -1.065381,-2.741516 -1.500985,-4.131206 -0.241859,-8.229051 -0.483719,-16.458102 -0.725578,-24.687153 0.139974,0 0.279948,0 0.419922,0 z M 15.039993,97.064546 c 0.511428,0.482272 1.007135,0.854242 1.327589,-0.0033 0.587418,-0.783394 1.174836,-1.566789 1.762254,-2.350184 -0.511428,-0.482273 -1.007135,-0.854242 -1.327589,0.0033 -0.587418,0.783394 -1.174836,1.566789 -1.762254,2.350184 z m 58.617186,1.916015 c 1.085387,0.272768 2.206881,0.38979 3.324219,0.414063 0.253843,0.947366 -0.610634,0.381018 -1.147033,0.258743 -0.771952,-0.237289 -1.543905,-0.474579 -2.315858,-0.711868 l 0.09625,0.02711 z m -59.742186,5.351559 c -0.816979,-0.13567 -0.359498,0.8792 -0.476563,1.37539 -0.262149,0.9173 0.724984,0.30956 1.221149,0.3018 2.319158,-0.48954 4.676657,-0.88506 6.972038,-1.43291 0.515425,-0.33962 1.4307,-0.73913 0.311723,-0.83392 -1.013628,-0.32876 -2.094666,0.0901 -3.138868,0.10044 -1.629827,0.16307 -3.259653,0.32613 -4.889479,0.4892 z m 14.156249,16.44922 c 0.97023,2.0275 0.340408,4.51881 -1.233585,6.05625 -0.740873,0.7792 -1.637829,1.39481 -2.557431,1.84805 0.215725,-2.44956 0.2564,-5.24854 2.087891,-7.11914 0.452608,-0.44912 0.989868,-0.80652 1.566406,-1.07617 0.04557,0.097 0.09115,0.19401 0.136719,0.29101 z" />
  </g>
</svg>
