<?xml version="1.0" encoding="UTF-8" standalone="no"?>
<svg
   xmlns:dc="http://purl.org/dc/elements/1.1/"
   xmlns:cc="http://creativecommons.org/ns#"
   xmlns:rdf="http://www.w3.org/1999/02/22-rdf-syntax-ns#"
   xmlns:svg="http://www.w3.org/2000/svg"
   xmlns="http://www.w3.org/2000/svg"
   xmlns:sodipodi="http://sodipodi.sourceforge.net/DTD/sodipodi-0.dtd"
   xmlns:inkscape="http://www.inkscape.org/namespaces/inkscape"
   width="150mm"
   height="150mm"
   viewBox="0 0 150 150"
   version="1.1"
   id="svg8"
   sodipodi:docname="201025 learnmode.svg"
   inkscape:version="1.0.2 (e86c870879, 2021-01-15, custom)">
  <defs
     id="defs2" />
  <sodipodi:namedview
     id="base"
     pagecolor="#ffffff"
     bordercolor="#666666"
     borderopacity="1.0"
     inkscape:pageopacity="0.0"
     inkscape:pageshadow="2"
     inkscape:zoom="0.35"
     inkscape:cx="400"
     inkscape:cy="331.42857"
     inkscape:document-units="mm"
     inkscape:current-layer="layer1"
     inkscape:document-rotation="0"
     showgrid="false"
     inkscape:window-width="1920"
     inkscape:window-height="1018"
     inkscape:window-x="2729"
     inkscape:window-y="-6"
     inkscape:window-maximized="1" />
  <metadata
     id="metadata5">
    <rdf:RDF>
      <cc:Work
         rdf:about="">
        <dc:format>image/svg+xml</dc:format>
        <dc:type
           rdf:resource="http://purl.org/dc/dcmitype/StillImage" />
        <dc:title></dc:title>
      </cc:Work>
    </rdf:RDF>
  </metadata>
  <g
     inkscape:label="Ebene 1"
     inkscape:groupmode="layer"
     id="layer1">
    <path
       id="path47"
       style="fill:#4a4a4a;stroke:none;stroke-width:0.731284"
       d="m 96.332388,10.142862 c -8.305071,0.183689 -16.370916,2.483619 -24.627068,3.14382 -4.00699,0.198446 -8.204798,-0.292685 -12.016266,1.23452 -2.00945,0.799001 -3.736161,2.585189 -3.901698,4.821528 -0.159204,1.735342 -0.07051,3.589112 -1.060362,5.116582 -2.32316,4.413087 -5.771947,8.280621 -7.084528,13.184777 -1.632254,6.075885 -1.796914,12.561642 -0.440792,18.706973 1.40827,6.059722 5.191738,11.182329 7.267262,16.99081 0.958384,2.68934 1.388158,5.750491 1.026165,8.65529 -0.123702,1.136863 -0.345566,2.262051 -0.642058,3.366204 -1.346281,-0.673042 -2.692525,-1.346157 -4.038309,-2.020192 0.911049,1.513702 1.820474,3.028381 2.73027,4.542838 -13.524012,1.208329 -27.047991,2.417047 -40.572024,3.625134 0.145375,0.550203 -0.323614,1.52042 0.297162,1.745613 3.576425,1.390541 7.529737,1.301651 11.287434,0.912021 1.403086,-0.167731 2.799003,-0.415747 4.163769,-0.784855 1.214367,1.164921 2.342217,2.441153 3.610679,3.536475 0.479005,0.226777 1.494969,1.140075 0.957794,0.06763 -0.328793,-1.36371 -1.30086,-2.442908 -1.942015,-3.668466 0.700388,0 1.400777,0 2.101166,0 0.05003,1.437019 -0.105922,2.892571 0.08927,4.316527 1.149164,0.477311 -0.146214,0.563828 0.132758,0.745828 0.07792,0.902049 0.564234,-0.699265 0.836904,-0.990988 0.480095,-1.339135 0.905123,-2.702249 1.364044,-4.050604 5.081978,0.24138 10.163897,0.484023 15.245912,0.724612 0.837795,-1.468095 2.268502,-2.777026 4.053186,-2.754943 2.434595,-0.034 4.792974,0.962384 7.239545,0.693225 -1.372842,3.123448 -4.586537,4.781659 -7.478657,6.245364 -5.682697,3.016305 -11.904012,4.804645 -18.142007,6.257005 -3.885774,0.87743 -7.750324,1.83927 -11.621933,2.76851 -3.119833,0.6905 -6.438559,1.00277 -9.241878,2.65406 -1.417142,0.75407 -1.589841,2.54982 -1.324604,3.96604 0.255943,2.08193 1.242362,4.03692 1.280681,6.14293 -0.289665,2.63301 -2.483747,4.56501 -2.944548,7.15709 -0.167895,0.63757 -0.540107,1.55482 0.343572,0.75289 2.067466,-1.13718 4.029809,-2.80197 4.690298,-5.15598 0.689908,-2.31786 0.638261,-4.80396 0.148607,-7.15545 -0.210732,-1.11588 -0.173511,-2.61627 1.034823,-3.14311 2.793173,-1.57071 5.987807,-2.14811 9.019594,-2.67996 4.458245,-0.71016 8.982527,-1.1488 13.308053,-2.50857 4.741424,-1.37942 9.316353,-3.25671 13.941413,-4.97354 0.142485,2.84249 2.059359,5.32667 4.527061,6.61937 3.917367,2.10485 8.450782,2.56309 12.815226,2.88972 5.27974,0.36481 10.577054,0.0871 15.809339,0.6662 7.126123,0.63406 14.328252,0.38235 21.381152,-0.82984 2.83667,-0.50687 5.64728,-1.01575 8.50722,-1.3954 2.59076,-0.46466 5.50089,-1.09856 7.1809,-3.31586 2.07766,-2.99843 2.34689,-6.79763 2.41508,-10.33475 0.0593,-4.286615 -0.48918,-8.569239 -0.60251,-12.819606 3.25838,-0.02738 6.83247,-0.0776 9.57359,-2.080404 2.41075,-1.791463 3.03266,-4.98811 3.13603,-7.81448 0.13992,-3.756557 -0.4217,-7.44609 -0.28949,-11.189862 0.0156,-10.815854 -0.0314,-21.632555 0.0235,-32.447881 0.13215,-4.055486 0.77977,-8.270302 -0.54692,-12.201891 -0.99768,-3.027502 -3.98367,-4.956066 -7.02085,-5.469 -5.26367,-0.962828 -10.60034,0.456735 -15.8152,0.659211 -5.04059,0.132529 -9.72253,-2.102691 -14.64631,-2.811854 -1.83106,-0.279892 -3.68925,-0.339557 -5.539431,-0.311308 z m 1.494902,4.019622 c 4.61292,-0.0035 9.23094,0.547796 13.7487,1.560423 3.44086,0.647273 7.11948,0.650647 10.27296,2.336966 1.98436,1.157025 2.40121,3.657228 2.65692,5.745908 0.52138,5.322297 -0.55388,10.587335 -0.3787,15.925321 0.013,16.256067 -0.026,32.512732 0.0194,48.768426 0.19842,4.534997 0.94398,9.066788 0.13415,13.588042 -0.30295,1.70314 -1.16333,3.45243 -2.83518,4.16366 -3.46236,1.66462 -7.41565,1.55106 -11.07766,2.51658 -8.24091,1.80809 -16.768597,1.17508 -25.086795,0.22009 -3.475929,-0.38284 -6.948443,-0.79883 -10.433835,-1.08475 -0.182531,-2.92681 -1.129267,-6.16401 -3.724795,-7.83785 -0.751686,-0.470752 -1.615559,-0.702112 -2.429214,-1.038124 1.459,2.913634 2.914914,5.828804 4.372584,8.743094 -1.858356,-0.12588 -3.721823,-0.20254 -5.585115,-0.21385 0,-2.19598 0,-4.39197 0,-6.58795 -0.862337,0 -1.724673,0 -2.587009,0 0,2.14131 0,4.28262 0,6.42392 -1.500438,-0.37511 -3.000875,-0.75021 -4.501312,-1.12532 0.879134,-2.02769 1.8371,-4.03316 2.667332,-6.07462 0.01433,-0.536142 0.476179,-1.855909 -0.323101,-0.96737 -1.159782,0.82759 -1.749319,2.20112 -2.64024,3.28611 -0.510416,0.70038 -1.004275,1.43295 -1.524864,2.11356 -0.434977,-1.63811 -0.630513,-3.77583 0.861604,-4.947672 1.106869,-0.841638 2.52317,-1.096609 3.86602,-1.301845 -0.05526,-0.913097 0.750957,0.316589 1.260179,-0.15804 2.065214,-0.301004 4.416417,-0.252758 6.102852,-1.660886 1.044811,-0.932796 1.330334,-2.70364 0.339161,-3.781231 -2.373201,-2.982649 -5.617175,-5.130957 -8.322165,-7.728952 -2.821442,-2.748432 -4.267143,-6.628315 -4.548863,-10.506177 -0.0922,-0.908839 -0.129226,-1.861895 -0.148444,-2.821703 2.168626,1.008314 4.41162,1.865582 6.684013,2.605505 4.003168,0.971471 8.122825,1.642495 12.257532,1.42939 6.075335,-0.252317 12.176137,-2.430018 16.630634,-6.648468 5.082301,-4.817978 7.799091,-11.679396 8.689131,-18.527201 0.87538,-7.075156 -0.18079,-14.647204 -4.1763,-20.676354 -1.663988,-2.504464 -3.868727,-4.659388 -6.453892,-6.20241 0.262523,-0.836142 -0.406103,-1.015008 -1.074681,-1.19447 -6.880363,-2.524262 -14.231927,-4.054171 -21.585692,-3.517585 -2.354054,0.181134 -4.732024,0.397906 -7.019989,0.985246 -0.627618,0.201986 -1.62762,0.400929 -0.432423,0.617812 2.709637,1.131887 5.650837,0.06124 8.380822,-0.284806 3.643137,-0.640666 7.297339,0.777031 10.287666,2.773003 1.456962,0.983551 2.979831,2.273677 4.202142,3.658782 2.002629,2.224388 3.482545,4.87766 4.559859,7.591938 1.35547,3.442308 2.04517,7.05483 2.18132,10.679741 0.225406,6.17382 -1.146004,12.494841 -4.270022,17.902701 -3.427795,5.97468 -9.727326,10.546829 -16.726507,10.914571 -2.021539,0.151598 -4.012115,-0.276919 -5.921843,-0.904247 -3.202092,-0.905673 -5.857715,-3.091556 -8.180055,-5.3951 -1.811599,-1.893397 -3.274716,-4.016646 -4.368433,-6.415616 -1.051733,-2.289157 -1.795237,-5.026201 -2.077147,-7.647778 -0.117806,-1.033147 -0.176511,-1.99766 -0.188044,-3.02 0.373278,5.045818 1.81023,10.098738 4.763087,14.258942 3.068415,4.469442 7.762949,8.173896 13.275384,8.833123 4.314463,0.473696 8.655681,-1.010745 12.240103,-3.34663 5.979179,-3.980043 9.600682,-10.772898 10.840063,-17.730694 1.381555,-7.575919 0.216815,-15.810057 -4.146137,-22.264263 -2.958993,-4.448282 -7.321271,-8.323463 -12.682436,-9.407651 -4.027874,-0.80295 -8.190003,0.380846 -11.746727,2.265264 -2.257429,1.225368 -4.272148,2.881825 -5.951239,4.823058 0.713861,-1.33627 1.842767,-2.50241 2.074175,-4.052843 0.15619,0.984489 0.799245,0.507917 1.394605,0.174476 1.113775,-0.557151 2.22755,-1.114301 3.341324,-1.671453 -0.256463,-0.701906 -0.552081,-1.286345 -1.263103,-0.624581 -1.133385,0.566693 -2.266771,1.133387 -3.400156,1.70008 0.229716,-1.7733 0.03155,-3.8966 1.557155,-5.167241 2.13791,-1.794537 5.145989,-1.991729 7.750314,-2.193468 3.665026,-0.203616 7.476706,0.06649 11.171935,-0.45552 6.408988,-0.648602 12.774575,-1.44873 19.228902,-1.421013 z m 26.23136,1.033973 c 2.10522,0.03378 4.62968,0.49221 6.00427,2.328054 0.98934,1.642505 1.03481,3.656962 1.12415,5.523461 0.058,4.222826 -0.62282,8.448777 -0.47819,12.705863 0.0167,10.88992 -0.0334,21.780643 0.025,32.670064 0.0592,3.254968 0.64046,6.700899 -0.69144,9.788859 -0.57287,1.243278 -1.60598,2.246611 -2.84447,2.821625 -1.27393,-3.966485 -0.68787,-8.196968 -0.5484,-12.278746 0.14472,-4.954209 0.026,-9.913351 0.0646,-14.869485 0.0231,-7.819619 -0.0466,-15.640446 0.0356,-23.459306 0.0737,-3.575199 0.62814,-7.305539 -0.61699,-10.750038 -0.76093,-2.206301 -2.85049,-3.764885 -5.13455,-4.081711 0.8982,-0.262888 2.0484,-0.405143 3.06039,-0.39864 z m 8.45864,1.457529 c 1.77506,0.22061 3.32138,1.526143 3.76959,3.267432 0.94482,3.42032 0.18369,6.989055 0.27288,10.475274 0.0157,13.325411 -0.0315,26.651318 0.0236,39.97642 0.0171,2.381257 0.21822,4.917413 -0.60377,7.113599 -0.62576,1.890871 -2.60429,2.897246 -4.49633,2.964328 -0.23263,-0.192109 0.27097,-1.00778 0.31194,-1.448027 2.09075,-7.541267 1.96037,-15.461602 1.65762,-23.21464 -0.34985,-8.233014 -1.22002,-16.462834 -0.73368,-24.713731 0.18906,-4.828709 0.45174,-9.749943 -0.70219,-14.487095 0.16679,0.02214 0.33358,0.0443 0.50037,0.06644 z m -41.761711,7.866915 c 3.372836,3.361836 6.173441,7.723446 7.709431,12.244648 2.25244,6.476878 2.22936,13.56401 -0.0638,20.025752 -1.562963,4.464512 -4.227422,8.614708 -7.587506,12.001504 -1.195921,10e-7 -2.391842,0 -3.587762,0 0.865018,-0.353357 0.28964,-1.117875 -0.239389,-1.222685 -0.903822,0.364429 -0.378831,1.100743 -0.432071,1.222685 -1.027746,0.270287 -0.247895,-0.740071 -0.100649,-1.239279 1.627341,-3.463752 4.300814,-6.420628 5.277578,-10.188408 2.361149,-8.028514 1.964918,-16.923865 -1.414312,-24.607414 -1.897805,-4.26525 -4.871756,-8.113489 -8.790463,-10.699237 3.076312,0.820811 6.152624,1.641623 9.228938,2.462434 z m -12.658904,3.361451 c 0.08639,0.824308 0.92855,0.13428 1.447147,0.176481 1.816745,-0.337914 3.586834,0.732734 4.503389,2.263113 1.83065,2.995655 2.347356,6.555551 2.857783,9.942746 0.191251,0.865068 -0.0819,1.730501 -0.148275,2.595736 0.823056,-0.211714 0.435152,0.933247 0.630462,1.424073 0.224956,1.909924 0.384006,3.834066 0.802151,5.714079 -0.477273,0.164268 -0.807956,0.66148 -1.357868,0.512834 0.112342,0.717532 -0.594635,1.208519 -0.654019,1.922609 -0.510721,2.441756 0.396799,4.876824 -0.327655,7.288827 -0.528937,2.444232 -2.508259,4.445885 -4.935075,5.027893 -1.162308,0.336935 -2.378023,0.381239 -3.580024,0.402394 -0.06284,1.410131 0.107308,3.168183 -1.087128,4.172021 -1.302878,0.671289 -2.788352,-0.04938 -4.072844,-0.436833 -0.891633,-0.405278 -2.016445,-0.477215 -2.570258,-1.37885 -1.687877,-1.898316 -3.375754,-3.796633 -5.06363,-5.69495 -0.251317,-3.767698 -0.501894,-7.535445 -0.753679,-11.303111 -0.716307,0 -1.432613,0 -2.148921,0 0.03095,-2.05631 0.231166,-4.132361 0.585504,-6.189305 0.851626,0.232349 0.994659,-0.243893 0.869949,-0.987881 0.05196,-1.402545 -0.20271,-2.853499 0.377038,-4.178852 1.337455,-4.238896 3.538008,-8.428318 6.925138,-11.314549 1.835936,-1.560794 4.051409,-2.680351 6.411463,-3.180817 0.429784,1.074114 0.859568,2.148228 1.289352,3.222342 z m 1.4513,-2.350317 c 0.258072,0.857344 -0.649922,0.851529 -0.08519,-0.02024 l 0.01459,-0.0462 z m -15.636249,5.257068 c -0.376833,1.48137 -1.41562,3.000501 -3.070106,3.123294 -1.877269,0.215942 -3.753589,-0.180907 -5.631462,-0.206161 0.322347,-1.444662 1.560503,-2.588712 3.053371,-2.69228 1.889091,-0.244822 3.815913,-0.02348 5.693875,-0.388876 l -0.02852,0.102403 z m -1.943371,6.168543 c -0.05986,1.543745 0.201839,3.125219 -0.329572,4.609894 -0.127409,0.540741 -0.249562,1.083116 -0.351438,1.629241 -1.835406,-1e-6 -3.670812,0 -5.506218,0 0,-2.285953 0,-4.571906 0,-6.857858 2.06241,0.206241 4.124819,0.412481 6.187228,0.618723 z m 8.207421,4.968469 c -1.951664,0.09624 -3.194977,2.052281 -3.255562,3.861828 -0.176985,1.855075 0.777844,4.140142 2.821626,4.422414 1.800206,0.264036 3.667754,-0.948378 4.061421,-2.745759 0.576106,-2.070388 -0.295218,-4.820383 -2.531224,-5.449205 -0.358027,-0.09117 -0.728041,-0.119042 -1.096261,-0.08927 z m -17.10831,1.949599 c 0.472522,0.195627 1.377391,0.03191 1.588333,0.446395 1.485256,-0.03941 2.923692,0.439364 4.387118,0.641562 0,1.879699 0,3.759398 0,5.639097 -1.328672,0.177283 -2.646247,0.611103 -3.982141,0.621607 -0.479239,0.05653 -0.991956,0.553539 -1.217984,-0.396979 -0.363453,-0.959052 -0.323193,0.734794 -0.707578,0.849169 -0.493887,-0.0457 -1.55973,0.564622 -1.681282,0.08454 0.207029,-2.688677 0.414058,-5.377354 0.621087,-8.066032 0.330816,0.06021 0.661632,0.120422 0.992447,0.180633 z m 35.15301,7.761028 c -0.08789,0.700389 -0.17579,1.400777 -0.263684,2.101166 0,-0.700389 0,-1.400777 0,-2.101166 0.08789,0 0.17579,0 0.263684,0 z m -26.252121,1.409774 c 0,2.079712 0,4.159424 0,6.239135 -2.062409,0 -4.124818,0 -6.187228,0 0,-2.286645 0,-4.573289 0,-6.859934 2.06241,0.206934 4.124819,0.413866 6.187228,0.620799 z m 1.586257,9.500925 c 0.790095,2.869324 2.823702,5.537965 5.726301,6.482058 -0.235058,0.733617 0.438987,0.905378 0.977005,1.161208 0.32961,0.229036 1.685569,0.711535 1.347611,0.775712 -3.504082,-0.104507 -6.959418,-0.602685 -10.195685,-2.094716 -3.21456,-1.444791 -5.826893,-4.221244 -6.866163,-7.611537 3.003643,0.429092 6.007287,0.858184 9.010931,1.287275 z m 1.339181,14.851426 c 0,2.625074 10e-7,5.250147 0,7.875221 0.862337,0 1.724673,0 2.587009,0 0,-2.812629 0,-5.625257 0,-8.437885 -0.862336,0 -1.724672,0 -2.587009,0 0,0.187554 10e-7,0.375109 0,0.562664 z m 8.103609,1.212531 c -1.438281,2.875542 -2.874844,5.751944 -4.31445,8.626823 1.50623,-0.506125 3.004924,-1.206808 4.007786,-2.489507 1.313272,-1.53127 2.390089,-3.779365 1.516291,-5.776133 -0.250471,-0.313861 -0.600544,-1.403362 -0.849836,-1.082408 -0.11993,0.240408 -0.23986,0.480816 -0.359791,0.721225 z m -12.795936,7.731959 c -0.720459,0 -1.440919,0 -2.161378,0 0.143954,-1.296965 0.287907,-2.59393 0.431861,-3.890894 0.576506,1.296964 1.153011,2.593929 1.729517,3.890894 z m 19.75553,-2.180063 c -2.549751,0.561201 -5.373318,1.636678 -6.600402,4.123434 -0.431916,0.888148 -0.44832,1.893252 -0.616647,2.848617 2.788849,-2.219 5.678936,-4.31644 8.400399,-6.616299 0.796224,-0.580029 0.792864,-0.780983 -0.203595,-0.511118 -0.326585,0.05179 -0.65317,0.103572 -0.979755,0.155366 z m -16.52696,5.734605 c -0.869757,0.01336 0.06581,-0.28495 0,0 z m 10.237996,2.858998 c 0.0964,0.522328 -0.336294,1.573739 0.562664,1.293505 2.712016,-0.02681 5.444988,0.05354 8.143945,-0.04004 0.607572,-0.249169 1.629631,-0.479562 0.486136,-0.808054 -0.951893,-0.541981 -2.126289,-0.320786 -3.179406,-0.515575 -2.004441,-0.182216 -4.008933,-0.363884 -6.013339,-0.546477 0,0.205549 0,0.411098 0,0.616646 z m -1.461681,4.387119 c -0.05974,0.653918 -0.09392,1.292034 0.691762,1.423456 2.743988,1.371996 5.487977,2.743988 8.231965,4.115988 -0.517588,-1.54729 -1.201908,-3.138812 -2.589234,-4.104234 -1.807346,-1.381149 -4.104685,-1.902131 -6.334493,-2.058085 0,0.207624 0,0.41525 0,0.622875 z M 12.97298,135.17056 c 0,2.13785 0,4.27569 0,6.41354 0.551343,-0.11569 1.429817,0.24513 1.756084,-0.19841 0.781397,-1.7624 1.342124,-4.01663 0.06952,-5.69806 -0.498536,-0.6955 -1.214367,-1.18913 -1.825605,-1.77736 0,0.42009 0,0.8402 10e-7,1.26029 z" />
  </g>
</svg>
